G75*
G70*
%OFA0B0*%
%FSLAX24Y24*%
%IPPOS*%
%LPD*%
%AMOC8*
5,1,8,0,0,1.08239X$1,22.5*
%
%ADD10R,0.0794X0.0794*%
%ADD11OC8,0.0794*%
%ADD12C,0.0794*%
%ADD13C,0.0159*%
%ADD14C,0.0794*%
%ADD15OC8,0.1080*%
%ADD16C,0.1080*%
%ADD17C,0.0874*%
%ADD18OC8,0.0874*%
%ADD19OC8,0.0834*%
%ADD20C,0.1080*%
%ADD21C,0.0914*%
%ADD22C,0.0828*%
%ADD23C,0.1655*%
%ADD24C,0.1340*%
%ADD25C,0.1261*%
%ADD26C,0.0986*%
%ADD27C,0.2049*%
D10*
X027173Y018001D03*
X028173Y024126D03*
D11*
X027173Y024126D03*
X026173Y024126D03*
X025173Y024126D03*
X024173Y023126D03*
X023048Y024126D03*
X023298Y026001D03*
X026673Y025126D03*
X027298Y026001D03*
X030673Y025126D03*
X031173Y023251D03*
X029173Y023251D03*
X028173Y021126D03*
X026173Y021126D03*
X025173Y021126D03*
X024173Y021126D03*
X023048Y020126D03*
X023173Y018876D03*
X027173Y018876D03*
X027173Y015626D03*
X036173Y022626D03*
X036923Y023126D03*
X036923Y022126D03*
X038173Y022001D03*
X038173Y021001D03*
X038173Y019001D03*
X038173Y026001D03*
X011298Y023126D03*
X011298Y020126D03*
D12*
X027173Y020769D02*
X027173Y021482D01*
X031959Y024251D02*
X032673Y024251D01*
X032673Y025251D02*
X031959Y025251D01*
X035673Y025251D02*
X036387Y025251D01*
X036387Y024251D02*
X035673Y024251D01*
D13*
X023717Y024551D02*
X023637Y024631D01*
X023899Y024640D01*
X024091Y024461D01*
X024100Y024199D01*
X023921Y024007D01*
X023659Y023998D01*
X023467Y024177D01*
X023458Y024439D01*
X023637Y024631D01*
X023691Y024514D01*
X023854Y024519D01*
X023974Y024407D01*
X023979Y024244D01*
X023867Y024124D01*
X023704Y024119D01*
X023584Y024231D01*
X023579Y024394D01*
X023691Y024514D01*
X023744Y024396D01*
X023809Y024398D01*
X023856Y024354D01*
X023858Y024289D01*
X023814Y024242D01*
X023749Y024240D01*
X023702Y024284D01*
X023700Y024349D01*
X023744Y024396D01*
X022254Y025915D02*
X022174Y025995D01*
X022436Y026004D01*
X022628Y025825D01*
X022637Y025563D01*
X022458Y025371D01*
X022196Y025362D01*
X022004Y025541D01*
X021995Y025803D01*
X022174Y025995D01*
X022228Y025878D01*
X022391Y025883D01*
X022511Y025771D01*
X022516Y025608D01*
X022404Y025488D01*
X022241Y025483D01*
X022121Y025595D01*
X022116Y025758D01*
X022228Y025878D01*
X022281Y025760D01*
X022346Y025762D01*
X022393Y025718D01*
X022395Y025653D01*
X022351Y025606D01*
X022286Y025604D01*
X022239Y025648D01*
X022237Y025713D01*
X022281Y025760D01*
X023314Y017626D02*
X023394Y017546D01*
X023283Y017307D01*
X023038Y017218D01*
X022799Y017329D01*
X022710Y017574D01*
X022821Y017813D01*
X023066Y017902D01*
X023305Y017791D01*
X023394Y017546D01*
X023266Y017551D01*
X023196Y017402D01*
X023043Y017346D01*
X022894Y017416D01*
X022838Y017569D01*
X022908Y017718D01*
X023061Y017774D01*
X023210Y017704D01*
X023266Y017551D01*
X023137Y017557D01*
X023109Y017497D01*
X023049Y017475D01*
X022989Y017503D01*
X022967Y017563D01*
X022995Y017623D01*
X023055Y017645D01*
X023115Y017617D01*
X023137Y017557D01*
X019555Y016258D02*
X019635Y016178D01*
X019524Y015939D01*
X019279Y015850D01*
X019040Y015961D01*
X018951Y016206D01*
X019062Y016445D01*
X019307Y016534D01*
X019546Y016423D01*
X019635Y016178D01*
X019507Y016183D01*
X019437Y016034D01*
X019284Y015978D01*
X019135Y016048D01*
X019079Y016201D01*
X019149Y016350D01*
X019302Y016406D01*
X019451Y016336D01*
X019507Y016183D01*
X019378Y016189D01*
X019350Y016129D01*
X019290Y016107D01*
X019230Y016135D01*
X019208Y016195D01*
X019236Y016255D01*
X019296Y016277D01*
X019356Y016249D01*
X019378Y016189D01*
D14*
X024173Y018001D03*
X024423Y020001D03*
X028423Y020001D03*
X027173Y016626D03*
D15*
X038048Y016633D03*
X039665Y018251D03*
X020673Y024751D03*
X008298Y019951D03*
X008298Y014051D03*
D16*
X010548Y013001D03*
X014548Y013001D03*
X014548Y018101D03*
X010548Y018101D03*
X020673Y022751D03*
X038048Y014618D03*
X041681Y018251D03*
D17*
X043401Y020501D02*
X044195Y020501D01*
X044195Y021501D02*
X043401Y021501D01*
X043401Y022501D02*
X044195Y022501D01*
X041423Y013022D02*
X041423Y012229D01*
X039423Y012229D02*
X039423Y013022D01*
X024173Y015479D02*
X024173Y016272D01*
X023173Y016272D02*
X023173Y015479D01*
X022173Y015479D02*
X022173Y016272D01*
D18*
X019798Y015626D03*
X022173Y013001D03*
X019798Y011626D03*
X028173Y013001D03*
X008298Y012876D03*
X006548Y014876D03*
D19*
X021798Y018751D03*
X021798Y024751D03*
X032298Y021001D03*
X035298Y021001D03*
D20*
X011273Y024251D02*
X011273Y025251D01*
X009273Y025251D02*
X009273Y024251D01*
X005073Y024251D02*
X005073Y025251D01*
X003073Y025251D02*
X003073Y024251D01*
D21*
X016048Y012001D03*
X017076Y012031D03*
X017770Y015970D03*
X017770Y016906D03*
X016048Y016876D03*
X016048Y016001D03*
X016048Y020876D03*
X017076Y020845D03*
D22*
X042513Y017988D03*
X045332Y019014D03*
D23*
X006291Y020647D03*
X004322Y022419D03*
X006291Y017104D03*
X004322Y015332D03*
D24*
X004322Y016317D03*
X004322Y021435D03*
D25*
X004322Y021435D03*
X004322Y016317D03*
X030076Y015876D03*
X030076Y014301D03*
X030076Y012726D03*
X036769Y013513D03*
X036769Y015088D03*
X036769Y016663D03*
X036769Y018238D03*
X030076Y019025D03*
X030076Y017450D03*
D26*
X029548Y020626D03*
X019798Y025876D03*
D27*
X008673Y022001D03*
X003673Y012501D03*
X044798Y012501D03*
X044798Y025251D03*
M02*
