G75*
G70*
%OFA0B0*%
%FSLAX24Y24*%
%IPPOS*%
%LPD*%
%AMOC8*
5,1,8,0,0,1.08239X$1,22.5*
%
%ADD10C,0.0051*%
%ADD11C,0.0110*%
%ADD12C,0.0060*%
%ADD13C,0.0050*%
%ADD14C,0.0240*%
%ADD15R,0.0340X0.0240*%
%ADD16C,0.0040*%
%ADD17C,0.0120*%
%ADD18R,0.1000X0.0200*%
%ADD19C,0.0200*%
%ADD20R,0.0200X0.0800*%
%ADD21R,0.0250X0.0200*%
%ADD22R,0.0200X0.0150*%
%ADD23C,0.0030*%
%ADD24R,0.0740X0.0170*%
%ADD25C,0.0100*%
%ADD26R,0.4160X0.0560*%
%ADD27R,0.0240X0.0340*%
%ADD28C,0.0160*%
%ADD29C,0.0020*%
%ADD30R,0.0150X0.1600*%
%ADD31R,0.0250X0.0450*%
%ADD32R,0.0250X0.1600*%
%ADD33R,0.0500X0.0200*%
%ADD34R,0.1750X0.0200*%
%ADD35R,0.3200X0.0200*%
%ADD36R,0.0100X0.0050*%
%ADD37R,0.1250X0.0050*%
%ADD38R,0.1600X0.0200*%
%ADD39C,0.0070*%
%ADD40C,0.0300*%
%ADD41R,0.0200X0.1000*%
%ADD42R,0.0750X0.0300*%
%ADD43R,0.0300X0.0750*%
%ADD44R,0.0750X0.0200*%
%ADD45C,0.0320*%
%ADD46R,0.0220X0.0320*%
%ADD47R,0.0112X0.0200*%
%ADD48R,0.0300X0.0550*%
%ADD49R,0.0200X0.0200*%
%ADD50C,0.0200*%
%ADD51R,0.4200X0.0300*%
%ADD52R,0.0700X0.0200*%
%ADD53R,0.1300X0.0200*%
%ADD54C,0.0000*%
D10*
X001519Y000126D02*
X001519Y002413D01*
X001519Y000913D02*
X002542Y001015D01*
X002542Y001039D02*
X002542Y000787D01*
X001519Y000913D01*
X002542Y000811D01*
X002542Y000862D02*
X001519Y000913D01*
X002542Y000964D01*
X002542Y001039D02*
X001519Y000913D01*
X045644Y000913D01*
X044620Y000811D01*
X044620Y000787D02*
X045644Y000913D01*
X044620Y001015D01*
X044620Y001039D02*
X044620Y000787D01*
X044620Y000862D02*
X045644Y000913D01*
X044620Y000964D01*
X044620Y001039D02*
X045644Y000913D01*
X045644Y000126D02*
X045644Y002038D01*
X046644Y003413D02*
X048931Y003413D01*
X048144Y003413D02*
X048246Y004437D01*
X048269Y004437D02*
X048144Y003413D01*
X048041Y004437D01*
X048018Y004437D02*
X048269Y004437D01*
X048195Y004437D02*
X048144Y003413D01*
X048093Y004437D01*
X048018Y004437D02*
X048144Y003413D01*
X048144Y017913D01*
X048246Y016889D01*
X048269Y016889D02*
X048144Y017913D01*
X048041Y016889D01*
X048018Y016889D02*
X048269Y016889D01*
X048195Y016889D02*
X048144Y017913D01*
X048093Y016889D01*
X048018Y016889D02*
X048144Y017913D01*
X048931Y017913D02*
X046519Y017913D01*
D11*
X046637Y013538D02*
X046849Y013538D01*
X047060Y013326D01*
X047272Y013538D01*
X047483Y013538D01*
X047695Y013326D01*
X047695Y012903D01*
X047483Y012692D01*
X046637Y012692D02*
X046426Y012903D01*
X046426Y013326D01*
X046637Y013538D01*
X047060Y013326D02*
X047060Y013115D01*
X046849Y012269D02*
X047060Y012058D01*
X047060Y011635D01*
X046849Y011423D01*
X046637Y011423D01*
X046426Y011635D01*
X046426Y012058D01*
X046637Y012269D01*
X046849Y012269D01*
X047060Y012058D02*
X047272Y012269D01*
X047483Y012269D01*
X047695Y012058D01*
X047695Y011635D01*
X047483Y011423D01*
X047272Y011423D01*
X047060Y011635D01*
X047483Y011000D02*
X047695Y011000D01*
X047695Y010789D01*
X047483Y010789D01*
X047483Y011000D01*
X047483Y010366D02*
X047272Y010366D01*
X047060Y010154D01*
X047060Y009520D01*
X047483Y009520D01*
X047695Y009731D01*
X047695Y010154D01*
X047483Y010366D01*
X046637Y009943D02*
X047060Y009520D01*
X046637Y009943D02*
X046426Y010366D01*
X046637Y009097D02*
X046849Y009097D01*
X047060Y008886D01*
X047272Y009097D01*
X047483Y009097D01*
X047695Y008886D01*
X047695Y008463D01*
X047483Y008251D01*
X046637Y008251D02*
X046426Y008463D01*
X046426Y008886D01*
X046637Y009097D01*
X047060Y008886D02*
X047060Y008674D01*
X027117Y002419D02*
X027117Y002208D01*
X026905Y001996D01*
X026482Y001996D01*
X026271Y002208D01*
X026271Y002419D01*
X026482Y002631D01*
X026905Y002631D01*
X027117Y002419D01*
X026905Y001996D02*
X027117Y001785D01*
X027117Y001573D01*
X026905Y001362D01*
X026482Y001362D01*
X026271Y001573D01*
X026271Y001785D01*
X026482Y001996D01*
X025848Y001573D02*
X025637Y001362D01*
X025214Y001362D01*
X025002Y001573D01*
X025848Y002419D01*
X025848Y001573D01*
X025002Y001573D02*
X025002Y002419D01*
X025214Y002631D01*
X025637Y002631D01*
X025848Y002419D01*
X023945Y002419D02*
X023945Y002208D01*
X023099Y001362D01*
X023945Y001362D01*
X024368Y001362D02*
X024368Y001573D01*
X024579Y001573D01*
X024579Y001362D01*
X024368Y001362D01*
X022676Y001362D02*
X021830Y001362D01*
X021407Y001362D02*
X020561Y001362D01*
X020984Y001362D02*
X020984Y002631D01*
X020561Y002208D01*
X021830Y002208D02*
X022253Y002631D01*
X022253Y001362D01*
X023099Y002419D02*
X023310Y002631D01*
X023733Y002631D01*
X023945Y002419D01*
D12*
X025556Y003912D02*
X025900Y003851D01*
X025901Y003852D02*
X025918Y003850D01*
X025935Y003852D01*
X025952Y003856D01*
X025968Y003863D01*
X025982Y003873D01*
X025995Y003886D01*
X026005Y003900D01*
X026012Y003916D01*
X026016Y003933D01*
X026016Y003932D02*
X026112Y004474D01*
X026198Y004966D01*
X026294Y005508D01*
X026293Y005508D02*
X026295Y005525D01*
X026293Y005542D01*
X026289Y005559D01*
X026282Y005575D01*
X026272Y005589D01*
X026259Y005602D01*
X026245Y005612D01*
X026229Y005619D01*
X026212Y005623D01*
X026213Y005624D02*
X025868Y005685D01*
X025810Y005644D01*
X021772Y006356D01*
X021732Y006414D01*
X021387Y006475D01*
X021387Y006474D02*
X021370Y006476D01*
X021353Y006474D01*
X021336Y006470D01*
X021320Y006463D01*
X021306Y006453D01*
X021293Y006440D01*
X021283Y006426D01*
X021276Y006410D01*
X021272Y006393D01*
X021271Y006394D02*
X021176Y005852D01*
X021089Y005360D01*
X020994Y004818D01*
X020992Y004801D01*
X020994Y004784D01*
X020998Y004767D01*
X021005Y004751D01*
X021015Y004737D01*
X021028Y004724D01*
X021042Y004714D01*
X021058Y004707D01*
X021075Y004703D01*
X021075Y004702D02*
X021419Y004641D01*
X021477Y004682D01*
X025515Y003970D01*
X025556Y003912D01*
X019944Y003700D02*
X019944Y008500D01*
X019942Y008526D01*
X019937Y008552D01*
X019929Y008577D01*
X019917Y008600D01*
X019903Y008622D01*
X019885Y008641D01*
X019866Y008659D01*
X019844Y008673D01*
X019821Y008685D01*
X019796Y008693D01*
X019770Y008698D01*
X019744Y008700D01*
X018544Y008700D01*
X018518Y008698D01*
X018492Y008693D01*
X018467Y008685D01*
X018444Y008673D01*
X018422Y008659D01*
X018403Y008641D01*
X018385Y008622D01*
X018371Y008600D01*
X018359Y008577D01*
X018351Y008552D01*
X018346Y008526D01*
X018344Y008500D01*
X018344Y003700D01*
X018346Y003674D01*
X018351Y003648D01*
X018359Y003623D01*
X018371Y003600D01*
X018385Y003578D01*
X018403Y003559D01*
X018422Y003541D01*
X018444Y003527D01*
X018467Y003515D01*
X018492Y003507D01*
X018518Y003502D01*
X018544Y003500D01*
X019744Y003500D01*
X019770Y003502D01*
X019796Y003507D01*
X019821Y003515D01*
X019844Y003527D01*
X019866Y003541D01*
X019885Y003559D01*
X019903Y003578D01*
X019917Y003600D01*
X019929Y003623D01*
X019937Y003648D01*
X019942Y003674D01*
X019944Y003700D01*
X019144Y004600D02*
X019144Y004850D01*
X019144Y005200D02*
X019144Y007600D01*
X017900Y007364D02*
X016915Y007538D01*
X016637Y005962D01*
X017622Y005788D01*
X017900Y007364D01*
X017373Y007254D02*
X017269Y006663D01*
X017515Y006620D01*
X017269Y006663D02*
X017022Y006706D01*
X017269Y006663D02*
X017225Y006417D01*
X017269Y006663D02*
X017092Y007100D01*
X017584Y007014D01*
X017269Y006663D01*
X015894Y006963D02*
X014894Y006963D01*
X014894Y005363D01*
X015894Y005363D01*
X015894Y006963D01*
X015394Y006413D02*
X015394Y006163D01*
X015144Y006163D01*
X015394Y006163D02*
X015644Y006163D01*
X015394Y006163D02*
X015644Y005763D01*
X015144Y005763D01*
X015394Y006163D01*
X015394Y005563D01*
X008844Y005438D02*
X008844Y012138D01*
X008842Y012164D01*
X008837Y012190D01*
X008829Y012215D01*
X008817Y012238D01*
X008803Y012260D01*
X008785Y012279D01*
X008766Y012297D01*
X008744Y012311D01*
X008721Y012323D01*
X008696Y012331D01*
X008670Y012336D01*
X008644Y012338D01*
X006644Y012338D01*
X006618Y012336D01*
X006592Y012331D01*
X006567Y012323D01*
X006544Y012311D01*
X006522Y012297D01*
X006503Y012279D01*
X006485Y012260D01*
X006471Y012238D01*
X006459Y012215D01*
X006451Y012190D01*
X006446Y012164D01*
X006444Y012138D01*
X006444Y005438D01*
X006446Y005412D01*
X006451Y005386D01*
X006459Y005361D01*
X006471Y005338D01*
X006485Y005316D01*
X006503Y005297D01*
X006522Y005279D01*
X006544Y005265D01*
X006567Y005253D01*
X006592Y005245D01*
X006618Y005240D01*
X006644Y005238D01*
X008644Y005238D01*
X008670Y005240D01*
X008696Y005245D01*
X008721Y005253D01*
X008744Y005265D01*
X008766Y005279D01*
X008785Y005297D01*
X008803Y005316D01*
X008817Y005338D01*
X008829Y005361D01*
X008837Y005386D01*
X008842Y005412D01*
X008844Y005438D01*
X008144Y004913D02*
X007894Y005163D01*
X007394Y005163D01*
X007144Y004913D01*
X007144Y004413D01*
X007394Y004163D01*
X007894Y004163D01*
X008144Y004413D01*
X008144Y004913D01*
X006394Y006413D02*
X006144Y006163D01*
X005644Y006163D01*
X005394Y006413D01*
X005394Y006913D01*
X005644Y007163D01*
X006144Y007163D01*
X006394Y006913D01*
X006394Y006413D01*
X007644Y006388D02*
X007644Y010438D01*
X007644Y010788D02*
X007644Y011188D01*
X010644Y012338D02*
X010644Y012538D01*
X011144Y012538D01*
X011144Y014538D01*
X010644Y014538D01*
X010144Y014538D01*
X010144Y012538D01*
X010644Y012538D01*
X015012Y010864D02*
X015290Y009288D01*
X016275Y009462D01*
X015997Y011038D01*
X015012Y010864D01*
X015540Y010754D02*
X015644Y010163D01*
X015890Y010206D01*
X015644Y010163D02*
X015687Y009917D01*
X015644Y010163D02*
X015397Y010120D01*
X015644Y010163D02*
X015328Y010514D01*
X015820Y010600D01*
X015644Y010163D01*
X017500Y010833D02*
X017644Y011038D01*
X017787Y011243D01*
X017644Y011038D02*
X018115Y011013D01*
X017828Y010604D01*
X017644Y011038D01*
X018135Y010694D01*
X018586Y010989D02*
X017275Y011906D01*
X016702Y011087D01*
X018012Y010170D01*
X018586Y010989D01*
X017644Y011038D02*
X017439Y011181D01*
X020344Y011688D02*
X020344Y011938D01*
X020394Y011988D01*
X020394Y015088D01*
X020344Y015138D01*
X020344Y015388D01*
X020346Y015411D01*
X020351Y015434D01*
X020360Y015456D01*
X020373Y015476D01*
X020388Y015494D01*
X020406Y015509D01*
X020426Y015522D01*
X020448Y015531D01*
X020471Y015536D01*
X020494Y015538D01*
X021794Y015538D01*
X021817Y015536D01*
X021840Y015531D01*
X021862Y015522D01*
X021882Y015509D01*
X021900Y015494D01*
X021915Y015476D01*
X021928Y015456D01*
X021937Y015434D01*
X021942Y015411D01*
X021944Y015388D01*
X021944Y015138D01*
X021894Y015088D01*
X021894Y011988D01*
X021944Y011938D01*
X021944Y011688D01*
X021942Y011665D01*
X021937Y011642D01*
X021928Y011620D01*
X021915Y011600D01*
X021900Y011582D01*
X021882Y011567D01*
X021862Y011554D01*
X021840Y011545D01*
X021817Y011540D01*
X021794Y011538D01*
X020494Y011538D01*
X020471Y011540D01*
X020448Y011545D01*
X020426Y011554D01*
X020406Y011567D01*
X020388Y011582D01*
X020373Y011600D01*
X020360Y011620D01*
X020351Y011642D01*
X020346Y011665D01*
X020344Y011688D01*
X023019Y012313D02*
X023019Y015013D01*
X023021Y015030D01*
X023025Y015047D01*
X023032Y015063D01*
X023042Y015077D01*
X023055Y015090D01*
X023069Y015100D01*
X023085Y015107D01*
X023102Y015111D01*
X023119Y015113D01*
X023919Y015113D01*
X023936Y015111D01*
X023953Y015107D01*
X023969Y015100D01*
X023983Y015090D01*
X023996Y015077D01*
X024006Y015063D01*
X024013Y015047D01*
X024017Y015030D01*
X024019Y015013D01*
X024019Y012313D01*
X024017Y012296D01*
X024013Y012279D01*
X024006Y012263D01*
X023996Y012249D01*
X023983Y012236D01*
X023969Y012226D01*
X023953Y012219D01*
X023936Y012215D01*
X023919Y012213D01*
X023119Y012213D01*
X023102Y012215D01*
X023085Y012219D01*
X023069Y012226D01*
X023055Y012236D01*
X023042Y012249D01*
X023032Y012263D01*
X023025Y012279D01*
X023021Y012296D01*
X023019Y012313D01*
X022744Y012663D02*
X022044Y012663D01*
X022027Y012665D01*
X022010Y012669D01*
X021994Y012676D01*
X021980Y012686D01*
X021967Y012699D01*
X021957Y012713D01*
X021950Y012729D01*
X021946Y012746D01*
X021944Y012763D01*
X021944Y012913D01*
X021994Y012963D01*
X021994Y014863D01*
X021944Y014913D01*
X021944Y015063D01*
X021946Y015080D01*
X021950Y015097D01*
X021957Y015113D01*
X021967Y015127D01*
X021980Y015140D01*
X021994Y015150D01*
X022010Y015157D01*
X022027Y015161D01*
X022044Y015163D01*
X022744Y015163D01*
X022761Y015161D01*
X022778Y015157D01*
X022794Y015150D01*
X022808Y015140D01*
X022821Y015127D01*
X022831Y015113D01*
X022838Y015097D01*
X022842Y015080D01*
X022844Y015063D01*
X022844Y014913D01*
X022794Y014863D01*
X022794Y012963D01*
X022844Y012913D01*
X022844Y012763D01*
X022842Y012746D01*
X022838Y012729D01*
X022831Y012713D01*
X022821Y012699D01*
X022808Y012686D01*
X022794Y012676D01*
X022778Y012669D01*
X022761Y012665D01*
X022744Y012663D01*
X023519Y013063D02*
X023519Y013533D01*
X023519Y013783D02*
X023519Y014263D01*
X023431Y015257D02*
X023977Y015842D01*
X023988Y015856D01*
X023996Y015871D01*
X024001Y015888D01*
X024004Y015905D01*
X024003Y015922D01*
X024000Y015939D01*
X023993Y015955D01*
X023984Y015970D01*
X023972Y015983D01*
X021997Y017824D01*
X021983Y017835D01*
X021968Y017843D01*
X021951Y017848D01*
X021934Y017851D01*
X021917Y017850D01*
X021900Y017847D01*
X021884Y017840D01*
X021869Y017831D01*
X021856Y017819D01*
X021310Y017234D01*
X021311Y017234D02*
X021300Y017220D01*
X021292Y017205D01*
X021287Y017188D01*
X021284Y017171D01*
X021285Y017154D01*
X021288Y017137D01*
X021295Y017121D01*
X021304Y017106D01*
X021316Y017093D01*
X021315Y017093D02*
X023290Y015252D01*
X023304Y015241D01*
X023319Y015233D01*
X023336Y015228D01*
X023353Y015225D01*
X023370Y015226D01*
X023387Y015229D01*
X023403Y015236D01*
X023418Y015245D01*
X023431Y015257D01*
X024019Y015313D02*
X024019Y013013D01*
X028019Y013013D01*
X028019Y013763D01*
X027980Y013765D01*
X027941Y013771D01*
X027903Y013780D01*
X027866Y013793D01*
X027830Y013810D01*
X027797Y013830D01*
X027765Y013854D01*
X027736Y013880D01*
X027710Y013909D01*
X027686Y013941D01*
X027666Y013974D01*
X027649Y014010D01*
X027636Y014047D01*
X027627Y014085D01*
X027621Y014124D01*
X027619Y014163D01*
X027621Y014202D01*
X027627Y014241D01*
X027636Y014279D01*
X027649Y014316D01*
X027666Y014352D01*
X027686Y014385D01*
X027710Y014417D01*
X027736Y014446D01*
X027765Y014472D01*
X027797Y014496D01*
X027830Y014516D01*
X027866Y014533D01*
X027903Y014546D01*
X027941Y014555D01*
X027980Y014561D01*
X028019Y014563D01*
X028019Y015313D01*
X024019Y015313D01*
X023083Y016129D02*
X022731Y016456D01*
X022549Y016627D02*
X022205Y016947D01*
X023394Y016938D02*
X023394Y017638D01*
X023396Y017655D01*
X023400Y017672D01*
X023407Y017688D01*
X023417Y017702D01*
X023430Y017715D01*
X023444Y017725D01*
X023460Y017732D01*
X023477Y017736D01*
X023494Y017738D01*
X023644Y017738D01*
X023694Y017688D01*
X025594Y017688D01*
X025644Y017738D01*
X025794Y017738D01*
X025811Y017736D01*
X025828Y017732D01*
X025844Y017725D01*
X025858Y017715D01*
X025871Y017702D01*
X025881Y017688D01*
X025888Y017672D01*
X025892Y017655D01*
X025894Y017638D01*
X025894Y016938D01*
X025892Y016921D01*
X025888Y016904D01*
X025881Y016888D01*
X025871Y016874D01*
X025858Y016861D01*
X025844Y016851D01*
X025828Y016844D01*
X025811Y016840D01*
X025794Y016838D01*
X025644Y016838D01*
X025594Y016888D01*
X023694Y016888D01*
X023644Y016838D01*
X023494Y016838D01*
X023477Y016840D01*
X023460Y016844D01*
X023444Y016851D01*
X023430Y016861D01*
X023417Y016874D01*
X023407Y016888D01*
X023400Y016904D01*
X023396Y016921D01*
X023394Y016938D01*
X026769Y016888D02*
X026769Y016188D01*
X026771Y016171D01*
X026775Y016154D01*
X026782Y016138D01*
X026792Y016124D01*
X026805Y016111D01*
X026819Y016101D01*
X026835Y016094D01*
X026852Y016090D01*
X026869Y016088D01*
X027019Y016088D01*
X027069Y016138D01*
X028969Y016138D01*
X029019Y016088D01*
X029169Y016088D01*
X029186Y016090D01*
X029203Y016094D01*
X029219Y016101D01*
X029233Y016111D01*
X029246Y016124D01*
X029256Y016138D01*
X029263Y016154D01*
X029267Y016171D01*
X029269Y016188D01*
X029269Y016888D01*
X029267Y016905D01*
X029263Y016922D01*
X029256Y016938D01*
X029246Y016952D01*
X029233Y016965D01*
X029219Y016975D01*
X029203Y016982D01*
X029186Y016986D01*
X029169Y016988D01*
X029019Y016988D01*
X028969Y016938D01*
X027069Y016938D01*
X027019Y016988D01*
X026869Y016988D01*
X026852Y016986D01*
X026835Y016982D01*
X026819Y016975D01*
X026805Y016965D01*
X026792Y016952D01*
X026782Y016938D01*
X026775Y016922D01*
X026771Y016905D01*
X026769Y016888D01*
X028169Y015538D02*
X030869Y015538D01*
X030886Y015536D01*
X030903Y015532D01*
X030919Y015525D01*
X030933Y015515D01*
X030946Y015502D01*
X030956Y015488D01*
X030963Y015472D01*
X030967Y015455D01*
X030969Y015438D01*
X030969Y014638D01*
X030967Y014621D01*
X030963Y014604D01*
X030956Y014588D01*
X030946Y014574D01*
X030933Y014561D01*
X030919Y014551D01*
X030903Y014544D01*
X030886Y014540D01*
X030869Y014538D01*
X028169Y014538D01*
X028152Y014540D01*
X028135Y014544D01*
X028119Y014551D01*
X028105Y014561D01*
X028092Y014574D01*
X028082Y014588D01*
X028075Y014604D01*
X028071Y014621D01*
X028069Y014638D01*
X028069Y015438D01*
X028071Y015455D01*
X028075Y015472D01*
X028082Y015488D01*
X028092Y015502D01*
X028105Y015515D01*
X028119Y015525D01*
X028135Y015532D01*
X028152Y015536D01*
X028169Y015538D01*
X028919Y015038D02*
X029389Y015038D01*
X029639Y015038D02*
X030119Y015038D01*
X032369Y015288D02*
X033119Y015288D01*
X033121Y015327D01*
X033127Y015366D01*
X033136Y015404D01*
X033149Y015441D01*
X033166Y015477D01*
X033186Y015510D01*
X033210Y015542D01*
X033236Y015571D01*
X033265Y015597D01*
X033297Y015621D01*
X033330Y015641D01*
X033366Y015658D01*
X033403Y015671D01*
X033441Y015680D01*
X033480Y015686D01*
X033519Y015688D01*
X033558Y015686D01*
X033597Y015680D01*
X033635Y015671D01*
X033672Y015658D01*
X033708Y015641D01*
X033741Y015621D01*
X033773Y015597D01*
X033802Y015571D01*
X033828Y015542D01*
X033852Y015510D01*
X033872Y015477D01*
X033889Y015441D01*
X033902Y015404D01*
X033911Y015366D01*
X033917Y015327D01*
X033919Y015288D01*
X034669Y015288D01*
X034669Y017288D01*
X032369Y017288D01*
X032369Y015288D01*
X035744Y015208D02*
X035744Y015050D01*
X036244Y015038D02*
X036244Y014888D01*
X036246Y014871D01*
X036250Y014854D01*
X036257Y014838D01*
X036267Y014824D01*
X036280Y014811D01*
X036294Y014801D01*
X036310Y014794D01*
X036327Y014790D01*
X036344Y014788D01*
X036944Y014788D01*
X036961Y014790D01*
X036978Y014794D01*
X036994Y014801D01*
X037008Y014811D01*
X037021Y014824D01*
X037031Y014838D01*
X037038Y014854D01*
X037042Y014871D01*
X037044Y014888D01*
X037044Y015038D01*
X036994Y015088D01*
X036994Y016488D01*
X037044Y016538D01*
X037044Y016688D01*
X037042Y016705D01*
X037038Y016722D01*
X037031Y016738D01*
X037021Y016752D01*
X037008Y016765D01*
X036994Y016775D01*
X036978Y016782D01*
X036961Y016786D01*
X036944Y016788D01*
X036344Y016788D01*
X036327Y016786D01*
X036310Y016782D01*
X036294Y016775D01*
X036280Y016765D01*
X036267Y016752D01*
X036257Y016738D01*
X036250Y016722D01*
X036246Y016705D01*
X036244Y016688D01*
X036244Y016538D01*
X036294Y016488D01*
X036294Y015088D01*
X036244Y015038D01*
X036294Y014988D02*
X036294Y013338D01*
X035744Y013276D02*
X035744Y013118D01*
X035144Y013288D02*
X035144Y012288D01*
X035142Y012271D01*
X035138Y012254D01*
X035131Y012238D01*
X035121Y012224D01*
X035108Y012211D01*
X035094Y012201D01*
X035078Y012194D01*
X035061Y012190D01*
X035044Y012188D01*
X031244Y012188D01*
X031227Y012190D01*
X031210Y012194D01*
X031194Y012201D01*
X031180Y012211D01*
X031167Y012224D01*
X031157Y012238D01*
X031150Y012254D01*
X031146Y012271D01*
X031144Y012288D01*
X031144Y013288D01*
X031146Y013305D01*
X031150Y013322D01*
X031157Y013338D01*
X031167Y013352D01*
X031180Y013365D01*
X031194Y013375D01*
X031210Y013382D01*
X031227Y013386D01*
X031244Y013388D01*
X035044Y013388D01*
X035061Y013386D01*
X035078Y013382D01*
X035094Y013375D01*
X035108Y013365D01*
X035121Y013352D01*
X035131Y013338D01*
X035138Y013322D01*
X035142Y013305D01*
X035144Y013288D01*
X034144Y012788D02*
X033344Y012788D01*
X032944Y012788D02*
X032144Y012788D01*
X034641Y013853D02*
X034624Y013914D01*
X034611Y013975D01*
X034602Y014038D01*
X034596Y014100D01*
X034594Y014163D01*
X034596Y014226D01*
X034602Y014288D01*
X034611Y014351D01*
X034624Y014412D01*
X034641Y014473D01*
X034661Y014533D01*
X034685Y014592D01*
X034713Y014649D01*
X034744Y014704D01*
X034779Y014758D01*
X034816Y014809D01*
X034857Y014858D01*
X034901Y014904D01*
X034947Y014948D01*
X034996Y014989D01*
X035047Y015027D01*
X035100Y015061D01*
X035156Y015093D01*
X035213Y015120D01*
X035272Y015145D01*
X035332Y015165D01*
X035393Y015183D01*
X035455Y015196D01*
X035518Y015205D01*
X035581Y015211D01*
X035645Y015213D01*
X035709Y015211D01*
X035772Y015205D01*
X035835Y015196D01*
X035897Y015182D01*
X035958Y015165D01*
X036018Y015144D01*
X036077Y015120D01*
X036134Y015092D01*
X036190Y015060D01*
X036243Y015025D01*
X036294Y014988D01*
X037644Y014918D02*
X037644Y015388D01*
X037644Y014668D02*
X037644Y014188D01*
X038144Y013438D02*
X038142Y013421D01*
X038138Y013404D01*
X038131Y013388D01*
X038121Y013374D01*
X038108Y013361D01*
X038094Y013351D01*
X038078Y013344D01*
X038061Y013340D01*
X038044Y013338D01*
X037244Y013338D01*
X037227Y013340D01*
X037210Y013344D01*
X037194Y013351D01*
X037180Y013361D01*
X037167Y013374D01*
X037157Y013388D01*
X037150Y013404D01*
X037146Y013421D01*
X037144Y013438D01*
X037144Y016138D01*
X037146Y016155D01*
X037150Y016172D01*
X037157Y016188D01*
X037167Y016202D01*
X037180Y016215D01*
X037194Y016225D01*
X037210Y016232D01*
X037227Y016236D01*
X037244Y016238D01*
X038044Y016238D01*
X038061Y016236D01*
X038078Y016232D01*
X038094Y016225D01*
X038108Y016215D01*
X038121Y016202D01*
X038131Y016188D01*
X038138Y016172D01*
X038142Y016155D01*
X038144Y016138D01*
X038144Y013438D01*
X039769Y014163D02*
X040019Y013913D01*
X040519Y013913D01*
X040769Y014163D01*
X041019Y013913D01*
X041519Y013913D01*
X041769Y014163D01*
X042019Y013913D01*
X042519Y013913D01*
X042769Y014163D01*
X042769Y014663D01*
X042519Y014913D01*
X042019Y014913D01*
X041769Y014663D01*
X041519Y014913D01*
X041019Y014913D01*
X040769Y014663D01*
X040519Y014913D01*
X040019Y014913D01*
X039769Y014663D01*
X039769Y014163D01*
X036294Y013338D02*
X036243Y013301D01*
X036190Y013266D01*
X036134Y013234D01*
X036077Y013206D01*
X036018Y013182D01*
X035958Y013161D01*
X035897Y013144D01*
X035835Y013130D01*
X035772Y013121D01*
X035709Y013115D01*
X035645Y013113D01*
X035581Y013115D01*
X035518Y013121D01*
X035455Y013130D01*
X035393Y013143D01*
X035332Y013161D01*
X035272Y013181D01*
X035213Y013206D01*
X035156Y013234D01*
X035100Y013265D01*
X035047Y013299D01*
X034996Y013337D01*
X034947Y013378D01*
X034901Y013422D01*
X034857Y013468D01*
X034816Y013517D01*
X034779Y013568D01*
X034744Y013622D01*
X034713Y013677D01*
X034685Y013734D01*
X034661Y013793D01*
X034641Y013853D01*
X039218Y016439D02*
X039670Y015987D01*
X039684Y015976D01*
X039699Y015967D01*
X039715Y015961D01*
X039732Y015958D01*
X039750Y015958D01*
X039767Y015961D01*
X039783Y015967D01*
X039798Y015976D01*
X039812Y015987D01*
X039918Y016093D01*
X039918Y016164D01*
X040393Y016639D01*
X040463Y016639D01*
X040569Y016745D01*
X040570Y016745D02*
X040581Y016759D01*
X040590Y016774D01*
X040596Y016790D01*
X040599Y016807D01*
X040599Y016825D01*
X040596Y016842D01*
X040590Y016858D01*
X040581Y016873D01*
X040570Y016887D01*
X040569Y016887D02*
X040117Y017339D01*
X040118Y017339D02*
X040104Y017350D01*
X040089Y017359D01*
X040073Y017365D01*
X040056Y017368D01*
X040038Y017368D01*
X040021Y017365D01*
X040005Y017359D01*
X039990Y017350D01*
X039976Y017339D01*
X039870Y017233D01*
X039870Y017162D01*
X039395Y016687D01*
X039324Y016687D01*
X039218Y016581D01*
X039207Y016567D01*
X039198Y016552D01*
X039192Y016536D01*
X039189Y016519D01*
X039189Y016501D01*
X039192Y016484D01*
X039198Y016468D01*
X039207Y016453D01*
X039218Y016439D01*
X026569Y011938D02*
X024969Y011938D01*
X024952Y011936D01*
X024935Y011932D01*
X024919Y011925D01*
X024905Y011915D01*
X024892Y011902D01*
X024882Y011888D01*
X024875Y011872D01*
X024871Y011855D01*
X024869Y011838D01*
X024869Y011238D01*
X024871Y011221D01*
X024875Y011204D01*
X024882Y011188D01*
X024892Y011174D01*
X024905Y011161D01*
X024919Y011151D01*
X024935Y011144D01*
X024952Y011140D01*
X024969Y011138D01*
X026569Y011138D01*
X026586Y011140D01*
X026603Y011144D01*
X026619Y011151D01*
X026633Y011161D01*
X026646Y011174D01*
X026656Y011188D01*
X026663Y011204D01*
X026667Y011221D01*
X026669Y011238D01*
X026669Y011838D01*
X026667Y011855D01*
X026663Y011872D01*
X026656Y011888D01*
X026646Y011902D01*
X026633Y011915D01*
X026619Y011925D01*
X026603Y011932D01*
X026586Y011936D01*
X026569Y011938D01*
X026019Y011538D02*
X025769Y011538D01*
X025769Y011288D01*
X025669Y011288D01*
X025669Y011113D02*
X025519Y011113D01*
X025469Y011063D01*
X023569Y011063D01*
X023519Y011113D01*
X023369Y011113D01*
X023352Y011111D01*
X023335Y011107D01*
X023319Y011100D01*
X023305Y011090D01*
X023292Y011077D01*
X023282Y011063D01*
X023275Y011047D01*
X023271Y011030D01*
X023269Y011013D01*
X023269Y010313D01*
X023271Y010296D01*
X023275Y010279D01*
X023282Y010263D01*
X023292Y010249D01*
X023305Y010236D01*
X023319Y010226D01*
X023335Y010219D01*
X023352Y010215D01*
X023369Y010213D01*
X023519Y010213D01*
X023569Y010263D01*
X025469Y010263D01*
X025519Y010213D01*
X025669Y010213D01*
X025686Y010215D01*
X025703Y010219D01*
X025719Y010226D01*
X025733Y010236D01*
X025746Y010249D01*
X025756Y010263D01*
X025763Y010279D01*
X025767Y010296D01*
X025769Y010313D01*
X025769Y011013D01*
X025767Y011030D01*
X025763Y011047D01*
X025756Y011063D01*
X025746Y011077D01*
X025733Y011090D01*
X025719Y011100D01*
X025703Y011107D01*
X025686Y011111D01*
X025669Y011113D01*
X025369Y011288D02*
X025769Y011538D01*
X025769Y011788D01*
X025769Y011538D02*
X025169Y011538D01*
X025369Y011788D02*
X025769Y011538D01*
X025369Y011288D02*
X025369Y011788D01*
X025819Y010188D02*
X024219Y010188D01*
X024202Y010186D01*
X024185Y010182D01*
X024169Y010175D01*
X024155Y010165D01*
X024142Y010152D01*
X024132Y010138D01*
X024125Y010122D01*
X024121Y010105D01*
X024119Y010088D01*
X024119Y009488D01*
X024121Y009471D01*
X024125Y009454D01*
X024132Y009438D01*
X024142Y009424D01*
X024155Y009411D01*
X024169Y009401D01*
X024185Y009394D01*
X024202Y009390D01*
X024219Y009388D01*
X025819Y009388D01*
X025836Y009390D01*
X025853Y009394D01*
X025869Y009401D01*
X025883Y009411D01*
X025896Y009424D01*
X025906Y009438D01*
X025913Y009454D01*
X025917Y009471D01*
X025919Y009488D01*
X025919Y010088D01*
X025917Y010105D01*
X025913Y010122D01*
X025906Y010138D01*
X025896Y010152D01*
X025883Y010165D01*
X025869Y010175D01*
X025853Y010182D01*
X025836Y010186D01*
X025819Y010188D01*
X025269Y009788D02*
X025019Y009788D01*
X025019Y009538D01*
X025019Y009788D02*
X025019Y010038D01*
X025019Y009788D02*
X024619Y009538D01*
X024619Y010038D01*
X025019Y009788D01*
X024419Y009788D01*
X026519Y008813D02*
X026519Y008463D01*
X027019Y008463D01*
X027019Y008263D01*
X026019Y008263D01*
X026019Y008463D01*
X026519Y008463D01*
X027019Y008663D02*
X027019Y008813D01*
X027169Y008813D01*
X027019Y008813D02*
X026869Y008813D01*
X027019Y008813D02*
X027019Y008963D01*
X025419Y008163D02*
X025421Y008229D01*
X025427Y008294D01*
X025437Y008359D01*
X025450Y008424D01*
X025468Y008487D01*
X025489Y008550D01*
X025514Y008610D01*
X025543Y008670D01*
X025575Y008727D01*
X025610Y008783D01*
X025649Y008836D01*
X025691Y008887D01*
X025735Y008935D01*
X025783Y008980D01*
X025833Y009023D01*
X025886Y009062D01*
X025941Y009099D01*
X025998Y009132D01*
X026057Y009161D01*
X026117Y009187D01*
X026179Y009209D01*
X026242Y009228D01*
X026306Y009242D01*
X026371Y009253D01*
X026437Y009260D01*
X026503Y009263D01*
X026568Y009262D01*
X026634Y009257D01*
X026699Y009248D01*
X026764Y009235D01*
X026827Y009219D01*
X026890Y009199D01*
X026951Y009174D01*
X027011Y009147D01*
X027069Y009116D01*
X027125Y009081D01*
X027179Y009043D01*
X027230Y009002D01*
X027279Y008958D01*
X027325Y008911D01*
X027369Y008862D01*
X027409Y008810D01*
X027446Y008755D01*
X027480Y008699D01*
X027510Y008640D01*
X027537Y008580D01*
X027560Y008519D01*
X027579Y008456D01*
X027595Y008392D01*
X027607Y008327D01*
X027615Y008262D01*
X027619Y008196D01*
X027619Y008130D01*
X027615Y008064D01*
X027607Y007999D01*
X027595Y007934D01*
X027579Y007870D01*
X027560Y007807D01*
X027537Y007746D01*
X027510Y007686D01*
X027480Y007627D01*
X027446Y007571D01*
X027409Y007516D01*
X027369Y007464D01*
X027325Y007415D01*
X027279Y007368D01*
X027230Y007324D01*
X027179Y007283D01*
X027125Y007245D01*
X027069Y007210D01*
X027011Y007179D01*
X026951Y007152D01*
X026890Y007127D01*
X026827Y007107D01*
X026764Y007091D01*
X026699Y007078D01*
X026634Y007069D01*
X026568Y007064D01*
X026503Y007063D01*
X026437Y007066D01*
X026371Y007073D01*
X026306Y007084D01*
X026242Y007098D01*
X026179Y007117D01*
X026117Y007139D01*
X026057Y007165D01*
X025998Y007194D01*
X025941Y007227D01*
X025886Y007264D01*
X025833Y007303D01*
X025783Y007346D01*
X025735Y007391D01*
X025691Y007439D01*
X025649Y007490D01*
X025610Y007543D01*
X025575Y007599D01*
X025543Y007656D01*
X025514Y007716D01*
X025489Y007776D01*
X025468Y007839D01*
X025450Y007902D01*
X025437Y007967D01*
X025427Y008032D01*
X025421Y008097D01*
X025419Y008163D01*
X026519Y007913D02*
X026519Y007513D01*
X022030Y008939D02*
X021824Y009503D01*
X021817Y009519D01*
X021807Y009533D01*
X021794Y009546D01*
X021780Y009556D01*
X021764Y009563D01*
X021747Y009567D01*
X021730Y009569D01*
X021713Y009567D01*
X021696Y009563D01*
X021696Y009562D02*
X020193Y009015D01*
X020175Y009006D01*
X020159Y008995D01*
X020146Y008980D01*
X020136Y008963D01*
X020130Y008945D01*
X020127Y008925D01*
X020128Y008906D01*
X020133Y008887D01*
X020338Y008323D01*
X020345Y008307D01*
X020355Y008293D01*
X020368Y008280D01*
X020382Y008270D01*
X020398Y008263D01*
X020415Y008259D01*
X020432Y008257D01*
X020449Y008259D01*
X020466Y008263D01*
X021970Y008811D01*
X021986Y008818D01*
X022000Y008828D01*
X022013Y008841D01*
X022023Y008855D01*
X022030Y008871D01*
X022034Y008888D01*
X022036Y008905D01*
X022034Y008922D01*
X022030Y008939D01*
X021645Y009118D02*
X021081Y008913D01*
X021167Y008678D01*
X021081Y008913D02*
X020996Y009148D01*
X021081Y008913D02*
X021372Y009285D01*
X021543Y008815D01*
X021081Y008913D01*
X020846Y008827D01*
X018469Y014241D02*
X018469Y014541D01*
X018319Y014391D02*
X018619Y014391D01*
X018869Y014591D02*
X018869Y014891D01*
X018519Y014891D01*
X018519Y015021D01*
X019219Y015021D01*
X019219Y014891D01*
X018869Y014891D01*
X018869Y015291D02*
X018869Y015591D01*
X010869Y015613D02*
X010869Y014963D01*
X010619Y014963D01*
X010619Y015063D01*
X010619Y015413D01*
X008869Y015413D01*
X008869Y014963D01*
X010619Y014963D01*
X010619Y015063D02*
X010769Y015063D01*
X010769Y015613D01*
X010769Y016913D01*
X010769Y017213D01*
X010769Y017763D01*
X010619Y017763D01*
X010619Y017413D01*
X008869Y017413D01*
X008869Y017863D01*
X010619Y017863D01*
X010869Y017863D01*
X010869Y017213D01*
X010869Y016913D01*
X010869Y015613D01*
X010644Y014738D02*
X010644Y014538D01*
X008619Y016413D02*
X007819Y016413D01*
X005219Y016413D01*
X004419Y016413D01*
X004169Y015413D02*
X002419Y015413D01*
X002419Y015063D01*
X002269Y015063D01*
X002269Y015613D01*
X002269Y015913D01*
X002269Y017213D01*
X002269Y017763D01*
X002419Y017763D01*
X002419Y017413D01*
X004169Y017413D01*
X004169Y017863D01*
X002419Y017863D01*
X002169Y017863D01*
X002169Y017213D01*
X002169Y015913D01*
X002269Y015913D01*
X002169Y015913D02*
X002169Y015613D01*
X002169Y014963D01*
X002419Y014963D01*
X004169Y014963D01*
X004169Y015413D01*
X002419Y015063D02*
X002419Y014963D01*
X002419Y017763D02*
X002419Y017863D01*
X010619Y017863D02*
X010619Y017763D01*
X010769Y016913D02*
X010869Y016913D01*
X037819Y005263D02*
X037919Y005363D01*
X041619Y005363D01*
X041719Y005263D01*
X041769Y004113D01*
X037769Y004113D02*
X037819Y005263D01*
D13*
X037394Y005569D02*
X045661Y005569D01*
X045661Y009506D01*
X037394Y009506D01*
X037394Y005569D01*
X038627Y005768D02*
X038702Y005693D01*
X038852Y005693D01*
X038927Y005768D01*
X038927Y005843D01*
X038852Y005918D01*
X038777Y005918D01*
X038852Y005918D02*
X038927Y005993D01*
X038927Y006068D01*
X038852Y006143D01*
X038702Y006143D01*
X038627Y006068D01*
X039088Y006143D02*
X039088Y005843D01*
X039238Y005693D01*
X039388Y005843D01*
X039388Y006143D01*
X039548Y006143D02*
X039773Y006143D01*
X039848Y006068D01*
X039848Y005768D01*
X039773Y005693D01*
X039548Y005693D01*
X039548Y006143D01*
X040008Y006068D02*
X040083Y006143D01*
X040233Y006143D01*
X040309Y006068D01*
X040309Y005993D01*
X040008Y005693D01*
X040309Y005693D01*
X040429Y007893D02*
X040579Y007893D01*
X040654Y007968D01*
X040814Y007893D02*
X041115Y008193D01*
X041115Y008268D01*
X041040Y008343D01*
X040890Y008343D01*
X040814Y008268D01*
X040654Y008268D02*
X040579Y008343D01*
X040429Y008343D01*
X040354Y008268D01*
X040354Y007968D01*
X040429Y007893D01*
X040194Y007968D02*
X040194Y008043D01*
X040119Y008118D01*
X040044Y008118D01*
X040119Y008118D02*
X040194Y008193D01*
X040194Y008268D01*
X040119Y008343D01*
X039969Y008343D01*
X039894Y008268D01*
X039894Y007968D02*
X039969Y007893D01*
X040119Y007893D01*
X040194Y007968D01*
X040814Y007893D02*
X041115Y007893D01*
X037394Y009569D02*
X045661Y009569D01*
X045661Y013506D01*
X037394Y013506D01*
X037394Y009569D01*
X040299Y011913D02*
X040374Y011838D01*
X040524Y011838D01*
X040599Y011913D01*
X040599Y011988D01*
X040524Y012063D01*
X040449Y012063D01*
X040524Y012063D02*
X040599Y012138D01*
X040599Y012213D01*
X040524Y012288D01*
X040374Y012288D01*
X040299Y012213D01*
X040759Y012213D02*
X040759Y011913D01*
X040834Y011838D01*
X040984Y011838D01*
X041059Y011913D01*
X041219Y011913D02*
X041295Y011838D01*
X041445Y011838D01*
X041520Y011913D01*
X041520Y011988D01*
X041445Y012063D01*
X041370Y012063D01*
X041445Y012063D02*
X041520Y012138D01*
X041520Y012213D01*
X041445Y012288D01*
X041295Y012288D01*
X041219Y012213D01*
X041059Y012213D02*
X040984Y012288D01*
X040834Y012288D01*
X040759Y012213D01*
X037099Y012244D02*
X037099Y003582D01*
X028438Y003582D01*
X028438Y012244D01*
X037099Y012244D01*
X039294Y014188D02*
X039594Y014188D01*
X039444Y014188D02*
X039444Y014638D01*
X039294Y014488D01*
X039265Y014963D02*
X039265Y015413D01*
X039114Y015263D01*
X038954Y015338D02*
X038879Y015413D01*
X038729Y015413D01*
X038654Y015338D01*
X038654Y015038D01*
X038729Y014963D01*
X038879Y014963D01*
X038954Y015038D01*
X039114Y014963D02*
X039415Y014963D01*
X039575Y015038D02*
X039650Y014963D01*
X039800Y014963D01*
X039875Y015038D01*
X039875Y015338D01*
X039575Y015038D01*
X039575Y015338D01*
X039650Y015413D01*
X039800Y015413D01*
X039875Y015338D01*
X038494Y015338D02*
X038419Y015413D01*
X038269Y015413D01*
X038194Y015338D01*
X038494Y015338D02*
X038494Y015263D01*
X038194Y014963D01*
X038494Y014963D01*
X040663Y016113D02*
X040738Y016038D01*
X040888Y016038D01*
X040963Y016113D01*
X040963Y016188D01*
X040888Y016263D01*
X040738Y016263D01*
X040663Y016338D01*
X040663Y016413D01*
X040738Y016488D01*
X040888Y016488D01*
X040963Y016413D01*
X041123Y016488D02*
X041123Y016188D01*
X041273Y016038D01*
X041423Y016188D01*
X041423Y016488D01*
X041583Y016413D02*
X041658Y016488D01*
X041808Y016488D01*
X041884Y016413D01*
X041884Y016338D01*
X041583Y016038D01*
X041884Y016038D01*
X034384Y014688D02*
X034083Y014688D01*
X034233Y014688D02*
X034233Y015138D01*
X034083Y014988D01*
X033923Y014988D02*
X033923Y014688D01*
X033923Y014913D02*
X033623Y014913D01*
X033623Y014988D02*
X033623Y014688D01*
X033463Y014763D02*
X033463Y015063D01*
X033388Y015138D01*
X033163Y015138D01*
X033163Y014688D01*
X033388Y014688D01*
X033463Y014763D01*
X033002Y014688D02*
X032702Y014688D01*
X033002Y014988D01*
X033002Y015063D01*
X032927Y015138D01*
X032777Y015138D01*
X032702Y015063D01*
X033623Y014988D02*
X033773Y015138D01*
X033923Y014988D01*
X032050Y014013D02*
X032050Y013563D01*
X031900Y013563D02*
X032200Y013563D01*
X031900Y013863D02*
X032050Y014013D01*
X031590Y014013D02*
X031439Y013863D01*
X031279Y013938D02*
X031204Y014013D01*
X031054Y014013D01*
X030979Y013938D01*
X030979Y013638D01*
X031054Y013563D01*
X031204Y013563D01*
X031279Y013638D01*
X031439Y013563D02*
X031740Y013563D01*
X031590Y013563D02*
X031590Y014013D01*
X030819Y013938D02*
X030819Y013863D01*
X030519Y013563D01*
X030819Y013563D01*
X030819Y013938D02*
X030744Y014013D01*
X030594Y014013D01*
X030519Y013938D01*
X030373Y012888D02*
X030148Y012888D01*
X030148Y012438D01*
X030373Y012438D01*
X030448Y012513D01*
X030448Y012813D01*
X030373Y012888D01*
X030608Y012663D02*
X030909Y012663D01*
X030833Y012438D02*
X030833Y012888D01*
X030608Y012663D01*
X029988Y012588D02*
X029988Y012888D01*
X029688Y012888D02*
X029688Y012588D01*
X029838Y012438D01*
X029988Y012588D01*
X029527Y012438D02*
X029227Y012438D01*
X029527Y012738D01*
X029527Y012813D01*
X029452Y012888D01*
X029302Y012888D01*
X029227Y012813D01*
X025415Y014163D02*
X025415Y014313D01*
X025340Y014388D01*
X025265Y014388D01*
X025114Y014313D01*
X025114Y014538D01*
X025415Y014538D01*
X024954Y014463D02*
X024879Y014538D01*
X024729Y014538D01*
X024654Y014463D01*
X024654Y014163D01*
X024729Y014088D01*
X024879Y014088D01*
X024954Y014163D01*
X025114Y014163D02*
X025190Y014088D01*
X025340Y014088D01*
X025415Y014163D01*
X024494Y014088D02*
X024194Y014088D01*
X024494Y014388D01*
X024494Y014463D01*
X024419Y014538D01*
X024269Y014538D01*
X024194Y014463D01*
X026019Y014663D02*
X026319Y014663D01*
X026169Y014663D02*
X026169Y015113D01*
X026019Y014963D01*
X026479Y015113D02*
X026479Y014663D01*
X026704Y014663D01*
X026779Y014738D01*
X026779Y015038D01*
X026704Y015113D01*
X026479Y015113D01*
X026939Y014963D02*
X027090Y015113D01*
X027240Y014963D01*
X027240Y014663D01*
X027400Y014663D02*
X027700Y014663D01*
X027550Y014663D02*
X027550Y015113D01*
X027400Y014963D01*
X027240Y014888D02*
X026939Y014888D01*
X026939Y014963D02*
X026939Y014663D01*
X028217Y015753D02*
X028517Y016053D01*
X028517Y016128D01*
X028442Y016204D01*
X028292Y016204D01*
X028217Y016128D01*
X028677Y016128D02*
X028677Y015828D01*
X028752Y015753D01*
X028902Y015753D01*
X028977Y015828D01*
X029138Y015978D02*
X029438Y015978D01*
X029363Y015753D02*
X029363Y016204D01*
X029138Y015978D01*
X028977Y016128D02*
X028902Y016204D01*
X028752Y016204D01*
X028677Y016128D01*
X028517Y015753D02*
X028217Y015753D01*
X025250Y016327D02*
X025198Y016272D01*
X024774Y016257D01*
X024723Y016202D01*
X024657Y016366D02*
X024551Y016363D01*
X024441Y016465D01*
X024437Y016571D01*
X024642Y016791D01*
X024748Y016795D01*
X024858Y016692D01*
X024862Y016586D01*
X025030Y016532D02*
X025250Y016327D01*
X024269Y016626D02*
X024049Y016830D01*
X024474Y016845D01*
X024525Y016900D01*
X024521Y017006D01*
X024411Y017109D01*
X024305Y017105D01*
X020019Y017847D02*
X011357Y017847D01*
X011357Y012729D01*
X020019Y012729D01*
X020019Y017847D01*
X013127Y017448D02*
X013127Y017373D01*
X012827Y017073D01*
X012827Y016997D01*
X012667Y017073D02*
X012591Y016997D01*
X012441Y016997D01*
X012366Y017073D01*
X012366Y017373D01*
X012441Y017448D01*
X012591Y017448D01*
X012667Y017373D01*
X012827Y017448D02*
X013127Y017448D01*
X012206Y016997D02*
X011906Y016997D01*
X012056Y016997D02*
X012056Y017448D01*
X011906Y017298D01*
X009910Y014124D02*
X009910Y013824D01*
X009910Y013974D02*
X009460Y013974D01*
X009610Y013824D01*
X009685Y013663D02*
X009685Y013363D01*
X009910Y013363D02*
X009460Y013363D01*
X009460Y013203D02*
X009460Y012903D01*
X009460Y013053D02*
X009910Y013053D01*
X009910Y012743D02*
X009910Y012442D01*
X009910Y012593D02*
X009460Y012593D01*
X009610Y012442D01*
X008941Y011797D02*
X014846Y011797D01*
X014846Y003529D01*
X008941Y003529D01*
X008941Y011797D01*
X009460Y013663D02*
X009910Y013663D01*
X005637Y014206D02*
X005637Y007120D01*
X002094Y007120D01*
X002094Y006332D01*
X001503Y006332D01*
X001503Y007120D01*
X000912Y007120D01*
X000912Y006332D01*
X000125Y006332D01*
X000125Y014994D01*
X000912Y014994D01*
X000912Y014206D01*
X001503Y014206D01*
X001503Y014994D01*
X002094Y014994D01*
X002094Y014206D01*
X005637Y014206D01*
X003808Y011020D02*
X003808Y010569D01*
X003658Y010569D02*
X003958Y010569D01*
X003498Y010720D02*
X003498Y011020D01*
X003658Y010870D02*
X003808Y011020D01*
X003198Y011020D02*
X003198Y010720D01*
X003348Y010569D01*
X003498Y010720D01*
X003038Y010720D02*
X002963Y010795D01*
X002812Y010795D01*
X002737Y010870D01*
X002737Y010945D01*
X002812Y011020D01*
X002963Y011020D01*
X003038Y010945D01*
X003038Y010720D02*
X003038Y010645D01*
X002963Y010569D01*
X002812Y010569D01*
X002737Y010645D01*
X006543Y008484D02*
X006543Y008334D01*
X006618Y008259D01*
X006618Y008099D02*
X006543Y008024D01*
X006543Y007873D01*
X006618Y007798D01*
X006919Y007798D01*
X006994Y007873D01*
X006994Y008024D01*
X006919Y008099D01*
X006994Y008259D02*
X006693Y008559D01*
X006618Y008559D01*
X006543Y008484D01*
X006994Y008559D02*
X006994Y008259D01*
X006994Y007638D02*
X006994Y007338D01*
X006994Y007488D02*
X006543Y007488D01*
X006693Y007338D01*
X005274Y006783D02*
X005199Y006858D01*
X005049Y006858D01*
X004974Y006783D01*
X004814Y006783D02*
X004739Y006858D01*
X004589Y006858D01*
X004514Y006783D01*
X004514Y006708D01*
X004589Y006633D01*
X004739Y006633D01*
X004814Y006558D01*
X004814Y006483D01*
X004739Y006408D01*
X004589Y006408D01*
X004514Y006483D01*
X004974Y006408D02*
X005274Y006708D01*
X005274Y006783D01*
X005274Y006408D02*
X004974Y006408D01*
X006339Y004858D02*
X006264Y004783D01*
X006264Y004708D01*
X006339Y004633D01*
X006489Y004633D01*
X006564Y004558D01*
X006564Y004483D01*
X006489Y004408D01*
X006339Y004408D01*
X006264Y004483D01*
X006724Y004408D02*
X007024Y004408D01*
X006874Y004408D02*
X006874Y004858D01*
X006724Y004708D01*
X006564Y004783D02*
X006489Y004858D01*
X006339Y004858D01*
X014268Y004784D02*
X014268Y004559D01*
X014719Y004559D01*
X014719Y004784D01*
X014644Y004859D01*
X014343Y004859D01*
X014268Y004784D01*
X014343Y005019D02*
X014268Y005094D01*
X014268Y005244D01*
X014343Y005319D01*
X014418Y005319D01*
X014719Y005019D01*
X014719Y005319D01*
X016479Y006016D02*
X016531Y006312D01*
X016505Y006164D02*
X016061Y006242D01*
X016183Y006068D01*
X016115Y006548D02*
X016411Y006496D01*
X016585Y006617D01*
X016463Y006791D01*
X016167Y006843D01*
X016195Y007001D02*
X016234Y007223D01*
X016321Y007284D01*
X016617Y007232D01*
X016678Y007145D01*
X016639Y006923D01*
X016195Y007001D01*
X016497Y007415D02*
X016549Y007711D01*
X016758Y007598D02*
X016314Y007676D01*
X016497Y007415D01*
X016455Y009464D02*
X016403Y009760D01*
X016429Y009612D02*
X016873Y009691D01*
X016699Y009812D01*
X016745Y009983D02*
X016449Y009931D01*
X016362Y009992D01*
X016323Y010214D01*
X016767Y010292D01*
X016806Y010070D01*
X016745Y009983D01*
X016739Y010449D02*
X016443Y010397D01*
X016269Y010519D01*
X016391Y010693D01*
X016687Y010745D01*
X016215Y010825D02*
X016163Y011120D01*
X016189Y010973D02*
X016633Y011051D01*
X016459Y011172D01*
X018356Y011991D02*
X018565Y012028D01*
X018737Y012274D01*
X018868Y012182D02*
X019053Y012053D01*
X019071Y011948D01*
X018899Y011702D01*
X018794Y011684D01*
X018610Y011813D01*
X018868Y012182D01*
X018491Y012446D02*
X018319Y012200D01*
X018356Y011991D01*
X018101Y012169D02*
X017855Y012341D01*
X017978Y012255D02*
X018237Y012624D01*
X018028Y012587D01*
X019202Y011856D02*
X019307Y011875D01*
X019430Y011789D01*
X019448Y011684D01*
X019405Y011623D01*
X019301Y011604D01*
X019319Y011500D01*
X019276Y011438D01*
X019171Y011420D01*
X019048Y011506D01*
X019030Y011610D01*
X019239Y011647D02*
X019301Y011604D01*
X020625Y011598D02*
X020700Y011523D01*
X020625Y011598D02*
X020625Y011749D01*
X020700Y011824D01*
X020775Y011824D01*
X021075Y011523D01*
X021075Y011824D01*
X021075Y011984D02*
X020625Y011984D01*
X020625Y012209D01*
X020700Y012284D01*
X020850Y012284D01*
X020925Y012209D01*
X020925Y011984D01*
X020925Y012134D02*
X021075Y012284D01*
X021075Y012444D02*
X021075Y012744D01*
X021075Y012594D02*
X020625Y012594D01*
X020775Y012444D01*
X020775Y012904D02*
X020625Y013055D01*
X021075Y013055D01*
X021075Y013205D02*
X021075Y012904D01*
X021268Y012871D02*
X021268Y013022D01*
X021343Y013097D01*
X021418Y013097D01*
X021719Y012796D01*
X021719Y013097D01*
X021719Y013257D02*
X021268Y013257D01*
X021268Y013482D01*
X021343Y013557D01*
X021494Y013557D01*
X021569Y013482D01*
X021569Y013257D01*
X021569Y013407D02*
X021719Y013557D01*
X021719Y013717D02*
X021719Y014017D01*
X021719Y013867D02*
X021268Y013867D01*
X021418Y013717D01*
X021343Y014178D02*
X021268Y014253D01*
X021268Y014403D01*
X021343Y014478D01*
X021644Y014178D01*
X021719Y014253D01*
X021719Y014403D01*
X021644Y014478D01*
X021343Y014478D01*
X021343Y014178D02*
X021644Y014178D01*
X021268Y012871D02*
X021343Y012796D01*
X020463Y010471D02*
X020322Y010420D01*
X020277Y010323D01*
X020127Y010269D02*
X020031Y010314D01*
X019819Y010237D01*
X019973Y009813D01*
X020185Y009890D01*
X020230Y009987D01*
X020127Y010269D01*
X020463Y010471D02*
X020560Y010426D01*
X020585Y010356D01*
X020406Y009971D01*
X020688Y010074D01*
X019771Y009900D02*
X019682Y009707D01*
X019489Y009797D01*
X019386Y010079D01*
X019262Y009954D02*
X019165Y009999D01*
X019024Y009947D01*
X018980Y009851D01*
X019262Y009954D02*
X019287Y009883D01*
X019108Y009498D01*
X019390Y009601D01*
X019771Y009900D02*
X019669Y010182D01*
X022941Y009248D02*
X023016Y009323D01*
X023166Y009323D01*
X023241Y009248D01*
X023241Y009173D01*
X022941Y008873D01*
X023241Y008873D01*
X023401Y009023D02*
X023551Y008873D01*
X023701Y009023D01*
X023701Y009323D01*
X023861Y009323D02*
X024087Y009323D01*
X024162Y009248D01*
X024162Y008948D01*
X024087Y008873D01*
X023861Y008873D01*
X023861Y009323D01*
X023401Y009323D02*
X023401Y009023D01*
X024322Y008948D02*
X024397Y008873D01*
X024547Y008873D01*
X024622Y008948D01*
X024622Y009023D01*
X024547Y009098D01*
X024472Y009098D01*
X024547Y009098D02*
X024622Y009173D01*
X024622Y009248D01*
X024547Y009323D01*
X024397Y009323D01*
X024322Y009248D01*
X024556Y007386D02*
X024481Y007311D01*
X024556Y007386D02*
X024706Y007386D01*
X024781Y007311D01*
X024781Y007236D01*
X024481Y006935D01*
X024781Y006935D01*
X024942Y007010D02*
X025017Y006935D01*
X025167Y006935D01*
X025242Y007010D01*
X025402Y007010D02*
X025477Y006935D01*
X025627Y006935D01*
X025702Y007010D01*
X025702Y007085D01*
X025627Y007160D01*
X025552Y007160D01*
X025627Y007160D02*
X025702Y007236D01*
X025702Y007311D01*
X025627Y007386D01*
X025477Y007386D01*
X025402Y007311D01*
X025242Y007311D02*
X025167Y007386D01*
X025017Y007386D01*
X024942Y007311D01*
X024942Y007010D01*
X024676Y005669D02*
X024529Y005695D01*
X024442Y005634D01*
X024676Y005669D02*
X024737Y005582D01*
X024724Y005508D01*
X024376Y005264D01*
X024672Y005212D01*
X024830Y005184D02*
X024908Y005628D01*
X025130Y005589D01*
X025191Y005502D01*
X025165Y005354D01*
X025078Y005293D01*
X024856Y005332D01*
X025004Y005306D02*
X025126Y005132D01*
X025296Y005178D02*
X025357Y005091D01*
X025505Y005065D01*
X025592Y005126D01*
X025605Y005200D01*
X025544Y005287D01*
X025470Y005300D01*
X025544Y005287D02*
X025631Y005348D01*
X025644Y005422D01*
X025583Y005509D01*
X025435Y005535D01*
X025348Y005474D01*
X021146Y004571D02*
X021146Y004496D01*
X020846Y004196D01*
X021146Y004196D01*
X020686Y004271D02*
X020611Y004196D01*
X020461Y004196D01*
X020386Y004271D01*
X020386Y004571D01*
X020461Y004646D01*
X020611Y004646D01*
X020686Y004571D01*
X020846Y004571D02*
X020921Y004646D01*
X021071Y004646D01*
X021146Y004571D01*
X020226Y004571D02*
X020226Y004496D01*
X019925Y004196D01*
X020226Y004196D01*
X020226Y004571D02*
X020150Y004646D01*
X020000Y004646D01*
X019925Y004571D01*
X014719Y004249D02*
X014569Y004399D01*
X014268Y004399D01*
X014569Y004098D02*
X014719Y004249D01*
X014569Y004098D02*
X014268Y004098D01*
X014719Y003938D02*
X014719Y003638D01*
X014719Y003788D02*
X014268Y003788D01*
X014418Y003638D01*
X031627Y017288D02*
X031927Y017288D01*
X031777Y017288D02*
X031777Y017738D01*
X031627Y017588D01*
X032088Y017438D02*
X032313Y017438D01*
X032388Y017513D01*
X032388Y017663D01*
X032313Y017738D01*
X032088Y017738D01*
X032088Y017288D01*
X032548Y017363D02*
X032623Y017288D01*
X032773Y017288D01*
X032848Y017363D01*
X033008Y017288D02*
X033309Y017288D01*
X033158Y017288D02*
X033158Y017738D01*
X033008Y017588D01*
X032848Y017663D02*
X032773Y017738D01*
X032623Y017738D01*
X032548Y017663D01*
X032548Y017363D01*
D14*
X030019Y016538D02*
X029619Y016538D01*
X026644Y017288D02*
X026244Y017288D01*
X026419Y016538D02*
X026019Y016538D01*
X023044Y017288D02*
X022644Y017288D01*
X022394Y015913D02*
X022394Y015513D01*
X022394Y012313D02*
X022394Y011913D01*
X022519Y010663D02*
X022919Y010663D01*
X026119Y010663D02*
X026519Y010663D01*
D15*
X025939Y010663D03*
X023099Y010663D03*
X026599Y016538D03*
X026064Y017288D03*
X023224Y017288D03*
X029439Y016538D03*
D16*
X028760Y017260D02*
X028684Y017183D01*
X028530Y017183D01*
X028453Y017260D01*
X028453Y017413D02*
X028607Y017490D01*
X028684Y017490D01*
X028760Y017413D01*
X028760Y017260D01*
X028453Y017413D02*
X028453Y017643D01*
X028760Y017643D01*
X028300Y017567D02*
X028300Y017413D01*
X028223Y017336D01*
X027993Y017336D01*
X027993Y017183D02*
X027993Y017643D01*
X028223Y017643D01*
X028300Y017567D01*
X027839Y017567D02*
X027839Y017490D01*
X027533Y017183D01*
X027839Y017183D01*
X028146Y017336D02*
X028300Y017183D01*
X027839Y017567D02*
X027763Y017643D01*
X027609Y017643D01*
X027533Y017567D01*
X024490Y017418D02*
X024490Y017360D01*
X024257Y017126D01*
X024257Y017068D01*
X024131Y017068D02*
X024015Y017185D01*
X024073Y017185D02*
X023898Y017185D01*
X023898Y017068D02*
X023898Y017418D01*
X024073Y017418D01*
X024131Y017360D01*
X024131Y017243D01*
X024073Y017185D01*
X024257Y017418D02*
X024490Y017418D01*
X023772Y017360D02*
X023772Y017302D01*
X023539Y017068D01*
X023772Y017068D01*
X023772Y017360D02*
X023714Y017418D01*
X023597Y017418D01*
X023539Y017360D01*
X037518Y017422D02*
X037576Y017481D01*
X037693Y017481D01*
X037751Y017422D01*
X037751Y017364D01*
X037518Y017130D01*
X037751Y017130D01*
X037877Y017130D02*
X037877Y017481D01*
X038052Y017481D01*
X038110Y017422D01*
X038110Y017305D01*
X038052Y017247D01*
X037877Y017247D01*
X037993Y017247D02*
X038110Y017130D01*
X038236Y017130D02*
X038469Y017130D01*
X038353Y017130D02*
X038353Y017481D01*
X038236Y017364D01*
X038595Y017422D02*
X038653Y017481D01*
X038770Y017481D01*
X038828Y017422D01*
X038828Y017364D01*
X038770Y017305D01*
X038828Y017247D01*
X038828Y017189D01*
X038770Y017130D01*
X038653Y017130D01*
X038595Y017189D01*
X038712Y017305D02*
X038770Y017305D01*
X038926Y017076D02*
X039174Y016828D01*
X039339Y016993D01*
X039428Y017082D02*
X039428Y017413D01*
X039387Y017454D01*
X039304Y017454D01*
X039222Y017371D01*
X039222Y017289D01*
X039428Y017082D02*
X039593Y017247D01*
X039044Y016781D02*
X039003Y016822D01*
X038920Y016822D01*
X038879Y016781D01*
X038920Y016822D02*
X038920Y016905D01*
X038879Y016946D01*
X038796Y016946D01*
X038714Y016863D01*
X038714Y016781D01*
X038879Y016616D02*
X038962Y016616D01*
X039044Y016698D01*
X039044Y016781D01*
X024297Y010670D02*
X024239Y010728D01*
X024122Y010728D01*
X024063Y010670D01*
X024063Y010611D01*
X024122Y010553D01*
X024297Y010553D01*
X024297Y010436D02*
X024297Y010670D01*
X024297Y010436D02*
X024239Y010378D01*
X024122Y010378D01*
X024063Y010436D01*
X023938Y010378D02*
X023821Y010494D01*
X023880Y010494D02*
X023704Y010494D01*
X023704Y010378D02*
X023704Y010728D01*
X023880Y010728D01*
X023938Y010670D01*
X023938Y010553D01*
X023880Y010494D01*
X023579Y010378D02*
X023345Y010378D01*
X023579Y010611D01*
X023579Y010670D01*
X023520Y010728D01*
X023404Y010728D01*
X023345Y010670D01*
X032467Y009199D02*
X032774Y009199D01*
X032620Y009199D02*
X032620Y008739D01*
X032927Y008739D02*
X033234Y008739D01*
X033081Y008739D02*
X033081Y009199D01*
X032927Y009046D01*
X022813Y005635D02*
X022813Y005174D01*
X022966Y005174D02*
X022659Y005174D01*
X022352Y005174D02*
X022352Y005635D01*
X022199Y005635D02*
X022506Y005635D01*
X022659Y005481D02*
X022813Y005635D01*
X022045Y005635D02*
X022045Y005328D01*
X021892Y005174D01*
X021738Y005328D01*
X021738Y005635D01*
X021585Y005558D02*
X021508Y005635D01*
X021355Y005635D01*
X021278Y005558D01*
X021585Y005558D02*
X021585Y005481D01*
X021278Y005174D01*
X021585Y005174D01*
X012135Y009183D02*
X011828Y009183D01*
X011675Y009183D02*
X011368Y009183D01*
X011368Y009643D01*
X011061Y009643D02*
X010908Y009490D01*
X011061Y009643D02*
X011061Y009183D01*
X010908Y009183D02*
X011214Y009183D01*
X011828Y009490D02*
X011982Y009643D01*
X011982Y009183D01*
D17*
X011894Y008663D02*
X011896Y008619D01*
X011902Y008576D01*
X011911Y008534D01*
X011924Y008492D01*
X011941Y008452D01*
X011961Y008413D01*
X011984Y008376D01*
X012011Y008342D01*
X012040Y008309D01*
X012073Y008280D01*
X012107Y008253D01*
X012144Y008230D01*
X012183Y008210D01*
X012223Y008193D01*
X012265Y008180D01*
X012307Y008171D01*
X012350Y008165D01*
X012394Y008163D01*
X012438Y008165D01*
X012481Y008171D01*
X012523Y008180D01*
X012565Y008193D01*
X012605Y008210D01*
X012644Y008230D01*
X012681Y008253D01*
X012715Y008280D01*
X012748Y008309D01*
X012777Y008342D01*
X012804Y008376D01*
X012827Y008413D01*
X012847Y008452D01*
X012864Y008492D01*
X012877Y008534D01*
X012886Y008576D01*
X012892Y008619D01*
X012894Y008663D01*
X012896Y008619D01*
X012902Y008576D01*
X012911Y008534D01*
X012924Y008492D01*
X012941Y008452D01*
X012961Y008413D01*
X012984Y008376D01*
X013011Y008342D01*
X013040Y008309D01*
X013073Y008280D01*
X013107Y008253D01*
X013144Y008230D01*
X013183Y008210D01*
X013223Y008193D01*
X013265Y008180D01*
X013307Y008171D01*
X013350Y008165D01*
X013394Y008163D01*
X013438Y008165D01*
X013481Y008171D01*
X013523Y008180D01*
X013565Y008193D01*
X013605Y008210D01*
X013644Y008230D01*
X013681Y008253D01*
X013715Y008280D01*
X013748Y008309D01*
X013777Y008342D01*
X013804Y008376D01*
X013827Y008413D01*
X013847Y008452D01*
X013864Y008492D01*
X013877Y008534D01*
X013886Y008576D01*
X013892Y008619D01*
X013894Y008663D01*
X013894Y009663D01*
X011894Y008663D02*
X011892Y008619D01*
X011886Y008576D01*
X011877Y008534D01*
X011864Y008492D01*
X011847Y008452D01*
X011827Y008413D01*
X011804Y008376D01*
X011777Y008342D01*
X011748Y008309D01*
X011715Y008280D01*
X011681Y008253D01*
X011644Y008230D01*
X011605Y008210D01*
X011565Y008193D01*
X011523Y008180D01*
X011481Y008171D01*
X011438Y008165D01*
X011394Y008163D01*
X011350Y008165D01*
X011307Y008171D01*
X011265Y008180D01*
X011223Y008193D01*
X011183Y008210D01*
X011144Y008230D01*
X011107Y008253D01*
X011073Y008280D01*
X011040Y008309D01*
X011011Y008342D01*
X010984Y008376D01*
X010961Y008413D01*
X010941Y008452D01*
X010924Y008492D01*
X010911Y008534D01*
X010902Y008576D01*
X010896Y008619D01*
X010894Y008663D01*
X010892Y008619D01*
X010886Y008576D01*
X010877Y008534D01*
X010864Y008492D01*
X010847Y008452D01*
X010827Y008413D01*
X010804Y008376D01*
X010777Y008342D01*
X010748Y008309D01*
X010715Y008280D01*
X010681Y008253D01*
X010644Y008230D01*
X010605Y008210D01*
X010565Y008193D01*
X010523Y008180D01*
X010481Y008171D01*
X010438Y008165D01*
X010394Y008163D01*
X010350Y008165D01*
X010307Y008171D01*
X010265Y008180D01*
X010223Y008193D01*
X010183Y008210D01*
X010144Y008230D01*
X010107Y008253D01*
X010073Y008280D01*
X010040Y008309D01*
X010011Y008342D01*
X009984Y008376D01*
X009961Y008413D01*
X009941Y008452D01*
X009924Y008492D01*
X009911Y008534D01*
X009902Y008576D01*
X009896Y008619D01*
X009894Y008663D01*
X009894Y009663D01*
X009894Y007663D02*
X013894Y007663D01*
X013894Y006663D02*
X013894Y005663D01*
X013894Y006663D02*
X013892Y006707D01*
X013886Y006750D01*
X013877Y006792D01*
X013864Y006834D01*
X013847Y006874D01*
X013827Y006913D01*
X013804Y006950D01*
X013777Y006984D01*
X013748Y007017D01*
X013715Y007046D01*
X013681Y007073D01*
X013644Y007096D01*
X013605Y007116D01*
X013565Y007133D01*
X013523Y007146D01*
X013481Y007155D01*
X013438Y007161D01*
X013394Y007163D01*
X013350Y007161D01*
X013307Y007155D01*
X013265Y007146D01*
X013223Y007133D01*
X013183Y007116D01*
X013144Y007096D01*
X013107Y007073D01*
X013073Y007046D01*
X013040Y007017D01*
X013011Y006984D01*
X012984Y006950D01*
X012961Y006913D01*
X012941Y006874D01*
X012924Y006834D01*
X012911Y006792D01*
X012902Y006750D01*
X012896Y006707D01*
X012894Y006663D01*
X012892Y006707D01*
X012886Y006750D01*
X012877Y006792D01*
X012864Y006834D01*
X012847Y006874D01*
X012827Y006913D01*
X012804Y006950D01*
X012777Y006984D01*
X012748Y007017D01*
X012715Y007046D01*
X012681Y007073D01*
X012644Y007096D01*
X012605Y007116D01*
X012565Y007133D01*
X012523Y007146D01*
X012481Y007155D01*
X012438Y007161D01*
X012394Y007163D01*
X012350Y007161D01*
X012307Y007155D01*
X012265Y007146D01*
X012223Y007133D01*
X012183Y007116D01*
X012144Y007096D01*
X012107Y007073D01*
X012073Y007046D01*
X012040Y007017D01*
X012011Y006984D01*
X011984Y006950D01*
X011961Y006913D01*
X011941Y006874D01*
X011924Y006834D01*
X011911Y006792D01*
X011902Y006750D01*
X011896Y006707D01*
X011894Y006663D01*
X011892Y006707D01*
X011886Y006750D01*
X011877Y006792D01*
X011864Y006834D01*
X011847Y006874D01*
X011827Y006913D01*
X011804Y006950D01*
X011777Y006984D01*
X011748Y007017D01*
X011715Y007046D01*
X011681Y007073D01*
X011644Y007096D01*
X011605Y007116D01*
X011565Y007133D01*
X011523Y007146D01*
X011481Y007155D01*
X011438Y007161D01*
X011394Y007163D01*
X011350Y007161D01*
X011307Y007155D01*
X011265Y007146D01*
X011223Y007133D01*
X011183Y007116D01*
X011144Y007096D01*
X011107Y007073D01*
X011073Y007046D01*
X011040Y007017D01*
X011011Y006984D01*
X010984Y006950D01*
X010961Y006913D01*
X010941Y006874D01*
X010924Y006834D01*
X010911Y006792D01*
X010902Y006750D01*
X010896Y006707D01*
X010894Y006663D01*
X010892Y006707D01*
X010886Y006750D01*
X010877Y006792D01*
X010864Y006834D01*
X010847Y006874D01*
X010827Y006913D01*
X010804Y006950D01*
X010777Y006984D01*
X010748Y007017D01*
X010715Y007046D01*
X010681Y007073D01*
X010644Y007096D01*
X010605Y007116D01*
X010565Y007133D01*
X010523Y007146D01*
X010481Y007155D01*
X010438Y007161D01*
X010394Y007163D01*
X010350Y007161D01*
X010307Y007155D01*
X010265Y007146D01*
X010223Y007133D01*
X010183Y007116D01*
X010144Y007096D01*
X010107Y007073D01*
X010073Y007046D01*
X010040Y007017D01*
X010011Y006984D01*
X009984Y006950D01*
X009961Y006913D01*
X009941Y006874D01*
X009924Y006834D01*
X009911Y006792D01*
X009902Y006750D01*
X009896Y006707D01*
X009894Y006663D01*
X009894Y005663D01*
X023269Y013533D02*
X023519Y013533D01*
X023769Y013533D01*
X023769Y013783D02*
X023519Y013783D01*
X023269Y013783D01*
X029389Y014788D02*
X029389Y015038D01*
X029389Y015288D01*
X029639Y015288D02*
X029639Y015038D01*
X029639Y014788D01*
X022902Y016639D02*
X022731Y016456D01*
X022561Y016273D01*
X022378Y016444D02*
X022549Y016627D01*
X022719Y016809D01*
X037394Y014918D02*
X037644Y014918D01*
X037894Y014918D01*
X037894Y014668D02*
X037644Y014668D01*
X037394Y014668D01*
D18*
X026519Y007963D03*
X015394Y006713D03*
D19*
X019672Y008400D02*
X020001Y008520D01*
X022162Y009306D02*
X022491Y009426D01*
X023519Y009788D02*
X023869Y009788D01*
X026169Y009788D02*
X026519Y009788D01*
X027419Y011538D02*
X027769Y011538D01*
X024119Y011538D02*
X023769Y011538D01*
X036644Y014288D02*
X036644Y014638D01*
X039187Y015956D02*
X039363Y016133D01*
X040424Y017193D02*
X040601Y017370D01*
X036644Y017288D02*
X036644Y016938D01*
D20*
X026419Y011538D03*
X025669Y009788D03*
G36*
X020700Y008350D02*
X020512Y008281D01*
X020240Y009032D01*
X020428Y009101D01*
X020700Y008350D01*
G37*
D21*
G36*
X020269Y008511D02*
X020035Y008426D01*
X019967Y008613D01*
X020201Y008698D01*
X020269Y008511D01*
G37*
G36*
X022195Y009213D02*
X021961Y009128D01*
X021893Y009315D01*
X022127Y009400D01*
X022195Y009213D01*
G37*
X023994Y009788D03*
X026044Y009788D03*
D22*
X036644Y014713D03*
X036644Y016863D03*
D23*
X036080Y014746D02*
X036129Y014698D01*
X036129Y014601D01*
X036080Y014553D01*
X035887Y014553D01*
X035838Y014601D01*
X035838Y014698D01*
X035887Y014746D01*
X035379Y014246D02*
X035185Y014246D01*
X035088Y014150D01*
X035185Y014053D01*
X035379Y014053D01*
X035234Y014053D02*
X035234Y014246D01*
X035838Y013698D02*
X035887Y013746D01*
X035984Y013746D01*
X036032Y013698D01*
X036032Y013553D01*
X036129Y013553D02*
X035838Y013553D01*
X035838Y013698D01*
X036032Y013650D02*
X036129Y013746D01*
D24*
X018869Y015226D03*
D25*
X020699Y008203D02*
X020499Y007603D01*
X020499Y006973D01*
X024539Y006973D01*
X024539Y007603D01*
X024339Y008203D01*
X020699Y008203D01*
D26*
X022519Y006683D03*
D27*
X022394Y012493D03*
X022394Y015333D03*
D28*
X032944Y013138D02*
X032944Y012788D01*
X032944Y012438D01*
X033344Y012438D02*
X033344Y012788D01*
X033344Y013138D01*
X019644Y005200D02*
X019144Y005200D01*
X018644Y005200D01*
X018644Y004850D02*
X019144Y004850D01*
X019644Y004850D01*
X008144Y010438D02*
X007644Y010438D01*
X007144Y010438D01*
X007144Y010788D02*
X007644Y010788D01*
X008144Y010788D01*
D29*
X008619Y015263D02*
X004419Y015263D01*
X004419Y017563D02*
X008619Y017563D01*
D30*
X010394Y016413D03*
X002644Y016413D03*
D31*
X004294Y015388D03*
X008744Y015388D03*
X008744Y017438D03*
X004294Y017438D03*
D32*
X004294Y016413D03*
X008744Y016413D03*
D33*
X008369Y017163D03*
X008369Y015663D03*
X004669Y015663D03*
X004669Y017163D03*
D34*
X003294Y015513D03*
D35*
X006519Y015663D03*
X006519Y017163D03*
D36*
X008919Y017188D03*
X010269Y017188D03*
X010269Y015638D03*
X008919Y015638D03*
X004119Y015638D03*
X002769Y015638D03*
X002769Y017188D03*
X004119Y017188D03*
D37*
X003444Y017188D03*
X003444Y015638D03*
X009594Y015638D03*
X009594Y017188D03*
D38*
X009669Y017313D03*
X009669Y015513D03*
X003369Y017313D03*
D39*
X005014Y015079D02*
X005014Y014448D01*
X004804Y014448D02*
X005224Y014448D01*
X005448Y014448D02*
X005448Y015079D01*
X005869Y015079D01*
X006093Y014868D02*
X006303Y015079D01*
X006303Y014448D01*
X006093Y014448D02*
X006513Y014448D01*
X005658Y014763D02*
X005448Y014763D01*
X005014Y015079D02*
X004804Y014868D01*
D40*
X015296Y012133D02*
X015366Y011739D01*
X016005Y012185D02*
X016333Y011956D01*
X018954Y010120D02*
X019282Y009891D01*
X021144Y010538D02*
X021144Y011038D01*
X017616Y008633D02*
X017547Y008239D01*
X015991Y008193D02*
X015922Y008587D01*
X015394Y008163D02*
X015394Y007763D01*
X016991Y005087D02*
X016921Y004693D01*
X015394Y004563D02*
X015394Y004163D01*
X021144Y016038D02*
X021144Y016538D01*
D41*
G36*
X016989Y010887D02*
X016825Y011001D01*
X017397Y011819D01*
X017561Y011705D01*
X016989Y010887D01*
G37*
G36*
X016214Y009806D02*
X016248Y009610D01*
X015264Y009436D01*
X015230Y009632D01*
X016214Y009806D01*
G37*
G36*
X017682Y006132D02*
X017648Y005936D01*
X016664Y006110D01*
X016698Y006306D01*
X017682Y006132D01*
G37*
D42*
G36*
X017277Y005849D02*
X017147Y005111D01*
X016853Y005163D01*
X016983Y005901D01*
X017277Y005849D01*
G37*
G36*
X017685Y008163D02*
X017555Y007425D01*
X017261Y007477D01*
X017391Y008215D01*
X017685Y008163D01*
G37*
G36*
X015930Y009401D02*
X016060Y008663D01*
X015766Y008611D01*
X015636Y009349D01*
X015930Y009401D01*
G37*
G36*
X018827Y010027D02*
X018213Y010456D01*
X018385Y010701D01*
X018999Y010272D01*
X018827Y010027D01*
G37*
G36*
X015522Y011715D02*
X015652Y010977D01*
X015358Y010925D01*
X015228Y011663D01*
X015522Y011715D01*
G37*
G36*
X016902Y011375D02*
X016288Y011804D01*
X016460Y012049D01*
X017074Y011620D01*
X016902Y011375D01*
G37*
D43*
X015394Y007338D03*
X015394Y004988D03*
D44*
X024494Y011538D03*
X027044Y011538D03*
X038044Y004063D03*
X041494Y004063D03*
D45*
X026598Y004642D02*
X026352Y004685D01*
X020935Y005641D02*
X020689Y005684D01*
D46*
G36*
X021104Y005449D02*
X020888Y005487D01*
X020944Y005801D01*
X021160Y005763D01*
X021104Y005449D01*
G37*
G36*
X026343Y004525D02*
X026127Y004563D01*
X026183Y004877D01*
X026399Y004839D01*
X026343Y004525D01*
G37*
D47*
G36*
X039294Y016205D02*
X039373Y016284D01*
X039514Y016143D01*
X039435Y016064D01*
X039294Y016205D01*
G37*
G36*
X040273Y017183D02*
X040352Y017262D01*
X040493Y017121D01*
X040414Y017042D01*
X040273Y017183D01*
G37*
D48*
X021144Y015813D03*
X021144Y011263D03*
D49*
X005894Y006663D03*
X007644Y004663D03*
X040269Y014413D03*
X041269Y014413D03*
X042269Y014413D03*
D50*
X041539Y005123D03*
D51*
X039769Y003813D03*
D52*
X040769Y004063D03*
X038769Y004063D03*
D53*
X039769Y004063D03*
D54*
X026519Y012663D02*
X018894Y017163D01*
M02*
