G75*
G70*
%OFA0B0*%
%FSLAX24Y24*%
%IPPOS*%
%LPD*%
%AMOC8*
5,1,8,0,0,1.08239X$1,22.5*
%
%ADD10C,0.0100*%
%ADD11C,0.0000*%
D10*
X001519Y003413D02*
X045644Y003413D01*
X045644Y017913D01*
X001519Y017913D01*
X001519Y003413D01*
D11*
X003077Y008104D02*
X003079Y008152D01*
X003085Y008200D01*
X003095Y008247D01*
X003108Y008293D01*
X003126Y008338D01*
X003146Y008382D01*
X003171Y008424D01*
X003199Y008463D01*
X003229Y008500D01*
X003263Y008534D01*
X003300Y008566D01*
X003338Y008595D01*
X003379Y008620D01*
X003422Y008642D01*
X003467Y008660D01*
X003513Y008674D01*
X003560Y008685D01*
X003608Y008692D01*
X003656Y008695D01*
X003704Y008694D01*
X003752Y008689D01*
X003800Y008680D01*
X003846Y008668D01*
X003891Y008651D01*
X003935Y008631D01*
X003977Y008608D01*
X004017Y008581D01*
X004055Y008551D01*
X004090Y008518D01*
X004122Y008482D01*
X004152Y008444D01*
X004178Y008403D01*
X004200Y008360D01*
X004220Y008316D01*
X004235Y008271D01*
X004247Y008224D01*
X004255Y008176D01*
X004259Y008128D01*
X004259Y008080D01*
X004255Y008032D01*
X004247Y007984D01*
X004235Y007937D01*
X004220Y007892D01*
X004200Y007848D01*
X004178Y007805D01*
X004152Y007764D01*
X004122Y007726D01*
X004090Y007690D01*
X004055Y007657D01*
X004017Y007627D01*
X003977Y007600D01*
X003935Y007577D01*
X003891Y007557D01*
X003846Y007540D01*
X003800Y007528D01*
X003752Y007519D01*
X003704Y007514D01*
X003656Y007513D01*
X003608Y007516D01*
X003560Y007523D01*
X003513Y007534D01*
X003467Y007548D01*
X003422Y007566D01*
X003379Y007588D01*
X003338Y007613D01*
X003300Y007642D01*
X003263Y007674D01*
X003229Y007708D01*
X003199Y007745D01*
X003171Y007784D01*
X003146Y007826D01*
X003126Y007870D01*
X003108Y007915D01*
X003095Y007961D01*
X003085Y008008D01*
X003079Y008056D01*
X003077Y008104D01*
X003077Y013222D02*
X003079Y013270D01*
X003085Y013318D01*
X003095Y013365D01*
X003108Y013411D01*
X003126Y013456D01*
X003146Y013500D01*
X003171Y013542D01*
X003199Y013581D01*
X003229Y013618D01*
X003263Y013652D01*
X003300Y013684D01*
X003338Y013713D01*
X003379Y013738D01*
X003422Y013760D01*
X003467Y013778D01*
X003513Y013792D01*
X003560Y013803D01*
X003608Y013810D01*
X003656Y013813D01*
X003704Y013812D01*
X003752Y013807D01*
X003800Y013798D01*
X003846Y013786D01*
X003891Y013769D01*
X003935Y013749D01*
X003977Y013726D01*
X004017Y013699D01*
X004055Y013669D01*
X004090Y013636D01*
X004122Y013600D01*
X004152Y013562D01*
X004178Y013521D01*
X004200Y013478D01*
X004220Y013434D01*
X004235Y013389D01*
X004247Y013342D01*
X004255Y013294D01*
X004259Y013246D01*
X004259Y013198D01*
X004255Y013150D01*
X004247Y013102D01*
X004235Y013055D01*
X004220Y013010D01*
X004200Y012966D01*
X004178Y012923D01*
X004152Y012882D01*
X004122Y012844D01*
X004090Y012808D01*
X004055Y012775D01*
X004017Y012745D01*
X003977Y012718D01*
X003935Y012695D01*
X003891Y012675D01*
X003846Y012658D01*
X003800Y012646D01*
X003752Y012637D01*
X003704Y012632D01*
X003656Y012631D01*
X003608Y012634D01*
X003560Y012641D01*
X003513Y012652D01*
X003467Y012666D01*
X003422Y012684D01*
X003379Y012706D01*
X003338Y012731D01*
X003300Y012760D01*
X003263Y012792D01*
X003229Y012826D01*
X003199Y012863D01*
X003171Y012902D01*
X003146Y012944D01*
X003126Y012988D01*
X003108Y013033D01*
X003095Y013079D01*
X003085Y013126D01*
X003079Y013174D01*
X003077Y013222D01*
M02*
