G75*
G70*
%OFA0B0*%
%FSLAX24Y24*%
%IPPOS*%
%LPD*%
%AMOC8*
5,1,8,0,0,1.08239X$1,22.5*
%
%ADD10R,0.0872X0.0872*%
%ADD11OC8,0.0872*%
%ADD12C,0.0872*%
%ADD13R,0.0592X0.0671*%
%ADD14C,0.0174*%
%ADD15C,0.0872*%
%ADD16R,0.0671X0.0592*%
%ADD17OC8,0.1080*%
%ADD18C,0.1080*%
%ADD19C,0.0952*%
%ADD20OC8,0.0952*%
%ADD21R,0.0631X0.0789*%
%ADD22R,0.0592X0.0710*%
%ADD23OC8,0.0912*%
%ADD24C,0.1080*%
%ADD25R,0.0872X0.0872*%
%ADD26C,0.0992*%
%ADD27C,0.0190*%
%ADD28C,0.0867*%
%ADD29C,0.1655*%
%ADD30C,0.1340*%
%ADD31C,0.1261*%
%ADD32R,0.0710X0.0592*%
%ADD33C,0.0986*%
%ADD34C,0.2049*%
D10*
X030331Y018001D03*
X031331Y023876D03*
D11*
X030331Y023876D03*
X029331Y023876D03*
X028331Y023876D03*
X027331Y022876D03*
X026206Y024126D03*
X026456Y025501D03*
X029831Y024751D03*
X030456Y025501D03*
X033831Y024751D03*
X034331Y023251D03*
X032331Y023251D03*
X031331Y020876D03*
X029331Y020876D03*
X028331Y020876D03*
X027331Y020876D03*
X026206Y020126D03*
X026331Y018876D03*
X030331Y018876D03*
X030331Y015876D03*
X039706Y021876D03*
X038956Y022376D03*
X039706Y022876D03*
X041456Y022001D03*
X042331Y022501D03*
X041456Y024001D03*
X042331Y025501D03*
X014456Y023251D03*
X014456Y020251D03*
D12*
X030331Y020479D02*
X030331Y021272D01*
X035039Y024001D02*
X035831Y024001D01*
X035831Y025001D02*
X035039Y025001D01*
X038831Y025001D02*
X039623Y025001D01*
X039623Y024001D02*
X038831Y024001D01*
D13*
X039332Y020751D03*
X040080Y020751D03*
X033705Y023251D03*
X032957Y023251D03*
X029080Y022876D03*
X028332Y022876D03*
X028332Y021876D03*
X029080Y021876D03*
X028832Y016751D03*
X029580Y016751D03*
D14*
X027117Y024325D02*
X027030Y024412D01*
X027319Y024422D01*
X027530Y024226D01*
X027540Y023937D01*
X027344Y023726D01*
X027055Y023716D01*
X026844Y023912D01*
X026834Y024201D01*
X027030Y024412D01*
X027089Y024283D01*
X027269Y024289D01*
X027401Y024167D01*
X027407Y023987D01*
X027285Y023855D01*
X027105Y023849D01*
X026973Y023971D01*
X026967Y024151D01*
X027089Y024283D01*
X027148Y024154D01*
X027220Y024157D01*
X027272Y024108D01*
X027275Y024036D01*
X027226Y023984D01*
X027154Y023981D01*
X027102Y024030D01*
X027099Y024102D01*
X027148Y024154D01*
X025655Y025689D02*
X025568Y025776D01*
X025857Y025786D01*
X026068Y025590D01*
X026078Y025301D01*
X025882Y025090D01*
X025593Y025080D01*
X025382Y025276D01*
X025372Y025565D01*
X025568Y025776D01*
X025627Y025647D01*
X025807Y025653D01*
X025939Y025531D01*
X025945Y025351D01*
X025823Y025219D01*
X025643Y025213D01*
X025511Y025335D01*
X025505Y025515D01*
X025627Y025647D01*
X025686Y025518D01*
X025758Y025521D01*
X025810Y025472D01*
X025813Y025400D01*
X025764Y025348D01*
X025692Y025345D01*
X025640Y025394D01*
X025637Y025466D01*
X025686Y025518D01*
D15*
X027581Y019751D03*
X027331Y018001D03*
X026241Y017639D03*
X030331Y016876D03*
X031581Y019751D03*
D16*
X027331Y021502D03*
X027331Y022250D03*
X027706Y024877D03*
X027706Y025625D03*
X040581Y025500D03*
X040581Y024752D03*
X040581Y023625D03*
X040581Y022877D03*
X043581Y020250D03*
X043581Y019502D03*
X044456Y019502D03*
X044456Y020250D03*
X012331Y019375D03*
X012331Y018627D03*
X012331Y017750D03*
X012331Y017002D03*
X012331Y016125D03*
X012331Y015377D03*
X012331Y014500D03*
X012331Y013752D03*
D17*
X011456Y014051D03*
X011456Y019951D03*
X023831Y024501D03*
X041206Y018743D03*
X041206Y016758D03*
D18*
X041206Y014743D03*
X041206Y020758D03*
X023831Y022501D03*
X017706Y018476D03*
X013706Y018476D03*
X013706Y013376D03*
X017706Y013376D03*
D19*
X025331Y015439D02*
X025331Y016312D01*
X026331Y016312D02*
X026331Y015439D01*
X027331Y015439D02*
X027331Y016312D01*
X042581Y013312D02*
X042581Y012439D01*
X044581Y012439D02*
X044581Y013312D01*
X044581Y022189D02*
X044581Y023062D01*
X045581Y023062D02*
X045581Y022189D01*
X043581Y022189D02*
X043581Y023062D01*
D20*
X022956Y016251D03*
X022956Y012251D03*
X011456Y012876D03*
X009706Y014876D03*
D21*
G36*
X032442Y017738D02*
X032388Y017111D01*
X031604Y017180D01*
X031658Y017807D01*
X032442Y017738D01*
G37*
G36*
X032558Y019071D02*
X032504Y018444D01*
X031720Y018513D01*
X031774Y019140D01*
X032558Y019071D01*
G37*
D22*
X031955Y016751D03*
X031207Y016751D03*
X022955Y022876D03*
X022207Y022876D03*
X021830Y024501D03*
X021082Y024501D03*
X021082Y025376D03*
X021830Y025376D03*
X042832Y021126D03*
X043580Y021126D03*
D23*
X038456Y021001D03*
X035456Y021001D03*
X024956Y018751D03*
X024956Y024751D03*
D24*
X014431Y025126D02*
X014431Y024126D01*
X012431Y024126D02*
X012431Y025126D01*
X008231Y025126D02*
X008231Y024126D01*
X006231Y024126D02*
X006231Y025126D01*
D25*
G36*
X023979Y016353D02*
X023161Y016055D01*
X022863Y016873D01*
X023681Y017171D01*
X023979Y016353D01*
G37*
D26*
X019206Y012376D03*
X020734Y012906D03*
X019803Y016406D03*
X019206Y016376D03*
X021428Y016845D03*
X023094Y018228D03*
X019818Y020523D03*
X019109Y020345D03*
D27*
X024754Y013772D02*
X024849Y013677D01*
X024590Y013495D01*
X024282Y013550D01*
X024100Y013809D01*
X024155Y014117D01*
X024414Y014299D01*
X024722Y014244D01*
X024904Y013985D01*
X024849Y013677D01*
X024719Y013760D01*
X024557Y013646D01*
X024365Y013680D01*
X024251Y013842D01*
X024285Y014034D01*
X024447Y014148D01*
X024639Y014114D01*
X024753Y013952D01*
X024719Y013760D01*
X024588Y013843D01*
X024523Y013797D01*
X024448Y013811D01*
X024402Y013876D01*
X024416Y013951D01*
X024481Y013997D01*
X024556Y013983D01*
X024602Y013918D01*
X024588Y013843D01*
X030662Y012730D02*
X030757Y012635D01*
X030498Y012453D01*
X030190Y012508D01*
X030008Y012767D01*
X030063Y013075D01*
X030322Y013257D01*
X030630Y013202D01*
X030812Y012943D01*
X030757Y012635D01*
X030627Y012718D01*
X030465Y012604D01*
X030273Y012638D01*
X030159Y012800D01*
X030193Y012992D01*
X030355Y013106D01*
X030547Y013072D01*
X030661Y012910D01*
X030627Y012718D01*
X030496Y012801D01*
X030431Y012755D01*
X030356Y012769D01*
X030310Y012834D01*
X030324Y012909D01*
X030389Y012955D01*
X030464Y012941D01*
X030510Y012876D01*
X030496Y012801D01*
D28*
X044581Y023501D03*
X044581Y025501D03*
D29*
X009449Y020647D03*
X007481Y022419D03*
X009449Y017104D03*
X007481Y015332D03*
D30*
X007481Y016317D03*
X007481Y021435D03*
D31*
X007481Y021435D03*
X007481Y016317D03*
X033235Y016126D03*
X033235Y017700D03*
X033235Y019275D03*
X039927Y018488D03*
X039927Y016913D03*
X039927Y015338D03*
X039927Y013763D03*
X033235Y012976D03*
X033235Y014551D03*
D32*
X022206Y021252D03*
X022206Y022000D03*
X019706Y024502D03*
X018706Y024502D03*
X018706Y025250D03*
X019706Y025250D03*
D33*
X022706Y025376D03*
X032706Y020876D03*
D34*
X047956Y024626D03*
X047956Y013126D03*
X011831Y022001D03*
X006831Y013126D03*
M02*
