G75*
G70*
%OFA0B0*%
%FSLAX24Y24*%
%IPPOS*%
%LPD*%
%AMOC8*
5,1,8,0,0,1.08239X$1,22.5*
%
%ADD10R,0.0872X0.0872*%
%ADD11OC8,0.0872*%
%ADD12C,0.0872*%
%ADD13C,0.0174*%
%ADD14C,0.0872*%
%ADD15OC8,0.1080*%
%ADD16C,0.1080*%
%ADD17C,0.0952*%
%ADD18OC8,0.0952*%
%ADD19OC8,0.0912*%
%ADD20C,0.1080*%
%ADD21C,0.0992*%
%ADD22C,0.0190*%
%ADD23C,0.0867*%
%ADD24C,0.1655*%
%ADD25C,0.1340*%
%ADD26C,0.1261*%
%ADD27C,0.1143*%
%ADD28C,0.0986*%
%ADD29C,0.2049*%
D10*
X026394Y009913D03*
X027519Y015663D03*
D11*
X026519Y015663D03*
X025519Y015663D03*
X024519Y015663D03*
X022269Y015913D03*
X022644Y017288D03*
X026019Y016538D03*
X026644Y017288D03*
X030019Y016538D03*
X030519Y015038D03*
X028519Y015038D03*
X023519Y014663D03*
X023519Y012663D03*
X024519Y012663D03*
X025519Y012663D03*
X027519Y012663D03*
X026394Y010663D03*
X023394Y010663D03*
X022269Y011913D03*
X026519Y007663D03*
X024331Y006913D03*
X020331Y006913D03*
X010644Y012038D03*
X010644Y015038D03*
X034894Y014163D03*
X035644Y014663D03*
X036644Y014288D03*
X037644Y013788D03*
X035644Y013663D03*
X037644Y015788D03*
X036644Y017288D03*
D12*
X035811Y016788D02*
X035019Y016788D01*
X035019Y015788D02*
X035811Y015788D01*
X032019Y015788D02*
X031226Y015788D01*
X031226Y016788D02*
X032019Y016788D01*
X026519Y013059D02*
X026519Y012267D01*
D13*
X023305Y016112D02*
X023218Y016199D01*
X023507Y016209D01*
X023718Y016013D01*
X023728Y015724D01*
X023532Y015513D01*
X023243Y015503D01*
X023032Y015699D01*
X023022Y015988D01*
X023218Y016199D01*
X023277Y016070D01*
X023457Y016076D01*
X023589Y015954D01*
X023595Y015774D01*
X023473Y015642D01*
X023293Y015636D01*
X023161Y015758D01*
X023155Y015938D01*
X023277Y016070D01*
X023336Y015941D01*
X023408Y015944D01*
X023460Y015895D01*
X023463Y015823D01*
X023414Y015771D01*
X023342Y015768D01*
X023290Y015817D01*
X023287Y015889D01*
X023336Y015941D01*
X021842Y017476D02*
X021755Y017563D01*
X022044Y017573D01*
X022255Y017377D01*
X022265Y017088D01*
X022069Y016877D01*
X021780Y016867D01*
X021569Y017063D01*
X021559Y017352D01*
X021755Y017563D01*
X021814Y017434D01*
X021994Y017440D01*
X022126Y017318D01*
X022132Y017138D01*
X022010Y017006D01*
X021830Y017000D01*
X021698Y017122D01*
X021692Y017302D01*
X021814Y017434D01*
X021873Y017305D01*
X021945Y017308D01*
X021997Y017259D01*
X022000Y017187D01*
X021951Y017135D01*
X021879Y017132D01*
X021827Y017181D01*
X021824Y017253D01*
X021873Y017305D01*
D14*
X023526Y011837D03*
X027511Y011489D03*
X023394Y009913D03*
X026519Y008663D03*
D15*
X037394Y008546D03*
X037394Y010546D03*
X020019Y016288D03*
X007644Y011738D03*
X007644Y005838D03*
D16*
X009894Y005163D03*
X013894Y005163D03*
X013894Y010263D03*
X009894Y010263D03*
X020019Y014288D03*
X037394Y012530D03*
X037394Y006530D03*
D17*
X038769Y005099D02*
X038769Y004227D01*
X040769Y004227D02*
X040769Y005099D01*
X023394Y008352D02*
X023394Y009224D01*
X022394Y009224D02*
X022394Y008352D01*
X021394Y008352D02*
X021394Y009224D01*
X040269Y013977D02*
X040269Y014849D01*
X041269Y014849D02*
X041269Y013977D01*
X042269Y013977D02*
X042269Y014849D01*
D18*
X007644Y004663D03*
X005894Y006663D03*
X019269Y008100D03*
X019269Y004100D03*
D19*
X021144Y010538D03*
X031644Y012913D03*
X034644Y012913D03*
X021144Y016538D03*
D20*
X010619Y016913D02*
X010619Y015913D01*
X008619Y015913D02*
X008619Y016913D01*
X004419Y016913D02*
X004419Y015913D01*
X002419Y015913D02*
X002419Y016913D01*
D21*
X014394Y012288D03*
X015519Y011038D03*
X018394Y012288D03*
X019519Y011038D03*
X017394Y008163D03*
X015394Y008163D03*
X015394Y004163D03*
X017394Y004163D03*
D22*
X021191Y005684D02*
X021286Y005589D01*
X021027Y005407D01*
X020719Y005462D01*
X020537Y005721D01*
X020592Y006029D01*
X020851Y006211D01*
X021159Y006156D01*
X021341Y005897D01*
X021286Y005589D01*
X021156Y005672D01*
X020994Y005558D01*
X020802Y005592D01*
X020688Y005754D01*
X020722Y005946D01*
X020884Y006060D01*
X021076Y006026D01*
X021190Y005864D01*
X021156Y005672D01*
X021025Y005755D01*
X020960Y005709D01*
X020885Y005723D01*
X020839Y005788D01*
X020853Y005863D01*
X020918Y005909D01*
X020993Y005895D01*
X021039Y005830D01*
X021025Y005755D01*
X027100Y004642D02*
X027195Y004547D01*
X026936Y004365D01*
X026628Y004420D01*
X026446Y004679D01*
X026501Y004987D01*
X026760Y005169D01*
X027068Y005114D01*
X027250Y004855D01*
X027195Y004547D01*
X027065Y004630D01*
X026903Y004516D01*
X026711Y004550D01*
X026597Y004712D01*
X026631Y004904D01*
X026793Y005018D01*
X026985Y004984D01*
X027099Y004822D01*
X027065Y004630D01*
X026934Y004713D01*
X026869Y004667D01*
X026794Y004681D01*
X026748Y004746D01*
X026762Y004821D01*
X026827Y004867D01*
X026902Y004853D01*
X026948Y004788D01*
X026934Y004713D01*
D23*
X039187Y015831D03*
X040601Y017245D03*
D24*
X005637Y012435D03*
X005637Y008891D03*
X003668Y006529D03*
D25*
X003668Y008104D03*
X003668Y013222D03*
D26*
X003668Y013222D03*
X003668Y008104D03*
X029172Y007913D03*
X029172Y009488D03*
X029172Y011063D03*
X035865Y010275D03*
X035865Y008700D03*
X035865Y007126D03*
X035865Y005551D03*
X029172Y006338D03*
X029172Y004763D03*
D27*
X003668Y014797D03*
D28*
X018894Y017163D03*
X028644Y012913D03*
D29*
X044144Y016413D03*
X044144Y004913D03*
X008019Y013788D03*
X003019Y004913D03*
M02*
