G75*
G70*
%OFA0B0*%
%FSLAX24Y24*%
%IPPOS*%
%LPD*%
%AMOC8*
5,1,8,0,0,1.08239X$1,22.5*
%
%ADD10C,0.0100*%
%ADD11C,0.0000*%
D10*
X005331Y011626D02*
X049456Y011626D01*
X049456Y026126D01*
X005331Y026126D01*
X005331Y011626D01*
D11*
X006890Y016317D02*
X006892Y016365D01*
X006898Y016413D01*
X006908Y016460D01*
X006921Y016506D01*
X006939Y016551D01*
X006959Y016595D01*
X006984Y016637D01*
X007012Y016676D01*
X007042Y016713D01*
X007076Y016747D01*
X007113Y016779D01*
X007151Y016808D01*
X007192Y016833D01*
X007235Y016855D01*
X007280Y016873D01*
X007326Y016887D01*
X007373Y016898D01*
X007421Y016905D01*
X007469Y016908D01*
X007517Y016907D01*
X007565Y016902D01*
X007613Y016893D01*
X007659Y016881D01*
X007704Y016864D01*
X007748Y016844D01*
X007790Y016821D01*
X007830Y016794D01*
X007868Y016764D01*
X007903Y016731D01*
X007935Y016695D01*
X007965Y016657D01*
X007991Y016616D01*
X008013Y016573D01*
X008033Y016529D01*
X008048Y016484D01*
X008060Y016437D01*
X008068Y016389D01*
X008072Y016341D01*
X008072Y016293D01*
X008068Y016245D01*
X008060Y016197D01*
X008048Y016150D01*
X008033Y016105D01*
X008013Y016061D01*
X007991Y016018D01*
X007965Y015977D01*
X007935Y015939D01*
X007903Y015903D01*
X007868Y015870D01*
X007830Y015840D01*
X007790Y015813D01*
X007748Y015790D01*
X007704Y015770D01*
X007659Y015753D01*
X007613Y015741D01*
X007565Y015732D01*
X007517Y015727D01*
X007469Y015726D01*
X007421Y015729D01*
X007373Y015736D01*
X007326Y015747D01*
X007280Y015761D01*
X007235Y015779D01*
X007192Y015801D01*
X007151Y015826D01*
X007113Y015855D01*
X007076Y015887D01*
X007042Y015921D01*
X007012Y015958D01*
X006984Y015997D01*
X006959Y016039D01*
X006939Y016083D01*
X006921Y016128D01*
X006908Y016174D01*
X006898Y016221D01*
X006892Y016269D01*
X006890Y016317D01*
X006890Y021435D02*
X006892Y021483D01*
X006898Y021531D01*
X006908Y021578D01*
X006921Y021624D01*
X006939Y021669D01*
X006959Y021713D01*
X006984Y021755D01*
X007012Y021794D01*
X007042Y021831D01*
X007076Y021865D01*
X007113Y021897D01*
X007151Y021926D01*
X007192Y021951D01*
X007235Y021973D01*
X007280Y021991D01*
X007326Y022005D01*
X007373Y022016D01*
X007421Y022023D01*
X007469Y022026D01*
X007517Y022025D01*
X007565Y022020D01*
X007613Y022011D01*
X007659Y021999D01*
X007704Y021982D01*
X007748Y021962D01*
X007790Y021939D01*
X007830Y021912D01*
X007868Y021882D01*
X007903Y021849D01*
X007935Y021813D01*
X007965Y021775D01*
X007991Y021734D01*
X008013Y021691D01*
X008033Y021647D01*
X008048Y021602D01*
X008060Y021555D01*
X008068Y021507D01*
X008072Y021459D01*
X008072Y021411D01*
X008068Y021363D01*
X008060Y021315D01*
X008048Y021268D01*
X008033Y021223D01*
X008013Y021179D01*
X007991Y021136D01*
X007965Y021095D01*
X007935Y021057D01*
X007903Y021021D01*
X007868Y020988D01*
X007830Y020958D01*
X007790Y020931D01*
X007748Y020908D01*
X007704Y020888D01*
X007659Y020871D01*
X007613Y020859D01*
X007565Y020850D01*
X007517Y020845D01*
X007469Y020844D01*
X007421Y020847D01*
X007373Y020854D01*
X007326Y020865D01*
X007280Y020879D01*
X007235Y020897D01*
X007192Y020919D01*
X007151Y020944D01*
X007113Y020973D01*
X007076Y021005D01*
X007042Y021039D01*
X007012Y021076D01*
X006984Y021115D01*
X006959Y021157D01*
X006939Y021201D01*
X006921Y021246D01*
X006908Y021292D01*
X006898Y021339D01*
X006892Y021387D01*
X006890Y021435D01*
M02*
