G75*
G70*
%OFA0B0*%
%FSLAX24Y24*%
%IPPOS*%
%LPD*%
%AMOC8*
5,1,8,0,0,1.08239X$1,22.5*
%
%ADD10C,0.0051*%
%ADD11C,0.0110*%
%ADD12C,0.0060*%
%ADD13C,0.0240*%
%ADD14R,0.0340X0.0240*%
%ADD15C,0.0120*%
%ADD16R,0.1000X0.0200*%
%ADD17C,0.0200*%
%ADD18R,0.0200X0.0800*%
%ADD19R,0.0250X0.0200*%
%ADD20R,0.0240X0.0340*%
%ADD21C,0.0030*%
%ADD22R,0.0740X0.0170*%
%ADD23C,0.0050*%
%ADD24C,0.0100*%
%ADD25R,0.4160X0.0560*%
%ADD26C,0.0160*%
%ADD27C,0.0020*%
%ADD28R,0.0150X0.1600*%
%ADD29R,0.0250X0.0450*%
%ADD30R,0.0250X0.1600*%
%ADD31R,0.0500X0.0200*%
%ADD32R,0.1750X0.0200*%
%ADD33R,0.3200X0.0200*%
%ADD34R,0.0100X0.0050*%
%ADD35R,0.1250X0.0050*%
%ADD36R,0.1600X0.0200*%
%ADD37R,0.0750X0.0200*%
%ADD38C,0.0300*%
%ADD39R,0.0300X0.0750*%
%ADD40R,0.0200X0.1000*%
%ADD41R,0.0750X0.0300*%
%ADD42C,0.0320*%
%ADD43R,0.0320X0.0220*%
%ADD44R,0.0220X0.0320*%
%ADD45C,0.0200*%
%ADD46R,0.4200X0.0300*%
%ADD47R,0.0300X0.0200*%
%ADD48R,0.0700X0.0200*%
%ADD49R,0.0150X0.0200*%
%ADD50R,0.0300X0.0550*%
%ADD51R,0.0200X0.0200*%
D10*
X003081Y015789D02*
X003081Y022076D01*
X002457Y020975D02*
X002205Y020975D01*
X002331Y019951D01*
X002433Y020975D01*
X002457Y020975D02*
X002331Y019951D01*
X002229Y020975D01*
X002280Y020975D02*
X002331Y019951D01*
X002382Y020975D01*
X002331Y019951D02*
X002331Y035701D01*
X002433Y034678D01*
X002457Y034678D02*
X002331Y035701D01*
X002229Y034678D01*
X002205Y034678D02*
X002457Y034678D01*
X002382Y034678D02*
X002331Y035701D01*
X002280Y034678D01*
X002205Y034678D02*
X002331Y035701D01*
X001544Y035701D02*
X003956Y035701D01*
X003581Y019951D02*
X001544Y019951D01*
X003081Y016576D02*
X004105Y016474D01*
X004105Y016451D02*
X004105Y016702D01*
X003081Y016576D01*
X004105Y016679D01*
X004105Y016627D02*
X003081Y016576D01*
X004105Y016525D01*
X004105Y016451D02*
X003081Y016576D01*
X047206Y016576D01*
X046182Y016474D01*
X046182Y016451D02*
X046182Y016702D01*
X047206Y016576D01*
X046182Y016679D01*
X046182Y016627D02*
X047206Y016576D01*
X046182Y016525D01*
X046182Y016451D02*
X047206Y016576D01*
X047206Y015789D02*
X047206Y018951D01*
X050706Y026576D02*
X059243Y026576D01*
X058456Y026576D02*
X058558Y025553D01*
X058582Y025553D02*
X058456Y026576D01*
X058354Y025553D01*
X058330Y025553D02*
X058582Y025553D01*
X058507Y025553D02*
X058456Y026576D01*
X058405Y025553D01*
X058330Y025553D02*
X058456Y026576D01*
X058456Y024529D01*
X058456Y028076D02*
X058558Y029100D01*
X058582Y029100D02*
X058456Y028076D01*
X058354Y029100D01*
X058330Y029100D02*
X058582Y029100D01*
X058507Y029100D02*
X058456Y028076D01*
X058405Y029100D01*
X058330Y029100D02*
X058456Y028076D01*
X058456Y032937D01*
X059243Y028076D02*
X050081Y028076D01*
D11*
X056738Y029366D02*
X056738Y029789D01*
X056950Y030001D01*
X057161Y030001D01*
X057373Y029789D01*
X057584Y030001D01*
X057796Y030001D01*
X058007Y029789D01*
X058007Y029366D01*
X057796Y029155D01*
X057373Y029578D02*
X057373Y029789D01*
X056950Y029155D02*
X056738Y029366D01*
X057796Y030424D02*
X057796Y030635D01*
X058007Y030635D01*
X058007Y030424D01*
X057796Y030424D01*
X057796Y031058D02*
X057584Y031058D01*
X057373Y031270D01*
X057373Y031693D01*
X057584Y031904D01*
X057796Y031904D01*
X058007Y031693D01*
X058007Y031270D01*
X057796Y031058D01*
X057373Y031270D02*
X057161Y031058D01*
X056950Y031058D01*
X056738Y031270D01*
X056738Y031693D01*
X056950Y031904D01*
X057161Y031904D01*
X057373Y031693D01*
X057161Y032327D02*
X056738Y032750D01*
X058007Y032750D01*
X058007Y032327D02*
X058007Y033173D01*
X028679Y018082D02*
X028679Y017871D01*
X028468Y017659D01*
X028045Y017659D01*
X027833Y017871D01*
X027833Y018082D01*
X028045Y018294D01*
X028468Y018294D01*
X028679Y018082D01*
X028468Y017659D02*
X028679Y017448D01*
X028679Y017236D01*
X028468Y017025D01*
X028045Y017025D01*
X027833Y017236D01*
X027833Y017448D01*
X028045Y017659D01*
X027410Y017236D02*
X027199Y017025D01*
X026776Y017025D01*
X026564Y017236D01*
X027410Y018082D01*
X027410Y017236D01*
X026564Y017236D02*
X026564Y018082D01*
X026776Y018294D01*
X027199Y018294D01*
X027410Y018082D01*
X026142Y017236D02*
X026142Y017025D01*
X025930Y017025D01*
X025930Y017236D01*
X026142Y017236D01*
X025507Y017025D02*
X024661Y017025D01*
X025507Y017871D01*
X025507Y018082D01*
X025296Y018294D01*
X024873Y018294D01*
X024661Y018082D01*
X023815Y018294D02*
X023815Y017025D01*
X023392Y017025D02*
X024238Y017025D01*
X023392Y017871D02*
X023815Y018294D01*
X022547Y018294D02*
X022547Y017025D01*
X022124Y017025D02*
X022970Y017025D01*
X022124Y017871D02*
X022547Y018294D01*
X001882Y026049D02*
X000613Y026049D01*
X001248Y025414D01*
X001248Y026260D01*
X001671Y026683D02*
X000825Y026683D01*
X000613Y026895D01*
X000613Y027318D01*
X000825Y027529D01*
X001671Y026683D01*
X001882Y026895D01*
X001882Y027318D01*
X001671Y027529D01*
X000825Y027529D01*
X001671Y027952D02*
X001671Y028163D01*
X001882Y028163D01*
X001882Y027952D01*
X001671Y027952D01*
X001671Y028586D02*
X000825Y028586D01*
X000613Y028798D01*
X000613Y029221D01*
X000825Y029432D01*
X001671Y028586D01*
X001882Y028798D01*
X001882Y029221D01*
X001671Y029432D01*
X000825Y029432D01*
X001036Y029855D02*
X000613Y030278D01*
X001882Y030278D01*
X001882Y029855D02*
X001882Y030701D01*
D12*
X005356Y032251D02*
X005356Y032901D01*
X005356Y033201D01*
X005356Y034501D01*
X005356Y035151D01*
X005606Y035151D01*
X005606Y035051D01*
X005606Y034701D01*
X007356Y034701D01*
X007356Y035151D01*
X005606Y035151D01*
X005606Y035051D02*
X005456Y035051D01*
X005456Y034501D01*
X005456Y033201D01*
X005456Y032901D01*
X005456Y032351D01*
X005606Y032351D01*
X005606Y032701D01*
X007356Y032701D01*
X007356Y032251D01*
X005606Y032251D01*
X005356Y032251D01*
X005606Y032251D02*
X005606Y032351D01*
X005456Y033201D02*
X005356Y033201D01*
X007606Y033701D02*
X008406Y033701D01*
X011006Y033701D01*
X011806Y033701D01*
X012056Y032701D02*
X012056Y032251D01*
X013806Y032251D01*
X014056Y032251D01*
X014056Y032901D01*
X014056Y034201D01*
X013956Y034201D01*
X013956Y032901D01*
X013956Y032351D01*
X013806Y032351D01*
X013806Y032701D01*
X012056Y032701D01*
X013273Y031567D02*
X013706Y031317D01*
X014139Y031067D01*
X013139Y029335D01*
X012706Y029585D01*
X012273Y029835D01*
X013273Y031567D01*
X013706Y031317D02*
X013806Y031490D01*
X013806Y032251D02*
X013806Y032351D01*
X013956Y034201D02*
X013956Y034501D01*
X013956Y035051D01*
X013806Y035051D01*
X013806Y034701D01*
X012056Y034701D01*
X012056Y035151D01*
X013806Y035151D01*
X014056Y035151D01*
X014056Y034501D01*
X014056Y034201D01*
X013806Y035051D02*
X013806Y035151D01*
X012706Y029585D02*
X012606Y029412D01*
X011906Y029301D02*
X011906Y022601D01*
X011904Y022575D01*
X011899Y022549D01*
X011891Y022524D01*
X011879Y022501D01*
X011865Y022479D01*
X011847Y022460D01*
X011828Y022442D01*
X011806Y022428D01*
X011783Y022416D01*
X011758Y022408D01*
X011732Y022403D01*
X011706Y022401D01*
X009706Y022401D01*
X009680Y022403D01*
X009654Y022408D01*
X009629Y022416D01*
X009606Y022428D01*
X009584Y022442D01*
X009565Y022460D01*
X009547Y022479D01*
X009533Y022501D01*
X009521Y022524D01*
X009513Y022549D01*
X009508Y022575D01*
X009506Y022601D01*
X009506Y029301D01*
X009508Y029327D01*
X009513Y029353D01*
X009521Y029378D01*
X009533Y029401D01*
X009547Y029423D01*
X009565Y029442D01*
X009584Y029460D01*
X009606Y029474D01*
X009629Y029486D01*
X009654Y029494D01*
X009680Y029499D01*
X009706Y029501D01*
X011706Y029501D01*
X011732Y029499D01*
X011758Y029494D01*
X011783Y029486D01*
X011806Y029474D01*
X011828Y029460D01*
X011847Y029442D01*
X011865Y029423D01*
X011879Y029401D01*
X011891Y029378D01*
X011899Y029353D01*
X011904Y029327D01*
X011906Y029301D01*
X010706Y028351D02*
X010706Y027951D01*
X010706Y027601D02*
X010706Y023551D01*
X018081Y023751D02*
X018081Y022151D01*
X019081Y022151D01*
X019081Y023751D01*
X018081Y023751D01*
X018581Y023201D02*
X018581Y022951D01*
X018331Y022951D01*
X018581Y022951D02*
X018331Y022551D01*
X018831Y022551D01*
X018581Y022951D01*
X018831Y022951D01*
X018581Y022951D02*
X018581Y022351D01*
X019325Y022250D02*
X020309Y022077D01*
X020587Y023652D01*
X019602Y023826D01*
X019325Y022250D01*
X019913Y022705D02*
X019956Y022951D01*
X020202Y022908D01*
X019956Y022951D02*
X019779Y023389D01*
X020272Y023302D01*
X019956Y022951D01*
X019710Y022995D01*
X019956Y022951D02*
X020060Y023542D01*
X021731Y024226D02*
X021731Y020426D01*
X021733Y020409D01*
X021737Y020392D01*
X021744Y020376D01*
X021754Y020362D01*
X021767Y020349D01*
X021781Y020339D01*
X021797Y020332D01*
X021814Y020328D01*
X021831Y020326D01*
X022831Y020326D01*
X022848Y020328D01*
X022865Y020332D01*
X022881Y020339D01*
X022895Y020349D01*
X022908Y020362D01*
X022918Y020376D01*
X022925Y020392D01*
X022929Y020409D01*
X022931Y020426D01*
X022931Y024226D01*
X022929Y024243D01*
X022925Y024260D01*
X022918Y024276D01*
X022908Y024290D01*
X022895Y024303D01*
X022881Y024313D01*
X022865Y024320D01*
X022848Y024324D01*
X022831Y024326D01*
X021831Y024326D01*
X021814Y024324D01*
X021797Y024320D01*
X021781Y024313D01*
X021767Y024303D01*
X021754Y024290D01*
X021744Y024276D01*
X021737Y024260D01*
X021733Y024243D01*
X021731Y024226D01*
X022331Y023326D02*
X022331Y022526D01*
X022331Y022126D02*
X022331Y021326D01*
X025156Y021151D02*
X025156Y021701D01*
X025156Y022201D01*
X025156Y022751D01*
X025158Y022768D01*
X025162Y022785D01*
X025169Y022801D01*
X025179Y022815D01*
X025192Y022828D01*
X025206Y022838D01*
X025222Y022845D01*
X025239Y022849D01*
X025256Y022851D01*
X025606Y022851D01*
X025656Y022801D01*
X029756Y022801D01*
X029806Y022851D01*
X030156Y022851D01*
X030173Y022849D01*
X030190Y022845D01*
X030206Y022838D01*
X030220Y022828D01*
X030233Y022815D01*
X030243Y022801D01*
X030250Y022785D01*
X030254Y022768D01*
X030256Y022751D01*
X030256Y022201D01*
X030256Y021701D01*
X030256Y021151D01*
X030254Y021134D01*
X030250Y021117D01*
X030243Y021101D01*
X030233Y021087D01*
X030220Y021074D01*
X030206Y021064D01*
X030190Y021057D01*
X030173Y021053D01*
X030156Y021051D01*
X029806Y021051D01*
X029756Y021101D01*
X025656Y021101D01*
X025606Y021051D01*
X025256Y021051D01*
X025239Y021053D01*
X025222Y021057D01*
X025206Y021064D01*
X025192Y021074D01*
X025179Y021087D01*
X025169Y021101D01*
X025162Y021117D01*
X025158Y021134D01*
X025156Y021151D01*
X029706Y024426D02*
X029706Y024826D01*
X028606Y025076D02*
X028608Y025142D01*
X028614Y025207D01*
X028624Y025272D01*
X028637Y025337D01*
X028655Y025400D01*
X028676Y025463D01*
X028701Y025523D01*
X028730Y025583D01*
X028762Y025640D01*
X028797Y025696D01*
X028836Y025749D01*
X028878Y025800D01*
X028922Y025848D01*
X028970Y025893D01*
X029020Y025936D01*
X029073Y025975D01*
X029128Y026012D01*
X029185Y026045D01*
X029244Y026074D01*
X029304Y026100D01*
X029366Y026122D01*
X029429Y026141D01*
X029493Y026155D01*
X029558Y026166D01*
X029624Y026173D01*
X029690Y026176D01*
X029755Y026175D01*
X029821Y026170D01*
X029886Y026161D01*
X029951Y026148D01*
X030014Y026132D01*
X030077Y026112D01*
X030138Y026087D01*
X030198Y026060D01*
X030256Y026029D01*
X030312Y025994D01*
X030366Y025956D01*
X030417Y025915D01*
X030466Y025871D01*
X030512Y025824D01*
X030556Y025775D01*
X030596Y025723D01*
X030633Y025668D01*
X030667Y025612D01*
X030697Y025553D01*
X030724Y025493D01*
X030747Y025432D01*
X030766Y025369D01*
X030782Y025305D01*
X030794Y025240D01*
X030802Y025175D01*
X030806Y025109D01*
X030806Y025043D01*
X030802Y024977D01*
X030794Y024912D01*
X030782Y024847D01*
X030766Y024783D01*
X030747Y024720D01*
X030724Y024659D01*
X030697Y024599D01*
X030667Y024540D01*
X030633Y024484D01*
X030596Y024429D01*
X030556Y024377D01*
X030512Y024328D01*
X030466Y024281D01*
X030417Y024237D01*
X030366Y024196D01*
X030312Y024158D01*
X030256Y024123D01*
X030198Y024092D01*
X030138Y024065D01*
X030077Y024040D01*
X030014Y024020D01*
X029951Y024004D01*
X029886Y023991D01*
X029821Y023982D01*
X029755Y023977D01*
X029690Y023976D01*
X029624Y023979D01*
X029558Y023986D01*
X029493Y023997D01*
X029429Y024011D01*
X029366Y024030D01*
X029304Y024052D01*
X029244Y024078D01*
X029185Y024107D01*
X029128Y024140D01*
X029073Y024177D01*
X029020Y024216D01*
X028970Y024259D01*
X028922Y024304D01*
X028878Y024352D01*
X028836Y024403D01*
X028797Y024456D01*
X028762Y024512D01*
X028730Y024569D01*
X028701Y024629D01*
X028676Y024689D01*
X028655Y024752D01*
X028637Y024815D01*
X028624Y024880D01*
X028614Y024945D01*
X028608Y025010D01*
X028606Y025076D01*
X029206Y025176D02*
X029206Y025376D01*
X029706Y025376D01*
X030206Y025376D01*
X030206Y025176D01*
X029206Y025176D01*
X029706Y025376D02*
X029706Y025726D01*
X030056Y025726D02*
X030206Y025726D01*
X030356Y025726D01*
X030206Y025726D02*
X030206Y025876D01*
X030206Y025726D02*
X030206Y025576D01*
X029006Y026551D02*
X027406Y026551D01*
X027389Y026553D01*
X027372Y026557D01*
X027356Y026564D01*
X027342Y026574D01*
X027329Y026587D01*
X027319Y026601D01*
X027312Y026617D01*
X027308Y026634D01*
X027306Y026651D01*
X027306Y027251D01*
X027308Y027268D01*
X027312Y027285D01*
X027319Y027301D01*
X027329Y027315D01*
X027342Y027328D01*
X027356Y027338D01*
X027372Y027345D01*
X027389Y027349D01*
X027406Y027351D01*
X029006Y027351D01*
X029023Y027349D01*
X029040Y027345D01*
X029056Y027338D01*
X029070Y027328D01*
X029083Y027315D01*
X029093Y027301D01*
X029100Y027285D01*
X029104Y027268D01*
X029106Y027251D01*
X029106Y026651D01*
X029104Y026634D01*
X029100Y026617D01*
X029093Y026601D01*
X029083Y026587D01*
X029070Y026574D01*
X029056Y026564D01*
X029040Y026557D01*
X029023Y026553D01*
X029006Y026551D01*
X028456Y026951D02*
X028206Y026951D01*
X028206Y027201D01*
X028206Y026951D02*
X027806Y026701D01*
X027806Y027201D01*
X028206Y026951D01*
X028206Y026701D01*
X028206Y026951D02*
X027606Y026951D01*
X026756Y027426D02*
X028656Y027426D01*
X028706Y027376D01*
X028856Y027376D01*
X028873Y027378D01*
X028890Y027382D01*
X028906Y027389D01*
X028920Y027399D01*
X028933Y027412D01*
X028943Y027426D01*
X028950Y027442D01*
X028954Y027459D01*
X028956Y027476D01*
X028956Y028176D01*
X028954Y028193D01*
X028950Y028210D01*
X028943Y028226D01*
X028933Y028240D01*
X028920Y028253D01*
X028906Y028263D01*
X028890Y028270D01*
X028873Y028274D01*
X028856Y028276D01*
X028706Y028276D01*
X028656Y028226D01*
X026756Y028226D01*
X026706Y028276D01*
X026556Y028276D01*
X026539Y028274D01*
X026522Y028270D01*
X026506Y028263D01*
X026492Y028253D01*
X026479Y028240D01*
X026469Y028226D01*
X026462Y028210D01*
X026458Y028193D01*
X026456Y028176D01*
X026456Y027476D01*
X026458Y027459D01*
X026462Y027442D01*
X026469Y027426D01*
X026479Y027412D01*
X026492Y027399D01*
X026506Y027389D01*
X026522Y027382D01*
X026539Y027378D01*
X026556Y027376D01*
X026706Y027376D01*
X026756Y027426D01*
X028056Y028651D02*
X028056Y029251D01*
X028058Y029268D01*
X028062Y029285D01*
X028069Y029301D01*
X028079Y029315D01*
X028092Y029328D01*
X028106Y029338D01*
X028122Y029345D01*
X028139Y029349D01*
X028156Y029351D01*
X029756Y029351D01*
X029773Y029349D01*
X029790Y029345D01*
X029806Y029338D01*
X029820Y029328D01*
X029833Y029315D01*
X029843Y029301D01*
X029850Y029285D01*
X029854Y029268D01*
X029856Y029251D01*
X029856Y028651D01*
X029854Y028634D01*
X029850Y028617D01*
X029843Y028601D01*
X029833Y028587D01*
X029820Y028574D01*
X029806Y028564D01*
X029790Y028557D01*
X029773Y028553D01*
X029756Y028551D01*
X028156Y028551D01*
X028139Y028553D01*
X028122Y028557D01*
X028106Y028564D01*
X028092Y028574D01*
X028079Y028587D01*
X028069Y028601D01*
X028062Y028617D01*
X028058Y028634D01*
X028056Y028651D01*
X028356Y028951D02*
X028956Y028951D01*
X028956Y028701D01*
X028856Y028701D01*
X028956Y028951D02*
X028556Y028701D01*
X028556Y029201D01*
X028956Y028951D01*
X028956Y029201D01*
X028956Y028951D02*
X029206Y028951D01*
X027206Y029726D02*
X027206Y032426D01*
X027204Y032443D01*
X027200Y032460D01*
X027193Y032476D01*
X027183Y032490D01*
X027170Y032503D01*
X027156Y032513D01*
X027140Y032520D01*
X027123Y032524D01*
X027106Y032526D01*
X026306Y032526D01*
X026289Y032524D01*
X026272Y032520D01*
X026256Y032513D01*
X026242Y032503D01*
X026229Y032490D01*
X026219Y032476D01*
X026212Y032460D01*
X026208Y032443D01*
X026206Y032426D01*
X026206Y029726D01*
X026208Y029709D01*
X026212Y029692D01*
X026219Y029676D01*
X026229Y029662D01*
X026242Y029649D01*
X026256Y029639D01*
X026272Y029632D01*
X026289Y029628D01*
X026306Y029626D01*
X027106Y029626D01*
X027123Y029628D01*
X027140Y029632D01*
X027156Y029639D01*
X027170Y029649D01*
X027183Y029662D01*
X027193Y029676D01*
X027200Y029692D01*
X027204Y029709D01*
X027206Y029726D01*
X027206Y030426D02*
X027206Y032726D01*
X031206Y032726D01*
X031206Y031976D01*
X031256Y032351D02*
X031256Y031551D01*
X031206Y031176D02*
X031167Y031178D01*
X031128Y031184D01*
X031090Y031193D01*
X031053Y031206D01*
X031017Y031223D01*
X030984Y031243D01*
X030952Y031267D01*
X030923Y031293D01*
X030897Y031322D01*
X030873Y031354D01*
X030853Y031387D01*
X030836Y031423D01*
X030823Y031460D01*
X030814Y031498D01*
X030808Y031537D01*
X030806Y031576D01*
X030808Y031615D01*
X030814Y031654D01*
X030823Y031692D01*
X030836Y031729D01*
X030853Y031765D01*
X030873Y031798D01*
X030897Y031830D01*
X030923Y031859D01*
X030952Y031885D01*
X030984Y031909D01*
X031017Y031929D01*
X031053Y031946D01*
X031090Y031959D01*
X031128Y031968D01*
X031167Y031974D01*
X031206Y031976D01*
X031256Y032351D02*
X031258Y032368D01*
X031262Y032385D01*
X031269Y032401D01*
X031279Y032415D01*
X031292Y032428D01*
X031306Y032438D01*
X031322Y032445D01*
X031339Y032449D01*
X031356Y032451D01*
X034056Y032451D01*
X034073Y032449D01*
X034090Y032445D01*
X034106Y032438D01*
X034120Y032428D01*
X034133Y032415D01*
X034143Y032401D01*
X034150Y032385D01*
X034154Y032368D01*
X034156Y032351D01*
X034156Y031551D01*
X034154Y031534D01*
X034150Y031517D01*
X034143Y031501D01*
X034133Y031487D01*
X034120Y031474D01*
X034106Y031464D01*
X034090Y031457D01*
X034073Y031453D01*
X034056Y031451D01*
X031356Y031451D01*
X031339Y031453D01*
X031322Y031457D01*
X031306Y031464D01*
X031292Y031474D01*
X031279Y031487D01*
X031269Y031501D01*
X031262Y031517D01*
X031258Y031534D01*
X031256Y031551D01*
X031206Y031176D02*
X031206Y030426D01*
X027206Y030426D01*
X026706Y030476D02*
X026706Y030946D01*
X026706Y031196D02*
X026706Y031676D01*
X026031Y032076D02*
X025981Y032026D01*
X025981Y030126D01*
X026031Y030076D01*
X026031Y029926D01*
X026029Y029909D01*
X026025Y029892D01*
X026018Y029876D01*
X026008Y029862D01*
X025995Y029849D01*
X025981Y029839D01*
X025965Y029832D01*
X025948Y029828D01*
X025931Y029826D01*
X025231Y029826D01*
X025214Y029828D01*
X025197Y029832D01*
X025181Y029839D01*
X025167Y029849D01*
X025154Y029862D01*
X025144Y029876D01*
X025137Y029892D01*
X025133Y029909D01*
X025131Y029926D01*
X025131Y030076D01*
X025181Y030126D01*
X025181Y032026D01*
X025131Y032076D01*
X025131Y032226D01*
X025081Y032251D02*
X025081Y029151D01*
X025131Y029101D01*
X025131Y028851D01*
X025129Y028828D01*
X025124Y028805D01*
X025115Y028783D01*
X025102Y028763D01*
X025087Y028745D01*
X025069Y028730D01*
X025049Y028717D01*
X025027Y028708D01*
X025004Y028703D01*
X024981Y028701D01*
X023681Y028701D01*
X023658Y028703D01*
X023635Y028708D01*
X023613Y028717D01*
X023593Y028730D01*
X023575Y028745D01*
X023560Y028763D01*
X023547Y028783D01*
X023538Y028805D01*
X023533Y028828D01*
X023531Y028851D01*
X023531Y029101D01*
X023581Y029151D01*
X023581Y032251D01*
X023531Y032301D01*
X023531Y032551D01*
X023533Y032574D01*
X023538Y032597D01*
X023547Y032619D01*
X023560Y032639D01*
X023575Y032657D01*
X023593Y032672D01*
X023613Y032685D01*
X023635Y032694D01*
X023658Y032699D01*
X023681Y032701D01*
X024981Y032701D01*
X025004Y032699D01*
X025027Y032694D01*
X025049Y032685D01*
X025069Y032672D01*
X025087Y032657D01*
X025102Y032639D01*
X025115Y032619D01*
X025124Y032597D01*
X025129Y032574D01*
X025131Y032551D01*
X025131Y032301D01*
X025081Y032251D01*
X025131Y032226D02*
X025133Y032243D01*
X025137Y032260D01*
X025144Y032276D01*
X025154Y032290D01*
X025167Y032303D01*
X025181Y032313D01*
X025197Y032320D01*
X025214Y032324D01*
X025231Y032326D01*
X025931Y032326D01*
X025948Y032324D01*
X025965Y032320D01*
X025981Y032313D01*
X025995Y032303D01*
X026008Y032290D01*
X026018Y032276D01*
X026025Y032260D01*
X026029Y032243D01*
X026031Y032226D01*
X026031Y032076D01*
X026227Y032665D02*
X024253Y034506D01*
X024241Y034519D01*
X024232Y034534D01*
X024225Y034550D01*
X024222Y034567D01*
X024221Y034584D01*
X024224Y034601D01*
X024229Y034618D01*
X024237Y034633D01*
X024248Y034647D01*
X024248Y034648D02*
X024793Y035233D01*
X024793Y035232D02*
X024806Y035244D01*
X024821Y035253D01*
X024837Y035260D01*
X024854Y035263D01*
X024871Y035264D01*
X024888Y035261D01*
X024905Y035256D01*
X024920Y035248D01*
X024934Y035237D01*
X024935Y035238D02*
X026909Y033396D01*
X026921Y033383D01*
X026930Y033368D01*
X026937Y033352D01*
X026940Y033335D01*
X026941Y033318D01*
X026938Y033301D01*
X026933Y033284D01*
X026925Y033269D01*
X026914Y033255D01*
X026369Y032670D01*
X026368Y032670D02*
X026355Y032658D01*
X026340Y032649D01*
X026324Y032642D01*
X026307Y032639D01*
X026290Y032638D01*
X026273Y032641D01*
X026256Y032646D01*
X026241Y032654D01*
X026227Y032665D01*
X026020Y033542D02*
X025669Y033869D01*
X025486Y034040D02*
X025142Y034360D01*
X026581Y034601D02*
X026581Y035301D01*
X026583Y035318D01*
X026587Y035335D01*
X026594Y035351D01*
X026604Y035365D01*
X026617Y035378D01*
X026631Y035388D01*
X026647Y035395D01*
X026664Y035399D01*
X026681Y035401D01*
X026831Y035401D01*
X026881Y035351D01*
X028781Y035351D01*
X028831Y035401D01*
X028981Y035401D01*
X028998Y035399D01*
X029015Y035395D01*
X029031Y035388D01*
X029045Y035378D01*
X029058Y035365D01*
X029068Y035351D01*
X029075Y035335D01*
X029079Y035318D01*
X029081Y035301D01*
X029081Y034601D01*
X029079Y034584D01*
X029075Y034567D01*
X029068Y034551D01*
X029058Y034537D01*
X029045Y034524D01*
X029031Y034514D01*
X029015Y034507D01*
X028998Y034503D01*
X028981Y034501D01*
X028831Y034501D01*
X028781Y034551D01*
X026881Y034551D01*
X026831Y034501D01*
X026681Y034501D01*
X026664Y034503D01*
X026647Y034507D01*
X026631Y034514D01*
X026617Y034524D01*
X026604Y034537D01*
X026594Y034551D01*
X026587Y034567D01*
X026583Y034584D01*
X026581Y034601D01*
X029956Y034426D02*
X029956Y033726D01*
X029958Y033709D01*
X029962Y033692D01*
X029969Y033676D01*
X029979Y033662D01*
X029992Y033649D01*
X030006Y033639D01*
X030022Y033632D01*
X030039Y033628D01*
X030056Y033626D01*
X030206Y033626D01*
X030256Y033676D01*
X032156Y033676D01*
X032206Y033626D01*
X032356Y033626D01*
X032373Y033628D01*
X032390Y033632D01*
X032406Y033639D01*
X032420Y033649D01*
X032433Y033662D01*
X032443Y033676D01*
X032450Y033692D01*
X032454Y033709D01*
X032456Y033726D01*
X032456Y034426D01*
X032454Y034443D01*
X032450Y034460D01*
X032443Y034476D01*
X032433Y034490D01*
X032420Y034503D01*
X032406Y034513D01*
X032390Y034520D01*
X032373Y034524D01*
X032356Y034526D01*
X032206Y034526D01*
X032156Y034476D01*
X030256Y034476D01*
X030206Y034526D01*
X030056Y034526D01*
X030039Y034524D01*
X030022Y034520D01*
X030006Y034513D01*
X029992Y034503D01*
X029979Y034490D01*
X029969Y034476D01*
X029962Y034460D01*
X029958Y034443D01*
X029956Y034426D01*
X032106Y031951D02*
X032576Y031951D01*
X032826Y031951D02*
X033306Y031951D01*
X034556Y030551D02*
X038356Y030551D01*
X038373Y030549D01*
X038390Y030545D01*
X038406Y030538D01*
X038420Y030528D01*
X038433Y030515D01*
X038443Y030501D01*
X038450Y030485D01*
X038454Y030468D01*
X038456Y030451D01*
X038456Y029451D01*
X038454Y029434D01*
X038450Y029417D01*
X038443Y029401D01*
X038433Y029387D01*
X038420Y029374D01*
X038406Y029364D01*
X038390Y029357D01*
X038373Y029353D01*
X038356Y029351D01*
X034556Y029351D01*
X034539Y029353D01*
X034522Y029357D01*
X034506Y029364D01*
X034492Y029374D01*
X034479Y029387D01*
X034469Y029401D01*
X034462Y029417D01*
X034458Y029434D01*
X034456Y029451D01*
X034456Y030451D01*
X034458Y030468D01*
X034462Y030485D01*
X034469Y030501D01*
X034479Y030515D01*
X034492Y030528D01*
X034506Y030538D01*
X034522Y030545D01*
X034539Y030549D01*
X034556Y030551D01*
X035456Y029951D02*
X036256Y029951D01*
X036656Y029951D02*
X037456Y029951D01*
X039556Y030531D02*
X039556Y030689D01*
X040106Y030751D02*
X040106Y032401D01*
X040306Y032001D02*
X040306Y033901D01*
X040256Y033951D01*
X040256Y034101D01*
X040258Y034118D01*
X040262Y034135D01*
X040269Y034151D01*
X040279Y034165D01*
X040292Y034178D01*
X040306Y034188D01*
X040322Y034195D01*
X040339Y034199D01*
X040356Y034201D01*
X041056Y034201D01*
X041073Y034199D01*
X041090Y034195D01*
X041106Y034188D01*
X041120Y034178D01*
X041133Y034165D01*
X041143Y034151D01*
X041150Y034135D01*
X041154Y034118D01*
X041156Y034101D01*
X041156Y033951D01*
X041106Y033901D01*
X041106Y032001D01*
X041156Y031951D01*
X041156Y031801D01*
X041154Y031784D01*
X041150Y031767D01*
X041143Y031751D01*
X041133Y031737D01*
X041120Y031724D01*
X041106Y031714D01*
X041090Y031707D01*
X041073Y031703D01*
X041056Y031701D01*
X040356Y031701D01*
X040339Y031703D01*
X040322Y031707D01*
X040306Y031714D01*
X040292Y031724D01*
X040279Y031737D01*
X040269Y031751D01*
X040262Y031767D01*
X040258Y031784D01*
X040256Y031801D01*
X040256Y031951D01*
X040306Y032001D01*
X039556Y032464D02*
X039556Y032621D01*
X040106Y032401D02*
X040055Y032438D01*
X040002Y032473D01*
X039946Y032505D01*
X039889Y032533D01*
X039830Y032557D01*
X039770Y032578D01*
X039709Y032595D01*
X039647Y032609D01*
X039584Y032618D01*
X039521Y032624D01*
X039457Y032626D01*
X039393Y032624D01*
X039330Y032618D01*
X039267Y032609D01*
X039205Y032596D01*
X039144Y032578D01*
X039084Y032558D01*
X039025Y032533D01*
X038968Y032506D01*
X038912Y032474D01*
X038859Y032440D01*
X038808Y032402D01*
X038759Y032361D01*
X038713Y032317D01*
X038669Y032271D01*
X038628Y032222D01*
X038591Y032171D01*
X038556Y032117D01*
X038525Y032062D01*
X038497Y032005D01*
X038473Y031946D01*
X038453Y031886D01*
X037856Y032701D02*
X037106Y032701D01*
X037104Y032740D01*
X037098Y032779D01*
X037089Y032817D01*
X037076Y032854D01*
X037059Y032890D01*
X037039Y032923D01*
X037015Y032955D01*
X036989Y032984D01*
X036960Y033010D01*
X036928Y033034D01*
X036895Y033054D01*
X036859Y033071D01*
X036822Y033084D01*
X036784Y033093D01*
X036745Y033099D01*
X036706Y033101D01*
X036667Y033099D01*
X036628Y033093D01*
X036590Y033084D01*
X036553Y033071D01*
X036517Y033054D01*
X036484Y033034D01*
X036452Y033010D01*
X036423Y032984D01*
X036397Y032955D01*
X036373Y032923D01*
X036353Y032890D01*
X036336Y032854D01*
X036323Y032817D01*
X036314Y032779D01*
X036308Y032740D01*
X036306Y032701D01*
X035556Y032701D01*
X035556Y034701D01*
X037856Y034701D01*
X037856Y032701D01*
X038453Y031886D02*
X038436Y031825D01*
X038423Y031764D01*
X038414Y031701D01*
X038408Y031639D01*
X038406Y031576D01*
X038408Y031513D01*
X038414Y031451D01*
X038423Y031388D01*
X038436Y031327D01*
X038453Y031266D01*
X038473Y031206D01*
X038497Y031147D01*
X038525Y031090D01*
X038556Y031035D01*
X038591Y030981D01*
X038628Y030930D01*
X038669Y030881D01*
X038713Y030835D01*
X038759Y030791D01*
X038808Y030750D01*
X038859Y030712D01*
X038912Y030678D01*
X038968Y030647D01*
X039025Y030619D01*
X039084Y030594D01*
X039144Y030574D01*
X039205Y030556D01*
X039267Y030543D01*
X039330Y030534D01*
X039393Y030528D01*
X039457Y030526D01*
X039521Y030528D01*
X039584Y030534D01*
X039647Y030543D01*
X039709Y030557D01*
X039770Y030574D01*
X039830Y030595D01*
X039889Y030619D01*
X039946Y030647D01*
X040002Y030679D01*
X040055Y030714D01*
X040106Y030751D01*
X040306Y030401D02*
X041106Y030401D01*
X041123Y030399D01*
X041140Y030395D01*
X041156Y030388D01*
X041170Y030378D01*
X041183Y030365D01*
X041193Y030351D01*
X041200Y030335D01*
X041204Y030318D01*
X041206Y030301D01*
X041206Y027601D01*
X041204Y027584D01*
X041200Y027567D01*
X041193Y027551D01*
X041183Y027537D01*
X041170Y027524D01*
X041156Y027514D01*
X041140Y027507D01*
X041123Y027503D01*
X041106Y027501D01*
X040306Y027501D01*
X040289Y027503D01*
X040272Y027507D01*
X040256Y027514D01*
X040242Y027524D01*
X040229Y027537D01*
X040219Y027551D01*
X040212Y027567D01*
X040208Y027584D01*
X040206Y027601D01*
X040206Y030301D01*
X040208Y030318D01*
X040212Y030335D01*
X040219Y030351D01*
X040229Y030365D01*
X040242Y030378D01*
X040256Y030388D01*
X040272Y030395D01*
X040289Y030399D01*
X040306Y030401D01*
X040706Y029551D02*
X040706Y029081D01*
X040706Y028831D02*
X040706Y028351D01*
X045656Y027556D02*
X045969Y026696D01*
X045976Y026680D01*
X045986Y026666D01*
X045999Y026653D01*
X046013Y026643D01*
X046029Y026636D01*
X046046Y026632D01*
X046063Y026630D01*
X046080Y026632D01*
X046097Y026636D01*
X046238Y026688D01*
X046268Y026752D01*
X047491Y027197D01*
X047555Y027167D01*
X047696Y027218D01*
X047712Y027225D01*
X047726Y027235D01*
X047739Y027248D01*
X047749Y027262D01*
X047756Y027278D01*
X047760Y027295D01*
X047762Y027312D01*
X047760Y027329D01*
X047756Y027346D01*
X047756Y027347D02*
X047443Y028206D01*
X047436Y028222D01*
X047426Y028236D01*
X047413Y028249D01*
X047399Y028259D01*
X047383Y028266D01*
X047366Y028270D01*
X047349Y028272D01*
X047332Y028270D01*
X047315Y028266D01*
X047174Y028215D01*
X047144Y028151D01*
X045921Y027706D01*
X045857Y027735D01*
X045716Y027684D01*
X045698Y027675D01*
X045682Y027664D01*
X045669Y027649D01*
X045659Y027632D01*
X045653Y027614D01*
X045650Y027594D01*
X045651Y027575D01*
X045656Y027556D01*
X046331Y028951D02*
X046831Y028951D01*
X047081Y029201D01*
X047081Y029701D01*
X046831Y029951D01*
X047081Y030201D01*
X047081Y030701D01*
X046831Y030951D01*
X047081Y031201D01*
X047081Y031701D01*
X046831Y031951D01*
X046331Y031951D01*
X046081Y031701D01*
X046081Y031201D01*
X046331Y030951D01*
X046081Y030701D01*
X046081Y030201D01*
X046331Y029951D01*
X046081Y029701D01*
X046081Y029201D01*
X046331Y028951D01*
X045306Y022776D02*
X041606Y022776D01*
X041506Y022676D01*
X041456Y021526D01*
X045456Y021526D02*
X045406Y022676D01*
X045306Y022776D01*
X024648Y025810D02*
X024395Y026353D01*
X024386Y026368D01*
X024375Y026382D01*
X024361Y026393D01*
X024346Y026402D01*
X024330Y026408D01*
X024313Y026411D01*
X024295Y026411D01*
X024278Y026408D01*
X024262Y026402D01*
X022812Y025726D01*
X022797Y025717D01*
X022783Y025706D01*
X022772Y025692D01*
X022763Y025677D01*
X022757Y025661D01*
X022754Y025644D01*
X022754Y025626D01*
X022757Y025609D01*
X022763Y025593D01*
X022764Y025593D02*
X023017Y025049D01*
X023026Y025034D01*
X023037Y025020D01*
X023051Y025009D01*
X023066Y025000D01*
X023082Y024994D01*
X023099Y024991D01*
X023117Y024991D01*
X023134Y024994D01*
X023150Y025000D01*
X023150Y025001D02*
X024600Y025677D01*
X024600Y025676D02*
X024617Y025686D01*
X024632Y025699D01*
X024643Y025715D01*
X024652Y025733D01*
X024657Y025752D01*
X024658Y025771D01*
X024655Y025791D01*
X024649Y025809D01*
X024250Y025955D02*
X023706Y025701D01*
X023812Y025475D01*
X023706Y025701D02*
X024174Y025644D01*
X023963Y026097D01*
X023706Y025701D01*
X023600Y025928D01*
X023706Y025701D02*
X023479Y025596D01*
X020587Y027125D02*
X020309Y028701D01*
X019325Y028527D01*
X019602Y026952D01*
X020587Y027125D01*
X020272Y027476D02*
X019956Y027826D01*
X019710Y027783D01*
X019956Y027826D02*
X020202Y027870D01*
X019956Y027826D02*
X020060Y027235D01*
X019779Y027389D02*
X019956Y027826D01*
X019913Y028072D01*
X020272Y027476D02*
X019779Y027389D01*
X019081Y027026D02*
X018081Y027026D01*
X018081Y028626D01*
X019081Y028626D01*
X019081Y027026D01*
X018581Y027576D02*
X018581Y027826D01*
X018831Y027826D01*
X018581Y027826D02*
X018331Y027826D01*
X018581Y027826D02*
X018331Y028226D01*
X018831Y028226D01*
X018581Y027826D01*
X018581Y028426D01*
X021656Y031654D02*
X021656Y031954D01*
X021506Y031804D02*
X021806Y031804D01*
X022056Y032004D02*
X022056Y032304D01*
X021706Y032304D01*
X021706Y032434D01*
X022406Y032434D01*
X022406Y032304D01*
X022056Y032304D01*
X022056Y032704D02*
X022056Y033004D01*
X030831Y039701D02*
X030981Y039701D01*
X031681Y039701D01*
X031831Y039701D01*
X031854Y039703D01*
X031877Y039708D01*
X031899Y039717D01*
X031919Y039730D01*
X031937Y039745D01*
X031952Y039763D01*
X031965Y039783D01*
X031974Y039805D01*
X031979Y039828D01*
X031981Y039851D01*
X031981Y041551D01*
X031979Y041574D01*
X031974Y041597D01*
X031965Y041619D01*
X031952Y041639D01*
X031937Y041657D01*
X031919Y041672D01*
X031899Y041685D01*
X031877Y041694D01*
X031854Y041699D01*
X031831Y041701D01*
X031681Y041701D01*
X030981Y041701D01*
X030831Y041701D01*
X030808Y041699D01*
X030785Y041694D01*
X030763Y041685D01*
X030743Y041672D01*
X030725Y041657D01*
X030710Y041639D01*
X030697Y041619D01*
X030688Y041597D01*
X030683Y041574D01*
X030681Y041551D01*
X030681Y039851D01*
X030683Y039828D01*
X030688Y039805D01*
X030697Y039783D01*
X030710Y039763D01*
X030725Y039745D01*
X030743Y039730D01*
X030763Y039717D01*
X030785Y039708D01*
X030808Y039703D01*
X030831Y039701D01*
X036781Y006126D02*
X037331Y006126D01*
X037831Y006126D01*
X038381Y006126D01*
X038398Y006124D01*
X038415Y006120D01*
X038431Y006113D01*
X038445Y006103D01*
X038458Y006090D01*
X038468Y006076D01*
X038475Y006060D01*
X038479Y006043D01*
X038481Y006026D01*
X038481Y005676D01*
X038431Y005626D01*
X038431Y001526D01*
X038481Y001476D01*
X038481Y001126D01*
X038479Y001109D01*
X038475Y001092D01*
X038468Y001076D01*
X038458Y001062D01*
X038445Y001049D01*
X038431Y001039D01*
X038415Y001032D01*
X038398Y001028D01*
X038381Y001026D01*
X037831Y001026D01*
X037331Y001026D01*
X036781Y001026D01*
X036764Y001028D01*
X036747Y001032D01*
X036731Y001039D01*
X036717Y001049D01*
X036704Y001062D01*
X036694Y001076D01*
X036687Y001092D01*
X036683Y001109D01*
X036681Y001126D01*
X036681Y001476D01*
X036731Y001526D01*
X036731Y005626D01*
X036681Y005676D01*
X036681Y006026D01*
X036683Y006043D01*
X036687Y006060D01*
X036694Y006076D01*
X036704Y006090D01*
X036717Y006103D01*
X036731Y006113D01*
X036747Y006120D01*
X036764Y006124D01*
X036781Y006126D01*
D13*
X029706Y027826D02*
X029306Y027826D01*
X026106Y027826D02*
X025706Y027826D01*
X025581Y029076D02*
X025581Y029476D01*
X025581Y032676D02*
X025581Y033076D01*
X025831Y034951D02*
X026231Y034951D01*
X029206Y034076D02*
X029606Y034076D01*
X029431Y034951D02*
X029831Y034951D01*
X032806Y034076D02*
X033206Y034076D01*
X040706Y034551D02*
X040706Y034951D01*
X040706Y031351D02*
X040706Y030951D01*
D14*
X032626Y034076D03*
X029786Y034076D03*
X029251Y034951D03*
X026411Y034951D03*
X026286Y027826D03*
X029126Y027826D03*
D15*
X026956Y030946D02*
X026706Y030946D01*
X026456Y030946D01*
X026456Y031196D02*
X026706Y031196D01*
X026956Y031196D01*
X025498Y033687D02*
X025669Y033869D01*
X025839Y034052D01*
X025656Y034223D02*
X025486Y034040D01*
X025315Y033857D01*
X032576Y032201D02*
X032576Y031951D01*
X032576Y031701D01*
X032826Y031701D02*
X032826Y031951D01*
X032826Y032201D01*
X040456Y029081D02*
X040706Y029081D01*
X040956Y029081D01*
X040956Y028831D02*
X040706Y028831D01*
X040456Y028831D01*
X016956Y026451D02*
X016956Y025451D01*
X016954Y025407D01*
X016948Y025364D01*
X016939Y025322D01*
X016926Y025280D01*
X016909Y025240D01*
X016889Y025201D01*
X016866Y025164D01*
X016839Y025130D01*
X016810Y025097D01*
X016777Y025068D01*
X016743Y025041D01*
X016706Y025018D01*
X016667Y024998D01*
X016627Y024981D01*
X016585Y024968D01*
X016543Y024959D01*
X016500Y024953D01*
X016456Y024951D01*
X016412Y024953D01*
X016369Y024959D01*
X016327Y024968D01*
X016285Y024981D01*
X016245Y024998D01*
X016206Y025018D01*
X016169Y025041D01*
X016135Y025068D01*
X016102Y025097D01*
X016073Y025130D01*
X016046Y025164D01*
X016023Y025201D01*
X016003Y025240D01*
X015986Y025280D01*
X015973Y025322D01*
X015964Y025364D01*
X015958Y025407D01*
X015956Y025451D01*
X015954Y025407D01*
X015948Y025364D01*
X015939Y025322D01*
X015926Y025280D01*
X015909Y025240D01*
X015889Y025201D01*
X015866Y025164D01*
X015839Y025130D01*
X015810Y025097D01*
X015777Y025068D01*
X015743Y025041D01*
X015706Y025018D01*
X015667Y024998D01*
X015627Y024981D01*
X015585Y024968D01*
X015543Y024959D01*
X015500Y024953D01*
X015456Y024951D01*
X015412Y024953D01*
X015369Y024959D01*
X015327Y024968D01*
X015285Y024981D01*
X015245Y024998D01*
X015206Y025018D01*
X015169Y025041D01*
X015135Y025068D01*
X015102Y025097D01*
X015073Y025130D01*
X015046Y025164D01*
X015023Y025201D01*
X015003Y025240D01*
X014986Y025280D01*
X014973Y025322D01*
X014964Y025364D01*
X014958Y025407D01*
X014956Y025451D01*
X014954Y025407D01*
X014948Y025364D01*
X014939Y025322D01*
X014926Y025280D01*
X014909Y025240D01*
X014889Y025201D01*
X014866Y025164D01*
X014839Y025130D01*
X014810Y025097D01*
X014777Y025068D01*
X014743Y025041D01*
X014706Y025018D01*
X014667Y024998D01*
X014627Y024981D01*
X014585Y024968D01*
X014543Y024959D01*
X014500Y024953D01*
X014456Y024951D01*
X014412Y024953D01*
X014369Y024959D01*
X014327Y024968D01*
X014285Y024981D01*
X014245Y024998D01*
X014206Y025018D01*
X014169Y025041D01*
X014135Y025068D01*
X014102Y025097D01*
X014073Y025130D01*
X014046Y025164D01*
X014023Y025201D01*
X014003Y025240D01*
X013986Y025280D01*
X013973Y025322D01*
X013964Y025364D01*
X013958Y025407D01*
X013956Y025451D01*
X013954Y025407D01*
X013948Y025364D01*
X013939Y025322D01*
X013926Y025280D01*
X013909Y025240D01*
X013889Y025201D01*
X013866Y025164D01*
X013839Y025130D01*
X013810Y025097D01*
X013777Y025068D01*
X013743Y025041D01*
X013706Y025018D01*
X013667Y024998D01*
X013627Y024981D01*
X013585Y024968D01*
X013543Y024959D01*
X013500Y024953D01*
X013456Y024951D01*
X013412Y024953D01*
X013369Y024959D01*
X013327Y024968D01*
X013285Y024981D01*
X013245Y024998D01*
X013206Y025018D01*
X013169Y025041D01*
X013135Y025068D01*
X013102Y025097D01*
X013073Y025130D01*
X013046Y025164D01*
X013023Y025201D01*
X013003Y025240D01*
X012986Y025280D01*
X012973Y025322D01*
X012964Y025364D01*
X012958Y025407D01*
X012956Y025451D01*
X012956Y026451D01*
X012956Y024451D02*
X016956Y024451D01*
X016956Y023451D02*
X016956Y022451D01*
X016956Y023451D02*
X016954Y023495D01*
X016948Y023538D01*
X016939Y023580D01*
X016926Y023622D01*
X016909Y023662D01*
X016889Y023701D01*
X016866Y023738D01*
X016839Y023772D01*
X016810Y023805D01*
X016777Y023834D01*
X016743Y023861D01*
X016706Y023884D01*
X016667Y023904D01*
X016627Y023921D01*
X016585Y023934D01*
X016543Y023943D01*
X016500Y023949D01*
X016456Y023951D01*
X016412Y023949D01*
X016369Y023943D01*
X016327Y023934D01*
X016285Y023921D01*
X016245Y023904D01*
X016206Y023884D01*
X016169Y023861D01*
X016135Y023834D01*
X016102Y023805D01*
X016073Y023772D01*
X016046Y023738D01*
X016023Y023701D01*
X016003Y023662D01*
X015986Y023622D01*
X015973Y023580D01*
X015964Y023538D01*
X015958Y023495D01*
X015956Y023451D01*
X015954Y023495D01*
X015948Y023538D01*
X015939Y023580D01*
X015926Y023622D01*
X015909Y023662D01*
X015889Y023701D01*
X015866Y023738D01*
X015839Y023772D01*
X015810Y023805D01*
X015777Y023834D01*
X015743Y023861D01*
X015706Y023884D01*
X015667Y023904D01*
X015627Y023921D01*
X015585Y023934D01*
X015543Y023943D01*
X015500Y023949D01*
X015456Y023951D01*
X015412Y023949D01*
X015369Y023943D01*
X015327Y023934D01*
X015285Y023921D01*
X015245Y023904D01*
X015206Y023884D01*
X015169Y023861D01*
X015135Y023834D01*
X015102Y023805D01*
X015073Y023772D01*
X015046Y023738D01*
X015023Y023701D01*
X015003Y023662D01*
X014986Y023622D01*
X014973Y023580D01*
X014964Y023538D01*
X014958Y023495D01*
X014956Y023451D01*
X014954Y023495D01*
X014948Y023538D01*
X014939Y023580D01*
X014926Y023622D01*
X014909Y023662D01*
X014889Y023701D01*
X014866Y023738D01*
X014839Y023772D01*
X014810Y023805D01*
X014777Y023834D01*
X014743Y023861D01*
X014706Y023884D01*
X014667Y023904D01*
X014627Y023921D01*
X014585Y023934D01*
X014543Y023943D01*
X014500Y023949D01*
X014456Y023951D01*
X014412Y023949D01*
X014369Y023943D01*
X014327Y023934D01*
X014285Y023921D01*
X014245Y023904D01*
X014206Y023884D01*
X014169Y023861D01*
X014135Y023834D01*
X014102Y023805D01*
X014073Y023772D01*
X014046Y023738D01*
X014023Y023701D01*
X014003Y023662D01*
X013986Y023622D01*
X013973Y023580D01*
X013964Y023538D01*
X013958Y023495D01*
X013956Y023451D01*
X013954Y023495D01*
X013948Y023538D01*
X013939Y023580D01*
X013926Y023622D01*
X013909Y023662D01*
X013889Y023701D01*
X013866Y023738D01*
X013839Y023772D01*
X013810Y023805D01*
X013777Y023834D01*
X013743Y023861D01*
X013706Y023884D01*
X013667Y023904D01*
X013627Y023921D01*
X013585Y023934D01*
X013543Y023943D01*
X013500Y023949D01*
X013456Y023951D01*
X013412Y023949D01*
X013369Y023943D01*
X013327Y023934D01*
X013285Y023921D01*
X013245Y023904D01*
X013206Y023884D01*
X013169Y023861D01*
X013135Y023834D01*
X013102Y023805D01*
X013073Y023772D01*
X013046Y023738D01*
X013023Y023701D01*
X013003Y023662D01*
X012986Y023622D01*
X012973Y023580D01*
X012964Y023538D01*
X012958Y023495D01*
X012956Y023451D01*
X012956Y022451D01*
D16*
X018581Y023501D03*
X018581Y027276D03*
X029706Y024876D03*
D17*
X029706Y026951D02*
X029356Y026951D01*
X027056Y026951D02*
X026706Y026951D01*
X025519Y026546D02*
X025201Y026399D01*
X022211Y025004D02*
X021893Y024856D01*
X026956Y028951D02*
X027306Y028951D01*
X030606Y028951D02*
X030956Y028951D01*
X045296Y026938D02*
X045674Y027076D01*
X047738Y027827D02*
X048116Y027964D01*
D18*
X029606Y028951D03*
X028856Y026951D03*
G36*
X023376Y025107D02*
X023195Y025023D01*
X022858Y025747D01*
X023039Y025831D01*
X023376Y025107D01*
G37*
D19*
X027181Y026951D03*
X029231Y026951D03*
D20*
X025581Y029656D03*
X025581Y032496D03*
X040706Y031531D03*
X040706Y034371D03*
D21*
X039893Y032160D02*
X039941Y032111D01*
X039941Y032015D01*
X039893Y031966D01*
X039699Y031966D01*
X039651Y032015D01*
X039651Y032111D01*
X039699Y032160D01*
X039191Y031660D02*
X038997Y031660D01*
X038901Y031563D01*
X038997Y031466D01*
X039191Y031466D01*
X039046Y031466D02*
X039046Y031660D01*
X039651Y031111D02*
X039699Y031160D01*
X039796Y031160D01*
X039844Y031111D01*
X039844Y030966D01*
X039844Y031063D02*
X039941Y031160D01*
X039941Y030966D02*
X039651Y030966D01*
X039651Y031111D01*
D22*
X022056Y032639D03*
D23*
X023206Y030142D02*
X014545Y030142D01*
X014545Y035260D01*
X023206Y035260D01*
X023206Y030142D01*
X017909Y028585D02*
X017909Y020317D01*
X012003Y020317D01*
X012003Y028585D01*
X017909Y028585D01*
X008574Y031370D02*
X008574Y024283D01*
X005031Y024283D01*
X005031Y023496D01*
X004440Y023496D01*
X004440Y024283D01*
X003850Y024283D01*
X003850Y023496D01*
X003062Y023496D01*
X003062Y032157D01*
X003850Y032157D01*
X003850Y031370D01*
X004440Y031370D01*
X004440Y032157D01*
X005031Y032157D01*
X005031Y031370D01*
X008574Y031370D01*
X031625Y029157D02*
X031625Y020496D01*
X040287Y020496D01*
X040287Y029157D01*
X031625Y029157D01*
X040706Y026545D02*
X048974Y026545D01*
X048974Y022608D01*
X040706Y022608D01*
X040706Y026545D01*
X041362Y027201D02*
X041362Y035469D01*
X045299Y035469D01*
X045299Y027201D01*
X041362Y027201D01*
X046356Y032166D02*
X046506Y032016D01*
X046356Y032166D02*
X046806Y032166D01*
X046806Y032016D02*
X046806Y032316D01*
D24*
X027526Y025366D02*
X027726Y024766D01*
X027726Y024136D01*
X023686Y024136D01*
X023686Y024766D01*
X023886Y025366D01*
X027526Y025366D01*
D25*
X025706Y023846D03*
D26*
X022681Y022526D02*
X022331Y022526D01*
X021981Y022526D01*
X021981Y022126D02*
X022331Y022126D01*
X022681Y022126D01*
X011206Y027601D02*
X010706Y027601D01*
X010206Y027601D01*
X010206Y027951D02*
X010706Y027951D01*
X011206Y027951D01*
X036256Y029601D02*
X036256Y029951D01*
X036256Y030301D01*
X036656Y030301D02*
X036656Y029951D01*
X036656Y029601D01*
D27*
X031781Y039801D02*
X030881Y039801D01*
X030864Y039803D01*
X030847Y039807D01*
X030831Y039814D01*
X030817Y039824D01*
X030804Y039837D01*
X030794Y039851D01*
X030787Y039867D01*
X030783Y039884D01*
X030781Y039901D01*
X030781Y040351D01*
X030783Y040368D01*
X030787Y040385D01*
X030794Y040401D01*
X030804Y040415D01*
X030817Y040428D01*
X030831Y040438D01*
X030847Y040445D01*
X030864Y040449D01*
X030881Y040451D01*
X031781Y040451D01*
X031798Y040449D01*
X031815Y040445D01*
X031831Y040438D01*
X031845Y040428D01*
X031858Y040415D01*
X031868Y040401D01*
X031875Y040385D01*
X031879Y040368D01*
X031881Y040351D01*
X031881Y039901D01*
X031879Y039884D01*
X031875Y039867D01*
X031868Y039851D01*
X031858Y039837D01*
X031845Y039824D01*
X031831Y039814D01*
X031815Y039807D01*
X031798Y039803D01*
X031781Y039801D01*
X031781Y040951D02*
X030881Y040951D01*
X030864Y040953D01*
X030847Y040957D01*
X030831Y040964D01*
X030817Y040974D01*
X030804Y040987D01*
X030794Y041001D01*
X030787Y041017D01*
X030783Y041034D01*
X030781Y041051D01*
X030781Y041501D01*
X030783Y041518D01*
X030787Y041535D01*
X030794Y041551D01*
X030804Y041565D01*
X030817Y041578D01*
X030831Y041588D01*
X030847Y041595D01*
X030864Y041599D01*
X030881Y041601D01*
X031781Y041601D01*
X031798Y041599D01*
X031815Y041595D01*
X031831Y041588D01*
X031845Y041578D01*
X031858Y041565D01*
X031868Y041551D01*
X031875Y041535D01*
X031879Y041518D01*
X031881Y041501D01*
X031881Y041051D01*
X031879Y041034D01*
X031875Y041017D01*
X031868Y041001D01*
X031858Y040987D01*
X031845Y040974D01*
X031831Y040964D01*
X031815Y040957D01*
X031798Y040953D01*
X031781Y040951D01*
X011806Y034851D02*
X007606Y034851D01*
X007606Y032551D02*
X011806Y032551D01*
D28*
X013581Y033701D03*
X005831Y033701D03*
D29*
X007481Y032676D03*
X007481Y034726D03*
X011931Y034726D03*
X011931Y032676D03*
D30*
X011931Y033701D03*
X007481Y033701D03*
D31*
X007856Y032951D03*
X007856Y034451D03*
X011556Y034451D03*
X011556Y032951D03*
D32*
X006481Y032801D03*
D33*
X009706Y032951D03*
X009706Y034451D03*
D34*
X012106Y034476D03*
X013456Y034476D03*
X013456Y032926D03*
X012106Y032926D03*
X007306Y032926D03*
X005956Y032926D03*
X005956Y034476D03*
X007306Y034476D03*
D35*
X006631Y034476D03*
X006631Y032926D03*
X012781Y032926D03*
X012781Y034476D03*
D36*
X012856Y034601D03*
X012856Y032801D03*
X006556Y034601D03*
D37*
G36*
X022932Y025229D02*
X022253Y024913D01*
X022168Y025095D01*
X022847Y025411D01*
X022932Y025229D01*
G37*
G36*
X025244Y026307D02*
X024565Y025991D01*
X024480Y026173D01*
X025159Y026489D01*
X025244Y026307D01*
G37*
X027681Y028951D03*
X030231Y028951D03*
X041731Y021476D03*
X045181Y021476D03*
D38*
X024331Y027701D02*
X024331Y028201D01*
X020234Y026251D02*
X020303Y025857D01*
X020303Y024921D02*
X020234Y024527D01*
X018581Y024551D02*
X018581Y024951D01*
X018581Y025826D02*
X018581Y026226D01*
X018581Y029426D02*
X018581Y029826D01*
X019609Y029796D02*
X019678Y029402D01*
X024331Y033201D02*
X024331Y033701D01*
X019678Y021376D02*
X019609Y020982D01*
X018581Y020951D02*
X018581Y021351D01*
D39*
X018581Y021776D03*
X018581Y024126D03*
X018581Y026651D03*
X018581Y029001D03*
D40*
G36*
X019385Y028183D02*
X019351Y028379D01*
X020335Y028553D01*
X020369Y028357D01*
X019385Y028183D01*
G37*
G36*
X020369Y022421D02*
X020335Y022225D01*
X019351Y022399D01*
X019385Y022595D01*
X020369Y022421D01*
G37*
D41*
G36*
X019964Y022137D02*
X019834Y021399D01*
X019540Y021451D01*
X019670Y022189D01*
X019964Y022137D01*
G37*
G36*
X020372Y024451D02*
X020242Y023713D01*
X019948Y023765D01*
X020078Y024503D01*
X020372Y024451D01*
G37*
G36*
X020078Y026274D02*
X019948Y027012D01*
X020242Y027064D01*
X020372Y026326D01*
X020078Y026274D01*
G37*
G36*
X019670Y028588D02*
X019540Y029326D01*
X019834Y029378D01*
X019964Y028640D01*
X019670Y028588D01*
G37*
D42*
X024706Y021951D02*
X024956Y021951D01*
X030456Y021951D02*
X030706Y021951D01*
X037581Y006576D02*
X037581Y006326D01*
X037581Y000826D02*
X037581Y000576D01*
D43*
X037581Y000916D03*
X037581Y006236D03*
D44*
X030366Y021951D03*
X025046Y021951D03*
D45*
X045226Y022536D03*
D46*
X043456Y021226D03*
D47*
X043956Y021476D03*
X042956Y021476D03*
D48*
X043456Y021476D03*
X044456Y021476D03*
X042456Y021476D03*
D49*
G36*
X045638Y027168D02*
X045778Y027219D01*
X045846Y027032D01*
X045706Y026981D01*
X045638Y027168D01*
G37*
G36*
X047566Y027870D02*
X047706Y027921D01*
X047774Y027734D01*
X047634Y027683D01*
X047566Y027870D01*
G37*
D50*
X024331Y028426D03*
X024331Y032976D03*
D51*
X046581Y031451D03*
X046581Y030451D03*
X046581Y029451D03*
M02*
