G75*
G70*
%OFA0B0*%
%FSLAX24Y24*%
%IPPOS*%
%LPD*%
%AMOC8*
5,1,8,0,0,1.08239X$1,22.5*
%
%ADD10C,0.0110*%
%ADD11R,0.0792X0.0792*%
%ADD12OC8,0.0792*%
%ADD13C,0.0792*%
%ADD14R,0.0512X0.0591*%
%ADD15C,0.0158*%
%ADD16C,0.0792*%
%ADD17R,0.0591X0.0512*%
%ADD18OC8,0.1000*%
%ADD19C,0.1000*%
%ADD20C,0.0872*%
%ADD21OC8,0.0872*%
%ADD22R,0.0551X0.0709*%
%ADD23R,0.0512X0.0630*%
%ADD24OC8,0.0832*%
%ADD25C,0.1000*%
%ADD26C,0.0912*%
%ADD27C,0.0174*%
%ADD28C,0.0787*%
%ADD29C,0.1575*%
%ADD30C,0.1260*%
%ADD31C,0.1063*%
%ADD32C,0.0050*%
%ADD33C,0.1181*%
%ADD34R,0.0630X0.0512*%
%ADD35C,0.0500*%
%ADD36C,0.0400*%
%ADD37C,0.0320*%
%ADD38C,0.0906*%
%ADD39C,0.0700*%
%ADD40C,0.0560*%
%ADD41C,0.0760*%
%ADD42C,0.1969*%
%ADD43C,0.0160*%
%ADD44C,0.0120*%
D10*
X012199Y007957D02*
X012297Y007859D01*
X012691Y008252D01*
X012790Y008153D01*
X012789Y007956D01*
X012691Y007858D01*
X012297Y007859D01*
X012199Y007957D02*
X012199Y008154D01*
X012298Y008252D01*
X012691Y008252D01*
X012692Y008502D02*
X012790Y008601D01*
X012791Y008798D01*
X012692Y008896D01*
X012298Y008503D01*
X012692Y008502D01*
X012298Y008503D02*
X012200Y008602D01*
X012200Y008799D01*
X012299Y008897D01*
X012692Y008896D01*
X012693Y009147D02*
X012595Y009246D01*
X012595Y009442D01*
X012497Y009541D01*
X012398Y009443D01*
X012398Y009148D01*
X012693Y009147D02*
X012791Y009245D01*
X012792Y009541D01*
X012792Y009773D02*
X012793Y009970D01*
X012793Y009872D02*
X012202Y009873D01*
X012202Y009971D01*
X012498Y010222D02*
X012499Y010615D01*
X012203Y010321D01*
X012793Y010320D01*
X012302Y010867D02*
X012204Y010867D01*
X012204Y011260D01*
X012302Y010867D02*
X012697Y011259D01*
X012795Y011259D01*
X012205Y011511D02*
X012796Y011904D01*
X012797Y012155D02*
X012501Y012155D01*
X012403Y012254D01*
X012502Y012352D01*
X012797Y012352D01*
X012797Y012548D02*
X012404Y012549D01*
X012403Y012451D01*
X012502Y012352D01*
X012502Y012800D02*
X012404Y012898D01*
X012405Y013095D01*
X012503Y013193D01*
X012700Y013193D01*
X012798Y013095D01*
X012798Y012898D01*
X012699Y012799D01*
X012502Y012800D01*
X012405Y013445D02*
X012406Y013740D01*
X012504Y013838D01*
X012701Y013838D01*
X012799Y013739D01*
X012799Y013444D01*
X012800Y014061D02*
X012701Y014062D01*
X012702Y014160D01*
X012800Y014160D01*
X012800Y014061D01*
X012702Y014411D02*
X012505Y014411D01*
X012407Y014510D01*
X012408Y014805D01*
X012211Y014805D02*
X012801Y014804D01*
X012801Y014509D01*
X012702Y014411D01*
X012802Y015055D02*
X012408Y015056D01*
X012802Y015055D02*
X012802Y015350D01*
X012704Y015449D01*
X012409Y015450D01*
X012507Y015700D02*
X012803Y015700D01*
X012507Y015700D02*
X012409Y015799D01*
X012410Y015996D01*
X012508Y016094D01*
X012410Y016327D02*
X012411Y016524D01*
X012312Y016426D02*
X012706Y016425D01*
X012804Y016326D01*
X012803Y016093D02*
X012213Y016094D01*
X012805Y016756D02*
X012805Y016953D01*
X012805Y016854D02*
X012411Y016855D01*
X012411Y016954D01*
X012214Y016855D02*
X012116Y016856D01*
X012412Y017204D02*
X012412Y017500D01*
X012511Y017598D01*
X012708Y017598D01*
X012806Y017499D01*
X012805Y017204D01*
X012904Y017204D02*
X012412Y017204D01*
X012904Y017204D02*
X013002Y017302D01*
X013003Y017400D01*
X003043Y012060D02*
X002649Y011667D01*
X002550Y011667D01*
X002452Y011766D01*
X002452Y011963D01*
X002551Y012061D01*
X003043Y012060D02*
X003042Y011666D01*
X003042Y011416D02*
X002648Y011023D01*
X002549Y011023D01*
X002451Y011121D01*
X002451Y011318D01*
X002550Y011416D01*
X003042Y011416D02*
X003041Y011022D01*
X002942Y010771D02*
X002548Y010378D01*
X002942Y010377D01*
X003040Y010476D01*
X003041Y010673D01*
X002942Y010771D01*
X002549Y010772D01*
X002450Y010674D01*
X002450Y010477D01*
X002548Y010378D01*
X002449Y010127D02*
X002843Y010127D01*
X003039Y009930D01*
X002842Y009733D01*
X002449Y009734D01*
X044699Y011681D02*
X044895Y011483D01*
X045289Y011483D01*
X044994Y011483D02*
X044994Y011877D01*
X044896Y011877D02*
X044699Y011681D01*
X044896Y011877D02*
X045290Y011876D01*
X045192Y012127D02*
X045093Y012128D01*
X044995Y012226D01*
X044995Y012325D01*
X044995Y012226D02*
X044897Y012128D01*
X044798Y012128D01*
X044700Y012227D01*
X044700Y012424D01*
X044799Y012522D01*
X045192Y012521D02*
X045291Y012423D01*
X045290Y012226D01*
X045192Y012127D01*
X045096Y013417D02*
X044702Y013417D01*
X045096Y013417D02*
X045293Y013613D01*
X045096Y013810D01*
X044703Y013811D01*
X044703Y014062D02*
X044704Y014456D01*
X044999Y014455D01*
X044900Y014258D01*
X044900Y014160D01*
X044998Y014061D01*
X045195Y014061D01*
X045294Y014159D01*
X045294Y014356D01*
X045196Y014455D01*
D11*
X027519Y015663D03*
X026394Y009913D03*
D12*
X026394Y010663D03*
X023394Y010663D03*
X022269Y011913D03*
X023519Y012663D03*
X024519Y012663D03*
X025519Y012663D03*
X027519Y012663D03*
X023519Y014663D03*
X024519Y015663D03*
X025519Y015663D03*
X026519Y015663D03*
X028519Y015038D03*
X030519Y015038D03*
X030019Y016538D03*
X026644Y017288D03*
X026019Y016538D03*
X022644Y017288D03*
X022269Y015913D03*
X010644Y015038D03*
X010644Y012038D03*
X020331Y006913D03*
X024331Y006913D03*
X026519Y007663D03*
X035644Y013663D03*
X034894Y014163D03*
X035644Y014663D03*
X036644Y014288D03*
X037644Y013788D03*
X037644Y015788D03*
X036644Y017288D03*
D13*
X035811Y016788D02*
X035019Y016788D01*
X035019Y015788D02*
X035811Y015788D01*
X032019Y015788D02*
X031226Y015788D01*
X031226Y016788D02*
X032019Y016788D01*
X026519Y013059D02*
X026519Y012267D01*
D14*
X025268Y013663D03*
X024520Y013663D03*
X024520Y014663D03*
X025268Y014663D03*
X029145Y015038D03*
X029893Y015038D03*
X035645Y012663D03*
X036393Y012663D03*
X041270Y013038D03*
X042018Y013038D03*
X042018Y012163D03*
X041270Y012163D03*
X041270Y011288D03*
X042018Y011288D03*
X042018Y010413D03*
X041270Y010413D03*
X038268Y014788D03*
X037520Y014788D03*
X025768Y008538D03*
X025020Y008538D03*
D15*
X023312Y016089D02*
X023233Y016168D01*
X023495Y016177D01*
X023687Y015998D01*
X023696Y015736D01*
X023517Y015544D01*
X023255Y015535D01*
X023063Y015714D01*
X023054Y015976D01*
X023233Y016168D01*
X023287Y016051D01*
X023450Y016056D01*
X023570Y015944D01*
X023575Y015781D01*
X023463Y015661D01*
X023300Y015656D01*
X023180Y015768D01*
X023175Y015931D01*
X023287Y016051D01*
X023340Y015933D01*
X023405Y015935D01*
X023452Y015891D01*
X023454Y015826D01*
X023410Y015779D01*
X023345Y015777D01*
X023298Y015821D01*
X023296Y015886D01*
X023340Y015933D01*
X021849Y017453D02*
X021770Y017532D01*
X022032Y017541D01*
X022224Y017362D01*
X022233Y017100D01*
X022054Y016908D01*
X021792Y016899D01*
X021600Y017078D01*
X021591Y017340D01*
X021770Y017532D01*
X021824Y017415D01*
X021987Y017420D01*
X022107Y017308D01*
X022112Y017145D01*
X022000Y017025D01*
X021837Y017020D01*
X021717Y017132D01*
X021712Y017295D01*
X021824Y017415D01*
X021877Y017297D01*
X021942Y017299D01*
X021989Y017255D01*
X021991Y017190D01*
X021947Y017143D01*
X021882Y017141D01*
X021835Y017185D01*
X021833Y017250D01*
X021877Y017297D01*
D16*
X023526Y011837D03*
X027511Y011489D03*
X023394Y009913D03*
X026519Y008663D03*
D17*
X038394Y008162D03*
X038394Y007414D03*
X038644Y009789D03*
X039519Y009789D03*
X040394Y009789D03*
X040394Y010537D03*
X039519Y010537D03*
X038644Y010537D03*
X038519Y011539D03*
X039394Y011539D03*
X039394Y012287D03*
X038519Y012287D03*
X037769Y016726D03*
X037769Y017475D03*
X023894Y017412D03*
X023894Y016664D03*
X023519Y014037D03*
X023519Y013289D03*
X008519Y011162D03*
X008519Y010414D03*
X008519Y009537D03*
X008519Y008789D03*
X008519Y007912D03*
X008519Y007164D03*
X008519Y006287D03*
X008519Y005539D03*
D18*
X007644Y005838D03*
X007644Y011738D03*
X020019Y016288D03*
X037394Y010546D03*
X037394Y008546D03*
D19*
X037394Y006530D03*
X037394Y012530D03*
X020019Y014288D03*
X013894Y010263D03*
X009894Y010263D03*
X009894Y005163D03*
X013894Y005163D03*
D20*
X021394Y008352D02*
X021394Y009224D01*
X022394Y009224D02*
X022394Y008352D01*
X023394Y008352D02*
X023394Y009224D01*
X038769Y005099D02*
X038769Y004227D01*
X040769Y004227D02*
X040769Y005099D01*
X041269Y013977D02*
X041269Y014849D01*
X042269Y014849D02*
X042269Y013977D01*
X040269Y013977D02*
X040269Y014849D01*
D21*
X019269Y008100D03*
X019269Y004100D03*
X007644Y004663D03*
X005894Y006663D03*
D22*
X029224Y013163D03*
X030563Y013163D03*
D23*
X030393Y012288D03*
X029645Y012288D03*
X019143Y014788D03*
X018395Y014788D03*
X018018Y016288D03*
X017270Y016288D03*
X017270Y017163D03*
X018018Y017163D03*
D24*
X021144Y016538D03*
X031644Y012913D03*
X034644Y012913D03*
X021144Y010538D03*
D25*
X015519Y011038D02*
X013894Y010263D01*
X015519Y011038D02*
X014394Y012288D01*
X010644Y015038D02*
X010619Y016413D01*
X008644Y016413D01*
X008619Y015913D02*
X008619Y016913D01*
X010619Y016913D02*
X010619Y015913D01*
X004419Y015913D02*
X004419Y016913D01*
X002419Y016913D02*
X002419Y015913D01*
X013894Y005163D02*
X014644Y004163D01*
X015394Y004163D01*
X017394Y004163D01*
D26*
X017394Y004163D03*
X015394Y004163D03*
X015394Y008163D03*
X017394Y008163D03*
X015519Y011038D03*
X014394Y012288D03*
X018394Y012288D03*
X019519Y011038D03*
D27*
X021170Y005694D02*
X021257Y005607D01*
X021020Y005441D01*
X020737Y005491D01*
X020571Y005728D01*
X020621Y006011D01*
X020858Y006177D01*
X021141Y006127D01*
X021307Y005890D01*
X021257Y005607D01*
X021138Y005683D01*
X020989Y005579D01*
X020813Y005610D01*
X020709Y005759D01*
X020740Y005935D01*
X020889Y006039D01*
X021065Y006008D01*
X021169Y005859D01*
X021138Y005683D01*
X021018Y005759D01*
X020959Y005718D01*
X020889Y005730D01*
X020848Y005789D01*
X020860Y005859D01*
X020919Y005900D01*
X020989Y005888D01*
X021030Y005829D01*
X021018Y005759D01*
X027079Y004652D02*
X027166Y004565D01*
X026929Y004399D01*
X026646Y004449D01*
X026480Y004686D01*
X026530Y004969D01*
X026767Y005135D01*
X027050Y005085D01*
X027216Y004848D01*
X027166Y004565D01*
X027047Y004641D01*
X026898Y004537D01*
X026722Y004568D01*
X026618Y004717D01*
X026649Y004893D01*
X026798Y004997D01*
X026974Y004966D01*
X027078Y004817D01*
X027047Y004641D01*
X026927Y004717D01*
X026868Y004676D01*
X026798Y004688D01*
X026757Y004747D01*
X026769Y004817D01*
X026828Y004858D01*
X026898Y004846D01*
X026939Y004787D01*
X026927Y004717D01*
D28*
X039187Y015831D03*
X040601Y017245D03*
D29*
X005637Y012435D03*
X005637Y008891D03*
X003668Y006529D03*
D30*
X003668Y008104D03*
X003668Y013222D03*
D31*
X003668Y014797D03*
D32*
X002881Y014797D02*
X002881Y014206D01*
X004456Y014206D01*
X004456Y014797D01*
X002881Y014797D01*
X002881Y014760D02*
X004456Y014760D01*
X004456Y014711D02*
X002881Y014711D01*
X002881Y014663D02*
X004456Y014663D01*
X004456Y014614D02*
X002881Y014614D01*
X002881Y014566D02*
X004456Y014566D01*
X004456Y014517D02*
X002881Y014517D01*
X002881Y014469D02*
X004456Y014469D01*
X004456Y014420D02*
X002881Y014420D01*
X002881Y014372D02*
X004456Y014372D01*
X004456Y014323D02*
X002881Y014323D01*
X002881Y014275D02*
X004456Y014275D01*
X004456Y014226D02*
X002881Y014226D01*
D33*
X029172Y011063D03*
X029172Y009488D03*
X029172Y007913D03*
X029172Y006338D03*
X029172Y004763D03*
X035865Y005551D03*
X035865Y007126D03*
X035865Y008700D03*
X035865Y010275D03*
D34*
X018394Y013164D03*
X018394Y013912D03*
X015894Y016414D03*
X014894Y016414D03*
X014894Y017162D03*
X015894Y017162D03*
D35*
X016519Y017162D01*
X017270Y017163D01*
X017270Y016288D01*
X018018Y016288D02*
X018018Y017163D01*
X015894Y017162D02*
X014894Y017162D01*
X014894Y016414D02*
X015894Y016414D01*
X015894Y015788D01*
X016894Y014788D01*
X018395Y014788D01*
X019143Y014788D02*
X020019Y014288D01*
X020019Y013788D01*
X019270Y013164D01*
X018394Y013164D01*
X018394Y012288D01*
X017644Y011413D01*
X017269Y010288D01*
X016019Y009038D01*
X015394Y008163D01*
X016144Y006288D01*
X018144Y006288D01*
X018769Y005788D01*
X019269Y004100D01*
X020144Y004038D01*
X022144Y004038D01*
X020939Y005809D02*
X020331Y006913D01*
X019269Y008100D01*
X018394Y009413D02*
X017394Y008163D01*
X018394Y009413D02*
X019269Y010288D01*
X019519Y011038D01*
X019644Y011221D01*
X020144Y011913D01*
X021024Y012793D01*
X021398Y013168D01*
X021398Y013413D01*
X022769Y013413D01*
X023519Y012663D01*
X023519Y013289D01*
X023519Y012663D02*
X023526Y011837D01*
X023519Y012663D02*
X024519Y012663D01*
X025519Y012663D02*
X025519Y011663D01*
X026394Y010663D01*
X026394Y009913D01*
X027394Y011538D02*
X027511Y011489D01*
X027394Y011538D02*
X026769Y011913D01*
X026519Y012663D01*
X023519Y014037D02*
X023519Y014663D01*
X024520Y014663D01*
X021398Y015033D02*
X021144Y015538D01*
X021144Y016538D01*
X021912Y017220D01*
X022644Y017288D01*
X021144Y016538D02*
X020019Y016288D01*
X021398Y015033D02*
X021398Y013413D01*
X028519Y015038D02*
X029145Y015038D01*
X029893Y015038D02*
X030519Y015038D01*
X034769Y014038D02*
X034894Y014163D01*
X034769Y014038D02*
X034769Y013913D01*
X034644Y012913D01*
X034769Y011622D01*
X035020Y011246D01*
X035865Y010275D01*
X036852Y009538D01*
X038394Y009538D01*
X038706Y009538D01*
X038644Y009600D01*
X038644Y009789D01*
X038706Y009538D02*
X039394Y009538D01*
X039519Y009789D01*
X039394Y009538D02*
X040269Y009538D01*
X040394Y009789D01*
X040269Y009538D02*
X042144Y009538D01*
X042769Y010163D01*
X042769Y010538D01*
X042769Y011288D01*
X042769Y012288D01*
X042769Y013038D01*
X042769Y013413D01*
X042269Y014413D01*
X041894Y015663D01*
X041519Y015913D01*
X040644Y015913D01*
X040269Y015538D01*
X040269Y014413D01*
X041269Y014413D02*
X041269Y013163D01*
X041270Y013162D01*
X041270Y013038D01*
X041269Y013038D01*
X043894Y014413D02*
X043894Y009538D01*
X041769Y007413D01*
X039643Y007413D01*
X039394Y007414D01*
X038394Y007414D01*
X037394Y006530D01*
X039886Y006421D01*
X040769Y005538D01*
X040769Y004663D01*
X044519Y003413D02*
X045644Y003413D01*
X045644Y004038D01*
X038394Y008162D02*
X037394Y008546D01*
X038394Y009538D01*
X037394Y010546D01*
X035645Y012663D02*
X034644Y012913D01*
X035644Y013663D02*
X036393Y013164D01*
X036644Y014288D02*
X035644Y014663D01*
X037769Y016726D02*
X038457Y016726D01*
X039101Y017245D01*
X040601Y017245D01*
X041437Y017245D01*
X042519Y016288D01*
X042769Y015663D01*
X043894Y014413D01*
X045644Y017038D02*
X045644Y017913D01*
X044394Y017913D01*
X032019Y016788D02*
X030769Y017413D01*
X027144Y017413D01*
X026644Y017288D01*
X026019Y016538D01*
X031269Y011163D02*
X030394Y010288D01*
X030394Y008538D01*
X029894Y008038D01*
X029172Y007913D01*
X010644Y012038D02*
X009018Y011807D01*
X009894Y010263D01*
X008519Y011162D02*
X008518Y011801D01*
X009018Y011807D01*
X008518Y011801D02*
X007644Y011738D01*
X005637Y012435D02*
X005637Y015295D01*
X004519Y016413D01*
X005637Y008891D02*
X005894Y007884D01*
X005894Y006663D01*
X007644Y005838D02*
X008068Y005539D01*
X008519Y005539D01*
X009894Y005163D01*
D36*
X008519Y006287D02*
X008519Y007164D01*
X008519Y007912D02*
X008519Y008789D01*
X008519Y009537D02*
X008519Y010414D01*
X022269Y015913D02*
X023375Y015856D01*
X023894Y016664D01*
X024893Y016664D01*
X025519Y015663D01*
X026519Y015663D02*
X026644Y015038D01*
X027019Y014788D01*
X028019Y014788D01*
X028519Y015038D01*
X027519Y015663D02*
X028019Y016163D01*
X030019Y016163D01*
X030019Y016538D01*
X030019Y016163D02*
X030019Y015663D01*
X030519Y015038D01*
X031519Y015788D02*
X032019Y015788D01*
X035019Y015789D02*
X036144Y015788D01*
X036644Y016163D01*
X037331Y016725D01*
X037769Y016726D01*
X037080Y017475D02*
X036644Y017288D01*
X035019Y016788D01*
X037080Y017475D02*
X037769Y017475D01*
X037644Y015788D02*
X038019Y015663D01*
X038268Y015414D01*
X038268Y014788D01*
X039187Y014456D02*
X038769Y013038D01*
X037394Y012530D01*
X038269Y012405D01*
X038519Y012405D01*
X038519Y012287D01*
X038519Y012405D02*
X039394Y012405D01*
X040394Y012405D01*
X041270Y012413D01*
X041270Y012163D01*
X041270Y011288D01*
X041270Y010413D01*
X041144Y010538D01*
X040394Y010537D01*
X039519Y010537D01*
X038644Y010537D01*
X038519Y011538D02*
X036769Y011538D01*
X036393Y011914D01*
X036393Y012663D01*
X036393Y013164D01*
X037644Y013788D01*
X036644Y014288D02*
X037144Y014788D01*
X037520Y014788D01*
X039187Y014456D02*
X039187Y015831D01*
X035019Y015788D02*
X035019Y015789D01*
X030563Y013163D02*
X030393Y012288D01*
X029645Y012288D02*
X029172Y011063D01*
X028019Y011663D02*
X027511Y011489D01*
X027519Y009288D01*
X027019Y008788D01*
X026519Y008663D01*
X025768Y008538D01*
X025020Y008538D02*
X025020Y008008D01*
X025365Y007663D01*
X026519Y007663D01*
X028172Y007663D01*
X029172Y007913D01*
X025020Y008538D02*
X025020Y010537D01*
X024269Y011663D01*
X023526Y011837D01*
X024519Y012663D02*
X024520Y013663D01*
X025268Y013663D02*
X025268Y013788D01*
X025393Y013913D01*
X026769Y013913D01*
X027519Y013538D01*
X027519Y012663D01*
X028019Y011663D02*
X028644Y012288D01*
X028644Y012913D01*
X029224Y013163D01*
X025268Y013788D02*
X025268Y014663D01*
X024520Y014663D02*
X024519Y015663D01*
X026019Y016538D02*
X026519Y015663D01*
X023643Y017412D02*
X022644Y017288D01*
X023643Y017412D02*
X023894Y017412D01*
X018894Y017163D02*
X018018Y017163D01*
X038519Y011539D02*
X039394Y011539D01*
X038519Y011538D02*
X038519Y011539D01*
X039394Y012287D02*
X039394Y012405D01*
X041270Y012413D02*
X041270Y013038D01*
X042018Y013038D02*
X042769Y013038D01*
X042769Y012288D02*
X042644Y012163D01*
X042018Y012163D01*
X042018Y011288D02*
X042769Y011288D01*
X042769Y010538D02*
X042644Y010413D01*
X042018Y010413D01*
D37*
X002394Y003413D02*
X001519Y003413D01*
X001519Y004038D01*
X027519Y013538D02*
X028644Y014038D01*
X031019Y014038D01*
X031519Y014538D01*
X031519Y015788D01*
X031644Y012913D02*
X031269Y011163D01*
X018394Y013912D02*
X018395Y014788D01*
X002519Y017913D02*
X001519Y017913D01*
X001519Y017288D01*
D38*
X018894Y017163D03*
X028644Y012913D03*
D39*
X023394Y010663D02*
X023394Y009913D01*
X023394Y008788D01*
X022394Y008788D02*
X022394Y007163D01*
X023019Y006663D01*
X023706Y006663D01*
X024331Y006913D01*
X025069Y006338D01*
X029172Y006338D01*
X029172Y004763D02*
X026848Y004767D01*
X022882Y004777D01*
X021394Y008788D02*
X021144Y010538D01*
X022269Y011913D01*
X007644Y005838D02*
X007644Y004663D01*
D40*
X022144Y004038D02*
X022882Y004777D01*
D41*
X035865Y005551D02*
X036753Y004663D01*
X038769Y004663D01*
X004519Y016413D02*
X002419Y016413D01*
D42*
X008019Y013788D03*
X003019Y004913D03*
X044144Y004913D03*
X044144Y016413D03*
D43*
X007394Y004788D02*
X006019Y006413D01*
D44*
X043144Y007538D02*
X043894Y008288D01*
X043894Y007663D01*
X044519Y008288D01*
X044519Y007725D01*
X045269Y007725D01*
X045269Y007350D01*
X044519Y007350D01*
X044519Y006788D01*
X043894Y007413D01*
X043894Y006788D01*
X043144Y007538D01*
X043189Y007583D02*
X045269Y007583D01*
X045269Y007465D02*
X043217Y007465D01*
X043336Y007346D02*
X043894Y007346D01*
X043961Y007346D02*
X044519Y007346D01*
X044519Y007228D02*
X044079Y007228D01*
X044198Y007109D02*
X044519Y007109D01*
X044519Y006991D02*
X044316Y006991D01*
X044435Y006872D02*
X044519Y006872D01*
X043894Y006872D02*
X043810Y006872D01*
X043894Y006991D02*
X043691Y006991D01*
X043573Y007109D02*
X043894Y007109D01*
X043894Y007228D02*
X043454Y007228D01*
X043307Y007702D02*
X043894Y007702D01*
X043932Y007702D02*
X045269Y007702D01*
X044519Y007820D02*
X044051Y007820D01*
X043894Y007820D02*
X043426Y007820D01*
X043544Y007939D02*
X043894Y007939D01*
X043894Y008057D02*
X043663Y008057D01*
X043781Y008176D02*
X043894Y008176D01*
X044169Y007939D02*
X044519Y007939D01*
X044519Y008057D02*
X044288Y008057D01*
X044406Y008176D02*
X044519Y008176D01*
M02*
