G75*
G70*
%OFA0B0*%
%FSLAX24Y24*%
%IPPOS*%
%LPD*%
%AMOC8*
5,1,8,0,0,1.08239X$1,22.5*
%
%ADD10R,0.0714X0.0714*%
%ADD11OC8,0.0714*%
%ADD12C,0.0714*%
%ADD13C,0.0143*%
%ADD14C,0.0714*%
%ADD15C,0.0794*%
%ADD16OC8,0.0754*%
%ADD17C,0.1000*%
%ADD18C,0.0834*%
%ADD19C,0.1000*%
%ADD20OC8,0.0794*%
%ADD21C,0.0748*%
%ADD22C,0.1575*%
%ADD23C,0.1260*%
%ADD24C,0.1181*%
%ADD25C,0.0906*%
%ADD26C,0.0100*%
%ADD27C,0.1969*%
D10*
X029706Y026951D03*
X030706Y033076D03*
D11*
X029706Y033076D03*
X028706Y033076D03*
X027706Y033076D03*
X026706Y032076D03*
X025581Y033076D03*
X025831Y034951D03*
X023206Y033701D03*
X026706Y030076D03*
X027706Y030076D03*
X028706Y030076D03*
X030706Y030076D03*
X031706Y031951D03*
X033706Y031951D03*
X033206Y034076D03*
X029831Y034951D03*
X029206Y034076D03*
X025581Y029076D03*
X025706Y027826D03*
X029706Y027826D03*
X029706Y024576D03*
X038706Y031576D03*
X039456Y031076D03*
X039456Y032076D03*
X040706Y030951D03*
X040706Y029951D03*
X040706Y027951D03*
X042323Y027201D03*
X040706Y025584D03*
X040706Y034951D03*
D12*
X038920Y034201D02*
X038206Y034201D01*
X038206Y033201D02*
X038920Y033201D01*
X035206Y033201D02*
X034492Y033201D01*
X034492Y034201D02*
X035206Y034201D01*
X029706Y030433D02*
X029706Y029719D01*
X030974Y039701D02*
X031688Y039701D01*
X031688Y041701D02*
X030974Y041701D01*
D13*
X024795Y034841D02*
X024723Y034913D01*
X024958Y034921D01*
X025130Y034760D01*
X025138Y034525D01*
X024977Y034353D01*
X024742Y034345D01*
X024570Y034506D01*
X024562Y034741D01*
X024723Y034913D01*
X024770Y034807D01*
X024918Y034812D01*
X025024Y034713D01*
X025029Y034565D01*
X024930Y034459D01*
X024782Y034454D01*
X024676Y034553D01*
X024671Y034701D01*
X024770Y034807D01*
X024818Y034702D01*
X024877Y034704D01*
X024919Y034665D01*
X024921Y034606D01*
X024882Y034564D01*
X024823Y034562D01*
X024781Y034601D01*
X024779Y034660D01*
X024818Y034702D01*
X026257Y033477D02*
X026185Y033549D01*
X026420Y033557D01*
X026592Y033396D01*
X026600Y033161D01*
X026439Y032989D01*
X026204Y032981D01*
X026032Y033142D01*
X026024Y033377D01*
X026185Y033549D01*
X026232Y033443D01*
X026380Y033448D01*
X026486Y033349D01*
X026491Y033201D01*
X026392Y033095D01*
X026244Y033090D01*
X026138Y033189D01*
X026133Y033337D01*
X026232Y033443D01*
X026280Y033338D01*
X026339Y033340D01*
X026381Y033301D01*
X026383Y033242D01*
X026344Y033200D01*
X026285Y033198D01*
X026243Y033237D01*
X026241Y033296D01*
X026280Y033338D01*
X025755Y026487D02*
X025827Y026559D01*
X025746Y026338D01*
X025532Y026238D01*
X025311Y026319D01*
X025211Y026533D01*
X025292Y026754D01*
X025506Y026854D01*
X025727Y026773D01*
X025827Y026559D01*
X025711Y026555D01*
X025660Y026416D01*
X025528Y026354D01*
X025389Y026405D01*
X025327Y026537D01*
X025378Y026676D01*
X025510Y026738D01*
X025649Y026687D01*
X025711Y026555D01*
X025595Y026549D01*
X025575Y026494D01*
X025522Y026470D01*
X025467Y026490D01*
X025443Y026543D01*
X025463Y026598D01*
X025516Y026622D01*
X025571Y026602D01*
X025595Y026549D01*
X022129Y024797D02*
X022201Y024869D01*
X022120Y024648D01*
X021906Y024548D01*
X021685Y024629D01*
X021585Y024843D01*
X021666Y025064D01*
X021880Y025164D01*
X022101Y025083D01*
X022201Y024869D01*
X022085Y024865D01*
X022034Y024726D01*
X021902Y024664D01*
X021763Y024715D01*
X021701Y024847D01*
X021752Y024986D01*
X021884Y025048D01*
X022023Y024997D01*
X022085Y024865D01*
X021969Y024859D01*
X021949Y024804D01*
X021896Y024780D01*
X021841Y024800D01*
X021817Y024853D01*
X021837Y024908D01*
X021890Y024932D01*
X021945Y024912D01*
X021969Y024859D01*
X012284Y029037D02*
X012212Y028965D01*
X012151Y029192D01*
X012269Y029396D01*
X012496Y029457D01*
X012700Y029339D01*
X012761Y029112D01*
X012643Y028908D01*
X012416Y028847D01*
X012212Y028965D01*
X012304Y029035D01*
X012266Y029177D01*
X012339Y029304D01*
X012481Y029342D01*
X012608Y029269D01*
X012646Y029127D01*
X012573Y029000D01*
X012431Y028962D01*
X012304Y029035D01*
X012396Y029106D01*
X012381Y029162D01*
X012410Y029212D01*
X012466Y029227D01*
X012516Y029198D01*
X012531Y029142D01*
X012502Y029092D01*
X012446Y029077D01*
X012396Y029106D01*
X013784Y031635D02*
X013712Y031563D01*
X013651Y031790D01*
X013769Y031994D01*
X013996Y032055D01*
X014200Y031937D01*
X014261Y031710D01*
X014143Y031506D01*
X013916Y031445D01*
X013712Y031563D01*
X013804Y031633D01*
X013766Y031775D01*
X013839Y031902D01*
X013981Y031940D01*
X014108Y031867D01*
X014146Y031725D01*
X014073Y031598D01*
X013931Y031560D01*
X013804Y031633D01*
X013896Y031704D01*
X013881Y031760D01*
X013910Y031810D01*
X013966Y031825D01*
X014016Y031796D01*
X014031Y031740D01*
X014002Y031690D01*
X013946Y031675D01*
X013896Y031704D01*
D14*
X023206Y031701D03*
X026956Y028951D03*
X026706Y026951D03*
X029706Y025576D03*
X030956Y028951D03*
X040706Y023568D03*
X044339Y027201D03*
D15*
X046184Y029451D02*
X046978Y029451D01*
X046978Y030451D02*
X046184Y030451D01*
X046184Y031451D02*
X046978Y031451D01*
X044456Y022473D02*
X044456Y021679D01*
X043456Y021679D02*
X043456Y022473D01*
X042456Y022473D02*
X042456Y021679D01*
X026706Y024429D02*
X026706Y025223D01*
X025706Y025223D02*
X025706Y024429D01*
X024706Y024429D02*
X024706Y025223D01*
D16*
X022331Y023826D03*
X022331Y020826D03*
X024331Y027701D03*
X024331Y033701D03*
X034956Y029951D03*
X037956Y029951D03*
D17*
X013806Y033201D02*
X013806Y034201D01*
X011806Y034201D02*
X011806Y033201D01*
X007606Y033201D02*
X007606Y034201D01*
X005606Y034201D02*
X005606Y033201D01*
D18*
X018581Y020951D03*
X019609Y020982D03*
X020303Y024921D03*
X020303Y025857D03*
X018581Y025826D03*
X018581Y024951D03*
X018581Y029826D03*
X019609Y029796D03*
D19*
X016956Y026951D03*
X012956Y026951D03*
X012956Y021951D03*
X016956Y021951D03*
D20*
X010706Y023001D03*
X010706Y028901D03*
X024706Y021951D03*
X030706Y021951D03*
X037581Y006576D03*
X037581Y000576D03*
D21*
X045296Y026938D03*
X048116Y027964D03*
D22*
X008574Y029598D03*
X006606Y031370D03*
X008574Y026055D03*
X006606Y024283D03*
D23*
X006606Y025267D03*
X006606Y030385D03*
D24*
X032610Y027976D03*
X032610Y026401D03*
X032610Y024826D03*
X032610Y023251D03*
X032610Y021677D03*
X039302Y022464D03*
X039302Y024039D03*
X039302Y025614D03*
X039302Y027188D03*
D25*
X032456Y029576D03*
X022331Y034826D03*
D26*
X023706Y034826D01*
X024081Y028451D01*
X028081Y028326D01*
X029706Y028701D01*
X030831Y028076D01*
X032456Y029576D01*
D27*
X047456Y034201D03*
X047456Y021451D03*
X010706Y030951D03*
X007456Y021451D03*
M02*
