G75*
G70*
%OFA0B0*%
%FSLAX24Y24*%
%IPPOS*%
%LPD*%
%AMOC8*
5,1,8,0,0,1.08239X$1,22.5*
%
%ADD10R,0.0714X0.0714*%
%ADD11OC8,0.0714*%
%ADD12C,0.0714*%
%ADD13C,0.0143*%
%ADD14C,0.0714*%
%ADD15OC8,0.1000*%
%ADD16C,0.1000*%
%ADD17C,0.0794*%
%ADD18OC8,0.0794*%
%ADD19OC8,0.0754*%
%ADD20C,0.1000*%
%ADD21C,0.0834*%
%ADD22C,0.0748*%
%ADD23C,0.1575*%
%ADD24C,0.1260*%
%ADD25C,0.1181*%
%ADD26C,0.0906*%
%ADD27C,0.0100*%
%ADD28C,0.1969*%
D10*
X027173Y018001D03*
X028173Y024126D03*
D11*
X027173Y024126D03*
X026173Y024126D03*
X025173Y024126D03*
X024173Y023126D03*
X023048Y024126D03*
X023298Y026001D03*
X026673Y025126D03*
X027298Y026001D03*
X030673Y025126D03*
X031173Y023251D03*
X029173Y023251D03*
X028173Y021126D03*
X026173Y021126D03*
X025173Y021126D03*
X024173Y021126D03*
X023048Y020126D03*
X023173Y018876D03*
X027173Y018876D03*
X027173Y015626D03*
X036173Y022626D03*
X036923Y023126D03*
X036923Y022126D03*
X038173Y022001D03*
X038173Y021001D03*
X038173Y019001D03*
X038173Y026001D03*
X011298Y023126D03*
X011298Y020126D03*
D12*
X027173Y020769D02*
X027173Y021482D01*
X031959Y024251D02*
X032673Y024251D01*
X032673Y025251D02*
X031959Y025251D01*
X035673Y025251D02*
X036387Y025251D01*
X036387Y024251D02*
X035673Y024251D01*
D13*
X023724Y024527D02*
X023652Y024599D01*
X023887Y024607D01*
X024059Y024446D01*
X024067Y024211D01*
X023906Y024039D01*
X023671Y024031D01*
X023499Y024192D01*
X023491Y024427D01*
X023652Y024599D01*
X023699Y024493D01*
X023847Y024498D01*
X023953Y024399D01*
X023958Y024251D01*
X023859Y024145D01*
X023711Y024140D01*
X023605Y024239D01*
X023600Y024387D01*
X023699Y024493D01*
X023747Y024388D01*
X023806Y024390D01*
X023848Y024351D01*
X023850Y024292D01*
X023811Y024250D01*
X023752Y024248D01*
X023710Y024287D01*
X023708Y024346D01*
X023747Y024388D01*
X022261Y025891D02*
X022189Y025963D01*
X022424Y025971D01*
X022596Y025810D01*
X022604Y025575D01*
X022443Y025403D01*
X022208Y025395D01*
X022036Y025556D01*
X022028Y025791D01*
X022189Y025963D01*
X022236Y025857D01*
X022384Y025862D01*
X022490Y025763D01*
X022495Y025615D01*
X022396Y025509D01*
X022248Y025504D01*
X022142Y025603D01*
X022137Y025751D01*
X022236Y025857D01*
X022284Y025752D01*
X022343Y025754D01*
X022385Y025715D01*
X022387Y025656D01*
X022348Y025614D01*
X022289Y025612D01*
X022247Y025651D01*
X022245Y025710D01*
X022284Y025752D01*
X023288Y017619D02*
X023360Y017547D01*
X023260Y017333D01*
X023039Y017252D01*
X022825Y017352D01*
X022744Y017573D01*
X022844Y017787D01*
X023065Y017868D01*
X023279Y017768D01*
X023360Y017547D01*
X023244Y017553D01*
X023181Y017418D01*
X023045Y017368D01*
X022910Y017431D01*
X022860Y017567D01*
X022923Y017702D01*
X023059Y017752D01*
X023194Y017689D01*
X023244Y017553D01*
X023128Y017558D01*
X023103Y017504D01*
X023050Y017484D01*
X022996Y017509D01*
X022976Y017562D01*
X023001Y017616D01*
X023054Y017636D01*
X023108Y017611D01*
X023128Y017558D01*
X019529Y016251D02*
X019601Y016179D01*
X019501Y015965D01*
X019280Y015884D01*
X019066Y015984D01*
X018985Y016205D01*
X019085Y016419D01*
X019306Y016500D01*
X019520Y016400D01*
X019601Y016179D01*
X019485Y016185D01*
X019422Y016050D01*
X019286Y016000D01*
X019151Y016063D01*
X019101Y016199D01*
X019164Y016334D01*
X019300Y016384D01*
X019435Y016321D01*
X019485Y016185D01*
X019369Y016190D01*
X019344Y016136D01*
X019291Y016116D01*
X019237Y016141D01*
X019217Y016194D01*
X019242Y016248D01*
X019295Y016268D01*
X019349Y016243D01*
X019369Y016190D01*
D14*
X024173Y018001D03*
X024423Y020001D03*
X028423Y020001D03*
X027173Y016626D03*
D15*
X038048Y016633D03*
X039665Y018251D03*
X020673Y024751D03*
X008298Y019951D03*
X008298Y014051D03*
D16*
X010548Y013001D03*
X014548Y013001D03*
X014548Y018101D03*
X010548Y018101D03*
X020673Y022751D03*
X038048Y014618D03*
X041681Y018251D03*
D17*
X043401Y020501D02*
X044195Y020501D01*
X044195Y021501D02*
X043401Y021501D01*
X043401Y022501D02*
X044195Y022501D01*
X041423Y013022D02*
X041423Y012229D01*
X039423Y012229D02*
X039423Y013022D01*
X024173Y015479D02*
X024173Y016272D01*
X023173Y016272D02*
X023173Y015479D01*
X022173Y015479D02*
X022173Y016272D01*
D18*
X019798Y015626D03*
X022173Y013001D03*
X019798Y011626D03*
X028173Y013001D03*
X008298Y012876D03*
X006548Y014876D03*
D19*
X021798Y018751D03*
X021798Y024751D03*
X032298Y021001D03*
X035298Y021001D03*
D20*
X011273Y024251D02*
X011273Y025251D01*
X009273Y025251D02*
X009273Y024251D01*
X005073Y024251D02*
X005073Y025251D01*
X003073Y025251D02*
X003073Y024251D01*
D21*
X016048Y012001D03*
X017076Y012031D03*
X017770Y015970D03*
X017770Y016906D03*
X016048Y016876D03*
X016048Y016001D03*
X016048Y020876D03*
X017076Y020845D03*
D22*
X042513Y017988D03*
X045332Y019014D03*
D23*
X006291Y020647D03*
X004322Y022419D03*
X006291Y017104D03*
X004322Y015332D03*
D24*
X004322Y016317D03*
X004322Y021435D03*
D25*
X030076Y019025D03*
X030076Y017450D03*
X030076Y015876D03*
X030076Y014301D03*
X030076Y012726D03*
X036769Y013513D03*
X036769Y015088D03*
X036769Y016663D03*
X036769Y018238D03*
D26*
X029548Y020626D03*
X019798Y025876D03*
D27*
X021173Y025876D01*
X021548Y019501D01*
X025548Y019376D01*
X027173Y019751D01*
X028673Y019251D01*
X029548Y020626D01*
D28*
X044798Y025251D03*
X044798Y012501D03*
X008673Y022001D03*
X003673Y012501D03*
M02*
