G75*
G70*
%OFA0B0*%
%FSLAX24Y24*%
%IPPOS*%
%LPD*%
%AMOC8*
5,1,8,0,0,1.08239X$1,22.5*
%
%ADD10R,0.0794X0.0794*%
%ADD11OC8,0.0794*%
%ADD12C,0.0794*%
%ADD13C,0.0159*%
%ADD14C,0.0794*%
%ADD15C,0.0874*%
%ADD16OC8,0.0874*%
%ADD17OC8,0.0834*%
%ADD18C,0.1080*%
%ADD19C,0.0914*%
%ADD20C,0.1080*%
%ADD21C,0.0828*%
%ADD22C,0.1655*%
%ADD23C,0.1340*%
%ADD24C,0.1261*%
%ADD25C,0.0986*%
%ADD26C,0.2049*%
D10*
X027173Y013163D03*
X028173Y019288D03*
D11*
X027173Y019288D03*
X026173Y019288D03*
X025173Y019288D03*
X024173Y018288D03*
X023048Y019288D03*
X020673Y019913D03*
X023298Y021163D03*
X026673Y020288D03*
X027298Y021163D03*
X030673Y020288D03*
X031173Y018413D03*
X029173Y018413D03*
X028173Y016288D03*
X026173Y016288D03*
X025173Y016288D03*
X024173Y016288D03*
X023048Y015288D03*
X023173Y014038D03*
X027173Y014038D03*
X027173Y010788D03*
X038048Y011796D03*
X039665Y013413D03*
X038173Y014163D03*
X038173Y016163D03*
X038173Y017163D03*
X036923Y017288D03*
X036173Y017788D03*
X036923Y018288D03*
X038173Y021163D03*
X011298Y018288D03*
X011298Y015288D03*
D12*
X027173Y015931D02*
X027173Y016645D01*
X031959Y019413D02*
X032673Y019413D01*
X032673Y020413D02*
X031959Y020413D01*
X035673Y020413D02*
X036387Y020413D01*
X036387Y019413D02*
X035673Y019413D01*
D13*
X023717Y019713D02*
X023637Y019793D01*
X023899Y019802D01*
X024091Y019623D01*
X024100Y019361D01*
X023921Y019169D01*
X023659Y019160D01*
X023467Y019339D01*
X023458Y019601D01*
X023637Y019793D01*
X023691Y019676D01*
X023854Y019681D01*
X023974Y019569D01*
X023979Y019406D01*
X023867Y019286D01*
X023704Y019281D01*
X023584Y019393D01*
X023579Y019556D01*
X023691Y019676D01*
X023744Y019558D01*
X023809Y019560D01*
X023856Y019516D01*
X023858Y019451D01*
X023814Y019404D01*
X023749Y019402D01*
X023702Y019446D01*
X023700Y019511D01*
X023744Y019558D01*
X022254Y021077D02*
X022174Y021157D01*
X022436Y021166D01*
X022628Y020987D01*
X022637Y020725D01*
X022458Y020533D01*
X022196Y020524D01*
X022004Y020703D01*
X021995Y020965D01*
X022174Y021157D01*
X022228Y021040D01*
X022391Y021045D01*
X022511Y020933D01*
X022516Y020770D01*
X022404Y020650D01*
X022241Y020645D01*
X022121Y020757D01*
X022116Y020920D01*
X022228Y021040D01*
X022281Y020922D01*
X022346Y020924D01*
X022393Y020880D01*
X022395Y020815D01*
X022351Y020768D01*
X022286Y020766D01*
X022239Y020810D01*
X022237Y020875D01*
X022281Y020922D01*
X023314Y012788D02*
X023394Y012708D01*
X023283Y012469D01*
X023038Y012380D01*
X022799Y012491D01*
X022710Y012736D01*
X022821Y012975D01*
X023066Y013064D01*
X023305Y012953D01*
X023394Y012708D01*
X023266Y012713D01*
X023196Y012564D01*
X023043Y012508D01*
X022894Y012578D01*
X022838Y012731D01*
X022908Y012880D01*
X023061Y012936D01*
X023210Y012866D01*
X023266Y012713D01*
X023137Y012719D01*
X023109Y012659D01*
X023049Y012637D01*
X022989Y012665D01*
X022967Y012725D01*
X022995Y012785D01*
X023055Y012807D01*
X023115Y012779D01*
X023137Y012719D01*
X019555Y011420D02*
X019635Y011340D01*
X019524Y011101D01*
X019279Y011012D01*
X019040Y011123D01*
X018951Y011368D01*
X019062Y011607D01*
X019307Y011696D01*
X019546Y011585D01*
X019635Y011340D01*
X019507Y011345D01*
X019437Y011196D01*
X019284Y011140D01*
X019135Y011210D01*
X019079Y011363D01*
X019149Y011512D01*
X019302Y011568D01*
X019451Y011498D01*
X019507Y011345D01*
X019378Y011351D01*
X019350Y011291D01*
X019290Y011269D01*
X019230Y011297D01*
X019208Y011357D01*
X019236Y011417D01*
X019296Y011439D01*
X019356Y011411D01*
X019378Y011351D01*
D14*
X024173Y013163D03*
X027173Y011788D03*
X028423Y015163D03*
X024423Y015163D03*
X020673Y017913D03*
X038048Y009780D03*
X041681Y013413D03*
D15*
X043401Y015663D02*
X044195Y015663D01*
X044195Y016663D02*
X043401Y016663D01*
X043401Y017663D02*
X044195Y017663D01*
X024173Y011435D02*
X024173Y010641D01*
X023173Y010641D02*
X023173Y011435D01*
X022173Y011435D02*
X022173Y010641D01*
X039423Y008185D02*
X039423Y007391D01*
X041423Y007391D02*
X041423Y008185D01*
D16*
X028173Y008163D03*
X022173Y008163D03*
X019798Y006788D03*
X019798Y010788D03*
X008298Y009213D03*
X006548Y010038D03*
X008298Y008038D03*
X008298Y015113D03*
D17*
X021798Y013913D03*
X032298Y016163D03*
X035298Y016163D03*
X021798Y019913D03*
D18*
X011273Y019413D02*
X011273Y020413D01*
X009273Y020413D02*
X009273Y019413D01*
X005073Y019413D02*
X005073Y020413D01*
X003073Y020413D02*
X003073Y019413D01*
D19*
X016048Y007163D03*
X017076Y007193D03*
X017770Y011133D03*
X016048Y011163D03*
X016048Y012038D03*
X017770Y012068D03*
X017076Y016008D03*
X016048Y016038D03*
D20*
X014548Y013263D03*
X010548Y013263D03*
X010548Y008163D03*
X014548Y008163D03*
D21*
X042513Y013150D03*
X045332Y014176D03*
D22*
X006291Y015810D03*
X004322Y017581D03*
X006291Y012266D03*
X004322Y010495D03*
D23*
X004322Y011479D03*
X004322Y016597D03*
D24*
X004322Y016597D03*
X004322Y011479D03*
X030076Y011038D03*
X030076Y012613D03*
X030076Y014188D03*
X036769Y013400D03*
X036769Y011825D03*
X036769Y010251D03*
X036769Y008676D03*
X030076Y009463D03*
X030076Y007888D03*
D25*
X029548Y015788D03*
X019798Y021038D03*
D26*
X008673Y017163D03*
X003673Y007663D03*
X044798Y007663D03*
X044798Y020413D03*
M02*
