G75*
G70*
%OFA0B0*%
%FSLAX24Y24*%
%IPPOS*%
%LPD*%
%AMOC8*
5,1,8,0,0,1.08239X$1,22.5*
%
%ADD10R,0.0714X0.0714*%
%ADD11OC8,0.0714*%
%ADD12C,0.0714*%
%ADD13C,0.0143*%
%ADD14C,0.0714*%
%ADD15OC8,0.1000*%
%ADD16C,0.1000*%
%ADD17C,0.0794*%
%ADD18OC8,0.0794*%
%ADD19OC8,0.0754*%
%ADD20C,0.1000*%
%ADD21R,0.0714X0.0714*%
%ADD22C,0.0834*%
%ADD23C,0.0159*%
%ADD24C,0.0709*%
%ADD25C,0.1575*%
%ADD26C,0.1260*%
%ADD27C,0.1181*%
%ADD28C,0.0906*%
%ADD29C,0.1969*%
D10*
X030331Y018001D03*
X031331Y023876D03*
D11*
X030331Y023876D03*
X029331Y023876D03*
X028331Y023876D03*
X027331Y022876D03*
X026206Y024126D03*
X026456Y025501D03*
X029831Y024751D03*
X030456Y025501D03*
X033831Y024751D03*
X034331Y023251D03*
X032331Y023251D03*
X031331Y020876D03*
X029331Y020876D03*
X028331Y020876D03*
X027331Y020876D03*
X026206Y020126D03*
X026331Y018876D03*
X030331Y018876D03*
X030331Y015876D03*
X039706Y021876D03*
X038956Y022376D03*
X039706Y022876D03*
X041456Y022001D03*
X042331Y022501D03*
X041456Y024001D03*
X042331Y025501D03*
X014456Y023251D03*
X014456Y020251D03*
D12*
X030331Y020519D02*
X030331Y021232D01*
X035117Y024001D02*
X035831Y024001D01*
X035831Y025001D02*
X035117Y025001D01*
X038831Y025001D02*
X039545Y025001D01*
X039545Y024001D02*
X038831Y024001D01*
D13*
X027132Y024277D02*
X027060Y024349D01*
X027295Y024357D01*
X027467Y024196D01*
X027475Y023961D01*
X027314Y023789D01*
X027079Y023781D01*
X026907Y023942D01*
X026899Y024177D01*
X027060Y024349D01*
X027107Y024243D01*
X027255Y024248D01*
X027361Y024149D01*
X027366Y024001D01*
X027267Y023895D01*
X027119Y023890D01*
X027013Y023989D01*
X027008Y024137D01*
X027107Y024243D01*
X027155Y024138D01*
X027214Y024140D01*
X027256Y024101D01*
X027258Y024042D01*
X027219Y024000D01*
X027160Y023998D01*
X027118Y024037D01*
X027116Y024096D01*
X027155Y024138D01*
X025670Y025641D02*
X025598Y025713D01*
X025833Y025721D01*
X026005Y025560D01*
X026013Y025325D01*
X025852Y025153D01*
X025617Y025145D01*
X025445Y025306D01*
X025437Y025541D01*
X025598Y025713D01*
X025645Y025607D01*
X025793Y025612D01*
X025899Y025513D01*
X025904Y025365D01*
X025805Y025259D01*
X025657Y025254D01*
X025551Y025353D01*
X025546Y025501D01*
X025645Y025607D01*
X025693Y025502D01*
X025752Y025504D01*
X025794Y025465D01*
X025796Y025406D01*
X025757Y025364D01*
X025698Y025362D01*
X025656Y025401D01*
X025654Y025460D01*
X025693Y025502D01*
D14*
X027581Y019751D03*
X027331Y018001D03*
X026241Y017639D03*
X030331Y016876D03*
X031581Y019751D03*
D15*
X023831Y024501D03*
X011456Y019951D03*
X011456Y014051D03*
X041206Y016758D03*
X041206Y018743D03*
D16*
X041206Y020758D03*
X041206Y014743D03*
X023831Y022501D03*
X017706Y018476D03*
X013706Y018476D03*
X013706Y013376D03*
X017706Y013376D03*
D17*
X025331Y015479D02*
X025331Y016272D01*
X026331Y016272D02*
X026331Y015479D01*
X027331Y015479D02*
X027331Y016272D01*
X042581Y013272D02*
X042581Y012479D01*
X044581Y012479D02*
X044581Y013272D01*
X044581Y022229D02*
X044581Y023022D01*
X045581Y023022D02*
X045581Y022229D01*
X043581Y022229D02*
X043581Y023022D01*
D18*
X022956Y016251D03*
X022956Y012251D03*
X011456Y012876D03*
X009706Y014876D03*
D19*
X024956Y018751D03*
X024956Y024751D03*
X035456Y021001D03*
X038456Y021001D03*
D20*
X014431Y024126D02*
X014431Y025126D01*
X012431Y025126D02*
X012431Y024126D01*
X008231Y024126D02*
X008231Y025126D01*
X006231Y025126D02*
X006231Y024126D01*
D21*
G36*
X023878Y016400D02*
X023208Y016156D01*
X022964Y016826D01*
X023634Y017070D01*
X023878Y016400D01*
G37*
D22*
X019206Y012376D03*
X020734Y012906D03*
X019803Y016406D03*
X019206Y016376D03*
X021428Y016845D03*
X023094Y018228D03*
X019818Y020523D03*
X019109Y020345D03*
D23*
X024711Y013793D02*
X024791Y013713D01*
X024575Y013563D01*
X024318Y013608D01*
X024168Y013824D01*
X024213Y014081D01*
X024429Y014231D01*
X024686Y014186D01*
X024836Y013970D01*
X024791Y013713D01*
X024682Y013782D01*
X024548Y013688D01*
X024387Y013717D01*
X024293Y013851D01*
X024322Y014012D01*
X024456Y014106D01*
X024617Y014077D01*
X024711Y013943D01*
X024682Y013782D01*
X024574Y013852D01*
X024519Y013814D01*
X024457Y013825D01*
X024419Y013880D01*
X024430Y013942D01*
X024485Y013980D01*
X024547Y013969D01*
X024585Y013914D01*
X024574Y013852D01*
X030619Y012751D02*
X030699Y012671D01*
X030483Y012521D01*
X030226Y012566D01*
X030076Y012782D01*
X030121Y013039D01*
X030337Y013189D01*
X030594Y013144D01*
X030744Y012928D01*
X030699Y012671D01*
X030590Y012740D01*
X030456Y012646D01*
X030295Y012675D01*
X030201Y012809D01*
X030230Y012970D01*
X030364Y013064D01*
X030525Y013035D01*
X030619Y012901D01*
X030590Y012740D01*
X030482Y012810D01*
X030427Y012772D01*
X030365Y012783D01*
X030327Y012838D01*
X030338Y012900D01*
X030393Y012938D01*
X030455Y012927D01*
X030493Y012872D01*
X030482Y012810D01*
D24*
X044581Y023501D03*
X044581Y025501D03*
D25*
X009449Y020647D03*
X007481Y022419D03*
X009449Y017104D03*
X007481Y015332D03*
D26*
X007481Y016317D03*
X007481Y021435D03*
D27*
X033235Y019275D03*
X033235Y017700D03*
X033235Y016126D03*
X033235Y014551D03*
X033235Y012976D03*
X039927Y013763D03*
X039927Y015338D03*
X039927Y016913D03*
X039927Y018488D03*
D28*
X032706Y020876D03*
X022706Y025376D03*
D29*
X011831Y022001D03*
X006831Y013126D03*
X047956Y013126D03*
X047956Y024626D03*
M02*
