G75*
G70*
%OFA0B0*%
%FSLAX24Y24*%
%IPPOS*%
%LPD*%
%AMOC8*
5,1,8,0,0,1.08239X$1,22.5*
%
%ADD10C,0.0060*%
%ADD11R,0.0256X0.0551*%
%ADD12C,0.0040*%
%ADD13R,0.0295X0.0571*%
%ADD14R,0.0551X0.0256*%
%ADD15C,0.0080*%
%ADD16R,0.0220X0.0680*%
%ADD17R,0.0240X0.0620*%
%ADD18R,0.0140X0.0560*%
%ADD19R,0.0740X0.0170*%
%ADD20R,0.0170X0.0740*%
%ADD21R,0.0560X0.0140*%
%ADD22R,0.0230X0.0720*%
%ADD23R,0.0571X0.0295*%
D10*
X008923Y013964D02*
X008923Y014287D01*
X009423Y014287D02*
X009423Y013964D01*
X009423Y015589D02*
X009423Y015912D01*
X008923Y015912D02*
X008923Y015589D01*
X008923Y017214D02*
X008923Y017537D01*
X009423Y017537D02*
X009423Y017214D01*
X009423Y018839D02*
X009423Y019162D01*
X008923Y019162D02*
X008923Y018839D01*
X015298Y025096D02*
X015298Y025656D01*
X015798Y025656D02*
X015798Y025096D01*
X016298Y025096D02*
X016298Y025656D01*
X016798Y025656D02*
X016798Y025096D01*
X018268Y025251D02*
X018828Y025251D01*
X018828Y025626D02*
X018268Y025626D01*
X018268Y026126D02*
X018828Y026126D01*
X018828Y024751D02*
X018268Y024751D01*
X019143Y023126D02*
X019703Y023126D01*
X019703Y022626D02*
X019143Y022626D01*
X019298Y021906D02*
X019298Y021346D01*
X018798Y021346D02*
X018798Y021906D01*
X025386Y022876D02*
X025709Y022876D01*
X025709Y023376D02*
X025386Y023376D01*
X028659Y018921D02*
X028569Y017885D01*
X029186Y017831D02*
X029277Y018867D01*
X028703Y017001D02*
X028143Y017001D01*
X028143Y016501D02*
X028703Y016501D01*
X036386Y020751D02*
X036709Y020751D01*
X036709Y021251D02*
X036386Y021251D01*
X038798Y021339D02*
X038798Y021662D01*
X039298Y021662D02*
X039298Y021339D01*
X039723Y020081D02*
X040623Y020081D01*
X040743Y019551D02*
X040873Y019551D01*
X040873Y019201D01*
X040873Y018851D01*
X040743Y018851D01*
X040743Y019551D01*
X040623Y019421D02*
X039723Y019421D01*
X040273Y019201D02*
X040473Y019201D01*
X040873Y019201D02*
X041123Y019201D01*
X041323Y019501D02*
X041623Y019501D01*
X041473Y019351D02*
X041473Y019651D01*
X041886Y019501D02*
X042209Y019501D01*
X042209Y020001D02*
X041886Y020001D01*
X041886Y020501D02*
X042209Y020501D01*
X042209Y021001D02*
X041886Y021001D01*
X037673Y024714D02*
X037673Y025037D01*
X037173Y025037D02*
X037173Y024714D01*
X038998Y016026D02*
X038998Y015826D01*
X038998Y015426D02*
X038648Y015426D01*
X038648Y015556D01*
X039348Y015556D01*
X039348Y015426D01*
X038998Y015426D01*
X038998Y015176D01*
X039298Y014976D02*
X039298Y014676D01*
X039148Y014826D02*
X039448Y014826D01*
D11*
X041756Y019750D03*
X042336Y019750D03*
X042336Y020750D03*
X041756Y020750D03*
X036836Y021000D03*
X036256Y021000D03*
X025836Y023125D03*
X025256Y023125D03*
D12*
X024528Y022529D02*
X024451Y022606D01*
X024298Y022606D01*
X024221Y022529D01*
X024221Y022453D01*
X024528Y022146D01*
X024221Y022146D01*
X024067Y022222D02*
X023991Y022146D01*
X023837Y022146D01*
X023761Y022222D01*
X023607Y022222D02*
X023530Y022146D01*
X023377Y022146D01*
X023300Y022222D01*
X023300Y022299D01*
X023377Y022376D01*
X023607Y022376D01*
X023607Y022222D01*
X023500Y022185D02*
X023653Y022339D01*
X023500Y022492D01*
X023193Y022492D01*
X023300Y022606D02*
X023454Y022529D01*
X023607Y022376D01*
X023761Y022529D02*
X023837Y022606D01*
X023991Y022606D01*
X024067Y022529D01*
X024067Y022222D01*
X023913Y022276D02*
X023913Y021976D01*
X023653Y022032D02*
X023653Y021725D01*
X023423Y021725D01*
X023500Y021878D01*
X023500Y021955D01*
X023423Y022032D01*
X023270Y022032D01*
X023193Y021955D01*
X023193Y021802D01*
X023270Y021725D01*
X023270Y021571D02*
X023193Y021495D01*
X023193Y021341D01*
X023270Y021264D01*
X023576Y021264D01*
X023653Y021341D01*
X023653Y021495D01*
X023576Y021571D01*
X023576Y021111D02*
X023653Y021034D01*
X023653Y020881D01*
X023576Y020804D01*
X023576Y021111D02*
X023500Y021111D01*
X023193Y020804D01*
X023193Y021111D01*
X023193Y022185D02*
X023500Y022185D01*
X023423Y022185D02*
X023423Y022492D01*
X024433Y022266D02*
X024433Y021976D01*
X025398Y021866D02*
X025688Y021866D01*
X025698Y022385D02*
X025398Y022385D01*
X026931Y022972D02*
X027008Y022896D01*
X027161Y022896D01*
X027238Y022972D01*
X027238Y023049D01*
X027161Y023126D01*
X027008Y023126D01*
X026931Y023049D01*
X026931Y022972D01*
X027008Y023126D02*
X026931Y023203D01*
X026931Y023279D01*
X027008Y023356D01*
X027161Y023356D01*
X027238Y023279D01*
X027238Y023203D01*
X027161Y023126D01*
X027392Y023126D02*
X027468Y023049D01*
X027699Y023049D01*
X027699Y022896D02*
X027699Y023356D01*
X027468Y023356D01*
X027392Y023279D01*
X027392Y023126D01*
X027545Y023049D02*
X027392Y022896D01*
X027852Y022896D02*
X028159Y022896D01*
X027852Y023203D01*
X027852Y023279D01*
X027929Y023356D01*
X028082Y023356D01*
X028159Y023279D01*
X028965Y023771D02*
X028965Y024078D01*
X029118Y024231D01*
X029272Y024078D01*
X029272Y023771D01*
X029272Y024001D02*
X028965Y024001D01*
X029425Y024001D02*
X029732Y024001D01*
X029502Y024231D01*
X029502Y023771D01*
X029886Y023847D02*
X029962Y023771D01*
X030116Y023771D01*
X030192Y023847D01*
X030192Y024154D01*
X030116Y024231D01*
X029962Y024231D01*
X029886Y024154D01*
X030346Y024154D02*
X030346Y024078D01*
X030653Y023771D01*
X030346Y023771D01*
X030323Y023510D02*
X030023Y023510D01*
X030023Y022991D02*
X030313Y022991D01*
X030346Y024154D02*
X030423Y024231D01*
X030576Y024231D01*
X030653Y024154D01*
X025528Y025347D02*
X025451Y025271D01*
X025528Y025347D02*
X025528Y025501D01*
X025451Y025578D01*
X025375Y025578D01*
X025068Y025271D01*
X025068Y025578D01*
X025145Y025731D02*
X025068Y025808D01*
X025068Y025961D01*
X025145Y026038D01*
X025145Y026191D02*
X025068Y026191D01*
X025145Y026191D02*
X025451Y026498D01*
X025528Y026498D01*
X025528Y026191D01*
X025451Y026038D02*
X025528Y025961D01*
X025528Y025808D01*
X025451Y025731D01*
X025145Y025731D01*
X024808Y025601D02*
X024808Y025901D01*
X024288Y025901D02*
X024288Y025610D01*
X025068Y026652D02*
X025375Y026652D01*
X025528Y026805D01*
X025375Y026959D01*
X025068Y026959D01*
X025298Y026959D02*
X025298Y026652D01*
X021903Y025904D02*
X021826Y025981D01*
X021673Y025981D01*
X021596Y025904D01*
X021596Y025828D01*
X021903Y025521D01*
X021596Y025521D01*
X021442Y025521D02*
X021442Y025981D01*
X021212Y025981D01*
X021136Y025904D01*
X021136Y025751D01*
X021212Y025674D01*
X021442Y025674D01*
X021289Y025674D02*
X021136Y025521D01*
X020982Y025521D02*
X020675Y025521D01*
X020522Y025521D02*
X020522Y025981D01*
X020215Y025981D01*
X020368Y025751D02*
X020522Y025751D01*
X020829Y025981D02*
X020829Y025521D01*
X020982Y025828D02*
X020829Y025981D01*
X019826Y024481D02*
X019903Y024404D01*
X019826Y024481D02*
X019673Y024481D01*
X019596Y024404D01*
X019596Y024328D01*
X019903Y024021D01*
X019596Y024021D01*
X019442Y024021D02*
X019442Y024481D01*
X019212Y024481D01*
X019136Y024404D01*
X019136Y024251D01*
X019212Y024174D01*
X019442Y024174D01*
X019289Y024174D02*
X019136Y024021D01*
X018982Y024021D02*
X018675Y024021D01*
X018522Y024021D02*
X018215Y024021D01*
X018368Y024251D02*
X018522Y024251D01*
X018522Y024481D02*
X018215Y024481D01*
X018522Y024481D02*
X018522Y024021D01*
X018829Y024021D02*
X018829Y024481D01*
X018982Y024328D01*
X017903Y024404D02*
X017826Y024481D01*
X017673Y024481D01*
X017596Y024404D01*
X017596Y024328D01*
X017903Y024021D01*
X017596Y024021D01*
X017442Y024021D02*
X017442Y024481D01*
X017212Y024481D01*
X017136Y024404D01*
X017136Y024251D01*
X017212Y024174D01*
X017442Y024174D01*
X017289Y024174D02*
X017136Y024021D01*
X016982Y024021D02*
X016675Y024021D01*
X016522Y024021D02*
X016291Y024021D01*
X016215Y024097D01*
X016215Y024404D01*
X016291Y024481D01*
X016522Y024481D01*
X016522Y024021D01*
X016829Y024021D02*
X016829Y024481D01*
X016982Y024328D01*
X015778Y024404D02*
X015701Y024481D01*
X015548Y024481D01*
X015471Y024404D01*
X015471Y024328D01*
X015778Y024021D01*
X015471Y024021D01*
X015317Y024021D02*
X015317Y024481D01*
X015087Y024481D01*
X015011Y024404D01*
X015011Y024251D01*
X015087Y024174D01*
X015317Y024174D01*
X015164Y024174D02*
X015011Y024021D01*
X014857Y024021D02*
X014550Y024021D01*
X014704Y024021D02*
X014704Y024481D01*
X014857Y024328D01*
X014397Y024404D02*
X014397Y024097D01*
X014320Y024021D01*
X014166Y024021D01*
X014090Y024097D01*
X014090Y024404D02*
X014166Y024481D01*
X014320Y024481D01*
X014397Y024404D01*
X016931Y022779D02*
X016931Y022703D01*
X017008Y022626D01*
X017238Y022626D01*
X017008Y022626D02*
X016931Y022549D01*
X016931Y022472D01*
X017008Y022396D01*
X017238Y022396D01*
X017238Y022856D01*
X017008Y022856D01*
X016931Y022779D01*
X017545Y022856D02*
X017699Y022703D01*
X017852Y022779D02*
X017852Y022626D01*
X017929Y022549D01*
X018159Y022549D01*
X018159Y022396D02*
X018159Y022856D01*
X017929Y022856D01*
X017852Y022779D01*
X018006Y022549D02*
X017852Y022396D01*
X017699Y022396D02*
X017392Y022396D01*
X017545Y022396D02*
X017545Y022856D01*
X018312Y022779D02*
X018312Y022703D01*
X018619Y022396D01*
X018312Y022396D01*
X018312Y022779D02*
X018389Y022856D01*
X018543Y022856D01*
X018619Y022779D01*
X019806Y022078D02*
X019806Y021771D01*
X019806Y022001D02*
X020113Y022001D01*
X020113Y022078D02*
X020113Y021771D01*
X020267Y021771D02*
X020574Y021771D01*
X020727Y021771D02*
X020881Y021924D01*
X020804Y021924D02*
X021034Y021924D01*
X021034Y021771D02*
X021034Y022231D01*
X020804Y022231D01*
X020727Y022154D01*
X020727Y022001D01*
X020804Y021924D01*
X020574Y022078D02*
X020420Y022231D01*
X020420Y021771D01*
X020113Y022078D02*
X019960Y022231D01*
X019806Y022078D01*
X021187Y022078D02*
X021187Y022154D01*
X021264Y022231D01*
X021418Y022231D01*
X021494Y022154D01*
X021187Y022078D02*
X021494Y021771D01*
X021187Y021771D01*
X025898Y017010D02*
X026198Y017010D01*
X026188Y016491D02*
X025898Y016491D01*
X027800Y016001D02*
X028107Y016001D01*
X027877Y016231D01*
X027877Y015771D01*
X028261Y015771D02*
X028414Y015924D01*
X028337Y015924D02*
X028567Y015924D01*
X028567Y015771D02*
X028567Y016231D01*
X028337Y016231D01*
X028261Y016154D01*
X028261Y016001D01*
X028337Y015924D01*
X028721Y015771D02*
X029028Y015771D01*
X028721Y016078D01*
X028721Y016154D01*
X028798Y016231D01*
X028951Y016231D01*
X029028Y016154D01*
X027119Y015029D02*
X027043Y015106D01*
X026889Y015106D01*
X026812Y015029D01*
X026812Y014953D01*
X027119Y014646D01*
X026812Y014646D01*
X026659Y014722D02*
X026582Y014646D01*
X026429Y014646D01*
X026352Y014722D01*
X026199Y014646D02*
X025892Y014646D01*
X026045Y014646D02*
X026045Y015106D01*
X026199Y014953D01*
X026352Y015029D02*
X026429Y015106D01*
X026582Y015106D01*
X026659Y015029D01*
X026659Y014722D01*
X025738Y014646D02*
X025431Y014953D01*
X025431Y015029D01*
X025508Y015106D01*
X025662Y015106D01*
X025738Y015029D01*
X025738Y014646D02*
X025431Y014646D01*
X031561Y017329D02*
X032020Y017288D01*
X032006Y017136D02*
X032033Y017441D01*
X031970Y017601D02*
X031664Y017628D01*
X031595Y017711D01*
X031615Y017940D01*
X032073Y017900D01*
X032053Y017671D01*
X031970Y017601D01*
X031727Y017468D02*
X031561Y017329D01*
X031628Y018093D02*
X031934Y018066D01*
X032100Y018206D01*
X031961Y018372D01*
X031655Y018399D01*
X031745Y018545D02*
X031675Y018628D01*
X031688Y018781D01*
X031771Y018851D01*
X031745Y018545D02*
X031821Y018538D01*
X032154Y018817D01*
X032127Y018512D01*
X035215Y019972D02*
X035215Y020049D01*
X035291Y020126D01*
X035522Y020126D01*
X035522Y019972D01*
X035445Y019896D01*
X035291Y019896D01*
X035215Y019972D01*
X035368Y020279D02*
X035522Y020126D01*
X035368Y020279D02*
X035215Y020356D01*
X035675Y019896D02*
X035982Y019896D01*
X035829Y019896D02*
X035829Y020356D01*
X035982Y020203D01*
X036136Y020279D02*
X036136Y020126D01*
X036212Y020049D01*
X036442Y020049D01*
X036289Y020049D02*
X036136Y019896D01*
X036442Y019896D02*
X036442Y020356D01*
X036212Y020356D01*
X036136Y020279D01*
X036596Y020279D02*
X036673Y020356D01*
X036826Y020356D01*
X036903Y020279D01*
X036596Y020279D02*
X036596Y020203D01*
X036903Y019896D01*
X036596Y019896D01*
X039758Y022021D02*
X039758Y022481D01*
X039988Y022251D01*
X039681Y022251D01*
X040142Y022021D02*
X040449Y022021D01*
X040602Y022021D02*
X040756Y022174D01*
X040679Y022174D02*
X040909Y022174D01*
X040909Y022021D02*
X040909Y022481D01*
X040679Y022481D01*
X040602Y022404D01*
X040602Y022251D01*
X040679Y022174D01*
X040449Y022328D02*
X040295Y022481D01*
X040295Y022021D01*
X041062Y022021D02*
X041369Y022021D01*
X041062Y022328D01*
X041062Y022404D01*
X041139Y022481D01*
X041293Y022481D01*
X041369Y022404D01*
X041508Y021731D02*
X041431Y021654D01*
X041431Y021578D01*
X041508Y021501D01*
X041661Y021501D01*
X041738Y021578D01*
X041738Y021654D01*
X041661Y021731D01*
X041508Y021731D01*
X041508Y021501D02*
X041431Y021424D01*
X041431Y021347D01*
X041508Y021271D01*
X041661Y021271D01*
X041738Y021347D01*
X041738Y021424D01*
X041661Y021501D01*
X041892Y021501D02*
X041968Y021424D01*
X042199Y021424D01*
X042352Y021424D02*
X042352Y021347D01*
X042429Y021271D01*
X042582Y021271D01*
X042659Y021347D01*
X042506Y021501D02*
X042429Y021501D01*
X042352Y021424D01*
X042429Y021501D02*
X042352Y021578D01*
X042352Y021654D01*
X042429Y021731D01*
X042582Y021731D01*
X042659Y021654D01*
X042199Y021731D02*
X042199Y021271D01*
X042045Y021424D02*
X041892Y021271D01*
X041892Y021501D02*
X041892Y021654D01*
X041968Y021731D01*
X042199Y021731D01*
X043227Y019721D02*
X043343Y019663D01*
X043460Y019546D01*
X043285Y019546D01*
X043227Y019487D01*
X043227Y019429D01*
X043285Y019371D01*
X043402Y019371D01*
X043460Y019429D01*
X043460Y019546D01*
X043586Y019546D02*
X043644Y019487D01*
X043819Y019487D01*
X043819Y019371D02*
X043819Y019721D01*
X043644Y019721D01*
X043586Y019663D01*
X043586Y019546D01*
X043703Y019487D02*
X043586Y019371D01*
X043945Y019429D02*
X044003Y019371D01*
X044120Y019371D01*
X044178Y019429D01*
X044062Y019546D02*
X044003Y019546D01*
X043945Y019487D01*
X043945Y019429D01*
X044003Y019546D02*
X043945Y019604D01*
X043945Y019663D01*
X044003Y019721D01*
X044120Y019721D01*
X044178Y019663D01*
X041409Y019029D02*
X041332Y019106D01*
X041179Y019106D01*
X041102Y019029D01*
X041102Y018953D01*
X041179Y018876D01*
X041102Y018799D01*
X041102Y018722D01*
X041179Y018646D01*
X041332Y018646D01*
X041409Y018722D01*
X041256Y018876D02*
X041179Y018876D01*
X040949Y018799D02*
X040718Y018799D01*
X040642Y018876D01*
X040642Y019029D01*
X040718Y019106D01*
X040949Y019106D01*
X040949Y018646D01*
X040795Y018799D02*
X040642Y018646D01*
X040488Y018646D02*
X040488Y018722D01*
X040181Y019029D01*
X040181Y019106D01*
X040488Y019106D01*
X039326Y023679D02*
X039403Y023756D01*
X039403Y023909D01*
X039326Y023986D01*
X039250Y023986D01*
X038943Y023679D01*
X038943Y023986D01*
X038943Y024139D02*
X039403Y024139D01*
X039403Y024370D01*
X039326Y024446D01*
X039173Y024446D01*
X039096Y024370D01*
X039096Y024139D01*
X039096Y024293D02*
X038943Y024446D01*
X038943Y024600D02*
X038943Y024907D01*
X038943Y025060D02*
X039250Y025367D01*
X039326Y025367D01*
X039403Y025290D01*
X039403Y025137D01*
X039326Y025060D01*
X039403Y024753D02*
X038943Y024753D01*
X038943Y025060D02*
X038943Y025367D01*
X039403Y024753D02*
X039250Y024600D01*
X011034Y019203D02*
X010881Y019356D01*
X010881Y018896D01*
X011034Y018896D02*
X010727Y018896D01*
X010574Y018896D02*
X010574Y019356D01*
X010343Y019356D01*
X010267Y019279D01*
X010267Y019126D01*
X010343Y019049D01*
X010574Y019049D01*
X010420Y019049D02*
X010267Y018896D01*
X010113Y018896D02*
X009806Y018896D01*
X009960Y018896D02*
X009960Y019356D01*
X010113Y019203D01*
X008374Y017231D02*
X008374Y016771D01*
X008221Y016771D02*
X008528Y016771D01*
X008528Y017078D02*
X008374Y017231D01*
X008067Y017231D02*
X007837Y017231D01*
X007761Y017154D01*
X007761Y017001D01*
X007837Y016924D01*
X008067Y016924D01*
X007914Y016924D02*
X007761Y016771D01*
X007607Y016771D02*
X007300Y017078D01*
X007300Y017154D01*
X007377Y017231D01*
X007530Y017231D01*
X007607Y017154D01*
X007607Y016771D02*
X007300Y016771D01*
X008067Y016771D02*
X008067Y017231D01*
X008067Y015481D02*
X007837Y015481D01*
X007761Y015404D01*
X007761Y015251D01*
X007837Y015174D01*
X008067Y015174D01*
X007914Y015174D02*
X007761Y015021D01*
X007607Y015251D02*
X007300Y015251D01*
X007377Y015021D02*
X007377Y015481D01*
X007607Y015251D01*
X008067Y015021D02*
X008067Y015481D01*
X008374Y015481D02*
X008374Y015021D01*
X008221Y015021D02*
X008528Y015021D01*
X008528Y015328D02*
X008374Y015481D01*
X009931Y014904D02*
X009931Y014828D01*
X010008Y014751D01*
X009931Y014674D01*
X009931Y014597D01*
X010008Y014521D01*
X010161Y014521D01*
X010238Y014597D01*
X010392Y014521D02*
X010545Y014674D01*
X010468Y014674D02*
X010699Y014674D01*
X010699Y014521D02*
X010699Y014981D01*
X010468Y014981D01*
X010392Y014904D01*
X010392Y014751D01*
X010468Y014674D01*
X010238Y014904D02*
X010161Y014981D01*
X010008Y014981D01*
X009931Y014904D01*
X010008Y014751D02*
X010085Y014751D01*
X010852Y014521D02*
X011159Y014521D01*
X011006Y014521D02*
X011006Y014981D01*
X011159Y014828D01*
D13*
X025260Y022126D03*
X025830Y022126D03*
X029885Y023251D03*
X030455Y023251D03*
X026330Y016751D03*
X025760Y016751D03*
D14*
X009173Y013834D03*
X009173Y014414D03*
X009172Y015463D03*
X009172Y016043D03*
X009173Y017084D03*
X009173Y017664D03*
X009172Y018713D03*
X009172Y019293D03*
X037422Y024588D03*
X037422Y025168D03*
X039047Y021793D03*
X039047Y021213D03*
D15*
X029180Y018601D02*
X028910Y018229D01*
X028709Y018642D01*
X029180Y018601D01*
D16*
G36*
X029325Y019072D02*
X029306Y018854D01*
X028629Y018914D01*
X028648Y019132D01*
X029325Y019072D01*
G37*
G36*
X029217Y017837D02*
X029198Y017619D01*
X028521Y017679D01*
X028540Y017897D01*
X029217Y017837D01*
G37*
D17*
G36*
X029223Y018248D02*
X029202Y018010D01*
X028585Y018064D01*
X028606Y018302D01*
X029223Y018248D01*
G37*
D18*
X028763Y016751D03*
X028083Y016751D03*
X019763Y022876D03*
X019083Y022876D03*
X018888Y025001D03*
X018208Y025001D03*
X018208Y025876D03*
X018888Y025876D03*
D19*
X038998Y015761D03*
D20*
X040538Y019201D03*
D21*
X019048Y021286D03*
X019048Y021966D03*
X016548Y025036D03*
X016548Y025716D03*
X015548Y025716D03*
X015548Y025036D03*
D22*
X039618Y019751D03*
X040728Y019751D03*
D23*
X024548Y025468D03*
X024548Y026038D03*
X024172Y022408D03*
X024172Y021838D03*
M02*
