G75*
G70*
%OFA0B0*%
%FSLAX24Y24*%
%IPPOS*%
%LPD*%
%AMOC8*
5,1,8,0,0,1.08239X$1,22.5*
%
%ADD10R,0.0794X0.0794*%
%ADD11OC8,0.0794*%
%ADD12C,0.0794*%
%ADD13C,0.0159*%
%ADD14C,0.0794*%
%ADD15OC8,0.1080*%
%ADD16C,0.1080*%
%ADD17C,0.0874*%
%ADD18OC8,0.0874*%
%ADD19OC8,0.0834*%
%ADD20C,0.1080*%
%ADD21R,0.0794X0.0794*%
%ADD22C,0.0914*%
%ADD23C,0.0175*%
%ADD24C,0.0789*%
%ADD25C,0.1655*%
%ADD26C,0.1340*%
%ADD27C,0.1261*%
%ADD28C,0.0986*%
%ADD29C,0.2049*%
D10*
X030331Y018001D03*
X031331Y023876D03*
D11*
X030331Y023876D03*
X029331Y023876D03*
X028331Y023876D03*
X027331Y022876D03*
X026206Y024126D03*
X026456Y025501D03*
X029831Y024751D03*
X030456Y025501D03*
X033831Y024751D03*
X034331Y023251D03*
X032331Y023251D03*
X031331Y020876D03*
X029331Y020876D03*
X028331Y020876D03*
X027331Y020876D03*
X026206Y020126D03*
X026331Y018876D03*
X030331Y018876D03*
X030331Y015876D03*
X039706Y021876D03*
X038956Y022376D03*
X039706Y022876D03*
X041456Y022001D03*
X042331Y022501D03*
X041456Y024001D03*
X042331Y025501D03*
X014456Y023251D03*
X014456Y020251D03*
D12*
X030331Y020519D02*
X030331Y021232D01*
X035117Y024001D02*
X035831Y024001D01*
X035831Y025001D02*
X035117Y025001D01*
X038831Y025001D02*
X039545Y025001D01*
X039545Y024001D02*
X038831Y024001D01*
D13*
X027125Y024301D02*
X027045Y024381D01*
X027307Y024390D01*
X027499Y024211D01*
X027508Y023949D01*
X027329Y023757D01*
X027067Y023748D01*
X026875Y023927D01*
X026866Y024189D01*
X027045Y024381D01*
X027099Y024264D01*
X027262Y024269D01*
X027382Y024157D01*
X027387Y023994D01*
X027275Y023874D01*
X027112Y023869D01*
X026992Y023981D01*
X026987Y024144D01*
X027099Y024264D01*
X027152Y024146D01*
X027217Y024148D01*
X027264Y024104D01*
X027266Y024039D01*
X027222Y023992D01*
X027157Y023990D01*
X027110Y024034D01*
X027108Y024099D01*
X027152Y024146D01*
X025663Y025665D02*
X025583Y025745D01*
X025845Y025754D01*
X026037Y025575D01*
X026046Y025313D01*
X025867Y025121D01*
X025605Y025112D01*
X025413Y025291D01*
X025404Y025553D01*
X025583Y025745D01*
X025637Y025628D01*
X025800Y025633D01*
X025920Y025521D01*
X025925Y025358D01*
X025813Y025238D01*
X025650Y025233D01*
X025530Y025345D01*
X025525Y025508D01*
X025637Y025628D01*
X025690Y025510D01*
X025755Y025512D01*
X025802Y025468D01*
X025804Y025403D01*
X025760Y025356D01*
X025695Y025354D01*
X025648Y025398D01*
X025646Y025463D01*
X025690Y025510D01*
D14*
X027581Y019751D03*
X027331Y018001D03*
X026241Y017639D03*
X030331Y016876D03*
X031581Y019751D03*
D15*
X023831Y024501D03*
X011456Y019951D03*
X011456Y014051D03*
X041206Y016758D03*
X041206Y018743D03*
D16*
X041206Y020758D03*
X041206Y014743D03*
X023831Y022501D03*
X017706Y018476D03*
X013706Y018476D03*
X013706Y013376D03*
X017706Y013376D03*
D17*
X025331Y015479D02*
X025331Y016272D01*
X026331Y016272D02*
X026331Y015479D01*
X027331Y015479D02*
X027331Y016272D01*
X042581Y013272D02*
X042581Y012479D01*
X044581Y012479D02*
X044581Y013272D01*
X044581Y022229D02*
X044581Y023022D01*
X045581Y023022D02*
X045581Y022229D01*
X043581Y022229D02*
X043581Y023022D01*
D18*
X022956Y016251D03*
X022956Y012251D03*
X011456Y012876D03*
X009706Y014876D03*
D19*
X024956Y018751D03*
X024956Y024751D03*
X035456Y021001D03*
X038456Y021001D03*
D20*
X014431Y024126D02*
X014431Y025126D01*
X012431Y025126D02*
X012431Y024126D01*
X008231Y024126D02*
X008231Y025126D01*
X006231Y025126D02*
X006231Y024126D01*
D21*
G36*
X023929Y016376D02*
X023184Y016105D01*
X022913Y016850D01*
X023658Y017121D01*
X023929Y016376D01*
G37*
D22*
X019206Y012376D03*
X020734Y012906D03*
X019803Y016406D03*
X019206Y016376D03*
X021428Y016845D03*
X023094Y018228D03*
X019818Y020523D03*
X019109Y020345D03*
D23*
X024732Y013783D02*
X024820Y013695D01*
X024583Y013529D01*
X024300Y013579D01*
X024134Y013816D01*
X024184Y014099D01*
X024421Y014265D01*
X024704Y014215D01*
X024870Y013978D01*
X024820Y013695D01*
X024701Y013771D01*
X024552Y013667D01*
X024376Y013698D01*
X024272Y013847D01*
X024303Y014023D01*
X024452Y014127D01*
X024628Y014096D01*
X024732Y013947D01*
X024701Y013771D01*
X024581Y013847D01*
X024522Y013806D01*
X024452Y013818D01*
X024411Y013877D01*
X024423Y013947D01*
X024482Y013988D01*
X024552Y013976D01*
X024593Y013917D01*
X024581Y013847D01*
X030640Y012741D02*
X030728Y012653D01*
X030491Y012487D01*
X030208Y012537D01*
X030042Y012774D01*
X030092Y013057D01*
X030329Y013223D01*
X030612Y013173D01*
X030778Y012936D01*
X030728Y012653D01*
X030609Y012729D01*
X030460Y012625D01*
X030284Y012656D01*
X030180Y012805D01*
X030211Y012981D01*
X030360Y013085D01*
X030536Y013054D01*
X030640Y012905D01*
X030609Y012729D01*
X030489Y012805D01*
X030430Y012764D01*
X030360Y012776D01*
X030319Y012835D01*
X030331Y012905D01*
X030390Y012946D01*
X030460Y012934D01*
X030501Y012875D01*
X030489Y012805D01*
D24*
X044581Y023501D03*
X044581Y025501D03*
D25*
X009449Y020647D03*
X007481Y022419D03*
X009449Y017104D03*
X007481Y015332D03*
D26*
X007481Y016317D03*
X007481Y021435D03*
D27*
X007481Y021435D03*
X007481Y016317D03*
X033235Y016126D03*
X033235Y017700D03*
X033235Y019275D03*
X039927Y018488D03*
X039927Y016913D03*
X039927Y015338D03*
X039927Y013763D03*
X033235Y012976D03*
X033235Y014551D03*
D28*
X032706Y020876D03*
X022706Y025376D03*
D29*
X011831Y022001D03*
X006831Y013126D03*
X047956Y013126D03*
X047956Y024626D03*
M02*
