G75*
G70*
%OFA0B0*%
%FSLAX24Y24*%
%IPPOS*%
%LPD*%
%AMOC8*
5,1,8,0,0,1.08239X$1,22.5*
%
%ADD10R,0.0714X0.0714*%
%ADD11OC8,0.0714*%
%ADD12C,0.0714*%
%ADD13C,0.0143*%
%ADD14C,0.0714*%
%ADD15C,0.0794*%
%ADD16OC8,0.0794*%
%ADD17OC8,0.0754*%
%ADD18C,0.1000*%
%ADD19C,0.0834*%
%ADD20C,0.1000*%
%ADD21C,0.0748*%
%ADD22C,0.1575*%
%ADD23C,0.1260*%
%ADD24C,0.1181*%
%ADD25C,0.0906*%
%ADD26C,0.0100*%
%ADD27C,0.1969*%
D10*
X027173Y013163D03*
X028173Y019288D03*
D11*
X027173Y019288D03*
X026173Y019288D03*
X025173Y019288D03*
X024173Y018288D03*
X023048Y019288D03*
X020673Y019913D03*
X023298Y021163D03*
X026673Y020288D03*
X027298Y021163D03*
X030673Y020288D03*
X031173Y018413D03*
X029173Y018413D03*
X028173Y016288D03*
X026173Y016288D03*
X025173Y016288D03*
X024173Y016288D03*
X023048Y015288D03*
X023173Y014038D03*
X027173Y014038D03*
X027173Y010788D03*
X038048Y011796D03*
X039665Y013413D03*
X038173Y014163D03*
X038173Y016163D03*
X038173Y017163D03*
X036923Y017288D03*
X036173Y017788D03*
X036923Y018288D03*
X038173Y021163D03*
X011298Y018288D03*
X011298Y015288D03*
D12*
X027173Y015931D02*
X027173Y016645D01*
X031959Y019413D02*
X032673Y019413D01*
X032673Y020413D02*
X031959Y020413D01*
X035673Y020413D02*
X036387Y020413D01*
X036387Y019413D02*
X035673Y019413D01*
D13*
X023724Y019689D02*
X023652Y019761D01*
X023887Y019769D01*
X024059Y019608D01*
X024067Y019373D01*
X023906Y019201D01*
X023671Y019193D01*
X023499Y019354D01*
X023491Y019589D01*
X023652Y019761D01*
X023699Y019655D01*
X023847Y019660D01*
X023953Y019561D01*
X023958Y019413D01*
X023859Y019307D01*
X023711Y019302D01*
X023605Y019401D01*
X023600Y019549D01*
X023699Y019655D01*
X023747Y019550D01*
X023806Y019552D01*
X023848Y019513D01*
X023850Y019454D01*
X023811Y019412D01*
X023752Y019410D01*
X023710Y019449D01*
X023708Y019508D01*
X023747Y019550D01*
X022261Y021053D02*
X022189Y021125D01*
X022424Y021133D01*
X022596Y020972D01*
X022604Y020737D01*
X022443Y020565D01*
X022208Y020557D01*
X022036Y020718D01*
X022028Y020953D01*
X022189Y021125D01*
X022236Y021019D01*
X022384Y021024D01*
X022490Y020925D01*
X022495Y020777D01*
X022396Y020671D01*
X022248Y020666D01*
X022142Y020765D01*
X022137Y020913D01*
X022236Y021019D01*
X022284Y020914D01*
X022343Y020916D01*
X022385Y020877D01*
X022387Y020818D01*
X022348Y020776D01*
X022289Y020774D01*
X022247Y020813D01*
X022245Y020872D01*
X022284Y020914D01*
X023288Y012781D02*
X023360Y012709D01*
X023260Y012495D01*
X023039Y012414D01*
X022825Y012514D01*
X022744Y012735D01*
X022844Y012949D01*
X023065Y013030D01*
X023279Y012930D01*
X023360Y012709D01*
X023244Y012715D01*
X023181Y012580D01*
X023045Y012530D01*
X022910Y012593D01*
X022860Y012729D01*
X022923Y012864D01*
X023059Y012914D01*
X023194Y012851D01*
X023244Y012715D01*
X023128Y012720D01*
X023103Y012666D01*
X023050Y012646D01*
X022996Y012671D01*
X022976Y012724D01*
X023001Y012778D01*
X023054Y012798D01*
X023108Y012773D01*
X023128Y012720D01*
X019529Y011413D02*
X019601Y011341D01*
X019501Y011127D01*
X019280Y011046D01*
X019066Y011146D01*
X018985Y011367D01*
X019085Y011581D01*
X019306Y011662D01*
X019520Y011562D01*
X019601Y011341D01*
X019485Y011347D01*
X019422Y011212D01*
X019286Y011162D01*
X019151Y011225D01*
X019101Y011361D01*
X019164Y011496D01*
X019300Y011546D01*
X019435Y011483D01*
X019485Y011347D01*
X019369Y011352D01*
X019344Y011298D01*
X019291Y011278D01*
X019237Y011303D01*
X019217Y011356D01*
X019242Y011410D01*
X019295Y011430D01*
X019349Y011405D01*
X019369Y011352D01*
D14*
X024173Y013163D03*
X027173Y011788D03*
X028423Y015163D03*
X024423Y015163D03*
X020673Y017913D03*
X038048Y009780D03*
X041681Y013413D03*
D15*
X043401Y015663D02*
X044195Y015663D01*
X044195Y016663D02*
X043401Y016663D01*
X043401Y017663D02*
X044195Y017663D01*
X024173Y011435D02*
X024173Y010641D01*
X023173Y010641D02*
X023173Y011435D01*
X022173Y011435D02*
X022173Y010641D01*
X039423Y008185D02*
X039423Y007391D01*
X041423Y007391D02*
X041423Y008185D01*
D16*
X028173Y008163D03*
X022173Y008163D03*
X019798Y006788D03*
X019798Y010788D03*
X008298Y009213D03*
X006548Y010038D03*
X008298Y008038D03*
X008298Y015113D03*
D17*
X021798Y013913D03*
X032298Y016163D03*
X035298Y016163D03*
X021798Y019913D03*
D18*
X011273Y019413D02*
X011273Y020413D01*
X009273Y020413D02*
X009273Y019413D01*
X005073Y019413D02*
X005073Y020413D01*
X003073Y020413D02*
X003073Y019413D01*
D19*
X016048Y007163D03*
X017076Y007193D03*
X017770Y011133D03*
X016048Y011163D03*
X016048Y012038D03*
X017770Y012068D03*
X017076Y016008D03*
X016048Y016038D03*
D20*
X014548Y013263D03*
X010548Y013263D03*
X010548Y008163D03*
X014548Y008163D03*
D21*
X042513Y013150D03*
X045332Y014176D03*
D22*
X006291Y015810D03*
X004322Y017581D03*
X006291Y012266D03*
X004322Y010495D03*
D23*
X004322Y011479D03*
X004322Y016597D03*
D24*
X030076Y014188D03*
X030076Y012613D03*
X030076Y011038D03*
X030076Y009463D03*
X030076Y007888D03*
X036769Y008676D03*
X036769Y010251D03*
X036769Y011825D03*
X036769Y013400D03*
D25*
X029548Y015788D03*
X019798Y021038D03*
D26*
X021173Y021038D01*
X021548Y014663D01*
X025548Y014538D01*
X027173Y014913D01*
X028673Y014413D01*
X029548Y015788D01*
D27*
X044798Y020413D03*
X044798Y007663D03*
X008673Y017163D03*
X003673Y007663D03*
M02*
