G75*
G70*
%OFA0B0*%
%FSLAX24Y24*%
%IPPOS*%
%LPD*%
%AMOC8*
5,1,8,0,0,1.08239X$1,22.5*
%
%ADD10C,0.0110*%
%ADD11R,0.0792X0.0792*%
%ADD12OC8,0.0792*%
%ADD13C,0.0792*%
%ADD14R,0.0512X0.0591*%
%ADD15C,0.0158*%
%ADD16C,0.0792*%
%ADD17R,0.0591X0.0512*%
%ADD18C,0.0872*%
%ADD19OC8,0.0872*%
%ADD20R,0.0551X0.0709*%
%ADD21R,0.0512X0.0630*%
%ADD22OC8,0.0832*%
%ADD23C,0.1000*%
%ADD24C,0.0912*%
%ADD25C,0.1000*%
%ADD26C,0.0827*%
%ADD27C,0.1575*%
%ADD28C,0.1260*%
%ADD29C,0.1181*%
%ADD30R,0.0630X0.0512*%
%ADD31R,0.0630X0.0787*%
%ADD32C,0.0500*%
%ADD33C,0.0240*%
%ADD34C,0.0400*%
%ADD35C,0.0760*%
%ADD36C,0.0320*%
%ADD37C,0.0906*%
%ADD38C,0.0700*%
%ADD39C,0.1969*%
%ADD40C,0.0160*%
D10*
X002826Y008593D02*
X002728Y008691D01*
X002728Y008987D01*
X002629Y008987D02*
X003122Y008987D01*
X003122Y008691D01*
X003023Y008593D01*
X002826Y008593D01*
X002531Y008790D02*
X002531Y008888D01*
X002629Y008987D01*
X002728Y009238D02*
X002728Y009434D01*
X002728Y009336D02*
X003122Y009336D01*
X003122Y009238D01*
X003318Y009336D02*
X003417Y009336D01*
X003122Y009667D02*
X003122Y009864D01*
X003220Y009766D02*
X002826Y009766D01*
X002728Y009864D01*
X002728Y010097D02*
X003318Y010097D01*
X003122Y010195D02*
X003122Y010392D01*
X003023Y010491D01*
X002728Y010491D01*
X002826Y010741D02*
X002728Y010840D01*
X002728Y011135D01*
X003122Y011135D01*
X003122Y011386D02*
X003122Y011681D01*
X003023Y011780D01*
X002826Y011780D01*
X002728Y011681D01*
X002728Y011386D01*
X003318Y011386D01*
X003122Y010741D02*
X002826Y010741D01*
X003122Y010195D02*
X003023Y010097D01*
X002826Y012031D02*
X002826Y012129D01*
X002728Y012129D01*
X002728Y012031D01*
X002826Y012031D01*
X002826Y012353D02*
X002728Y012451D01*
X002728Y012747D01*
X002826Y012997D02*
X002728Y013096D01*
X002728Y013293D01*
X002826Y013391D01*
X003023Y013391D01*
X003122Y013293D01*
X003122Y013096D01*
X003023Y012997D01*
X002826Y012997D01*
X003122Y012747D02*
X003122Y012451D01*
X003023Y012353D01*
X002826Y012353D01*
X002728Y013642D02*
X003122Y013642D01*
X003122Y013740D01*
X003023Y013839D01*
X003122Y013937D01*
X003023Y014036D01*
X002728Y014036D01*
X002728Y013839D02*
X003023Y013839D01*
X002728Y014287D02*
X003318Y014680D01*
X003318Y014931D02*
X003318Y015325D01*
X003220Y015325D01*
X002826Y014931D01*
X002728Y014931D01*
X003023Y015576D02*
X003023Y015969D01*
X002728Y015871D02*
X003318Y015871D01*
X003023Y015576D01*
X002728Y016220D02*
X002728Y016417D01*
X002728Y016319D02*
X003318Y016319D01*
X003318Y016220D01*
X003023Y016650D02*
X003122Y016748D01*
X003122Y017044D01*
X002925Y016945D02*
X002925Y016748D01*
X003023Y016650D01*
X002728Y016650D02*
X002728Y016945D01*
X002826Y017044D01*
X002925Y016945D01*
X002826Y017294D02*
X003220Y017688D01*
X002826Y017688D01*
X002728Y017590D01*
X002728Y017393D01*
X002826Y017294D01*
X003220Y017294D01*
X003318Y017393D01*
X003318Y017590D01*
X003220Y017688D01*
X003220Y017939D02*
X002826Y017939D01*
X003220Y018333D01*
X002826Y018333D01*
X002728Y018234D01*
X002728Y018037D01*
X002826Y017939D01*
X003220Y017939D02*
X003318Y018037D01*
X003318Y018234D01*
X003220Y018333D01*
X040021Y019718D02*
X040021Y020112D01*
X040218Y020308D01*
X040415Y020112D01*
X040415Y019718D01*
X040666Y019816D02*
X040764Y019718D01*
X040961Y019718D01*
X041059Y019816D01*
X040862Y020013D02*
X040764Y020013D01*
X040666Y019915D01*
X040666Y019816D01*
X040764Y020013D02*
X040666Y020112D01*
X040666Y020210D01*
X040764Y020308D01*
X040961Y020308D01*
X041059Y020210D01*
X040415Y020013D02*
X040021Y020013D01*
X041955Y019915D02*
X042151Y019718D01*
X042348Y019915D01*
X042348Y020308D01*
X042599Y020308D02*
X042993Y020308D01*
X042993Y020013D01*
X042796Y020112D01*
X042698Y020112D01*
X042599Y020013D01*
X042599Y019816D01*
X042698Y019718D01*
X042894Y019718D01*
X042993Y019816D01*
X041955Y019915D02*
X041955Y020308D01*
D11*
X028173Y019288D03*
X027173Y013163D03*
D12*
X027173Y014038D03*
X023173Y014038D03*
X023048Y015288D03*
X024173Y016288D03*
X025173Y016288D03*
X026173Y016288D03*
X028173Y016288D03*
X029173Y018413D03*
X031173Y018413D03*
X027173Y019288D03*
X026173Y019288D03*
X025173Y019288D03*
X024173Y018288D03*
X023048Y019288D03*
X020673Y019913D03*
X023298Y021163D03*
X026673Y020288D03*
X027298Y021163D03*
X030673Y020288D03*
X036173Y017788D03*
X036923Y017288D03*
X038173Y017163D03*
X038173Y016163D03*
X038173Y014163D03*
X039665Y013413D03*
X038048Y011796D03*
X027173Y010788D03*
X011298Y015288D03*
X011298Y018288D03*
X036923Y018288D03*
X038173Y021163D03*
D13*
X036465Y020413D02*
X035673Y020413D01*
X035673Y019413D02*
X036465Y019413D01*
X032673Y019413D02*
X031880Y019413D01*
X031880Y020413D02*
X032673Y020413D01*
X027173Y016684D02*
X027173Y015892D01*
D14*
X025922Y017288D03*
X025174Y017288D03*
X025174Y018288D03*
X025922Y018288D03*
X036174Y016163D03*
X036922Y016163D03*
X041674Y015913D03*
X042422Y015913D03*
X042422Y014913D03*
X041674Y014913D03*
X026422Y011913D03*
X025674Y011913D03*
D15*
X023315Y012787D02*
X023394Y012708D01*
X023283Y012469D01*
X023038Y012380D01*
X022799Y012491D01*
X022710Y012736D01*
X022821Y012975D01*
X023066Y013064D01*
X023305Y012953D01*
X023394Y012708D01*
X023266Y012713D01*
X023196Y012564D01*
X023043Y012508D01*
X022894Y012578D01*
X022838Y012731D01*
X022908Y012880D01*
X023061Y012936D01*
X023210Y012866D01*
X023266Y012713D01*
X023137Y012719D01*
X023109Y012659D01*
X023049Y012637D01*
X022989Y012665D01*
X022967Y012725D01*
X022995Y012785D01*
X023055Y012807D01*
X023115Y012779D01*
X023137Y012719D01*
X019556Y011419D02*
X019635Y011340D01*
X019524Y011101D01*
X019279Y011012D01*
X019040Y011123D01*
X018951Y011368D01*
X019062Y011607D01*
X019307Y011696D01*
X019546Y011585D01*
X019635Y011340D01*
X019507Y011345D01*
X019437Y011196D01*
X019284Y011140D01*
X019135Y011210D01*
X019079Y011363D01*
X019149Y011512D01*
X019302Y011568D01*
X019451Y011498D01*
X019507Y011345D01*
X019378Y011351D01*
X019350Y011291D01*
X019290Y011269D01*
X019230Y011297D01*
X019208Y011357D01*
X019236Y011417D01*
X019296Y011439D01*
X019356Y011411D01*
X019378Y011351D01*
X023716Y019714D02*
X023637Y019793D01*
X023899Y019802D01*
X024091Y019623D01*
X024100Y019361D01*
X023921Y019169D01*
X023659Y019160D01*
X023467Y019339D01*
X023458Y019601D01*
X023637Y019793D01*
X023691Y019676D01*
X023854Y019681D01*
X023974Y019569D01*
X023979Y019406D01*
X023867Y019286D01*
X023704Y019281D01*
X023584Y019393D01*
X023579Y019556D01*
X023691Y019676D01*
X023744Y019558D01*
X023809Y019560D01*
X023856Y019516D01*
X023858Y019451D01*
X023814Y019404D01*
X023749Y019402D01*
X023702Y019446D01*
X023700Y019511D01*
X023744Y019558D01*
X022253Y021078D02*
X022174Y021157D01*
X022436Y021166D01*
X022628Y020987D01*
X022637Y020725D01*
X022458Y020533D01*
X022196Y020524D01*
X022004Y020703D01*
X021995Y020965D01*
X022174Y021157D01*
X022228Y021040D01*
X022391Y021045D01*
X022511Y020933D01*
X022516Y020770D01*
X022404Y020650D01*
X022241Y020645D01*
X022121Y020757D01*
X022116Y020920D01*
X022228Y021040D01*
X022281Y020922D01*
X022346Y020924D01*
X022393Y020880D01*
X022395Y020815D01*
X022351Y020768D01*
X022286Y020766D01*
X022239Y020810D01*
X022237Y020875D01*
X022281Y020922D01*
D16*
X020673Y017913D03*
X024423Y015163D03*
X028423Y015163D03*
X024173Y013163D03*
X027173Y011788D03*
X038048Y009780D03*
X041681Y013413D03*
D17*
X039048Y016289D03*
X039048Y017037D03*
X037423Y019664D03*
X037423Y020412D03*
X009173Y014537D03*
X009173Y013789D03*
X009173Y012912D03*
X009173Y012164D03*
X009173Y011287D03*
X009173Y010539D03*
X009173Y009662D03*
X009173Y008914D03*
D18*
X022173Y010602D02*
X022173Y011474D01*
X023173Y011474D02*
X023173Y010602D01*
X024173Y010602D02*
X024173Y011474D01*
X039423Y008224D02*
X039423Y007352D01*
X041423Y007352D02*
X041423Y008224D01*
X043362Y015663D02*
X044234Y015663D01*
X044234Y016663D02*
X043362Y016663D01*
X043362Y017663D02*
X044234Y017663D01*
D19*
X028173Y008163D03*
X022173Y008163D03*
X019798Y006788D03*
X019798Y010788D03*
X008298Y009213D03*
X006548Y010038D03*
X008298Y008038D03*
X008298Y015113D03*
D20*
G36*
X029241Y013114D02*
X029193Y012567D01*
X028489Y012628D01*
X028537Y013175D01*
X029241Y013114D01*
G37*
G36*
X029357Y014448D02*
X029309Y013901D01*
X028605Y013962D01*
X028653Y014509D01*
X029357Y014448D01*
G37*
D21*
X028797Y011913D03*
X028049Y011913D03*
X019797Y018038D03*
X019049Y018038D03*
X018922Y020163D03*
X018174Y020163D03*
X018174Y021038D03*
X018922Y021038D03*
D22*
X021798Y019913D03*
X032298Y016163D03*
X035298Y016163D03*
X021798Y013913D03*
D23*
X017076Y016008D02*
X016048Y016038D01*
X014548Y014538D01*
X014548Y013263D01*
X014548Y008163D02*
X015548Y007163D01*
X016048Y007163D01*
X017076Y007193D01*
X011298Y018288D02*
X011273Y019913D01*
X009298Y019913D01*
X009273Y019413D02*
X009273Y020413D01*
X011273Y020413D02*
X011273Y019413D01*
X005073Y019413D02*
X005073Y020413D01*
X003073Y020413D02*
X003073Y019413D01*
D24*
X016048Y016038D03*
X017076Y016008D03*
X017770Y012068D03*
X016048Y012038D03*
X016048Y011163D03*
X017770Y011133D03*
X017076Y007193D03*
X016048Y007163D03*
D25*
X014548Y008163D03*
X010548Y008163D03*
X010548Y013263D03*
X014548Y013263D03*
D26*
X042513Y013150D03*
X045332Y014176D03*
D27*
X006291Y015810D03*
X004322Y017581D03*
X006291Y012266D03*
X004322Y010495D03*
D28*
X004322Y011479D03*
X004322Y016597D03*
D29*
X030076Y014188D03*
X030076Y012613D03*
X030076Y011038D03*
X030076Y009463D03*
X030076Y007888D03*
X036769Y008676D03*
X036769Y010251D03*
X036769Y011825D03*
X036769Y013400D03*
D30*
X019048Y016414D03*
X019048Y017162D03*
X016548Y020164D03*
X015548Y020164D03*
X015548Y020912D03*
X016548Y020912D03*
D31*
X039622Y014913D03*
X040724Y014913D03*
D32*
X041674Y014913D01*
X041674Y015913D01*
X042422Y015913D02*
X042423Y016038D01*
X042423Y015289D01*
X042422Y014913D01*
X042422Y014545D01*
X041681Y013413D01*
X042513Y013150D01*
X043798Y012413D02*
X043798Y015663D01*
X042798Y016663D02*
X042423Y016288D01*
X042423Y016038D01*
X042798Y016663D02*
X043798Y016663D01*
X043798Y017663D02*
X041673Y017663D01*
X040173Y016163D01*
X040173Y015663D01*
X038173Y014163D02*
X036922Y015414D01*
X036922Y016163D01*
X036922Y016789D01*
X036923Y017288D01*
X036173Y017788D02*
X035798Y017663D01*
X035298Y017038D01*
X035298Y016163D01*
X035298Y015122D01*
X035674Y014621D01*
X036769Y013400D01*
X037923Y012663D01*
X038048Y011796D01*
X039665Y013413D01*
X040173Y014038D01*
X043290Y011780D02*
X043798Y012413D01*
X043290Y011780D02*
X038048Y011796D01*
X039673Y010663D02*
X038048Y009780D01*
X040415Y009796D01*
X040540Y009796D01*
X041423Y008913D01*
X041423Y007788D01*
X045673Y006163D02*
X046298Y006163D01*
X046298Y006913D01*
X044173Y010663D02*
X039673Y010663D01*
X044173Y010663D02*
X045332Y011823D01*
X045332Y014176D01*
X038173Y017163D02*
X038173Y017788D01*
X037673Y018288D01*
X036923Y018288D01*
X032673Y020413D02*
X031798Y021288D01*
X027798Y021288D01*
X027298Y021163D01*
X026673Y020288D01*
X023298Y021163D02*
X022316Y020845D01*
X021798Y019913D01*
X021798Y018663D01*
X022053Y018158D01*
X022053Y016788D01*
X023423Y016788D01*
X024173Y016288D01*
X024423Y015163D01*
X026173Y015038D02*
X026173Y016288D01*
X027173Y016288D02*
X027423Y015538D01*
X027798Y015163D01*
X028423Y015163D01*
X028981Y014205D02*
X030076Y014188D01*
X028865Y012871D02*
X028797Y011913D01*
X027173Y013163D02*
X027173Y014038D01*
X026173Y015038D01*
X025173Y016288D02*
X024173Y016288D01*
X022053Y016418D02*
X021678Y016043D01*
X020923Y015288D01*
X020173Y014471D01*
X017770Y012068D01*
X016173Y012663D02*
X016048Y012038D01*
X016173Y012663D02*
X019048Y015663D01*
X019048Y016414D01*
X022053Y016418D02*
X022053Y016788D01*
X019049Y018038D02*
X017673Y018038D01*
X016548Y019163D01*
X016548Y020164D01*
X015548Y020164D01*
X015548Y020912D02*
X016548Y020912D01*
X018048Y020912D01*
X018174Y021038D01*
X018174Y020163D01*
X018922Y020163D02*
X018922Y021038D01*
X020673Y019913D02*
X021798Y019913D01*
X024173Y018288D02*
X025174Y018288D01*
X035298Y016163D02*
X036174Y016163D01*
X046298Y020913D02*
X046298Y021913D01*
X045298Y021913D01*
X022798Y006788D02*
X021548Y006788D01*
X010548Y008163D02*
X009173Y008914D01*
X008722Y008914D01*
X008298Y009213D01*
X006548Y010038D02*
X006548Y011259D01*
X006291Y012266D01*
X010548Y013263D02*
X009672Y015182D01*
X011298Y015288D01*
X009672Y015182D02*
X009172Y015176D01*
X009173Y014537D01*
X009172Y015176D02*
X008298Y015113D01*
X006291Y015810D02*
X006291Y018670D01*
X005173Y019913D01*
D33*
X040173Y015663D02*
X040173Y014038D01*
D34*
X039622Y014913D02*
X038798Y014913D01*
X038173Y014163D01*
X038173Y016163D02*
X039048Y016289D01*
X039048Y017037D02*
X038173Y017163D01*
X039423Y018663D02*
X038672Y019414D01*
X037423Y019414D01*
X035673Y019414D01*
X035673Y019413D01*
X035673Y020413D02*
X037423Y020412D01*
X038173Y021163D01*
X037423Y019664D02*
X037423Y019414D01*
X039423Y018663D02*
X044673Y018663D01*
X045332Y018003D01*
X045332Y014176D01*
X032673Y019413D02*
X032173Y019163D01*
X032173Y017663D01*
X031798Y017288D01*
X028923Y017288D01*
X028173Y016288D01*
X028173Y017163D01*
X027423Y017538D01*
X026047Y017538D01*
X025922Y017663D01*
X025922Y017288D01*
X025922Y017663D02*
X025922Y018288D01*
X025174Y018288D02*
X025173Y019288D01*
X026173Y019288D02*
X025673Y020288D01*
X024423Y020288D01*
X023779Y019481D01*
X023048Y019288D01*
X026673Y020288D02*
X027173Y019288D01*
X027173Y018538D01*
X028048Y018163D01*
X028923Y018163D01*
X029173Y018413D01*
X030673Y018913D02*
X030673Y019788D01*
X028673Y019788D01*
X028173Y019288D01*
X030673Y018913D02*
X031173Y018413D01*
X030673Y019788D02*
X030673Y020288D01*
X025174Y017288D02*
X025173Y016288D01*
X024423Y015163D02*
X025674Y013912D01*
X025674Y011913D01*
X025674Y011383D01*
X026269Y010788D01*
X027173Y010788D01*
X028923Y010788D01*
X030076Y011038D01*
X028049Y011913D02*
X028048Y012788D01*
X028048Y014788D01*
X028423Y015163D01*
X029173Y015413D01*
X029548Y015788D01*
X024173Y013163D02*
X023798Y013663D01*
X023173Y014038D01*
X022173Y014788D02*
X023048Y015288D01*
X022173Y014788D02*
X021798Y013913D01*
X024173Y013163D02*
X024173Y011038D01*
X026422Y011913D02*
X027173Y011788D01*
X028049Y011913D01*
X009173Y012164D02*
X009173Y011287D01*
X009173Y010539D02*
X009173Y009662D01*
X009173Y012912D02*
X009173Y013789D01*
X018922Y021038D02*
X019798Y021038D01*
D35*
X005173Y019913D02*
X003073Y019913D01*
X016048Y012038D02*
X016048Y011163D01*
X017770Y011133D02*
X017770Y012068D01*
X036769Y008676D02*
X037657Y007788D01*
X039423Y007788D01*
D36*
X003048Y006163D02*
X002173Y006163D01*
X002173Y006913D01*
X019048Y016414D02*
X019924Y016414D01*
X020673Y017163D01*
X020673Y017913D01*
X019797Y018038D01*
X019049Y018038D02*
X019048Y017162D01*
X031298Y015038D02*
X031298Y011663D01*
X030673Y011038D01*
X030076Y011038D01*
X031298Y015038D02*
X032298Y016163D01*
X002923Y021913D02*
X002173Y021913D01*
X002173Y021163D01*
D37*
X019798Y021038D03*
X029548Y015788D03*
D38*
X023052Y012722D02*
X023173Y012321D01*
X023173Y011038D01*
X023173Y009663D01*
X023923Y008913D01*
X026423Y008913D01*
X027473Y009588D01*
X028701Y009588D01*
X030076Y009463D01*
X030076Y007888D02*
X028173Y008163D01*
X026798Y006788D01*
X022798Y006788D01*
X021548Y006788D02*
X019798Y006788D01*
X017673Y009288D01*
X017298Y009413D01*
X016423Y009413D01*
X016048Y009788D01*
X016048Y011163D01*
X019293Y011354D02*
X019798Y010788D01*
X022173Y008163D01*
X022173Y011038D02*
X021798Y011913D01*
X021798Y013913D01*
X008298Y009213D02*
X008298Y008038D01*
D39*
X003673Y007663D03*
X008673Y017163D03*
X044798Y020413D03*
X044798Y007663D03*
D40*
X008048Y008038D02*
X006548Y009913D01*
M02*
