G75*
G70*
%OFA0B0*%
%FSLAX24Y24*%
%IPPOS*%
%LPD*%
%AMOC8*
5,1,8,0,0,1.08239X$1,22.5*
%
%ADD10C,0.0051*%
%ADD11C,0.0110*%
%ADD12C,0.0060*%
%ADD13C,0.0240*%
%ADD14R,0.0340X0.0240*%
%ADD15C,0.0120*%
%ADD16R,0.1000X0.0200*%
%ADD17C,0.0200*%
%ADD18R,0.0200X0.0800*%
%ADD19R,0.0250X0.0200*%
%ADD20R,0.0240X0.0340*%
%ADD21C,0.0030*%
%ADD22R,0.0740X0.0170*%
%ADD23C,0.0050*%
%ADD24C,0.0100*%
%ADD25R,0.4160X0.0560*%
%ADD26C,0.0160*%
%ADD27C,0.0020*%
%ADD28R,0.0150X0.1600*%
%ADD29R,0.0250X0.0450*%
%ADD30R,0.0250X0.1600*%
%ADD31R,0.0500X0.0200*%
%ADD32R,0.1750X0.0200*%
%ADD33R,0.3200X0.0200*%
%ADD34R,0.0100X0.0050*%
%ADD35R,0.1250X0.0050*%
%ADD36R,0.1600X0.0200*%
%ADD37R,0.0750X0.0200*%
%ADD38C,0.0300*%
%ADD39R,0.0300X0.0750*%
%ADD40R,0.0200X0.1000*%
%ADD41R,0.0750X0.0300*%
%ADD42C,0.0320*%
%ADD43R,0.0220X0.0320*%
%ADD44R,0.0150X0.0200*%
%ADD45R,0.0300X0.0550*%
%ADD46R,0.0200X0.0200*%
%ADD47C,0.0200*%
%ADD48R,0.4200X0.0300*%
%ADD49R,0.0700X0.0200*%
%ADD50R,0.1300X0.0200*%
D10*
X001149Y000787D02*
X002173Y000913D01*
X001149Y000811D01*
X001149Y000787D02*
X001149Y001039D01*
X002173Y000913D01*
X001149Y001015D01*
X001149Y000964D02*
X002173Y000913D01*
X001149Y000862D01*
X000126Y000913D02*
X002173Y000913D01*
X003673Y000913D02*
X004696Y000811D01*
X004696Y000787D02*
X003673Y000913D01*
X004696Y001015D01*
X004696Y001039D02*
X004696Y000787D01*
X004696Y000862D02*
X003673Y000913D01*
X004696Y000964D01*
X004696Y001039D02*
X003673Y000913D01*
X008534Y000913D01*
X003673Y000126D02*
X003673Y008913D01*
X002173Y005288D02*
X002173Y003001D01*
X002173Y002538D02*
X002173Y000126D01*
X002173Y003788D02*
X003196Y003686D01*
X003196Y003662D02*
X002173Y003788D01*
X003196Y003890D01*
X003196Y003914D02*
X003196Y003662D01*
X003196Y003737D02*
X002173Y003788D01*
X003196Y003839D01*
X003196Y003914D02*
X002173Y003788D01*
X046298Y003788D01*
X045274Y003686D01*
X045274Y003662D02*
X046298Y003788D01*
X045274Y003890D01*
X045274Y003914D02*
X045274Y003662D01*
X045274Y003737D02*
X046298Y003788D01*
X045274Y003839D01*
X045274Y003914D02*
X046298Y003788D01*
X046298Y003001D02*
X046298Y005163D01*
X047548Y006163D02*
X049585Y006163D01*
X048798Y006163D02*
X048900Y007187D01*
X048924Y007187D02*
X048798Y006163D01*
X048695Y007187D01*
X048672Y007187D02*
X048924Y007187D01*
X048849Y007187D02*
X048798Y006163D01*
X048747Y007187D01*
X048672Y007187D02*
X048798Y006163D01*
X048798Y021913D01*
X048900Y020889D01*
X048924Y020889D02*
X048798Y021913D01*
X048695Y020889D01*
X048672Y020889D02*
X048924Y020889D01*
X048849Y020889D02*
X048798Y021913D01*
X048747Y020889D01*
X048672Y020889D02*
X048798Y021913D01*
X049585Y021913D02*
X047423Y021913D01*
D11*
X048349Y016913D02*
X048349Y016067D01*
X048349Y016490D02*
X047080Y016490D01*
X047503Y016067D01*
X047292Y015644D02*
X048138Y014798D01*
X048349Y015010D01*
X048349Y015433D01*
X048138Y015644D01*
X047292Y015644D01*
X047080Y015433D01*
X047080Y015010D01*
X047292Y014798D01*
X048138Y014798D01*
X048138Y014375D02*
X048349Y014375D01*
X048349Y014164D01*
X048138Y014164D01*
X048138Y014375D01*
X048138Y013741D02*
X047292Y013741D01*
X048138Y012895D01*
X048349Y013106D01*
X048349Y013529D01*
X048138Y013741D01*
X047292Y013741D02*
X047080Y013529D01*
X047080Y013106D01*
X047292Y012895D01*
X048138Y012895D01*
X047715Y012472D02*
X047715Y011626D01*
X047080Y012261D01*
X048349Y012261D01*
X027771Y005294D02*
X027771Y005083D01*
X027560Y004871D01*
X027137Y004871D01*
X026925Y005083D01*
X026925Y005294D01*
X027137Y005506D01*
X027560Y005506D01*
X027771Y005294D01*
X027560Y004871D02*
X027771Y004660D01*
X027771Y004448D01*
X027560Y004237D01*
X027137Y004237D01*
X026925Y004448D01*
X026925Y004660D01*
X027137Y004871D01*
X026502Y004448D02*
X026291Y004237D01*
X025868Y004237D01*
X025656Y004448D01*
X026502Y005294D01*
X026502Y004448D01*
X025656Y004448D02*
X025656Y005294D01*
X025868Y005506D01*
X026291Y005506D01*
X026502Y005294D01*
X025233Y004448D02*
X025233Y004237D01*
X025022Y004237D01*
X025022Y004448D01*
X025233Y004448D01*
X024599Y004237D02*
X023753Y004237D01*
X024599Y005083D01*
X024599Y005294D01*
X024388Y005506D01*
X023965Y005506D01*
X023753Y005294D01*
X022907Y005506D02*
X022907Y004237D01*
X022484Y004237D02*
X023330Y004237D01*
X022062Y004237D02*
X021215Y004237D01*
X021638Y004237D02*
X021638Y005506D01*
X021215Y005083D01*
X022484Y005083D02*
X022907Y005506D01*
X008769Y001362D02*
X007923Y001362D01*
X008346Y001362D02*
X008346Y002631D01*
X007923Y002208D01*
X007501Y002208D02*
X007289Y001996D01*
X006866Y001996D01*
X006655Y002208D01*
X006655Y002419D01*
X006866Y002631D01*
X007289Y002631D01*
X007501Y002419D01*
X007501Y002208D01*
X007289Y001996D02*
X007501Y001785D01*
X007501Y001573D01*
X007289Y001362D01*
X006866Y001362D01*
X006655Y001573D01*
X006655Y001785D01*
X006866Y001996D01*
X006232Y001573D02*
X006232Y001362D01*
X006020Y001362D01*
X006020Y001573D01*
X006232Y001573D01*
X005597Y001573D02*
X005597Y001785D01*
X005386Y001996D01*
X005174Y001996D01*
X005386Y001996D02*
X005597Y002208D01*
X005597Y002419D01*
X005386Y002631D01*
X004963Y002631D01*
X004751Y002419D01*
X004751Y001573D02*
X004963Y001362D01*
X005386Y001362D01*
X005597Y001573D01*
D12*
X008048Y007538D02*
X008548Y007538D01*
X008798Y007788D01*
X008798Y008288D01*
X008548Y008538D01*
X008048Y008538D01*
X007798Y008288D01*
X007798Y007788D01*
X008048Y007538D01*
X007298Y008613D02*
X009298Y008613D01*
X009324Y008615D01*
X009350Y008620D01*
X009375Y008628D01*
X009398Y008640D01*
X009420Y008654D01*
X009439Y008672D01*
X009457Y008691D01*
X009471Y008713D01*
X009483Y008736D01*
X009491Y008761D01*
X009496Y008787D01*
X009498Y008813D01*
X009498Y015513D01*
X009496Y015539D01*
X009491Y015565D01*
X009483Y015590D01*
X009471Y015613D01*
X009457Y015635D01*
X009439Y015654D01*
X009420Y015672D01*
X009398Y015686D01*
X009375Y015698D01*
X009350Y015706D01*
X009324Y015711D01*
X009298Y015713D01*
X007298Y015713D01*
X007272Y015711D01*
X007246Y015706D01*
X007221Y015698D01*
X007198Y015686D01*
X007176Y015672D01*
X007157Y015654D01*
X007139Y015635D01*
X007125Y015613D01*
X007113Y015590D01*
X007105Y015565D01*
X007100Y015539D01*
X007098Y015513D01*
X007098Y008813D01*
X007100Y008787D01*
X007105Y008761D01*
X007113Y008736D01*
X007125Y008713D01*
X007139Y008691D01*
X007157Y008672D01*
X007176Y008654D01*
X007198Y008640D01*
X007221Y008628D01*
X007246Y008620D01*
X007272Y008615D01*
X007298Y008613D01*
X006798Y009538D02*
X006298Y009538D01*
X006048Y009788D01*
X006048Y010288D01*
X006298Y010538D01*
X006798Y010538D01*
X007048Y010288D01*
X007048Y009788D01*
X006798Y009538D01*
X008298Y009763D02*
X008298Y013813D01*
X008298Y014163D02*
X008298Y014563D01*
X010798Y015788D02*
X011298Y015788D01*
X011798Y015788D01*
X011798Y017788D01*
X011298Y017788D01*
X010798Y017788D01*
X010798Y015788D01*
X011298Y015788D02*
X011298Y015588D01*
X011298Y017788D02*
X011298Y017988D01*
X011273Y018463D02*
X011523Y018463D01*
X011523Y019113D01*
X011523Y020413D01*
X011423Y020413D01*
X011423Y019113D01*
X011423Y018563D01*
X011273Y018563D01*
X011273Y018913D01*
X009523Y018913D01*
X009523Y018463D01*
X011273Y018463D01*
X011273Y018563D01*
X009273Y019913D02*
X008473Y019913D01*
X005873Y019913D01*
X005073Y019913D01*
X004823Y020913D02*
X003073Y020913D01*
X003073Y021263D01*
X002923Y021263D01*
X002923Y020713D01*
X002923Y019413D01*
X002923Y019113D01*
X002923Y018563D01*
X003073Y018563D01*
X003073Y018913D01*
X004823Y018913D01*
X004823Y018463D01*
X003073Y018463D01*
X002823Y018463D01*
X002823Y019113D01*
X002823Y019413D01*
X002823Y020713D01*
X002823Y021363D01*
X003073Y021363D01*
X003073Y021263D01*
X003073Y021363D02*
X004823Y021363D01*
X004823Y020913D01*
X002923Y019413D02*
X002823Y019413D01*
X003073Y018563D02*
X003073Y018463D01*
X009523Y020913D02*
X009523Y021363D01*
X011273Y021363D01*
X011523Y021363D01*
X011523Y020713D01*
X011523Y020413D01*
X011423Y020413D02*
X011423Y020713D01*
X011423Y021263D01*
X011273Y021263D01*
X011273Y020913D01*
X009523Y020913D01*
X011273Y021263D02*
X011273Y021363D01*
X019173Y018646D02*
X019173Y018516D01*
X019523Y018516D01*
X019873Y018516D01*
X019873Y018646D01*
X019173Y018646D01*
X019523Y018516D02*
X019523Y018216D01*
X019273Y018016D02*
X018973Y018016D01*
X019123Y017866D02*
X019123Y018166D01*
X019523Y018916D02*
X019523Y019216D01*
X020998Y018763D02*
X020998Y018513D01*
X021048Y018463D01*
X021048Y015363D01*
X020998Y015313D01*
X020998Y015063D01*
X021000Y015040D01*
X021005Y015017D01*
X021014Y014995D01*
X021027Y014975D01*
X021042Y014957D01*
X021060Y014942D01*
X021080Y014929D01*
X021102Y014920D01*
X021125Y014915D01*
X021148Y014913D01*
X022448Y014913D01*
X022471Y014915D01*
X022494Y014920D01*
X022516Y014929D01*
X022536Y014942D01*
X022554Y014957D01*
X022569Y014975D01*
X022582Y014995D01*
X022591Y015017D01*
X022596Y015040D01*
X022598Y015063D01*
X022598Y015313D01*
X022548Y015363D01*
X022548Y018463D01*
X022598Y018513D01*
X022598Y018763D01*
X022596Y018786D01*
X022591Y018809D01*
X022582Y018831D01*
X022569Y018851D01*
X022554Y018869D01*
X022536Y018884D01*
X022516Y018897D01*
X022494Y018906D01*
X022471Y018911D01*
X022448Y018913D01*
X021148Y018913D01*
X021125Y018911D01*
X021102Y018906D01*
X021080Y018897D01*
X021060Y018884D01*
X021042Y018869D01*
X021027Y018851D01*
X021014Y018831D01*
X021005Y018809D01*
X021000Y018786D01*
X020998Y018763D01*
X022598Y018438D02*
X022598Y018288D01*
X022648Y018238D01*
X022648Y016338D01*
X022598Y016288D01*
X022598Y016138D01*
X022600Y016121D01*
X022604Y016104D01*
X022611Y016088D01*
X022621Y016074D01*
X022634Y016061D01*
X022648Y016051D01*
X022664Y016044D01*
X022681Y016040D01*
X022698Y016038D01*
X023398Y016038D01*
X023415Y016040D01*
X023432Y016044D01*
X023448Y016051D01*
X023462Y016061D01*
X023475Y016074D01*
X023485Y016088D01*
X023492Y016104D01*
X023496Y016121D01*
X023498Y016138D01*
X023498Y016288D01*
X023448Y016338D01*
X023448Y018238D01*
X023498Y018288D01*
X023498Y018438D01*
X023496Y018455D01*
X023492Y018472D01*
X023485Y018488D01*
X023475Y018502D01*
X023462Y018515D01*
X023448Y018525D01*
X023432Y018532D01*
X023415Y018536D01*
X023398Y018538D01*
X022698Y018538D01*
X022681Y018536D01*
X022664Y018532D01*
X022648Y018525D01*
X022634Y018515D01*
X022621Y018502D01*
X022611Y018488D01*
X022604Y018472D01*
X022600Y018455D01*
X022598Y018438D01*
X023673Y018638D02*
X023673Y015938D01*
X023675Y015921D01*
X023679Y015904D01*
X023686Y015888D01*
X023696Y015874D01*
X023709Y015861D01*
X023723Y015851D01*
X023739Y015844D01*
X023756Y015840D01*
X023773Y015838D01*
X024573Y015838D01*
X024590Y015840D01*
X024607Y015844D01*
X024623Y015851D01*
X024637Y015861D01*
X024650Y015874D01*
X024660Y015888D01*
X024667Y015904D01*
X024671Y015921D01*
X024673Y015938D01*
X024673Y018638D01*
X024671Y018655D01*
X024667Y018672D01*
X024660Y018688D01*
X024650Y018702D01*
X024637Y018715D01*
X024623Y018725D01*
X024607Y018732D01*
X024590Y018736D01*
X024573Y018738D01*
X023773Y018738D01*
X023756Y018736D01*
X023739Y018732D01*
X023723Y018725D01*
X023709Y018715D01*
X023696Y018702D01*
X023686Y018688D01*
X023679Y018672D01*
X023675Y018655D01*
X023673Y018638D01*
X023694Y018877D02*
X021720Y020718D01*
X021708Y020731D01*
X021699Y020746D01*
X021692Y020762D01*
X021689Y020779D01*
X021688Y020796D01*
X021691Y020813D01*
X021696Y020830D01*
X021704Y020845D01*
X021715Y020859D01*
X022260Y021444D01*
X022273Y021456D01*
X022288Y021465D01*
X022304Y021472D01*
X022321Y021475D01*
X022338Y021476D01*
X022355Y021473D01*
X022372Y021468D01*
X022387Y021460D01*
X022401Y021449D01*
X022402Y021449D02*
X024376Y019608D01*
X024388Y019595D01*
X024397Y019580D01*
X024404Y019564D01*
X024407Y019547D01*
X024408Y019530D01*
X024405Y019513D01*
X024400Y019496D01*
X024392Y019481D01*
X024381Y019467D01*
X023835Y018882D01*
X023822Y018870D01*
X023807Y018861D01*
X023791Y018854D01*
X023774Y018851D01*
X023757Y018850D01*
X023740Y018853D01*
X023723Y018858D01*
X023708Y018866D01*
X023694Y018877D01*
X024673Y018938D02*
X024673Y016638D01*
X028673Y016638D01*
X028673Y017388D01*
X028634Y017390D01*
X028595Y017396D01*
X028557Y017405D01*
X028520Y017418D01*
X028484Y017435D01*
X028451Y017455D01*
X028419Y017479D01*
X028390Y017505D01*
X028364Y017534D01*
X028340Y017566D01*
X028320Y017599D01*
X028303Y017635D01*
X028290Y017672D01*
X028281Y017710D01*
X028275Y017749D01*
X028273Y017788D01*
X028275Y017827D01*
X028281Y017866D01*
X028290Y017904D01*
X028303Y017941D01*
X028320Y017977D01*
X028340Y018010D01*
X028364Y018042D01*
X028390Y018071D01*
X028419Y018097D01*
X028451Y018121D01*
X028484Y018141D01*
X028520Y018158D01*
X028557Y018171D01*
X028595Y018180D01*
X028634Y018186D01*
X028673Y018188D01*
X028673Y018938D01*
X024673Y018938D01*
X023487Y019754D02*
X023136Y020081D01*
X022953Y020252D02*
X022609Y020572D01*
X024048Y020813D02*
X024048Y021513D01*
X024050Y021530D01*
X024054Y021547D01*
X024061Y021563D01*
X024071Y021577D01*
X024084Y021590D01*
X024098Y021600D01*
X024114Y021607D01*
X024131Y021611D01*
X024148Y021613D01*
X024298Y021613D01*
X024348Y021563D01*
X026248Y021563D01*
X026298Y021613D01*
X026448Y021613D01*
X026465Y021611D01*
X026482Y021607D01*
X026498Y021600D01*
X026512Y021590D01*
X026525Y021577D01*
X026535Y021563D01*
X026542Y021547D01*
X026546Y021530D01*
X026548Y021513D01*
X026548Y020813D01*
X026546Y020796D01*
X026542Y020779D01*
X026535Y020763D01*
X026525Y020749D01*
X026512Y020736D01*
X026498Y020726D01*
X026482Y020719D01*
X026465Y020715D01*
X026448Y020713D01*
X026298Y020713D01*
X026248Y020763D01*
X024348Y020763D01*
X024298Y020713D01*
X024148Y020713D01*
X024131Y020715D01*
X024114Y020719D01*
X024098Y020726D01*
X024084Y020736D01*
X024071Y020749D01*
X024061Y020763D01*
X024054Y020779D01*
X024050Y020796D01*
X024048Y020813D01*
X027423Y020638D02*
X027423Y019938D01*
X027425Y019921D01*
X027429Y019904D01*
X027436Y019888D01*
X027446Y019874D01*
X027459Y019861D01*
X027473Y019851D01*
X027489Y019844D01*
X027506Y019840D01*
X027523Y019838D01*
X027673Y019838D01*
X027723Y019888D01*
X029623Y019888D01*
X029673Y019838D01*
X029823Y019838D01*
X029840Y019840D01*
X029857Y019844D01*
X029873Y019851D01*
X029887Y019861D01*
X029900Y019874D01*
X029910Y019888D01*
X029917Y019904D01*
X029921Y019921D01*
X029923Y019938D01*
X029923Y020638D01*
X029921Y020655D01*
X029917Y020672D01*
X029910Y020688D01*
X029900Y020702D01*
X029887Y020715D01*
X029873Y020725D01*
X029857Y020732D01*
X029840Y020736D01*
X029823Y020738D01*
X029673Y020738D01*
X029623Y020688D01*
X027723Y020688D01*
X027673Y020738D01*
X027523Y020738D01*
X027506Y020736D01*
X027489Y020732D01*
X027473Y020725D01*
X027459Y020715D01*
X027446Y020702D01*
X027436Y020688D01*
X027429Y020672D01*
X027425Y020655D01*
X027423Y020638D01*
X028823Y018913D02*
X031523Y018913D01*
X031540Y018911D01*
X031557Y018907D01*
X031573Y018900D01*
X031587Y018890D01*
X031600Y018877D01*
X031610Y018863D01*
X031617Y018847D01*
X031621Y018830D01*
X031623Y018813D01*
X031623Y018013D01*
X031621Y017996D01*
X031617Y017979D01*
X031610Y017963D01*
X031600Y017949D01*
X031587Y017936D01*
X031573Y017926D01*
X031557Y017919D01*
X031540Y017915D01*
X031523Y017913D01*
X028823Y017913D01*
X028806Y017915D01*
X028789Y017919D01*
X028773Y017926D01*
X028759Y017936D01*
X028746Y017949D01*
X028736Y017963D01*
X028729Y017979D01*
X028725Y017996D01*
X028723Y018013D01*
X028723Y018813D01*
X028725Y018830D01*
X028729Y018847D01*
X028736Y018863D01*
X028746Y018877D01*
X028759Y018890D01*
X028773Y018900D01*
X028789Y018907D01*
X028806Y018911D01*
X028823Y018913D01*
X029573Y018413D02*
X030043Y018413D01*
X030293Y018413D02*
X030773Y018413D01*
X033023Y018913D02*
X033773Y018913D01*
X033775Y018952D01*
X033781Y018991D01*
X033790Y019029D01*
X033803Y019066D01*
X033820Y019102D01*
X033840Y019135D01*
X033864Y019167D01*
X033890Y019196D01*
X033919Y019222D01*
X033951Y019246D01*
X033984Y019266D01*
X034020Y019283D01*
X034057Y019296D01*
X034095Y019305D01*
X034134Y019311D01*
X034173Y019313D01*
X034212Y019311D01*
X034251Y019305D01*
X034289Y019296D01*
X034326Y019283D01*
X034362Y019266D01*
X034395Y019246D01*
X034427Y019222D01*
X034456Y019196D01*
X034482Y019167D01*
X034506Y019135D01*
X034526Y019102D01*
X034543Y019066D01*
X034556Y019029D01*
X034565Y018991D01*
X034571Y018952D01*
X034573Y018913D01*
X035323Y018913D01*
X035323Y020913D01*
X033023Y020913D01*
X033023Y018913D01*
X037023Y018833D02*
X037023Y018675D01*
X037573Y018613D02*
X037573Y016963D01*
X037023Y016901D02*
X037023Y016743D01*
X037673Y016513D02*
X037673Y013813D01*
X037675Y013796D01*
X037679Y013779D01*
X037686Y013763D01*
X037696Y013749D01*
X037709Y013736D01*
X037723Y013726D01*
X037739Y013719D01*
X037756Y013715D01*
X037773Y013713D01*
X038573Y013713D01*
X038590Y013715D01*
X038607Y013719D01*
X038623Y013726D01*
X038637Y013736D01*
X038650Y013749D01*
X038660Y013763D01*
X038667Y013779D01*
X038671Y013796D01*
X038673Y013813D01*
X038673Y016513D01*
X038671Y016530D01*
X038667Y016547D01*
X038660Y016563D01*
X038650Y016577D01*
X038637Y016590D01*
X038623Y016600D01*
X038607Y016607D01*
X038590Y016611D01*
X038573Y016613D01*
X037773Y016613D01*
X037756Y016611D01*
X037739Y016607D01*
X037723Y016600D01*
X037709Y016590D01*
X037696Y016577D01*
X037686Y016563D01*
X037679Y016547D01*
X037675Y016530D01*
X037673Y016513D01*
X035798Y016663D02*
X035798Y015663D01*
X035796Y015646D01*
X035792Y015629D01*
X035785Y015613D01*
X035775Y015599D01*
X035762Y015586D01*
X035748Y015576D01*
X035732Y015569D01*
X035715Y015565D01*
X035698Y015563D01*
X031898Y015563D01*
X031881Y015565D01*
X031864Y015569D01*
X031848Y015576D01*
X031834Y015586D01*
X031821Y015599D01*
X031811Y015613D01*
X031804Y015629D01*
X031800Y015646D01*
X031798Y015663D01*
X031798Y016663D01*
X031800Y016680D01*
X031804Y016697D01*
X031811Y016713D01*
X031821Y016727D01*
X031834Y016740D01*
X031848Y016750D01*
X031864Y016757D01*
X031881Y016761D01*
X031898Y016763D01*
X035698Y016763D01*
X035715Y016761D01*
X035732Y016757D01*
X035748Y016750D01*
X035762Y016740D01*
X035775Y016727D01*
X035785Y016713D01*
X035792Y016697D01*
X035796Y016680D01*
X035798Y016663D01*
X034798Y016163D02*
X033998Y016163D01*
X033598Y016163D02*
X032798Y016163D01*
X035920Y017478D02*
X035903Y017539D01*
X035890Y017600D01*
X035881Y017663D01*
X035875Y017725D01*
X035873Y017788D01*
X035875Y017851D01*
X035881Y017913D01*
X035890Y017976D01*
X035903Y018037D01*
X035920Y018098D01*
X035940Y018158D01*
X035964Y018217D01*
X035992Y018274D01*
X036023Y018329D01*
X036058Y018383D01*
X036095Y018434D01*
X036136Y018483D01*
X036180Y018529D01*
X036226Y018573D01*
X036275Y018614D01*
X036326Y018652D01*
X036379Y018686D01*
X036435Y018718D01*
X036492Y018745D01*
X036551Y018770D01*
X036611Y018790D01*
X036672Y018808D01*
X036734Y018821D01*
X036797Y018830D01*
X036860Y018836D01*
X036924Y018838D01*
X036988Y018836D01*
X037051Y018830D01*
X037114Y018821D01*
X037176Y018807D01*
X037237Y018790D01*
X037297Y018769D01*
X037356Y018745D01*
X037413Y018717D01*
X037469Y018685D01*
X037522Y018650D01*
X037573Y018613D01*
X037773Y018213D02*
X037773Y020113D01*
X037723Y020163D01*
X037723Y020313D01*
X037725Y020330D01*
X037729Y020347D01*
X037736Y020363D01*
X037746Y020377D01*
X037759Y020390D01*
X037773Y020400D01*
X037789Y020407D01*
X037806Y020411D01*
X037823Y020413D01*
X038523Y020413D01*
X038540Y020411D01*
X038557Y020407D01*
X038573Y020400D01*
X038587Y020390D01*
X038600Y020377D01*
X038610Y020363D01*
X038617Y020347D01*
X038621Y020330D01*
X038623Y020313D01*
X038623Y020163D01*
X038573Y020113D01*
X038573Y018213D01*
X038623Y018163D01*
X038623Y018013D01*
X038621Y017996D01*
X038617Y017979D01*
X038610Y017963D01*
X038600Y017949D01*
X038587Y017936D01*
X038573Y017926D01*
X038557Y017919D01*
X038540Y017915D01*
X038523Y017913D01*
X037823Y017913D01*
X037806Y017915D01*
X037789Y017919D01*
X037773Y017926D01*
X037759Y017936D01*
X037746Y017949D01*
X037736Y017963D01*
X037729Y017979D01*
X037725Y017996D01*
X037723Y018013D01*
X037723Y018163D01*
X037773Y018213D01*
X037573Y016963D02*
X037522Y016926D01*
X037469Y016891D01*
X037413Y016859D01*
X037356Y016831D01*
X037297Y016807D01*
X037237Y016786D01*
X037176Y016769D01*
X037114Y016755D01*
X037051Y016746D01*
X036988Y016740D01*
X036924Y016738D01*
X036860Y016740D01*
X036797Y016746D01*
X036734Y016755D01*
X036672Y016768D01*
X036611Y016786D01*
X036551Y016806D01*
X036492Y016831D01*
X036435Y016859D01*
X036379Y016890D01*
X036326Y016924D01*
X036275Y016962D01*
X036226Y017003D01*
X036180Y017047D01*
X036136Y017093D01*
X036095Y017142D01*
X036058Y017193D01*
X036023Y017247D01*
X035992Y017302D01*
X035964Y017359D01*
X035940Y017418D01*
X035920Y017478D01*
X038173Y015763D02*
X038173Y015293D01*
X038173Y015043D02*
X038173Y014563D01*
X042873Y013768D02*
X043186Y012908D01*
X043193Y012892D01*
X043203Y012878D01*
X043216Y012865D01*
X043230Y012855D01*
X043246Y012848D01*
X043263Y012844D01*
X043280Y012842D01*
X043297Y012844D01*
X043314Y012848D01*
X043455Y012899D01*
X043485Y012964D01*
X044708Y013409D01*
X044772Y013379D01*
X044913Y013430D01*
X044929Y013437D01*
X044943Y013447D01*
X044956Y013460D01*
X044966Y013474D01*
X044973Y013490D01*
X044977Y013507D01*
X044979Y013524D01*
X044977Y013541D01*
X044973Y013558D01*
X044660Y014418D01*
X044653Y014434D01*
X044643Y014448D01*
X044630Y014461D01*
X044616Y014471D01*
X044600Y014478D01*
X044583Y014482D01*
X044566Y014484D01*
X044549Y014482D01*
X044532Y014478D01*
X044391Y014427D01*
X044361Y014362D01*
X043138Y013917D01*
X043074Y013947D01*
X042933Y013896D01*
X042915Y013887D01*
X042899Y013876D01*
X042886Y013861D01*
X042876Y013844D01*
X042870Y013826D01*
X042867Y013806D01*
X042868Y013787D01*
X042873Y013768D01*
X043548Y015163D02*
X044048Y015163D01*
X044298Y015413D01*
X044298Y015913D01*
X044048Y016163D01*
X044298Y016413D01*
X044298Y016913D01*
X044048Y017163D01*
X044298Y017413D01*
X044298Y017913D01*
X044048Y018163D01*
X043548Y018163D01*
X043298Y017913D01*
X043298Y017413D01*
X043548Y017163D01*
X043298Y016913D01*
X043298Y016413D01*
X043548Y016163D01*
X043298Y015913D01*
X043298Y015413D01*
X043548Y015163D01*
X042273Y008488D02*
X038573Y008488D01*
X038473Y008388D01*
X038423Y007238D01*
X042423Y007238D02*
X042373Y008388D01*
X042273Y008488D01*
X027723Y008413D02*
X027723Y007913D01*
X027723Y007363D01*
X027721Y007346D01*
X027717Y007329D01*
X027710Y007313D01*
X027700Y007299D01*
X027687Y007286D01*
X027673Y007276D01*
X027657Y007269D01*
X027640Y007265D01*
X027623Y007263D01*
X027273Y007263D01*
X027223Y007313D01*
X023123Y007313D01*
X023073Y007263D01*
X022723Y007263D01*
X022706Y007265D01*
X022689Y007269D01*
X022673Y007276D01*
X022659Y007286D01*
X022646Y007299D01*
X022636Y007313D01*
X022629Y007329D01*
X022625Y007346D01*
X022623Y007363D01*
X022623Y007913D01*
X022623Y008413D01*
X022623Y008963D01*
X022625Y008980D01*
X022629Y008997D01*
X022636Y009013D01*
X022646Y009027D01*
X022659Y009040D01*
X022673Y009050D01*
X022689Y009057D01*
X022706Y009061D01*
X022723Y009063D01*
X023073Y009063D01*
X023123Y009013D01*
X027223Y009013D01*
X027273Y009063D01*
X027623Y009063D01*
X027640Y009061D01*
X027657Y009057D01*
X027673Y009050D01*
X027687Y009040D01*
X027700Y009027D01*
X027710Y009013D01*
X027717Y008997D01*
X027721Y008980D01*
X027723Y008963D01*
X027723Y008413D01*
X027173Y010638D02*
X027173Y011038D01*
X026073Y011288D02*
X026075Y011354D01*
X026081Y011419D01*
X026091Y011484D01*
X026104Y011549D01*
X026122Y011612D01*
X026143Y011675D01*
X026168Y011735D01*
X026197Y011795D01*
X026229Y011852D01*
X026264Y011908D01*
X026303Y011961D01*
X026345Y012012D01*
X026389Y012060D01*
X026437Y012105D01*
X026487Y012148D01*
X026540Y012187D01*
X026595Y012224D01*
X026652Y012257D01*
X026711Y012286D01*
X026771Y012312D01*
X026833Y012334D01*
X026896Y012353D01*
X026960Y012367D01*
X027025Y012378D01*
X027091Y012385D01*
X027157Y012388D01*
X027222Y012387D01*
X027288Y012382D01*
X027353Y012373D01*
X027418Y012360D01*
X027481Y012344D01*
X027544Y012324D01*
X027605Y012299D01*
X027665Y012272D01*
X027723Y012241D01*
X027779Y012206D01*
X027833Y012168D01*
X027884Y012127D01*
X027933Y012083D01*
X027979Y012036D01*
X028023Y011987D01*
X028063Y011935D01*
X028100Y011880D01*
X028134Y011824D01*
X028164Y011765D01*
X028191Y011705D01*
X028214Y011644D01*
X028233Y011581D01*
X028249Y011517D01*
X028261Y011452D01*
X028269Y011387D01*
X028273Y011321D01*
X028273Y011255D01*
X028269Y011189D01*
X028261Y011124D01*
X028249Y011059D01*
X028233Y010995D01*
X028214Y010932D01*
X028191Y010871D01*
X028164Y010811D01*
X028134Y010752D01*
X028100Y010696D01*
X028063Y010641D01*
X028023Y010589D01*
X027979Y010540D01*
X027933Y010493D01*
X027884Y010449D01*
X027833Y010408D01*
X027779Y010370D01*
X027723Y010335D01*
X027665Y010304D01*
X027605Y010277D01*
X027544Y010252D01*
X027481Y010232D01*
X027418Y010216D01*
X027353Y010203D01*
X027288Y010194D01*
X027222Y010189D01*
X027157Y010188D01*
X027091Y010191D01*
X027025Y010198D01*
X026960Y010209D01*
X026896Y010223D01*
X026833Y010242D01*
X026771Y010264D01*
X026711Y010290D01*
X026652Y010319D01*
X026595Y010352D01*
X026540Y010389D01*
X026487Y010428D01*
X026437Y010471D01*
X026389Y010516D01*
X026345Y010564D01*
X026303Y010615D01*
X026264Y010668D01*
X026229Y010724D01*
X026197Y010781D01*
X026168Y010841D01*
X026143Y010901D01*
X026122Y010964D01*
X026104Y011027D01*
X026091Y011092D01*
X026081Y011157D01*
X026075Y011222D01*
X026073Y011288D01*
X026673Y011388D02*
X027673Y011388D01*
X027673Y011588D01*
X027173Y011588D01*
X026673Y011588D01*
X026673Y011388D01*
X027173Y011588D02*
X027173Y011938D01*
X027523Y011938D02*
X027673Y011938D01*
X027823Y011938D01*
X027673Y011938D02*
X027673Y011788D01*
X027673Y011938D02*
X027673Y012088D01*
X026573Y012863D02*
X026573Y013463D01*
X026571Y013480D01*
X026567Y013497D01*
X026560Y013513D01*
X026550Y013527D01*
X026537Y013540D01*
X026523Y013550D01*
X026507Y013557D01*
X026490Y013561D01*
X026473Y013563D01*
X024873Y013563D01*
X024856Y013561D01*
X024839Y013557D01*
X024823Y013550D01*
X024809Y013540D01*
X024796Y013527D01*
X024786Y013513D01*
X024779Y013497D01*
X024775Y013480D01*
X024773Y013463D01*
X024773Y012863D01*
X024775Y012846D01*
X024779Y012829D01*
X024786Y012813D01*
X024796Y012799D01*
X024809Y012786D01*
X024823Y012776D01*
X024839Y012769D01*
X024856Y012765D01*
X024873Y012763D01*
X026473Y012763D01*
X026490Y012765D01*
X026507Y012769D01*
X026523Y012776D01*
X026537Y012786D01*
X026550Y012799D01*
X026560Y012813D01*
X026567Y012829D01*
X026571Y012846D01*
X026573Y012863D01*
X025923Y013163D02*
X025673Y013163D01*
X025673Y013413D01*
X025673Y013163D02*
X025073Y013163D01*
X025273Y012913D02*
X025273Y013413D01*
X025673Y013163D01*
X025673Y012913D01*
X025673Y013163D02*
X025273Y012913D01*
X026123Y013638D02*
X024223Y013638D01*
X024173Y013588D01*
X024023Y013588D01*
X024006Y013590D01*
X023989Y013594D01*
X023973Y013601D01*
X023959Y013611D01*
X023946Y013624D01*
X023936Y013638D01*
X023929Y013654D01*
X023925Y013671D01*
X023923Y013688D01*
X023923Y014388D01*
X023925Y014405D01*
X023929Y014422D01*
X023936Y014438D01*
X023946Y014452D01*
X023959Y014465D01*
X023973Y014475D01*
X023989Y014482D01*
X024006Y014486D01*
X024023Y014488D01*
X024173Y014488D01*
X024223Y014438D01*
X026123Y014438D01*
X026173Y014488D01*
X026323Y014488D01*
X026340Y014486D01*
X026357Y014482D01*
X026373Y014475D01*
X026387Y014465D01*
X026400Y014452D01*
X026410Y014438D01*
X026417Y014422D01*
X026421Y014405D01*
X026423Y014388D01*
X026423Y013688D01*
X026421Y013671D01*
X026417Y013654D01*
X026410Y013638D01*
X026400Y013624D01*
X026387Y013611D01*
X026373Y013601D01*
X026357Y013594D01*
X026340Y013590D01*
X026323Y013588D01*
X026173Y013588D01*
X026123Y013638D01*
X025623Y014763D02*
X027223Y014763D01*
X027240Y014765D01*
X027257Y014769D01*
X027273Y014776D01*
X027287Y014786D01*
X027300Y014799D01*
X027310Y014813D01*
X027317Y014829D01*
X027321Y014846D01*
X027323Y014863D01*
X027323Y015463D01*
X027321Y015480D01*
X027317Y015497D01*
X027310Y015513D01*
X027300Y015527D01*
X027287Y015540D01*
X027273Y015550D01*
X027257Y015557D01*
X027240Y015561D01*
X027223Y015563D01*
X025623Y015563D01*
X025606Y015561D01*
X025589Y015557D01*
X025573Y015550D01*
X025559Y015540D01*
X025546Y015527D01*
X025536Y015513D01*
X025529Y015497D01*
X025525Y015480D01*
X025523Y015463D01*
X025523Y014863D01*
X025525Y014846D01*
X025529Y014829D01*
X025536Y014813D01*
X025546Y014799D01*
X025559Y014786D01*
X025573Y014776D01*
X025589Y014769D01*
X025606Y014765D01*
X025623Y014763D01*
X026023Y014913D02*
X026423Y015163D01*
X026423Y014913D01*
X026323Y014913D01*
X026023Y014913D02*
X026023Y015413D01*
X026423Y015163D01*
X026423Y015413D01*
X026423Y015163D02*
X025823Y015163D01*
X026423Y015163D02*
X026673Y015163D01*
X024173Y016688D02*
X024173Y017158D01*
X024173Y017408D02*
X024173Y017888D01*
X017776Y014913D02*
X016792Y014739D01*
X017069Y013163D01*
X018054Y013337D01*
X017776Y014913D01*
X017379Y014284D02*
X017423Y014038D01*
X017177Y013995D01*
X017423Y014038D02*
X017246Y013601D01*
X017738Y013687D01*
X017423Y014038D01*
X017669Y014081D01*
X017423Y014038D02*
X017527Y013447D01*
X016548Y013238D02*
X015548Y013238D01*
X015548Y014838D01*
X016548Y014838D01*
X016548Y013238D01*
X016048Y013788D02*
X016048Y014038D01*
X016298Y014038D01*
X016048Y014038D02*
X015798Y014038D01*
X016048Y014038D02*
X015798Y014438D01*
X016298Y014438D01*
X016048Y014038D01*
X016048Y014638D01*
X021087Y012273D02*
X021173Y012038D01*
X021258Y011803D01*
X021173Y012038D02*
X020938Y011952D01*
X021173Y012038D02*
X021463Y012410D01*
X021634Y011940D01*
X021173Y012038D01*
X021737Y012243D01*
X022121Y012064D02*
X022125Y012047D01*
X022127Y012030D01*
X022125Y012013D01*
X022121Y011996D01*
X022114Y011980D01*
X022104Y011966D01*
X022091Y011953D01*
X022077Y011943D01*
X022061Y011936D01*
X020558Y011388D01*
X020541Y011384D01*
X020524Y011382D01*
X020507Y011384D01*
X020490Y011388D01*
X020474Y011395D01*
X020460Y011405D01*
X020447Y011418D01*
X020437Y011432D01*
X020430Y011448D01*
X020225Y012012D01*
X020224Y012012D02*
X020219Y012031D01*
X020218Y012050D01*
X020221Y012070D01*
X020227Y012088D01*
X020237Y012105D01*
X020250Y012120D01*
X020266Y012131D01*
X020284Y012140D01*
X021788Y012687D01*
X021788Y012688D02*
X021805Y012692D01*
X021822Y012694D01*
X021839Y012692D01*
X021856Y012688D01*
X021872Y012681D01*
X021886Y012671D01*
X021899Y012658D01*
X021909Y012644D01*
X021916Y012628D01*
X022121Y012064D01*
X020398Y011388D02*
X019198Y011388D01*
X019172Y011386D01*
X019146Y011381D01*
X019121Y011373D01*
X019098Y011361D01*
X019076Y011347D01*
X019057Y011329D01*
X019039Y011310D01*
X019025Y011288D01*
X019013Y011265D01*
X019005Y011240D01*
X019000Y011214D01*
X018998Y011188D01*
X018998Y006388D01*
X019000Y006362D01*
X019005Y006336D01*
X019013Y006311D01*
X019025Y006288D01*
X019039Y006266D01*
X019057Y006247D01*
X019076Y006229D01*
X019098Y006215D01*
X019121Y006203D01*
X019146Y006195D01*
X019172Y006190D01*
X019198Y006188D01*
X020398Y006188D01*
X020424Y006190D01*
X020450Y006195D01*
X020475Y006203D01*
X020498Y006215D01*
X020520Y006229D01*
X020539Y006247D01*
X020557Y006266D01*
X020571Y006288D01*
X020583Y006311D01*
X020591Y006336D01*
X020596Y006362D01*
X020598Y006388D01*
X020598Y011188D01*
X020596Y011214D01*
X020591Y011240D01*
X020583Y011265D01*
X020571Y011288D01*
X020557Y011310D01*
X020539Y011329D01*
X020520Y011347D01*
X020498Y011361D01*
X020475Y011373D01*
X020450Y011381D01*
X020424Y011386D01*
X020398Y011388D01*
X019798Y010288D02*
X019798Y007888D01*
X019798Y007538D02*
X019798Y007288D01*
X017776Y008288D02*
X016792Y008462D01*
X017069Y010038D01*
X018054Y009864D01*
X017776Y008288D01*
X016548Y008363D02*
X016548Y009963D01*
X015548Y009963D01*
X015548Y008363D01*
X016548Y008363D01*
X016048Y008563D02*
X016048Y009163D01*
X015798Y009163D01*
X016048Y009163D02*
X016048Y009413D01*
X016048Y009163D02*
X016298Y009163D01*
X016048Y009163D02*
X016298Y008763D01*
X015798Y008763D01*
X016048Y009163D01*
X017177Y009206D02*
X017423Y009163D01*
X017669Y009120D01*
X017423Y009163D02*
X017246Y009600D01*
X017738Y009514D01*
X017423Y009163D01*
X017527Y009754D01*
X017423Y009163D02*
X017379Y008917D01*
D13*
X023173Y014038D02*
X023573Y014038D01*
X023048Y015288D02*
X023048Y015688D01*
X026773Y014038D02*
X027173Y014038D01*
X023048Y018888D02*
X023048Y019288D01*
X026673Y020288D02*
X027073Y020288D01*
X026898Y021163D02*
X027298Y021163D01*
X030273Y020288D02*
X030673Y020288D01*
X023698Y021163D02*
X023298Y021163D01*
X038173Y021163D02*
X038173Y020763D01*
X038173Y017563D02*
X038173Y017163D01*
D14*
X030093Y020288D03*
X027253Y020288D03*
X026718Y021163D03*
X023878Y021163D03*
X023753Y014038D03*
X026593Y014038D03*
D15*
X024423Y017158D02*
X024173Y017158D01*
X023923Y017158D01*
X023923Y017408D02*
X024173Y017408D01*
X024423Y017408D01*
X022965Y019898D02*
X023136Y020081D01*
X023306Y020264D01*
X023123Y020434D02*
X022953Y020252D01*
X022782Y020069D01*
X030043Y018663D02*
X030043Y018413D01*
X030043Y018163D01*
X030293Y018163D02*
X030293Y018413D01*
X030293Y018663D01*
X037923Y015293D02*
X038173Y015293D01*
X038423Y015293D01*
X038423Y015043D02*
X038173Y015043D01*
X037923Y015043D01*
X014548Y012663D02*
X014548Y011663D01*
X014546Y011619D01*
X014540Y011576D01*
X014531Y011534D01*
X014518Y011492D01*
X014501Y011452D01*
X014481Y011413D01*
X014458Y011376D01*
X014431Y011342D01*
X014402Y011309D01*
X014369Y011280D01*
X014335Y011253D01*
X014298Y011230D01*
X014259Y011210D01*
X014219Y011193D01*
X014177Y011180D01*
X014135Y011171D01*
X014092Y011165D01*
X014048Y011163D01*
X014004Y011165D01*
X013961Y011171D01*
X013919Y011180D01*
X013877Y011193D01*
X013837Y011210D01*
X013798Y011230D01*
X013761Y011253D01*
X013727Y011280D01*
X013694Y011309D01*
X013665Y011342D01*
X013638Y011376D01*
X013615Y011413D01*
X013595Y011452D01*
X013578Y011492D01*
X013565Y011534D01*
X013556Y011576D01*
X013550Y011619D01*
X013548Y011663D01*
X013546Y011619D01*
X013540Y011576D01*
X013531Y011534D01*
X013518Y011492D01*
X013501Y011452D01*
X013481Y011413D01*
X013458Y011376D01*
X013431Y011342D01*
X013402Y011309D01*
X013369Y011280D01*
X013335Y011253D01*
X013298Y011230D01*
X013259Y011210D01*
X013219Y011193D01*
X013177Y011180D01*
X013135Y011171D01*
X013092Y011165D01*
X013048Y011163D01*
X013004Y011165D01*
X012961Y011171D01*
X012919Y011180D01*
X012877Y011193D01*
X012837Y011210D01*
X012798Y011230D01*
X012761Y011253D01*
X012727Y011280D01*
X012694Y011309D01*
X012665Y011342D01*
X012638Y011376D01*
X012615Y011413D01*
X012595Y011452D01*
X012578Y011492D01*
X012565Y011534D01*
X012556Y011576D01*
X012550Y011619D01*
X012548Y011663D01*
X012546Y011619D01*
X012540Y011576D01*
X012531Y011534D01*
X012518Y011492D01*
X012501Y011452D01*
X012481Y011413D01*
X012458Y011376D01*
X012431Y011342D01*
X012402Y011309D01*
X012369Y011280D01*
X012335Y011253D01*
X012298Y011230D01*
X012259Y011210D01*
X012219Y011193D01*
X012177Y011180D01*
X012135Y011171D01*
X012092Y011165D01*
X012048Y011163D01*
X012004Y011165D01*
X011961Y011171D01*
X011919Y011180D01*
X011877Y011193D01*
X011837Y011210D01*
X011798Y011230D01*
X011761Y011253D01*
X011727Y011280D01*
X011694Y011309D01*
X011665Y011342D01*
X011638Y011376D01*
X011615Y011413D01*
X011595Y011452D01*
X011578Y011492D01*
X011565Y011534D01*
X011556Y011576D01*
X011550Y011619D01*
X011548Y011663D01*
X011546Y011619D01*
X011540Y011576D01*
X011531Y011534D01*
X011518Y011492D01*
X011501Y011452D01*
X011481Y011413D01*
X011458Y011376D01*
X011431Y011342D01*
X011402Y011309D01*
X011369Y011280D01*
X011335Y011253D01*
X011298Y011230D01*
X011259Y011210D01*
X011219Y011193D01*
X011177Y011180D01*
X011135Y011171D01*
X011092Y011165D01*
X011048Y011163D01*
X011004Y011165D01*
X010961Y011171D01*
X010919Y011180D01*
X010877Y011193D01*
X010837Y011210D01*
X010798Y011230D01*
X010761Y011253D01*
X010727Y011280D01*
X010694Y011309D01*
X010665Y011342D01*
X010638Y011376D01*
X010615Y011413D01*
X010595Y011452D01*
X010578Y011492D01*
X010565Y011534D01*
X010556Y011576D01*
X010550Y011619D01*
X010548Y011663D01*
X010548Y012663D01*
X010548Y010663D02*
X014548Y010663D01*
X014548Y009663D02*
X014548Y008663D01*
X014548Y009663D02*
X014546Y009707D01*
X014540Y009750D01*
X014531Y009792D01*
X014518Y009834D01*
X014501Y009874D01*
X014481Y009913D01*
X014458Y009950D01*
X014431Y009984D01*
X014402Y010017D01*
X014369Y010046D01*
X014335Y010073D01*
X014298Y010096D01*
X014259Y010116D01*
X014219Y010133D01*
X014177Y010146D01*
X014135Y010155D01*
X014092Y010161D01*
X014048Y010163D01*
X014004Y010161D01*
X013961Y010155D01*
X013919Y010146D01*
X013877Y010133D01*
X013837Y010116D01*
X013798Y010096D01*
X013761Y010073D01*
X013727Y010046D01*
X013694Y010017D01*
X013665Y009984D01*
X013638Y009950D01*
X013615Y009913D01*
X013595Y009874D01*
X013578Y009834D01*
X013565Y009792D01*
X013556Y009750D01*
X013550Y009707D01*
X013548Y009663D01*
X013546Y009707D01*
X013540Y009750D01*
X013531Y009792D01*
X013518Y009834D01*
X013501Y009874D01*
X013481Y009913D01*
X013458Y009950D01*
X013431Y009984D01*
X013402Y010017D01*
X013369Y010046D01*
X013335Y010073D01*
X013298Y010096D01*
X013259Y010116D01*
X013219Y010133D01*
X013177Y010146D01*
X013135Y010155D01*
X013092Y010161D01*
X013048Y010163D01*
X013004Y010161D01*
X012961Y010155D01*
X012919Y010146D01*
X012877Y010133D01*
X012837Y010116D01*
X012798Y010096D01*
X012761Y010073D01*
X012727Y010046D01*
X012694Y010017D01*
X012665Y009984D01*
X012638Y009950D01*
X012615Y009913D01*
X012595Y009874D01*
X012578Y009834D01*
X012565Y009792D01*
X012556Y009750D01*
X012550Y009707D01*
X012548Y009663D01*
X012546Y009707D01*
X012540Y009750D01*
X012531Y009792D01*
X012518Y009834D01*
X012501Y009874D01*
X012481Y009913D01*
X012458Y009950D01*
X012431Y009984D01*
X012402Y010017D01*
X012369Y010046D01*
X012335Y010073D01*
X012298Y010096D01*
X012259Y010116D01*
X012219Y010133D01*
X012177Y010146D01*
X012135Y010155D01*
X012092Y010161D01*
X012048Y010163D01*
X012004Y010161D01*
X011961Y010155D01*
X011919Y010146D01*
X011877Y010133D01*
X011837Y010116D01*
X011798Y010096D01*
X011761Y010073D01*
X011727Y010046D01*
X011694Y010017D01*
X011665Y009984D01*
X011638Y009950D01*
X011615Y009913D01*
X011595Y009874D01*
X011578Y009834D01*
X011565Y009792D01*
X011556Y009750D01*
X011550Y009707D01*
X011548Y009663D01*
X011546Y009707D01*
X011540Y009750D01*
X011531Y009792D01*
X011518Y009834D01*
X011501Y009874D01*
X011481Y009913D01*
X011458Y009950D01*
X011431Y009984D01*
X011402Y010017D01*
X011369Y010046D01*
X011335Y010073D01*
X011298Y010096D01*
X011259Y010116D01*
X011219Y010133D01*
X011177Y010146D01*
X011135Y010155D01*
X011092Y010161D01*
X011048Y010163D01*
X011004Y010161D01*
X010961Y010155D01*
X010919Y010146D01*
X010877Y010133D01*
X010837Y010116D01*
X010798Y010096D01*
X010761Y010073D01*
X010727Y010046D01*
X010694Y010017D01*
X010665Y009984D01*
X010638Y009950D01*
X010615Y009913D01*
X010595Y009874D01*
X010578Y009834D01*
X010565Y009792D01*
X010556Y009750D01*
X010550Y009707D01*
X010548Y009663D01*
X010548Y008663D01*
D16*
X016048Y009713D03*
X016048Y013488D03*
X027173Y011088D03*
D17*
X023052Y012722D02*
X022723Y012602D01*
X024173Y013163D02*
X024523Y013163D01*
X026823Y013163D02*
X027173Y013163D01*
X028073Y015163D02*
X028423Y015163D01*
X024773Y015163D02*
X024423Y015163D01*
X019622Y011474D02*
X019293Y011354D01*
X042513Y013150D02*
X042891Y013287D01*
X044955Y014039D02*
X045332Y014176D01*
D18*
X027073Y015163D03*
X026323Y013163D03*
G36*
X020792Y011475D02*
X020604Y011406D01*
X020332Y012157D01*
X020520Y012226D01*
X020792Y011475D01*
G37*
D19*
X024648Y013163D03*
X026698Y013163D03*
D20*
X023048Y015868D03*
X023048Y018708D03*
X038173Y017743D03*
X038173Y020583D03*
D21*
X037359Y018371D02*
X037408Y018323D01*
X037408Y018226D01*
X037359Y018178D01*
X037166Y018178D01*
X037118Y018226D01*
X037118Y018323D01*
X037166Y018371D01*
X036658Y017871D02*
X036464Y017871D01*
X036368Y017775D01*
X036464Y017678D01*
X036658Y017678D01*
X036513Y017678D02*
X036513Y017871D01*
X037118Y017323D02*
X037166Y017371D01*
X037263Y017371D01*
X037311Y017323D01*
X037311Y017178D01*
X037311Y017275D02*
X037408Y017371D01*
X037408Y017178D02*
X037118Y017178D01*
X037118Y017323D01*
D22*
X019523Y018851D03*
D23*
X020673Y016354D02*
X012011Y016354D01*
X012011Y021472D01*
X020673Y021472D01*
X020673Y016354D01*
X015501Y014797D02*
X015501Y006529D01*
X009595Y006529D01*
X009595Y014797D01*
X015501Y014797D01*
X006291Y017581D02*
X006291Y010495D01*
X002748Y010495D01*
X002748Y009707D01*
X002157Y009707D01*
X002157Y010495D01*
X001567Y010495D01*
X001567Y009707D01*
X000779Y009707D01*
X000779Y018369D01*
X001567Y018369D01*
X001567Y017581D01*
X002157Y017581D01*
X002157Y018369D01*
X002748Y018369D01*
X002748Y017581D01*
X006291Y017581D01*
X029092Y015369D02*
X037754Y015369D01*
X037754Y006707D01*
X029092Y006707D01*
X029092Y015369D01*
X038048Y012756D02*
X046316Y012756D01*
X046316Y008819D01*
X038048Y008819D01*
X038048Y012756D01*
X038704Y013413D02*
X038704Y021681D01*
X042641Y021681D01*
X042641Y013413D01*
X038704Y013413D01*
X043572Y018378D02*
X043723Y018228D01*
X043572Y018378D02*
X044023Y018378D01*
X044023Y018228D02*
X044023Y018528D01*
D24*
X024993Y011578D02*
X025193Y010978D01*
X025193Y010348D01*
X021153Y010348D01*
X021153Y010978D01*
X021353Y011578D01*
X024993Y011578D01*
D25*
X023173Y010058D03*
D26*
X020298Y007888D02*
X019798Y007888D01*
X019298Y007888D01*
X019298Y007538D02*
X019798Y007538D01*
X020298Y007538D01*
X008798Y013813D02*
X008298Y013813D01*
X007798Y013813D01*
X007798Y014163D02*
X008298Y014163D01*
X008798Y014163D01*
X033598Y015813D02*
X033598Y016163D01*
X033598Y016513D01*
X033998Y016513D02*
X033998Y016163D01*
X033998Y015813D01*
D27*
X009273Y018763D02*
X005073Y018763D01*
X005073Y021063D02*
X009273Y021063D01*
D28*
X011048Y019913D03*
X003298Y019913D03*
D29*
X004948Y020938D03*
X009398Y020938D03*
X009398Y018888D03*
X004948Y018888D03*
D30*
X004948Y019913D03*
X009398Y019913D03*
D31*
X009023Y020663D03*
X009023Y019163D03*
X005323Y019163D03*
X005323Y020663D03*
D32*
X003948Y019013D03*
D33*
X007173Y019163D03*
X007173Y020663D03*
D34*
X009573Y020688D03*
X010923Y020688D03*
X010923Y019138D03*
X009573Y019138D03*
X004773Y019138D03*
X003423Y019138D03*
X003423Y020688D03*
X004773Y020688D03*
D35*
X004098Y020688D03*
X004098Y019138D03*
X010248Y019138D03*
X010248Y020688D03*
D36*
X010323Y020813D03*
X010323Y019013D03*
X004023Y020813D03*
D37*
G36*
X022757Y012508D02*
X022053Y012252D01*
X021985Y012440D01*
X022689Y012696D01*
X022757Y012508D01*
G37*
G36*
X020361Y011636D02*
X019657Y011380D01*
X019589Y011568D01*
X020293Y011824D01*
X020361Y011636D01*
G37*
X025148Y015163D03*
X027698Y015163D03*
X038698Y007188D03*
X042148Y007188D03*
D38*
X021798Y013913D02*
X021798Y014413D01*
X017701Y012462D02*
X017770Y012068D01*
X016048Y012038D02*
X016048Y012438D01*
X016048Y011163D02*
X016048Y010763D01*
X017701Y010739D02*
X017770Y011133D01*
X017145Y007587D02*
X017076Y007193D01*
X016048Y007163D02*
X016048Y007563D01*
X016048Y015638D02*
X016048Y016038D01*
X017076Y016008D02*
X017145Y015614D01*
X021798Y019413D02*
X021798Y019913D01*
D39*
X016048Y015213D03*
X016048Y012863D03*
X016048Y010338D03*
X016048Y007988D03*
D40*
G36*
X017836Y008632D02*
X017802Y008436D01*
X016818Y008610D01*
X016852Y008806D01*
X017836Y008632D01*
G37*
G36*
X016852Y014395D02*
X016818Y014591D01*
X017802Y014765D01*
X017836Y014569D01*
X016852Y014395D01*
G37*
D41*
G36*
X017137Y014800D02*
X017007Y015538D01*
X017301Y015590D01*
X017431Y014852D01*
X017137Y014800D01*
G37*
G36*
X017545Y012486D02*
X017415Y013224D01*
X017709Y013276D01*
X017839Y012538D01*
X017545Y012486D01*
G37*
G36*
X017839Y010663D02*
X017709Y009925D01*
X017415Y009977D01*
X017545Y010715D01*
X017839Y010663D01*
G37*
G36*
X017431Y008349D02*
X017301Y007611D01*
X017007Y007663D01*
X017137Y008401D01*
X017431Y008349D01*
G37*
D42*
X022173Y008163D02*
X022423Y008163D01*
X027923Y008163D02*
X028173Y008163D01*
D43*
X027833Y008163D03*
X022513Y008163D03*
D44*
G36*
X042855Y013380D02*
X042995Y013431D01*
X043063Y013244D01*
X042923Y013193D01*
X042855Y013380D01*
G37*
G36*
X044783Y014082D02*
X044923Y014133D01*
X044991Y013946D01*
X044851Y013895D01*
X044783Y014082D01*
G37*
D45*
X021798Y014638D03*
X021798Y019188D03*
D46*
X006548Y010038D03*
X008298Y008038D03*
X043798Y015663D03*
X043798Y016663D03*
X043798Y017663D03*
D47*
X042193Y008248D03*
D48*
X040423Y006938D03*
D49*
X041423Y007188D03*
X039423Y007188D03*
D50*
X040423Y007188D03*
M02*
