G75*
G70*
%OFA0B0*%
%FSLAX24Y24*%
%IPPOS*%
%LPD*%
%AMOC8*
5,1,8,0,0,1.08239X$1,22.5*
%
%ADD10C,0.0060*%
%ADD11R,0.0256X0.0551*%
%ADD12C,0.0040*%
%ADD13R,0.0295X0.0571*%
%ADD14R,0.0551X0.0256*%
%ADD15C,0.0080*%
%ADD16R,0.0220X0.0680*%
%ADD17R,0.0240X0.0620*%
%ADD18R,0.0140X0.0560*%
%ADD19R,0.0740X0.0170*%
%ADD20C,0.0050*%
%ADD21R,0.0560X0.0140*%
%ADD22R,0.0571X0.0295*%
D10*
X012081Y013964D02*
X012081Y014287D01*
X012581Y014287D02*
X012581Y013964D01*
X012581Y015589D02*
X012581Y015912D01*
X012081Y015912D02*
X012081Y015589D01*
X012081Y017214D02*
X012081Y017537D01*
X012581Y017537D02*
X012581Y017214D01*
X012581Y018839D02*
X012581Y019162D01*
X012081Y019162D02*
X012081Y018839D01*
X021176Y024251D02*
X021736Y024251D01*
X021736Y024751D02*
X021176Y024751D01*
X021176Y025126D02*
X021736Y025126D01*
X021736Y025626D02*
X021176Y025626D01*
X019956Y025156D02*
X019956Y024596D01*
X019456Y024596D02*
X019456Y025156D01*
X018956Y025156D02*
X018956Y024596D01*
X018456Y024596D02*
X018456Y025156D01*
X022301Y023126D02*
X022861Y023126D01*
X022861Y022626D02*
X022301Y022626D01*
X022456Y021906D02*
X022456Y021346D01*
X021956Y021346D02*
X021956Y021906D01*
X028545Y022626D02*
X028867Y022626D01*
X028867Y023126D02*
X028545Y023126D01*
X031817Y018671D02*
X031727Y017635D01*
X032344Y017581D02*
X032435Y018617D01*
X031861Y017001D02*
X031301Y017001D01*
X031301Y016501D02*
X031861Y016501D01*
X039545Y020501D02*
X039867Y020501D01*
X039867Y021001D02*
X039545Y021001D01*
X040331Y023089D02*
X040331Y023412D01*
X040831Y023412D02*
X040831Y023089D01*
X042926Y021376D02*
X043486Y021376D01*
X043486Y020876D02*
X042926Y020876D01*
X043331Y020037D02*
X043331Y019714D01*
X043831Y019714D02*
X043831Y020037D01*
X044206Y020037D02*
X044206Y019714D01*
X044706Y019714D02*
X044706Y020037D01*
X042156Y016151D02*
X042156Y015951D01*
X042156Y015551D02*
X041806Y015551D01*
X041806Y015681D01*
X042506Y015681D01*
X042506Y015551D01*
X042156Y015551D01*
X042156Y015301D01*
X042456Y015101D02*
X042456Y014801D01*
X042306Y014951D02*
X042606Y014951D01*
X040831Y024964D02*
X040831Y025287D01*
X040331Y025287D02*
X040331Y024964D01*
D11*
X039994Y020750D03*
X039414Y020750D03*
X028994Y022875D03*
X028414Y022875D03*
D12*
X028556Y022135D02*
X028856Y022135D01*
X028846Y021616D02*
X028556Y021616D01*
X027686Y021896D02*
X027379Y022203D01*
X027379Y022279D01*
X027456Y022356D01*
X027609Y022356D01*
X027686Y022279D01*
X027591Y022016D02*
X027591Y021726D01*
X027686Y021896D02*
X027379Y021896D01*
X027226Y021972D02*
X027149Y021896D01*
X026995Y021896D01*
X026919Y021972D01*
X026765Y021972D02*
X026765Y022126D01*
X026535Y022126D01*
X026458Y022049D01*
X026458Y021972D01*
X026535Y021896D01*
X026688Y021896D01*
X026765Y021972D01*
X026658Y021935D02*
X026811Y022089D01*
X026658Y022242D01*
X026351Y022242D01*
X026458Y022356D02*
X026612Y022279D01*
X026765Y022126D01*
X026919Y022279D02*
X026995Y022356D01*
X027149Y022356D01*
X027226Y022279D01*
X027226Y021972D01*
X027071Y022026D02*
X027071Y021726D01*
X026811Y021782D02*
X026811Y021475D01*
X026581Y021475D01*
X026658Y021628D01*
X026658Y021705D01*
X026581Y021782D01*
X026428Y021782D01*
X026351Y021705D01*
X026351Y021552D01*
X026428Y021475D01*
X026428Y021321D02*
X026351Y021245D01*
X026351Y021091D01*
X026428Y021014D01*
X026735Y021014D01*
X026811Y021091D01*
X026811Y021245D01*
X026735Y021321D01*
X026735Y020861D02*
X026811Y020784D01*
X026811Y020631D01*
X026735Y020554D01*
X026735Y020861D02*
X026658Y020861D01*
X026351Y020554D01*
X026351Y020861D01*
X026351Y021935D02*
X026658Y021935D01*
X026581Y021935D02*
X026581Y022242D01*
X024653Y022154D02*
X024576Y022231D01*
X024422Y022231D01*
X024346Y022154D01*
X024346Y022078D01*
X024653Y021771D01*
X024346Y021771D01*
X024192Y021771D02*
X024192Y022231D01*
X023962Y022231D01*
X023885Y022154D01*
X023885Y022001D01*
X023962Y021924D01*
X024192Y021924D01*
X024039Y021924D02*
X023885Y021771D01*
X023732Y021771D02*
X023425Y021771D01*
X023578Y021771D02*
X023578Y022231D01*
X023732Y022078D01*
X023271Y022078D02*
X023271Y021771D01*
X023271Y022001D02*
X022964Y022001D01*
X022964Y022078D02*
X022964Y021771D01*
X022964Y022078D02*
X023118Y022231D01*
X023271Y022078D01*
X021778Y022396D02*
X021471Y022703D01*
X021471Y022779D01*
X021547Y022856D01*
X021701Y022856D01*
X021778Y022779D01*
X021317Y022856D02*
X021087Y022856D01*
X021010Y022779D01*
X021010Y022626D01*
X021087Y022549D01*
X021317Y022549D01*
X021164Y022549D02*
X021010Y022396D01*
X020857Y022396D02*
X020550Y022396D01*
X020703Y022396D02*
X020703Y022856D01*
X020857Y022703D01*
X020396Y022626D02*
X020166Y022626D01*
X020089Y022549D01*
X020089Y022472D01*
X020166Y022396D01*
X020396Y022396D01*
X020396Y022856D01*
X020166Y022856D01*
X020089Y022779D01*
X020089Y022703D01*
X020166Y022626D01*
X021317Y022396D02*
X021317Y022856D01*
X021471Y022396D02*
X021778Y022396D01*
X021737Y023521D02*
X021737Y023981D01*
X021890Y023828D01*
X022044Y023904D02*
X022044Y023751D01*
X022120Y023674D01*
X022351Y023674D01*
X022351Y023521D02*
X022351Y023981D01*
X022120Y023981D01*
X022044Y023904D01*
X022197Y023674D02*
X022044Y023521D01*
X021890Y023521D02*
X021583Y023521D01*
X021430Y023521D02*
X021123Y023521D01*
X021061Y023521D02*
X020754Y023828D01*
X020754Y023904D01*
X020831Y023981D01*
X020984Y023981D01*
X021061Y023904D01*
X021123Y023981D02*
X021430Y023981D01*
X021430Y023521D01*
X021430Y023751D02*
X021276Y023751D01*
X021061Y023521D02*
X020754Y023521D01*
X020601Y023521D02*
X020601Y023981D01*
X020370Y023981D01*
X020294Y023904D01*
X020294Y023751D01*
X020370Y023674D01*
X020601Y023674D01*
X020447Y023674D02*
X020294Y023521D01*
X020140Y023521D02*
X019833Y023521D01*
X019680Y023521D02*
X019450Y023521D01*
X019373Y023597D01*
X019373Y023904D01*
X019450Y023981D01*
X019680Y023981D01*
X019680Y023521D01*
X019987Y023521D02*
X019987Y023981D01*
X020140Y023828D01*
X018936Y023904D02*
X018859Y023981D01*
X018706Y023981D01*
X018629Y023904D01*
X018629Y023828D01*
X018936Y023521D01*
X018629Y023521D01*
X018476Y023521D02*
X018476Y023981D01*
X018245Y023981D01*
X018169Y023904D01*
X018169Y023751D01*
X018245Y023674D01*
X018476Y023674D01*
X018322Y023674D02*
X018169Y023521D01*
X018015Y023521D02*
X017708Y023521D01*
X017862Y023521D02*
X017862Y023981D01*
X018015Y023828D01*
X017555Y023904D02*
X017555Y023597D01*
X017478Y023521D01*
X017325Y023521D01*
X017248Y023597D01*
X017248Y023904D02*
X017325Y023981D01*
X017478Y023981D01*
X017555Y023904D01*
X022504Y023904D02*
X022581Y023981D01*
X022734Y023981D01*
X022811Y023904D01*
X022504Y023904D02*
X022504Y023828D01*
X022811Y023521D01*
X022504Y023521D01*
X023430Y025021D02*
X023430Y025481D01*
X023123Y025481D01*
X023276Y025251D02*
X023430Y025251D01*
X023583Y025021D02*
X023890Y025021D01*
X023737Y025021D02*
X023737Y025481D01*
X023890Y025328D01*
X024044Y025404D02*
X024120Y025481D01*
X024351Y025481D01*
X024351Y025021D01*
X024504Y025021D02*
X024811Y025021D01*
X024504Y025328D01*
X024504Y025404D01*
X024581Y025481D01*
X024734Y025481D01*
X024811Y025404D01*
X024351Y025174D02*
X024120Y025174D01*
X024044Y025251D01*
X024044Y025404D01*
X024197Y025174D02*
X024044Y025021D01*
X027446Y025110D02*
X027446Y025401D01*
X027966Y025401D02*
X027966Y025101D01*
X028226Y025078D02*
X028226Y024771D01*
X028533Y025078D01*
X028610Y025078D01*
X028686Y025001D01*
X028686Y024847D01*
X028610Y024771D01*
X028610Y025231D02*
X028303Y025231D01*
X028226Y025308D01*
X028226Y025461D01*
X028303Y025538D01*
X028303Y025691D02*
X028226Y025691D01*
X028303Y025691D02*
X028610Y025998D01*
X028686Y025998D01*
X028686Y025691D01*
X028610Y025538D02*
X028686Y025461D01*
X028686Y025308D01*
X028610Y025231D01*
X028533Y026152D02*
X028686Y026305D01*
X028533Y026459D01*
X028226Y026459D01*
X028456Y026459D02*
X028456Y026152D01*
X028533Y026152D02*
X028226Y026152D01*
X032123Y024078D02*
X032123Y023771D01*
X032123Y024001D02*
X032430Y024001D01*
X032430Y024078D02*
X032276Y024231D01*
X032123Y024078D01*
X032430Y024078D02*
X032430Y023771D01*
X032660Y023771D02*
X032660Y024231D01*
X032890Y024001D01*
X032583Y024001D01*
X033044Y024154D02*
X033120Y024231D01*
X033274Y024231D01*
X033351Y024154D01*
X033351Y023847D01*
X033274Y023771D01*
X033120Y023771D01*
X033044Y023847D01*
X033181Y023510D02*
X033481Y023510D01*
X033504Y023771D02*
X033811Y023771D01*
X033504Y024078D01*
X033504Y024154D01*
X033581Y024231D01*
X033734Y024231D01*
X033811Y024154D01*
X033471Y022991D02*
X033181Y022991D01*
X031317Y023029D02*
X031240Y023106D01*
X031087Y023106D01*
X031010Y023029D01*
X031010Y022953D01*
X031317Y022646D01*
X031010Y022646D01*
X030857Y022646D02*
X030857Y023106D01*
X030627Y023106D01*
X030550Y023029D01*
X030550Y022876D01*
X030627Y022799D01*
X030857Y022799D01*
X030703Y022799D02*
X030550Y022646D01*
X030396Y022722D02*
X030396Y022799D01*
X030320Y022876D01*
X030166Y022876D01*
X030089Y022799D01*
X030089Y022722D01*
X030166Y022646D01*
X030320Y022646D01*
X030396Y022722D01*
X030320Y022876D02*
X030396Y022953D01*
X030396Y023029D01*
X030320Y023106D01*
X030166Y023106D01*
X030089Y023029D01*
X030089Y022953D01*
X030166Y022876D01*
X034846Y018531D02*
X034930Y018601D01*
X034846Y018531D02*
X034833Y018378D01*
X034903Y018295D01*
X034979Y018288D01*
X035312Y018567D01*
X035285Y018262D01*
X035119Y018122D02*
X035258Y017956D01*
X035092Y017816D01*
X034786Y017843D01*
X034773Y017690D02*
X034753Y017461D01*
X034823Y017378D01*
X035128Y017351D01*
X035211Y017421D01*
X035232Y017650D01*
X034773Y017690D01*
X034813Y018149D02*
X035119Y018122D01*
X035191Y017191D02*
X035165Y016886D01*
X035178Y017038D02*
X034719Y017079D01*
X034886Y017218D01*
X032186Y016154D02*
X032109Y016231D01*
X031956Y016231D01*
X031879Y016154D01*
X031879Y016078D01*
X032186Y015771D01*
X031879Y015771D01*
X031726Y015771D02*
X031726Y016231D01*
X031495Y016231D01*
X031419Y016154D01*
X031419Y016001D01*
X031495Y015924D01*
X031726Y015924D01*
X031572Y015924D02*
X031419Y015771D01*
X031265Y016001D02*
X030958Y016001D01*
X031035Y016231D02*
X031265Y016001D01*
X031035Y015771D02*
X031035Y016231D01*
X030201Y015106D02*
X030278Y015029D01*
X030201Y015106D02*
X030047Y015106D01*
X029971Y015029D01*
X029971Y014953D01*
X030278Y014646D01*
X029971Y014646D01*
X029817Y014722D02*
X029740Y014646D01*
X029587Y014646D01*
X029510Y014722D01*
X029357Y014646D02*
X029050Y014646D01*
X029203Y014646D02*
X029203Y015106D01*
X029357Y014953D01*
X029510Y015029D02*
X029587Y015106D01*
X029740Y015106D01*
X029817Y015029D01*
X029817Y014722D01*
X028896Y014646D02*
X028589Y014953D01*
X028589Y015029D01*
X028666Y015106D01*
X028820Y015106D01*
X028896Y015029D01*
X028896Y014646D02*
X028589Y014646D01*
X029056Y016491D02*
X029346Y016491D01*
X029356Y017010D02*
X029056Y017010D01*
X038373Y019722D02*
X038450Y019646D01*
X038603Y019646D01*
X038680Y019722D01*
X038680Y019876D01*
X038450Y019876D01*
X038373Y019799D01*
X038373Y019722D01*
X038526Y020029D02*
X038680Y019876D01*
X038526Y020029D02*
X038373Y020106D01*
X038987Y020106D02*
X038987Y019646D01*
X039140Y019646D02*
X038833Y019646D01*
X039140Y019953D02*
X038987Y020106D01*
X039294Y020029D02*
X039294Y019876D01*
X039370Y019799D01*
X039601Y019799D01*
X039601Y019646D02*
X039601Y020106D01*
X039370Y020106D01*
X039294Y020029D01*
X039447Y019799D02*
X039294Y019646D01*
X039754Y019646D02*
X040061Y019646D01*
X039754Y019953D01*
X039754Y020029D01*
X039831Y020106D01*
X039984Y020106D01*
X040061Y020029D01*
X043214Y020404D02*
X043521Y020097D01*
X043521Y020021D01*
X043675Y020021D02*
X043828Y020174D01*
X043752Y020174D02*
X043982Y020174D01*
X044101Y020262D02*
X044178Y020185D01*
X044254Y020185D01*
X044331Y020262D01*
X044331Y020415D01*
X044254Y020492D01*
X044178Y020492D01*
X044101Y020415D01*
X044101Y020262D01*
X044135Y020328D02*
X044212Y020251D01*
X044135Y020174D01*
X044135Y020097D01*
X044212Y020021D01*
X044365Y020021D01*
X044442Y020097D01*
X044485Y020032D02*
X044331Y020032D01*
X044254Y019955D01*
X044254Y019725D01*
X044101Y019725D02*
X044561Y019725D01*
X044561Y019955D01*
X044485Y020032D01*
X044485Y020185D02*
X044408Y020185D01*
X044331Y020262D01*
X044289Y020251D02*
X044212Y020251D01*
X044135Y020328D02*
X044135Y020404D01*
X044212Y020481D01*
X044365Y020481D01*
X044442Y020404D01*
X044408Y020492D02*
X044331Y020415D01*
X044408Y020492D02*
X044485Y020492D01*
X044561Y020415D01*
X044561Y020262D01*
X044485Y020185D01*
X044254Y019878D02*
X044101Y020032D01*
X043982Y020021D02*
X043982Y020481D01*
X043752Y020481D01*
X043675Y020404D01*
X043675Y020251D01*
X043752Y020174D01*
X043521Y020481D02*
X043214Y020481D01*
X043214Y020404D01*
X044101Y019495D02*
X044101Y019341D01*
X044178Y019264D01*
X044331Y019418D02*
X044331Y019495D01*
X044254Y019571D01*
X044178Y019571D01*
X044101Y019495D01*
X044331Y019495D02*
X044408Y019571D01*
X044485Y019571D01*
X044561Y019495D01*
X044561Y019341D01*
X044485Y019264D01*
X044426Y018697D02*
X044368Y018580D01*
X044251Y018463D01*
X044251Y018638D01*
X044193Y018697D01*
X044134Y018697D01*
X044076Y018638D01*
X044076Y018522D01*
X044134Y018463D01*
X044251Y018463D01*
X044251Y018338D02*
X044193Y018279D01*
X044193Y018104D01*
X044193Y018221D02*
X044076Y018338D01*
X044251Y018338D02*
X044368Y018338D01*
X044426Y018279D01*
X044426Y018104D01*
X044076Y018104D01*
X044134Y017979D02*
X044076Y017920D01*
X044076Y017803D01*
X044134Y017745D01*
X044251Y017862D02*
X044251Y017920D01*
X044193Y017979D01*
X044134Y017979D01*
X044251Y017920D02*
X044310Y017979D01*
X044368Y017979D01*
X044426Y017920D01*
X044426Y017803D01*
X044368Y017745D01*
X040061Y022271D02*
X039754Y022578D01*
X039754Y022654D01*
X039831Y022731D01*
X039984Y022731D01*
X040061Y022654D01*
X040061Y022271D02*
X039754Y022271D01*
X039601Y022271D02*
X039601Y022731D01*
X039370Y022731D01*
X039294Y022654D01*
X039294Y022501D01*
X039370Y022424D01*
X039601Y022424D01*
X039447Y022424D02*
X039294Y022271D01*
X039140Y022271D02*
X038833Y022271D01*
X038987Y022271D02*
X038987Y022731D01*
X039140Y022578D01*
X038680Y022501D02*
X038373Y022501D01*
X038450Y022731D02*
X038680Y022501D01*
X038450Y022271D02*
X038450Y022731D01*
X042101Y023929D02*
X042408Y024236D01*
X042485Y024236D01*
X042561Y024159D01*
X042561Y024006D01*
X042485Y023929D01*
X042101Y023929D02*
X042101Y024236D01*
X042101Y024389D02*
X042561Y024389D01*
X042561Y024620D01*
X042485Y024696D01*
X042331Y024696D01*
X042254Y024620D01*
X042254Y024389D01*
X042254Y024543D02*
X042101Y024696D01*
X042101Y024850D02*
X042101Y025157D01*
X042101Y025310D02*
X042408Y025617D01*
X042485Y025617D01*
X042561Y025540D01*
X042561Y025387D01*
X042485Y025310D01*
X042561Y025003D02*
X042101Y025003D01*
X042101Y025310D02*
X042101Y025617D01*
X042561Y025003D02*
X042408Y024850D01*
X014192Y019203D02*
X014039Y019356D01*
X014039Y018896D01*
X014192Y018896D02*
X013885Y018896D01*
X013732Y018896D02*
X013732Y019356D01*
X013502Y019356D01*
X013425Y019279D01*
X013425Y019126D01*
X013502Y019049D01*
X013732Y019049D01*
X013578Y019049D02*
X013425Y018896D01*
X013271Y018896D02*
X012964Y018896D01*
X013118Y018896D02*
X013118Y019356D01*
X013271Y019203D01*
X011533Y017231D02*
X011533Y016771D01*
X011686Y016771D02*
X011379Y016771D01*
X011226Y016771D02*
X011226Y017231D01*
X010995Y017231D01*
X010919Y017154D01*
X010919Y017001D01*
X010995Y016924D01*
X011226Y016924D01*
X011072Y016924D02*
X010919Y016771D01*
X010765Y016771D02*
X010458Y017078D01*
X010458Y017154D01*
X010535Y017231D01*
X010688Y017231D01*
X010765Y017154D01*
X010765Y016771D02*
X010458Y016771D01*
X011533Y017231D02*
X011686Y017078D01*
X011533Y015481D02*
X011533Y015021D01*
X011686Y015021D02*
X011379Y015021D01*
X011226Y015021D02*
X011226Y015481D01*
X010995Y015481D01*
X010919Y015404D01*
X010919Y015251D01*
X010995Y015174D01*
X011226Y015174D01*
X011072Y015174D02*
X010919Y015021D01*
X010765Y015251D02*
X010458Y015251D01*
X010535Y015481D02*
X010765Y015251D01*
X010535Y015021D02*
X010535Y015481D01*
X011533Y015481D02*
X011686Y015328D01*
X013089Y014904D02*
X013089Y014828D01*
X013166Y014751D01*
X013089Y014674D01*
X013089Y014597D01*
X013166Y014521D01*
X013320Y014521D01*
X013396Y014597D01*
X013550Y014521D02*
X013703Y014674D01*
X013627Y014674D02*
X013857Y014674D01*
X013857Y014521D02*
X013857Y014981D01*
X013627Y014981D01*
X013550Y014904D01*
X013550Y014751D01*
X013627Y014674D01*
X013396Y014904D02*
X013320Y014981D01*
X013166Y014981D01*
X013089Y014904D01*
X013166Y014751D02*
X013243Y014751D01*
X014010Y014521D02*
X014317Y014521D01*
X014164Y014521D02*
X014164Y014981D01*
X014317Y014828D01*
D13*
X028418Y021876D03*
X028988Y021876D03*
X033043Y023251D03*
X033613Y023251D03*
X029488Y016751D03*
X028918Y016751D03*
D14*
X012332Y013834D03*
X012332Y014414D03*
X012330Y015463D03*
X012330Y016043D03*
X012332Y017084D03*
X012332Y017664D03*
X012330Y018713D03*
X012330Y019293D03*
X040582Y022959D03*
X040582Y023539D03*
X040580Y024838D03*
X040580Y025418D03*
X043580Y020168D03*
X043580Y019588D03*
X044455Y019588D03*
X044455Y020168D03*
D15*
X032338Y018351D02*
X031867Y018392D01*
X032068Y017979D01*
X032338Y018351D01*
D16*
G36*
X032483Y018822D02*
X032464Y018604D01*
X031787Y018664D01*
X031806Y018882D01*
X032483Y018822D01*
G37*
G36*
X032375Y017587D02*
X032356Y017369D01*
X031679Y017429D01*
X031698Y017647D01*
X032375Y017587D01*
G37*
D17*
G36*
X032381Y017998D02*
X032360Y017760D01*
X031743Y017814D01*
X031764Y018052D01*
X032381Y017998D01*
G37*
D18*
X031921Y016751D03*
X031241Y016751D03*
X022921Y022876D03*
X022241Y022876D03*
X021796Y024501D03*
X021116Y024501D03*
X021116Y025376D03*
X021796Y025376D03*
X042866Y021126D03*
X043546Y021126D03*
D19*
X042156Y015886D03*
D20*
X041206Y017782D02*
X049474Y017782D01*
X049474Y021719D01*
X041206Y021719D01*
X041206Y017782D01*
X045256Y019106D02*
X045331Y019031D01*
X045256Y019106D02*
X045256Y019256D01*
X045331Y019331D01*
X045406Y019331D01*
X045481Y019256D01*
X045481Y019181D01*
X045481Y019256D02*
X045556Y019331D01*
X045631Y019331D01*
X045706Y019256D01*
X045706Y019106D01*
X045631Y019031D01*
X045631Y019491D02*
X045331Y019491D01*
X045256Y019566D01*
X045256Y019716D01*
X045331Y019791D01*
X045331Y019951D02*
X045256Y020026D01*
X045256Y020177D01*
X045331Y020252D01*
X045406Y020252D01*
X045481Y020177D01*
X045481Y020102D01*
X045481Y020177D02*
X045556Y020252D01*
X045631Y020252D01*
X045706Y020177D01*
X045706Y020026D01*
X045631Y019951D01*
X045631Y019791D02*
X045706Y019716D01*
X045706Y019566D01*
X045631Y019491D01*
D21*
X022206Y021286D03*
X022206Y021966D03*
X019706Y024536D03*
X018706Y024536D03*
X018706Y025216D03*
X019706Y025216D03*
D22*
X027331Y022158D03*
X027331Y021588D03*
X027706Y024968D03*
X027706Y025538D03*
M02*
