G75*
G70*
%OFA0B0*%
%FSLAX24Y24*%
%IPPOS*%
%LPD*%
%AMOC8*
5,1,8,0,0,1.08239X$1,22.5*
%
%ADD10R,0.0872X0.0872*%
%ADD11OC8,0.0872*%
%ADD12C,0.0872*%
%ADD13R,0.0592X0.0671*%
%ADD14C,0.0174*%
%ADD15C,0.0872*%
%ADD16R,0.0671X0.0592*%
%ADD17OC8,0.1080*%
%ADD18C,0.1080*%
%ADD19C,0.0952*%
%ADD20OC8,0.0952*%
%ADD21R,0.0631X0.0789*%
%ADD22R,0.0592X0.0710*%
%ADD23OC8,0.0912*%
%ADD24C,0.1080*%
%ADD25C,0.0992*%
%ADD26C,0.0907*%
%ADD27C,0.1655*%
%ADD28C,0.1340*%
%ADD29C,0.1261*%
%ADD30R,0.0710X0.0592*%
%ADD31R,0.0710X0.0867*%
%ADD32C,0.0986*%
%ADD33C,0.2049*%
D10*
X027173Y018001D03*
X028173Y024126D03*
D11*
X027173Y024126D03*
X026173Y024126D03*
X025173Y024126D03*
X024173Y023126D03*
X023048Y024126D03*
X023298Y026001D03*
X026673Y025126D03*
X027298Y026001D03*
X030673Y025126D03*
X031173Y023251D03*
X029173Y023251D03*
X028173Y021126D03*
X026173Y021126D03*
X025173Y021126D03*
X024173Y021126D03*
X023048Y020126D03*
X023173Y018876D03*
X027173Y018876D03*
X027173Y015626D03*
X036173Y022626D03*
X036923Y023126D03*
X036923Y022126D03*
X038173Y022001D03*
X038173Y021001D03*
X038173Y019001D03*
X038173Y026001D03*
X011298Y023126D03*
X011298Y020126D03*
D12*
X027173Y020729D02*
X027173Y021522D01*
X031880Y024251D02*
X032673Y024251D01*
X032673Y025251D02*
X031880Y025251D01*
X035673Y025251D02*
X036465Y025251D01*
X036465Y024251D02*
X035673Y024251D01*
D13*
X036174Y021001D03*
X036922Y021001D03*
X041674Y020751D03*
X042422Y020751D03*
X042422Y019751D03*
X041674Y019751D03*
X030547Y023251D03*
X029799Y023251D03*
X025922Y023126D03*
X025174Y023126D03*
X025174Y022126D03*
X025922Y022126D03*
X025674Y016751D03*
X026422Y016751D03*
D14*
X023342Y017632D02*
X023429Y017545D01*
X023306Y017282D01*
X023037Y017183D01*
X022774Y017306D01*
X022675Y017575D01*
X022798Y017838D01*
X023067Y017937D01*
X023330Y017814D01*
X023429Y017545D01*
X023287Y017550D01*
X023211Y017386D01*
X023042Y017325D01*
X022878Y017401D01*
X022817Y017570D01*
X022893Y017734D01*
X023062Y017795D01*
X023226Y017719D01*
X023287Y017550D01*
X023146Y017556D01*
X023115Y017491D01*
X023048Y017466D01*
X022983Y017497D01*
X022958Y017564D01*
X022989Y017629D01*
X023056Y017654D01*
X023121Y017623D01*
X023146Y017556D01*
X019583Y016264D02*
X019670Y016177D01*
X019547Y015914D01*
X019278Y015815D01*
X019015Y015938D01*
X018916Y016207D01*
X019039Y016470D01*
X019308Y016569D01*
X019571Y016446D01*
X019670Y016177D01*
X019528Y016182D01*
X019452Y016018D01*
X019283Y015957D01*
X019119Y016033D01*
X019058Y016202D01*
X019134Y016366D01*
X019303Y016427D01*
X019467Y016351D01*
X019528Y016182D01*
X019387Y016188D01*
X019356Y016123D01*
X019289Y016098D01*
X019224Y016129D01*
X019199Y016196D01*
X019230Y016261D01*
X019297Y016286D01*
X019362Y016255D01*
X019387Y016188D01*
X023709Y024575D02*
X023622Y024662D01*
X023911Y024672D01*
X024122Y024476D01*
X024132Y024187D01*
X023936Y023976D01*
X023647Y023966D01*
X023436Y024162D01*
X023426Y024451D01*
X023622Y024662D01*
X023681Y024533D01*
X023861Y024539D01*
X023993Y024417D01*
X023999Y024237D01*
X023877Y024105D01*
X023697Y024099D01*
X023565Y024221D01*
X023559Y024401D01*
X023681Y024533D01*
X023740Y024404D01*
X023812Y024407D01*
X023864Y024358D01*
X023867Y024286D01*
X023818Y024234D01*
X023746Y024231D01*
X023694Y024280D01*
X023691Y024352D01*
X023740Y024404D01*
X022246Y025939D02*
X022159Y026026D01*
X022448Y026036D01*
X022659Y025840D01*
X022669Y025551D01*
X022473Y025340D01*
X022184Y025330D01*
X021973Y025526D01*
X021963Y025815D01*
X022159Y026026D01*
X022218Y025897D01*
X022398Y025903D01*
X022530Y025781D01*
X022536Y025601D01*
X022414Y025469D01*
X022234Y025463D01*
X022102Y025585D01*
X022096Y025765D01*
X022218Y025897D01*
X022277Y025768D01*
X022349Y025771D01*
X022401Y025722D01*
X022404Y025650D01*
X022355Y025598D01*
X022283Y025595D01*
X022231Y025644D01*
X022228Y025716D01*
X022277Y025768D01*
D15*
X024423Y020001D03*
X024173Y018001D03*
X027173Y016626D03*
X028423Y020001D03*
D16*
X024173Y021752D03*
X024173Y022500D03*
X024548Y025377D03*
X024548Y026125D03*
X037423Y025250D03*
X037423Y024502D03*
X039048Y021875D03*
X039048Y021127D03*
X009173Y019375D03*
X009173Y018627D03*
X009173Y017750D03*
X009173Y017002D03*
X009173Y016125D03*
X009173Y015377D03*
X009173Y014500D03*
X009173Y013752D03*
D17*
X008298Y014051D03*
X008298Y019951D03*
X020673Y024751D03*
X038048Y016633D03*
X039665Y018251D03*
D18*
X041681Y018251D03*
X038048Y014618D03*
X020673Y022751D03*
X014548Y018101D03*
X010548Y018101D03*
X010548Y013001D03*
X014548Y013001D03*
D19*
X022173Y015439D02*
X022173Y016312D01*
X023173Y016312D02*
X023173Y015439D01*
X024173Y015439D02*
X024173Y016312D01*
X039423Y013062D02*
X039423Y012189D01*
X041423Y012189D02*
X041423Y013062D01*
X043362Y020501D02*
X044234Y020501D01*
X044234Y021501D02*
X043362Y021501D01*
X043362Y022501D02*
X044234Y022501D01*
D20*
X028173Y013001D03*
X022173Y013001D03*
X019798Y011626D03*
X019798Y015626D03*
X008298Y012876D03*
X006548Y014876D03*
D21*
G36*
X029284Y017988D02*
X029230Y017361D01*
X028446Y017430D01*
X028500Y018057D01*
X029284Y017988D01*
G37*
G36*
X029400Y019321D02*
X029346Y018694D01*
X028562Y018763D01*
X028616Y019390D01*
X029400Y019321D01*
G37*
D22*
X028797Y016751D03*
X028049Y016751D03*
X019797Y022876D03*
X019049Y022876D03*
X018922Y025001D03*
X018174Y025001D03*
X018174Y025876D03*
X018922Y025876D03*
D23*
X021798Y024751D03*
X021798Y018751D03*
X032298Y021001D03*
X035298Y021001D03*
D24*
X011273Y024251D02*
X011273Y025251D01*
X009273Y025251D02*
X009273Y024251D01*
X005073Y024251D02*
X005073Y025251D01*
X003073Y025251D02*
X003073Y024251D01*
D25*
X016048Y012001D03*
X017076Y012031D03*
X017770Y015970D03*
X017770Y016906D03*
X016048Y016876D03*
X016048Y016001D03*
X016048Y020876D03*
X017076Y020845D03*
D26*
X042513Y017988D03*
X045332Y019014D03*
D27*
X006291Y020647D03*
X004322Y022419D03*
X006291Y017104D03*
X004322Y015332D03*
D28*
X004322Y016317D03*
X004322Y021435D03*
D29*
X004322Y021435D03*
X004322Y016317D03*
X030076Y015876D03*
X030076Y014301D03*
X030076Y012726D03*
X036769Y013513D03*
X036769Y015088D03*
X036769Y016663D03*
X036769Y018238D03*
X030076Y019025D03*
X030076Y017450D03*
D30*
X019048Y021252D03*
X019048Y022000D03*
X016548Y025002D03*
X016548Y025750D03*
X015548Y025750D03*
X015548Y025002D03*
D31*
X039622Y019751D03*
X040724Y019751D03*
D32*
X029548Y020626D03*
X019798Y025876D03*
D33*
X008673Y022001D03*
X003673Y012501D03*
X044798Y012501D03*
X044798Y025251D03*
M02*
