G75*
G70*
%OFA0B0*%
%FSLAX24Y24*%
%IPPOS*%
%LPD*%
%AMOC8*
5,1,8,0,0,1.08239X$1,22.5*
%
%ADD10C,0.0100*%
%ADD11C,0.0000*%
D10*
X004706Y019951D02*
X048956Y019951D01*
X048956Y035701D01*
X004706Y035701D01*
X004706Y019951D01*
D11*
X006015Y025267D02*
X006017Y025315D01*
X006023Y025363D01*
X006033Y025410D01*
X006046Y025456D01*
X006064Y025501D01*
X006084Y025545D01*
X006109Y025587D01*
X006137Y025626D01*
X006167Y025663D01*
X006201Y025697D01*
X006238Y025729D01*
X006276Y025758D01*
X006317Y025783D01*
X006360Y025805D01*
X006405Y025823D01*
X006451Y025837D01*
X006498Y025848D01*
X006546Y025855D01*
X006594Y025858D01*
X006642Y025857D01*
X006690Y025852D01*
X006738Y025843D01*
X006784Y025831D01*
X006829Y025814D01*
X006873Y025794D01*
X006915Y025771D01*
X006955Y025744D01*
X006993Y025714D01*
X007028Y025681D01*
X007060Y025645D01*
X007090Y025607D01*
X007116Y025566D01*
X007138Y025523D01*
X007158Y025479D01*
X007173Y025434D01*
X007185Y025387D01*
X007193Y025339D01*
X007197Y025291D01*
X007197Y025243D01*
X007193Y025195D01*
X007185Y025147D01*
X007173Y025100D01*
X007158Y025055D01*
X007138Y025011D01*
X007116Y024968D01*
X007090Y024927D01*
X007060Y024889D01*
X007028Y024853D01*
X006993Y024820D01*
X006955Y024790D01*
X006915Y024763D01*
X006873Y024740D01*
X006829Y024720D01*
X006784Y024703D01*
X006738Y024691D01*
X006690Y024682D01*
X006642Y024677D01*
X006594Y024676D01*
X006546Y024679D01*
X006498Y024686D01*
X006451Y024697D01*
X006405Y024711D01*
X006360Y024729D01*
X006317Y024751D01*
X006276Y024776D01*
X006238Y024805D01*
X006201Y024837D01*
X006167Y024871D01*
X006137Y024908D01*
X006109Y024947D01*
X006084Y024989D01*
X006064Y025033D01*
X006046Y025078D01*
X006033Y025124D01*
X006023Y025171D01*
X006017Y025219D01*
X006015Y025267D01*
X006015Y030385D02*
X006017Y030433D01*
X006023Y030481D01*
X006033Y030528D01*
X006046Y030574D01*
X006064Y030619D01*
X006084Y030663D01*
X006109Y030705D01*
X006137Y030744D01*
X006167Y030781D01*
X006201Y030815D01*
X006238Y030847D01*
X006276Y030876D01*
X006317Y030901D01*
X006360Y030923D01*
X006405Y030941D01*
X006451Y030955D01*
X006498Y030966D01*
X006546Y030973D01*
X006594Y030976D01*
X006642Y030975D01*
X006690Y030970D01*
X006738Y030961D01*
X006784Y030949D01*
X006829Y030932D01*
X006873Y030912D01*
X006915Y030889D01*
X006955Y030862D01*
X006993Y030832D01*
X007028Y030799D01*
X007060Y030763D01*
X007090Y030725D01*
X007116Y030684D01*
X007138Y030641D01*
X007158Y030597D01*
X007173Y030552D01*
X007185Y030505D01*
X007193Y030457D01*
X007197Y030409D01*
X007197Y030361D01*
X007193Y030313D01*
X007185Y030265D01*
X007173Y030218D01*
X007158Y030173D01*
X007138Y030129D01*
X007116Y030086D01*
X007090Y030045D01*
X007060Y030007D01*
X007028Y029971D01*
X006993Y029938D01*
X006955Y029908D01*
X006915Y029881D01*
X006873Y029858D01*
X006829Y029838D01*
X006784Y029821D01*
X006738Y029809D01*
X006690Y029800D01*
X006642Y029795D01*
X006594Y029794D01*
X006546Y029797D01*
X006498Y029804D01*
X006451Y029815D01*
X006405Y029829D01*
X006360Y029847D01*
X006317Y029869D01*
X006276Y029894D01*
X006238Y029923D01*
X006201Y029955D01*
X006167Y029989D01*
X006137Y030026D01*
X006109Y030065D01*
X006084Y030107D01*
X006064Y030151D01*
X006046Y030196D01*
X006033Y030242D01*
X006023Y030289D01*
X006017Y030337D01*
X006015Y030385D01*
M02*
