G75*
G70*
%OFA0B0*%
%FSLAX24Y24*%
%IPPOS*%
%LPD*%
%AMOC8*
5,1,8,0,0,1.08239X$1,22.5*
%
%ADD10C,0.0060*%
%ADD11R,0.0256X0.0551*%
%ADD12C,0.0040*%
%ADD13R,0.0295X0.0571*%
%ADD14R,0.0551X0.0256*%
%ADD15C,0.0080*%
%ADD16R,0.0220X0.0680*%
%ADD17R,0.0240X0.0620*%
%ADD18R,0.0140X0.0560*%
%ADD19R,0.0740X0.0170*%
%ADD20C,0.0050*%
%ADD21R,0.0560X0.0140*%
%ADD22R,0.0571X0.0295*%
D10*
X012081Y013964D02*
X012081Y014287D01*
X012581Y014287D02*
X012581Y013964D01*
X012581Y015589D02*
X012581Y015912D01*
X012081Y015912D02*
X012081Y015589D01*
X012081Y017214D02*
X012081Y017537D01*
X012581Y017537D02*
X012581Y017214D01*
X012581Y018839D02*
X012581Y019162D01*
X012081Y019162D02*
X012081Y018839D01*
X021176Y024251D02*
X021736Y024251D01*
X021736Y024751D02*
X021176Y024751D01*
X021176Y025126D02*
X021736Y025126D01*
X021736Y025626D02*
X021176Y025626D01*
X019956Y025156D02*
X019956Y024596D01*
X019456Y024596D02*
X019456Y025156D01*
X018956Y025156D02*
X018956Y024596D01*
X018456Y024596D02*
X018456Y025156D01*
X022301Y023126D02*
X022861Y023126D01*
X022861Y022626D02*
X022301Y022626D01*
X022456Y021906D02*
X022456Y021346D01*
X021956Y021346D02*
X021956Y021906D01*
X028545Y022626D02*
X028867Y022626D01*
X028867Y023126D02*
X028545Y023126D01*
X031817Y018671D02*
X031727Y017635D01*
X032344Y017581D02*
X032435Y018617D01*
X031861Y017001D02*
X031301Y017001D01*
X031301Y016501D02*
X031861Y016501D01*
X039545Y020501D02*
X039867Y020501D01*
X039867Y021001D02*
X039545Y021001D01*
X041806Y019681D02*
X042506Y019681D01*
X042506Y019551D01*
X042156Y019551D01*
X041806Y019551D01*
X041806Y019681D01*
X042156Y019551D02*
X042156Y019301D01*
X042456Y019101D02*
X042456Y018801D01*
X042306Y018951D02*
X042606Y018951D01*
X042581Y019964D02*
X042581Y020287D01*
X042956Y020287D02*
X042956Y019964D01*
X043456Y019964D02*
X043456Y020287D01*
X042156Y020151D02*
X042156Y019951D01*
X042081Y019964D02*
X042081Y020287D01*
X041867Y022751D02*
X041545Y022751D01*
X041545Y023251D02*
X041867Y023251D01*
X041831Y025152D02*
X041831Y025475D01*
X041331Y025475D02*
X041331Y025152D01*
X042156Y016151D02*
X042156Y015951D01*
X042156Y015551D02*
X041806Y015551D01*
X041806Y015681D01*
X042506Y015681D01*
X042506Y015551D01*
X042156Y015551D01*
X042156Y015301D01*
X042456Y015101D02*
X042456Y014801D01*
X042306Y014951D02*
X042606Y014951D01*
D11*
X039994Y020750D03*
X039414Y020750D03*
X041414Y023000D03*
X041994Y023000D03*
X028994Y022875D03*
X028414Y022875D03*
D12*
X028556Y022135D02*
X028856Y022135D01*
X028846Y021616D02*
X028556Y021616D01*
X027591Y021726D02*
X027591Y022016D01*
X027071Y022026D02*
X027071Y021726D01*
X026686Y021404D02*
X026609Y021481D01*
X026456Y021481D01*
X026379Y021404D01*
X026379Y021328D01*
X026686Y021021D01*
X026379Y021021D01*
X026226Y021097D02*
X026149Y021021D01*
X025995Y021021D01*
X025919Y021097D01*
X025765Y021097D02*
X025688Y021021D01*
X025535Y021021D01*
X025458Y021097D01*
X025458Y021251D01*
X025535Y021328D01*
X025612Y021328D01*
X025765Y021251D01*
X025765Y021481D01*
X025458Y021481D01*
X025305Y021328D02*
X025151Y021481D01*
X024998Y021328D01*
X024998Y021021D01*
X024998Y021251D02*
X025305Y021251D01*
X025305Y021328D02*
X025305Y021021D01*
X026226Y021097D02*
X026226Y021404D01*
X026149Y021481D01*
X025995Y021481D01*
X025919Y021404D01*
X025870Y022396D02*
X025794Y022472D01*
X025870Y022396D02*
X026024Y022396D01*
X026101Y022472D01*
X026101Y022779D01*
X026024Y022856D01*
X025870Y022856D01*
X025794Y022779D01*
X025640Y022626D02*
X025410Y022626D01*
X025333Y022549D01*
X025333Y022472D01*
X025410Y022396D01*
X025563Y022396D01*
X025640Y022472D01*
X025640Y022626D01*
X025487Y022779D01*
X025333Y022856D01*
X025311Y023271D02*
X025004Y023271D01*
X024851Y023271D02*
X024851Y023731D01*
X024620Y023731D01*
X024544Y023654D01*
X024544Y023501D01*
X024620Y023424D01*
X024851Y023424D01*
X024697Y023424D02*
X024544Y023271D01*
X024390Y023271D02*
X024083Y023271D01*
X023930Y023271D02*
X023930Y023731D01*
X023623Y023731D01*
X023776Y023501D02*
X023930Y023501D01*
X023930Y023271D02*
X023623Y023271D01*
X024237Y023271D02*
X024237Y023731D01*
X024390Y023578D01*
X025004Y023578D02*
X025004Y023654D01*
X025081Y023731D01*
X025234Y023731D01*
X025311Y023654D01*
X025004Y023578D02*
X025311Y023271D01*
X026254Y022779D02*
X026331Y022856D01*
X026484Y022856D01*
X026561Y022779D01*
X026254Y022779D02*
X026254Y022703D01*
X026561Y022396D01*
X026254Y022396D01*
X024653Y021779D02*
X024576Y021856D01*
X024422Y021856D01*
X024346Y021779D01*
X024346Y021703D01*
X024653Y021396D01*
X024346Y021396D01*
X024192Y021396D02*
X024192Y021856D01*
X023962Y021856D01*
X023885Y021779D01*
X023885Y021626D01*
X023962Y021549D01*
X024192Y021549D01*
X024039Y021549D02*
X023885Y021396D01*
X023732Y021396D02*
X023425Y021396D01*
X023578Y021396D02*
X023578Y021856D01*
X023732Y021703D01*
X023271Y021703D02*
X023118Y021856D01*
X022964Y021703D01*
X022964Y021396D01*
X022964Y021626D02*
X023271Y021626D01*
X023271Y021703D02*
X023271Y021396D01*
X021778Y021896D02*
X021471Y022203D01*
X021471Y022279D01*
X021547Y022356D01*
X021701Y022356D01*
X021778Y022279D01*
X021778Y021896D02*
X021471Y021896D01*
X021317Y021896D02*
X021317Y022356D01*
X021087Y022356D01*
X021010Y022279D01*
X021010Y022126D01*
X021087Y022049D01*
X021317Y022049D01*
X021164Y022049D02*
X021010Y021896D01*
X020857Y021896D02*
X020550Y021896D01*
X020703Y021896D02*
X020703Y022356D01*
X020857Y022203D01*
X020396Y022126D02*
X020166Y022126D01*
X020089Y022049D01*
X020089Y021972D01*
X020166Y021896D01*
X020396Y021896D01*
X020396Y022356D01*
X020166Y022356D01*
X020089Y022279D01*
X020089Y022203D01*
X020166Y022126D01*
X020169Y023521D02*
X020322Y023674D01*
X020245Y023674D02*
X020476Y023674D01*
X020476Y023521D02*
X020476Y023981D01*
X020245Y023981D01*
X020169Y023904D01*
X020169Y023751D01*
X020245Y023674D01*
X020015Y023521D02*
X019708Y023521D01*
X019555Y023521D02*
X019325Y023521D01*
X019248Y023597D01*
X019248Y023904D01*
X019325Y023981D01*
X019555Y023981D01*
X019555Y023521D01*
X019862Y023521D02*
X019862Y023981D01*
X020015Y023828D01*
X020629Y023828D02*
X020936Y023521D01*
X020629Y023521D01*
X020629Y023828D02*
X020629Y023904D01*
X020706Y023981D01*
X020859Y023981D01*
X020936Y023904D01*
X018936Y023904D02*
X018859Y023981D01*
X018706Y023981D01*
X018629Y023904D01*
X018629Y023828D01*
X018936Y023521D01*
X018629Y023521D01*
X018476Y023521D02*
X018476Y023981D01*
X018245Y023981D01*
X018169Y023904D01*
X018169Y023751D01*
X018245Y023674D01*
X018476Y023674D01*
X018322Y023674D02*
X018169Y023521D01*
X018015Y023521D02*
X017708Y023521D01*
X017862Y023521D02*
X017862Y023981D01*
X018015Y023828D01*
X017555Y023904D02*
X017555Y023597D01*
X017478Y023521D01*
X017325Y023521D01*
X017248Y023597D01*
X017248Y023904D02*
X017325Y023981D01*
X017478Y023981D01*
X017555Y023904D01*
X023123Y025481D02*
X023430Y025481D01*
X023430Y025021D01*
X023583Y025021D02*
X023890Y025021D01*
X023737Y025021D02*
X023737Y025481D01*
X023890Y025328D01*
X024044Y025404D02*
X024120Y025481D01*
X024351Y025481D01*
X024351Y025021D01*
X024504Y025021D02*
X024811Y025021D01*
X024504Y025328D01*
X024504Y025404D01*
X024581Y025481D01*
X024734Y025481D01*
X024811Y025404D01*
X024351Y025174D02*
X024120Y025174D01*
X024044Y025251D01*
X024044Y025404D01*
X024197Y025174D02*
X024044Y025021D01*
X023430Y025251D02*
X023276Y025251D01*
X027446Y025110D02*
X027446Y025401D01*
X027966Y025401D02*
X027966Y025101D01*
X028339Y025396D02*
X028339Y025703D01*
X028493Y025856D01*
X028646Y025703D01*
X028646Y025396D01*
X028646Y025626D02*
X028339Y025626D01*
X028800Y025779D02*
X028800Y025856D01*
X029107Y025856D01*
X029260Y025779D02*
X029337Y025856D01*
X029490Y025856D01*
X029567Y025779D01*
X029567Y025472D01*
X029490Y025396D01*
X029337Y025396D01*
X029260Y025472D01*
X029107Y025472D02*
X029107Y025396D01*
X029107Y025472D02*
X028800Y025779D01*
X029721Y025779D02*
X029797Y025856D01*
X029951Y025856D01*
X030028Y025779D01*
X029721Y025779D02*
X029721Y025703D01*
X030028Y025396D01*
X029721Y025396D01*
X032123Y024078D02*
X032123Y023771D01*
X032123Y024001D02*
X032430Y024001D01*
X032430Y024078D02*
X032276Y024231D01*
X032123Y024078D01*
X032430Y024078D02*
X032430Y023771D01*
X032660Y023771D02*
X032660Y024231D01*
X032890Y024001D01*
X032583Y024001D01*
X033044Y024154D02*
X033120Y024231D01*
X033274Y024231D01*
X033351Y024154D01*
X033351Y023847D01*
X033274Y023771D01*
X033120Y023771D01*
X033044Y023847D01*
X033181Y023510D02*
X033481Y023510D01*
X033504Y023771D02*
X033811Y023771D01*
X033504Y024078D01*
X033504Y024154D01*
X033581Y024231D01*
X033734Y024231D01*
X033811Y024154D01*
X033471Y022991D02*
X033181Y022991D01*
X031317Y023029D02*
X031240Y023106D01*
X031087Y023106D01*
X031010Y023029D01*
X031010Y022953D01*
X031317Y022646D01*
X031010Y022646D01*
X030857Y022646D02*
X030857Y023106D01*
X030627Y023106D01*
X030550Y023029D01*
X030550Y022876D01*
X030627Y022799D01*
X030857Y022799D01*
X030703Y022799D02*
X030550Y022646D01*
X030396Y022722D02*
X030396Y022799D01*
X030320Y022876D01*
X030166Y022876D01*
X030089Y022799D01*
X030089Y022722D01*
X030166Y022646D01*
X030320Y022646D01*
X030396Y022722D01*
X030320Y022876D02*
X030396Y022953D01*
X030396Y023029D01*
X030320Y023106D01*
X030166Y023106D01*
X030089Y023029D01*
X030089Y022953D01*
X030166Y022876D01*
X034846Y018531D02*
X034930Y018601D01*
X034846Y018531D02*
X034833Y018378D01*
X034903Y018295D01*
X034979Y018288D01*
X035312Y018567D01*
X035285Y018262D01*
X035119Y018122D02*
X035258Y017956D01*
X035092Y017816D01*
X034786Y017843D01*
X034773Y017690D02*
X034753Y017461D01*
X034823Y017378D01*
X035128Y017351D01*
X035211Y017421D01*
X035232Y017650D01*
X034773Y017690D01*
X034813Y018149D02*
X035119Y018122D01*
X035191Y017191D02*
X035165Y016886D01*
X035178Y017038D02*
X034719Y017079D01*
X034886Y017218D01*
X032186Y016154D02*
X032109Y016231D01*
X031956Y016231D01*
X031879Y016154D01*
X031879Y016078D01*
X032186Y015771D01*
X031879Y015771D01*
X031726Y015771D02*
X031726Y016231D01*
X031495Y016231D01*
X031419Y016154D01*
X031419Y016001D01*
X031495Y015924D01*
X031726Y015924D01*
X031572Y015924D02*
X031419Y015771D01*
X031265Y016001D02*
X030958Y016001D01*
X031035Y016231D02*
X031265Y016001D01*
X031035Y015771D02*
X031035Y016231D01*
X030201Y015106D02*
X030278Y015029D01*
X030201Y015106D02*
X030047Y015106D01*
X029971Y015029D01*
X029971Y014953D01*
X030278Y014646D01*
X029971Y014646D01*
X029817Y014722D02*
X029740Y014646D01*
X029587Y014646D01*
X029510Y014722D01*
X029357Y014646D02*
X029050Y014646D01*
X029203Y014646D02*
X029203Y015106D01*
X029357Y014953D01*
X029510Y015029D02*
X029587Y015106D01*
X029740Y015106D01*
X029817Y015029D01*
X029817Y014722D01*
X028896Y014646D02*
X028589Y014953D01*
X028589Y015029D01*
X028666Y015106D01*
X028820Y015106D01*
X028896Y015029D01*
X028896Y014646D02*
X028589Y014646D01*
X029056Y016491D02*
X029346Y016491D01*
X029356Y017010D02*
X029056Y017010D01*
X038373Y019722D02*
X038450Y019646D01*
X038603Y019646D01*
X038680Y019722D01*
X038680Y019876D01*
X038450Y019876D01*
X038373Y019799D01*
X038373Y019722D01*
X038526Y020029D02*
X038680Y019876D01*
X038526Y020029D02*
X038373Y020106D01*
X038987Y020106D02*
X038987Y019646D01*
X039140Y019646D02*
X038833Y019646D01*
X039140Y019953D02*
X038987Y020106D01*
X039294Y020029D02*
X039294Y019876D01*
X039370Y019799D01*
X039601Y019799D01*
X039601Y019646D02*
X039601Y020106D01*
X039370Y020106D01*
X039294Y020029D01*
X039447Y019799D02*
X039294Y019646D01*
X039754Y019646D02*
X040061Y019646D01*
X039754Y019953D01*
X039754Y020029D01*
X039831Y020106D01*
X039984Y020106D01*
X040061Y020029D01*
X042976Y022021D02*
X043283Y022328D01*
X043360Y022328D01*
X043436Y022251D01*
X043436Y022097D01*
X043360Y022021D01*
X042976Y022021D02*
X042976Y022328D01*
X042976Y022481D02*
X043436Y022481D01*
X043436Y022711D01*
X043360Y022788D01*
X043206Y022788D01*
X043129Y022711D01*
X043129Y022481D01*
X043129Y022634D02*
X042976Y022788D01*
X042976Y022941D02*
X042976Y023248D01*
X042976Y023095D02*
X043436Y023095D01*
X043283Y022941D01*
X043206Y023402D02*
X043206Y023709D01*
X042976Y023632D02*
X043436Y023632D01*
X043206Y023402D01*
X043073Y025396D02*
X043226Y025549D01*
X043149Y025549D02*
X043380Y025549D01*
X043380Y025396D02*
X043380Y025856D01*
X043149Y025856D01*
X043073Y025779D01*
X043073Y025626D01*
X043149Y025549D01*
X042919Y025396D02*
X042612Y025396D01*
X042459Y025396D02*
X042152Y025703D01*
X042152Y025779D01*
X042229Y025856D01*
X042382Y025856D01*
X042459Y025779D01*
X042766Y025856D02*
X042766Y025396D01*
X042459Y025396D02*
X042152Y025396D01*
X042766Y025856D02*
X042919Y025703D01*
X043533Y025703D02*
X043533Y025779D01*
X043610Y025856D01*
X043763Y025856D01*
X043840Y025779D01*
X043533Y025703D02*
X043840Y025396D01*
X043533Y025396D01*
X044235Y020623D02*
X043928Y020316D01*
X043851Y020316D01*
X043851Y020163D02*
X044004Y020009D01*
X044004Y020086D02*
X044004Y019856D01*
X043851Y019856D02*
X044311Y019856D01*
X044311Y020086D01*
X044235Y020163D01*
X044081Y020163D01*
X044004Y020086D01*
X044004Y019703D02*
X043928Y019703D01*
X043851Y019626D01*
X043851Y019472D01*
X043928Y019396D01*
X044081Y019549D02*
X044081Y019626D01*
X044004Y019703D01*
X044081Y019626D02*
X044158Y019703D01*
X044235Y019703D01*
X044311Y019626D01*
X044311Y019472D01*
X044235Y019396D01*
X044311Y020316D02*
X044311Y020623D01*
X044235Y020623D01*
X014317Y014953D02*
X014164Y015106D01*
X014164Y014646D01*
X014317Y014646D02*
X014010Y014646D01*
X013857Y014646D02*
X013857Y015106D01*
X013627Y015106D01*
X013550Y015029D01*
X013550Y014876D01*
X013627Y014799D01*
X013857Y014799D01*
X013703Y014799D02*
X013550Y014646D01*
X013396Y014722D02*
X013320Y014646D01*
X013166Y014646D01*
X013089Y014722D01*
X013089Y014799D01*
X013166Y014876D01*
X013243Y014876D01*
X013166Y014876D02*
X013089Y014953D01*
X013089Y015029D01*
X013166Y015106D01*
X013320Y015106D01*
X013396Y015029D01*
X011686Y015021D02*
X011379Y015021D01*
X011226Y015021D02*
X011226Y015481D01*
X010995Y015481D01*
X010919Y015404D01*
X010919Y015251D01*
X010995Y015174D01*
X011226Y015174D01*
X011072Y015174D02*
X010919Y015021D01*
X010765Y015251D02*
X010458Y015251D01*
X010535Y015481D02*
X010765Y015251D01*
X010535Y015021D02*
X010535Y015481D01*
X011533Y015481D02*
X011533Y015021D01*
X011686Y015328D02*
X011533Y015481D01*
X011533Y016771D02*
X011533Y017231D01*
X011686Y017078D01*
X011686Y016771D02*
X011379Y016771D01*
X011226Y016771D02*
X011226Y017231D01*
X010995Y017231D01*
X010919Y017154D01*
X010919Y017001D01*
X010995Y016924D01*
X011226Y016924D01*
X011072Y016924D02*
X010919Y016771D01*
X010765Y016771D02*
X010458Y017078D01*
X010458Y017154D01*
X010535Y017231D01*
X010688Y017231D01*
X010765Y017154D01*
X010765Y016771D02*
X010458Y016771D01*
X010714Y018771D02*
X011021Y018771D01*
X010868Y018771D02*
X010868Y019231D01*
X011021Y019078D01*
X011175Y019154D02*
X011175Y019001D01*
X011252Y018924D01*
X011482Y018924D01*
X011482Y018771D02*
X011482Y019231D01*
X011252Y019231D01*
X011175Y019154D01*
X011328Y018924D02*
X011175Y018771D01*
X011635Y018771D02*
X011942Y018771D01*
X011789Y018771D02*
X011789Y019231D01*
X011942Y019078D01*
D13*
X028418Y021876D03*
X028988Y021876D03*
X033043Y023251D03*
X033613Y023251D03*
X029488Y016751D03*
X028918Y016751D03*
D14*
X012332Y013834D03*
X012332Y014414D03*
X012330Y015463D03*
X012330Y016043D03*
X012332Y017084D03*
X012332Y017664D03*
X012330Y018713D03*
X012330Y019293D03*
X041580Y025025D03*
X041580Y025605D03*
X042332Y020414D03*
X042332Y019834D03*
X043207Y019834D03*
X043207Y020414D03*
D15*
X032338Y018351D02*
X031867Y018392D01*
X032068Y017979D01*
X032338Y018351D01*
D16*
G36*
X032483Y018822D02*
X032464Y018604D01*
X031787Y018664D01*
X031806Y018882D01*
X032483Y018822D01*
G37*
G36*
X032375Y017587D02*
X032356Y017369D01*
X031679Y017429D01*
X031698Y017647D01*
X032375Y017587D01*
G37*
D17*
G36*
X032381Y017998D02*
X032360Y017760D01*
X031743Y017814D01*
X031764Y018052D01*
X032381Y017998D01*
G37*
D18*
X031921Y016751D03*
X031241Y016751D03*
X022921Y022876D03*
X022241Y022876D03*
X021796Y024501D03*
X021116Y024501D03*
X021116Y025376D03*
X021796Y025376D03*
D19*
X042156Y019886D03*
X042156Y015886D03*
D20*
X045316Y019349D02*
X045241Y019424D01*
X045241Y019574D01*
X045316Y019649D01*
X045391Y019649D01*
X045466Y019574D01*
X045466Y019499D01*
X045466Y019574D02*
X045541Y019649D01*
X045616Y019649D01*
X045691Y019574D01*
X045691Y019424D01*
X045616Y019349D01*
X045691Y019809D02*
X045241Y019809D01*
X045391Y019809D02*
X045391Y020034D01*
X045466Y020109D01*
X045616Y020109D01*
X045691Y020034D01*
X045691Y019809D01*
X045391Y019959D02*
X045241Y020109D01*
X045316Y020270D02*
X045241Y020345D01*
X045241Y020495D01*
X045316Y020570D01*
X045391Y020570D01*
X045466Y020495D01*
X045466Y020270D01*
X045316Y020270D01*
X045466Y020270D02*
X045616Y020420D01*
X045691Y020570D01*
D21*
X022206Y021286D03*
X022206Y021966D03*
X019706Y024536D03*
X018706Y024536D03*
X018706Y025216D03*
X019706Y025216D03*
D22*
X027331Y022158D03*
X027331Y021588D03*
X027706Y024968D03*
X027706Y025538D03*
M02*
