G75*
G70*
%OFA0B0*%
%FSLAX24Y24*%
%IPPOS*%
%LPD*%
%AMOC8*
5,1,8,0,0,1.08239X$1,22.5*
%
%ADD10C,0.0060*%
%ADD11R,0.0256X0.0551*%
%ADD12C,0.0040*%
%ADD13R,0.0295X0.0571*%
%ADD14R,0.0551X0.0256*%
%ADD15C,0.0080*%
%ADD16R,0.0220X0.0680*%
%ADD17R,0.0240X0.0620*%
%ADD18R,0.0140X0.0560*%
%ADD19R,0.0740X0.0170*%
%ADD20C,0.0050*%
%ADD21R,0.0560X0.0140*%
%ADD22R,0.0571X0.0295*%
D10*
X008269Y005752D02*
X008269Y006074D01*
X008769Y006074D02*
X008769Y005752D01*
X008769Y007377D02*
X008769Y007699D01*
X008269Y007699D02*
X008269Y007377D01*
X008269Y009002D02*
X008269Y009324D01*
X008769Y009324D02*
X008769Y009002D01*
X008769Y010627D02*
X008769Y010949D01*
X008269Y010949D02*
X008269Y010627D01*
X018144Y013133D02*
X018144Y013693D01*
X018644Y013693D02*
X018644Y013133D01*
X018489Y014413D02*
X019049Y014413D01*
X019049Y014913D02*
X018489Y014913D01*
X017924Y016038D02*
X017364Y016038D01*
X017364Y016538D02*
X017924Y016538D01*
X017924Y016913D02*
X017364Y016913D01*
X017364Y017413D02*
X017924Y017413D01*
X016144Y016943D02*
X016144Y016383D01*
X015644Y016383D02*
X015644Y016943D01*
X015144Y016943D02*
X015144Y016383D01*
X014644Y016383D02*
X014644Y016943D01*
X024732Y014913D02*
X025055Y014913D01*
X025055Y014413D02*
X024732Y014413D01*
X028005Y010458D02*
X027915Y009422D01*
X028532Y009368D02*
X028623Y010404D01*
X028049Y008788D02*
X027489Y008788D01*
X027489Y008288D02*
X028049Y008288D01*
X037994Y007468D02*
X038694Y007468D01*
X038694Y007338D01*
X038344Y007338D01*
X037994Y007338D01*
X037994Y007468D01*
X038344Y007338D02*
X038344Y007088D01*
X038644Y006888D02*
X038644Y006588D01*
X038494Y006738D02*
X038794Y006738D01*
X038344Y007738D02*
X038344Y007938D01*
X038644Y010588D02*
X038644Y010888D01*
X038494Y010738D02*
X038794Y010738D01*
X038344Y011088D02*
X038344Y011338D01*
X038694Y011338D01*
X038694Y011468D01*
X037994Y011468D01*
X037994Y011338D01*
X038344Y011338D01*
X038344Y011738D02*
X038344Y011938D01*
X038269Y012074D02*
X038269Y011752D01*
X038769Y011752D02*
X038769Y012074D01*
X039144Y012074D02*
X039144Y011752D01*
X039644Y011752D02*
X039644Y012074D01*
X036055Y012288D02*
X035732Y012288D01*
X035732Y012788D02*
X036055Y012788D01*
X037732Y014538D02*
X038055Y014538D01*
X038055Y015038D02*
X037732Y015038D01*
X037519Y016939D02*
X037519Y017262D01*
X038019Y017262D02*
X038019Y016939D01*
D11*
X038182Y014787D03*
X037602Y014787D03*
X036182Y012537D03*
X035602Y012537D03*
X025182Y014662D03*
X024602Y014662D03*
D12*
X026277Y014586D02*
X026277Y014510D01*
X026354Y014433D01*
X026507Y014433D01*
X026584Y014510D01*
X026584Y014586D01*
X026507Y014663D01*
X026354Y014663D01*
X026277Y014586D01*
X026354Y014663D02*
X026277Y014740D01*
X026277Y014817D01*
X026354Y014893D01*
X026507Y014893D01*
X026584Y014817D01*
X026584Y014740D01*
X026507Y014663D01*
X026738Y014663D02*
X026814Y014586D01*
X027044Y014586D01*
X026891Y014586D02*
X026738Y014433D01*
X026738Y014663D02*
X026738Y014817D01*
X026814Y014893D01*
X027044Y014893D01*
X027044Y014433D01*
X027198Y014433D02*
X027505Y014433D01*
X027198Y014740D01*
X027198Y014817D01*
X027275Y014893D01*
X027428Y014893D01*
X027505Y014817D01*
X029369Y014778D02*
X029659Y014778D01*
X029669Y015298D02*
X029369Y015298D01*
X029308Y015558D02*
X029231Y015635D01*
X029308Y015558D02*
X029462Y015558D01*
X029538Y015635D01*
X029538Y015942D01*
X029462Y016018D01*
X029308Y016018D01*
X029231Y015942D01*
X029078Y015788D02*
X028771Y015788D01*
X028618Y015788D02*
X028311Y015788D01*
X028311Y015865D02*
X028311Y015558D01*
X028618Y015558D02*
X028618Y015865D01*
X028464Y016018D01*
X028311Y015865D01*
X028848Y016018D02*
X028848Y015558D01*
X029078Y015788D02*
X028848Y016018D01*
X029692Y015942D02*
X029692Y015865D01*
X029999Y015558D01*
X029692Y015558D01*
X029692Y015942D02*
X029769Y016018D01*
X029922Y016018D01*
X029999Y015942D01*
X026215Y017183D02*
X025908Y017490D01*
X025908Y017567D01*
X025985Y017643D01*
X026139Y017643D01*
X026215Y017567D01*
X025755Y017567D02*
X025755Y017260D01*
X025678Y017183D01*
X025525Y017183D01*
X025448Y017260D01*
X025294Y017260D02*
X025294Y017183D01*
X025294Y017260D02*
X024988Y017567D01*
X024988Y017643D01*
X025294Y017643D01*
X025448Y017567D02*
X025525Y017643D01*
X025678Y017643D01*
X025755Y017567D01*
X025908Y017183D02*
X026215Y017183D01*
X024834Y017183D02*
X024834Y017490D01*
X024681Y017643D01*
X024527Y017490D01*
X024527Y017183D01*
X024527Y017413D02*
X024834Y017413D01*
X024154Y017188D02*
X024154Y016888D01*
X023634Y016898D02*
X023634Y017188D01*
X020999Y017192D02*
X020922Y017268D01*
X020769Y017268D01*
X020692Y017192D01*
X020692Y017115D01*
X020999Y016808D01*
X020692Y016808D01*
X020538Y016808D02*
X020538Y017268D01*
X020308Y017268D01*
X020231Y017192D01*
X020231Y017038D01*
X020308Y016961D01*
X020538Y016961D01*
X020385Y016961D02*
X020231Y016808D01*
X020078Y016808D02*
X019771Y016808D01*
X019924Y016808D02*
X019924Y017268D01*
X020078Y017115D01*
X019618Y017038D02*
X019464Y017038D01*
X019618Y016808D02*
X019618Y017268D01*
X019311Y017268D01*
X017124Y015692D02*
X017047Y015768D01*
X016894Y015768D01*
X016817Y015692D01*
X016817Y015615D01*
X017124Y015308D01*
X016817Y015308D01*
X016663Y015308D02*
X016663Y015768D01*
X016433Y015768D01*
X016356Y015692D01*
X016356Y015538D01*
X016433Y015461D01*
X016663Y015461D01*
X016510Y015461D02*
X016356Y015308D01*
X016203Y015308D02*
X015896Y015308D01*
X016049Y015308D02*
X016049Y015768D01*
X016203Y015615D01*
X015743Y015768D02*
X015512Y015768D01*
X015436Y015692D01*
X015436Y015385D01*
X015512Y015308D01*
X015743Y015308D01*
X015743Y015768D01*
X015124Y015692D02*
X015047Y015768D01*
X014894Y015768D01*
X014817Y015692D01*
X014817Y015615D01*
X015124Y015308D01*
X014817Y015308D01*
X014663Y015308D02*
X014663Y015768D01*
X014433Y015768D01*
X014356Y015692D01*
X014356Y015538D01*
X014433Y015461D01*
X014663Y015461D01*
X014510Y015461D02*
X014356Y015308D01*
X014203Y015308D02*
X013896Y015308D01*
X014049Y015308D02*
X014049Y015768D01*
X014203Y015615D01*
X013743Y015692D02*
X013743Y015385D01*
X013666Y015308D01*
X013512Y015308D01*
X013436Y015385D01*
X013436Y015692D02*
X013512Y015768D01*
X013666Y015768D01*
X013743Y015692D01*
X016277Y014067D02*
X016277Y013990D01*
X016354Y013913D01*
X016584Y013913D01*
X016584Y013683D02*
X016584Y014143D01*
X016354Y014143D01*
X016277Y014067D01*
X016354Y013913D02*
X016277Y013836D01*
X016277Y013760D01*
X016354Y013683D01*
X016584Y013683D01*
X016738Y013683D02*
X017044Y013683D01*
X016891Y013683D02*
X016891Y014143D01*
X017044Y013990D01*
X017198Y014067D02*
X017198Y013913D01*
X017275Y013836D01*
X017505Y013836D01*
X017505Y013683D02*
X017505Y014143D01*
X017275Y014143D01*
X017198Y014067D01*
X017658Y014067D02*
X017735Y014143D01*
X017889Y014143D01*
X017965Y014067D01*
X017658Y014067D02*
X017658Y013990D01*
X017965Y013683D01*
X017658Y013683D01*
X017351Y013836D02*
X017198Y013683D01*
X019152Y013490D02*
X019152Y013183D01*
X019152Y013413D02*
X019459Y013413D01*
X019459Y013490D02*
X019306Y013643D01*
X019152Y013490D01*
X019459Y013490D02*
X019459Y013183D01*
X019613Y013183D02*
X019919Y013183D01*
X019766Y013183D02*
X019766Y013643D01*
X019919Y013490D01*
X020073Y013567D02*
X020073Y013413D01*
X020150Y013336D01*
X020380Y013336D01*
X020380Y013183D02*
X020380Y013643D01*
X020150Y013643D01*
X020073Y013567D01*
X020226Y013336D02*
X020073Y013183D01*
X020533Y013183D02*
X020840Y013183D01*
X020533Y013490D01*
X020533Y013567D01*
X020610Y013643D01*
X020764Y013643D01*
X020840Y013567D01*
X021186Y013115D02*
X021339Y013268D01*
X021493Y013115D01*
X021493Y012808D01*
X021646Y012885D02*
X021646Y013038D01*
X021723Y013115D01*
X021799Y013115D01*
X021953Y013038D01*
X021953Y013268D01*
X021646Y013268D01*
X021493Y013038D02*
X021186Y013038D01*
X021186Y013115D02*
X021186Y012808D01*
X021646Y012885D02*
X021723Y012808D01*
X021876Y012808D01*
X021953Y012885D01*
X022106Y012885D02*
X022183Y012808D01*
X022337Y012808D01*
X022413Y012885D01*
X022413Y013192D01*
X022337Y013268D01*
X022183Y013268D01*
X022106Y013192D01*
X022567Y013192D02*
X022567Y013115D01*
X022874Y012808D01*
X022567Y012808D01*
X022567Y013192D02*
X022644Y013268D01*
X022797Y013268D01*
X022874Y013192D01*
X023259Y013513D02*
X023259Y013813D01*
X023779Y013803D02*
X023779Y013513D01*
X024744Y013403D02*
X025034Y013403D01*
X025044Y013923D02*
X024744Y013923D01*
X022749Y014183D02*
X022442Y014490D01*
X022442Y014567D01*
X022519Y014643D01*
X022672Y014643D01*
X022749Y014567D01*
X022288Y014567D02*
X022288Y014260D01*
X022212Y014183D01*
X022058Y014183D01*
X021981Y014260D01*
X021828Y014260D02*
X021751Y014183D01*
X021598Y014183D01*
X021521Y014260D01*
X021521Y014336D01*
X021598Y014413D01*
X021828Y014413D01*
X021828Y014260D01*
X021828Y014413D02*
X021674Y014567D01*
X021521Y014643D01*
X021981Y014567D02*
X022058Y014643D01*
X022212Y014643D01*
X022288Y014567D01*
X022442Y014183D02*
X022749Y014183D01*
X021499Y015058D02*
X021192Y015365D01*
X021192Y015442D01*
X021269Y015518D01*
X021422Y015518D01*
X021499Y015442D01*
X021038Y015518D02*
X020808Y015518D01*
X020731Y015442D01*
X020731Y015288D01*
X020808Y015211D01*
X021038Y015211D01*
X021038Y015058D02*
X021038Y015518D01*
X020885Y015211D02*
X020731Y015058D01*
X020578Y015058D02*
X020271Y015058D01*
X020424Y015058D02*
X020424Y015518D01*
X020578Y015365D01*
X020118Y015288D02*
X019964Y015288D01*
X020118Y015058D02*
X019811Y015058D01*
X020118Y015058D02*
X020118Y015518D01*
X019811Y015518D01*
X021192Y015058D02*
X021499Y015058D01*
X031034Y010318D02*
X031117Y010388D01*
X031034Y010318D02*
X031021Y010165D01*
X031091Y010082D01*
X031167Y010076D01*
X031499Y010355D01*
X031473Y010049D01*
X031306Y009909D02*
X031446Y009743D01*
X031280Y009604D01*
X030974Y009630D01*
X030961Y009478D02*
X030941Y009248D01*
X031010Y009165D01*
X031316Y009138D01*
X031399Y009208D01*
X031419Y009437D01*
X030961Y009478D01*
X031073Y009005D02*
X030907Y008866D01*
X031366Y008826D01*
X031379Y008979D02*
X031352Y008673D01*
X028374Y007942D02*
X028297Y008018D01*
X028144Y008018D01*
X028067Y007942D01*
X028067Y007865D01*
X028374Y007558D01*
X028067Y007558D01*
X027913Y007558D02*
X027913Y008018D01*
X027683Y008018D01*
X027606Y007942D01*
X027606Y007788D01*
X027683Y007711D01*
X027913Y007711D01*
X027760Y007711D02*
X027606Y007558D01*
X027453Y007788D02*
X027146Y007788D01*
X027223Y007558D02*
X027223Y008018D01*
X027453Y007788D01*
X025534Y008278D02*
X025244Y008278D01*
X025244Y008798D02*
X025544Y008798D01*
X025391Y006893D02*
X025391Y006433D01*
X025544Y006433D02*
X025238Y006433D01*
X025084Y006433D02*
X024777Y006740D01*
X024777Y006817D01*
X024854Y006893D01*
X025007Y006893D01*
X025084Y006817D01*
X025391Y006893D02*
X025544Y006740D01*
X025698Y006817D02*
X025775Y006893D01*
X025928Y006893D01*
X026005Y006817D01*
X026005Y006510D01*
X025928Y006433D01*
X025775Y006433D01*
X025698Y006510D01*
X026158Y006433D02*
X026465Y006433D01*
X026158Y006740D01*
X026158Y006817D01*
X026235Y006893D01*
X026389Y006893D01*
X026465Y006817D01*
X025084Y006433D02*
X024777Y006433D01*
X031001Y009936D02*
X031306Y009909D01*
X034561Y011510D02*
X034637Y011433D01*
X034791Y011433D01*
X034868Y011510D01*
X034868Y011663D01*
X034637Y011663D01*
X034561Y011586D01*
X034561Y011510D01*
X034714Y011817D02*
X034868Y011663D01*
X034714Y011817D02*
X034561Y011893D01*
X035174Y011893D02*
X035174Y011433D01*
X035021Y011433D02*
X035328Y011433D01*
X035481Y011433D02*
X035635Y011586D01*
X035558Y011586D02*
X035788Y011586D01*
X035788Y011433D02*
X035788Y011893D01*
X035558Y011893D01*
X035481Y011817D01*
X035481Y011663D01*
X035558Y011586D01*
X035328Y011740D02*
X035174Y011893D01*
X035942Y011817D02*
X036019Y011893D01*
X036172Y011893D01*
X036249Y011817D01*
X035942Y011817D02*
X035942Y011740D01*
X036249Y011433D01*
X035942Y011433D01*
X040039Y011413D02*
X040039Y011260D01*
X040115Y011183D01*
X040269Y011336D02*
X040269Y011413D01*
X040192Y011490D01*
X040115Y011490D01*
X040039Y011413D01*
X040269Y011413D02*
X040346Y011490D01*
X040422Y011490D01*
X040499Y011413D01*
X040499Y011260D01*
X040422Y011183D01*
X040499Y011643D02*
X040039Y011643D01*
X040192Y011643D02*
X040192Y011874D01*
X040269Y011950D01*
X040422Y011950D01*
X040499Y011874D01*
X040499Y011643D01*
X040192Y011797D02*
X040039Y011950D01*
X040039Y012104D02*
X040115Y012104D01*
X040422Y012411D01*
X040499Y012411D01*
X040499Y012104D01*
X039547Y013808D02*
X039624Y013885D01*
X039624Y014038D01*
X039547Y014115D01*
X039471Y014115D01*
X039164Y013808D01*
X039164Y014115D01*
X039164Y014268D02*
X039624Y014268D01*
X039624Y014499D01*
X039547Y014575D01*
X039394Y014575D01*
X039317Y014499D01*
X039317Y014268D01*
X039317Y014422D02*
X039164Y014575D01*
X039164Y014729D02*
X039164Y015036D01*
X039164Y014882D02*
X039624Y014882D01*
X039471Y014729D01*
X039394Y015189D02*
X039394Y015496D01*
X039624Y015419D02*
X039394Y015189D01*
X039164Y015419D02*
X039624Y015419D01*
X039567Y017183D02*
X039567Y017643D01*
X039337Y017643D01*
X039260Y017567D01*
X039260Y017413D01*
X039337Y017336D01*
X039567Y017336D01*
X039414Y017336D02*
X039260Y017183D01*
X039107Y017183D02*
X038800Y017183D01*
X038647Y017183D02*
X038340Y017490D01*
X038340Y017567D01*
X038416Y017643D01*
X038570Y017643D01*
X038647Y017567D01*
X038954Y017643D02*
X039107Y017490D01*
X038954Y017643D02*
X038954Y017183D01*
X038647Y017183D02*
X038340Y017183D01*
X039721Y017183D02*
X040028Y017183D01*
X039721Y017490D01*
X039721Y017567D01*
X039798Y017643D01*
X039951Y017643D01*
X040028Y017567D01*
X010505Y006740D02*
X010351Y006893D01*
X010351Y006433D01*
X010198Y006433D02*
X010505Y006433D01*
X010044Y006433D02*
X010044Y006893D01*
X009814Y006893D01*
X009738Y006817D01*
X009738Y006663D01*
X009814Y006586D01*
X010044Y006586D01*
X009891Y006586D02*
X009738Y006433D01*
X009584Y006510D02*
X009507Y006433D01*
X009354Y006433D01*
X009277Y006510D01*
X009277Y006586D01*
X009354Y006663D01*
X009431Y006663D01*
X009354Y006663D02*
X009277Y006740D01*
X009277Y006817D01*
X009354Y006893D01*
X009507Y006893D01*
X009584Y006817D01*
X007874Y006808D02*
X007567Y006808D01*
X007720Y006808D02*
X007720Y007268D01*
X007874Y007115D01*
X007413Y007268D02*
X007413Y006808D01*
X007413Y006961D02*
X007183Y006961D01*
X007106Y007038D01*
X007106Y007192D01*
X007183Y007268D01*
X007413Y007268D01*
X007260Y006961D02*
X007106Y006808D01*
X006953Y007038D02*
X006646Y007038D01*
X006723Y006808D02*
X006723Y007268D01*
X006953Y007038D01*
X006953Y008558D02*
X006646Y008558D01*
X006953Y008558D02*
X006646Y008865D01*
X006646Y008942D01*
X006723Y009018D01*
X006876Y009018D01*
X006953Y008942D01*
X007106Y008942D02*
X007106Y008788D01*
X007183Y008711D01*
X007413Y008711D01*
X007413Y008558D02*
X007413Y009018D01*
X007183Y009018D01*
X007106Y008942D01*
X007260Y008711D02*
X007106Y008558D01*
X007567Y008558D02*
X007874Y008558D01*
X007720Y008558D02*
X007720Y009018D01*
X007874Y008865D01*
X007823Y010558D02*
X008130Y010558D01*
X007976Y010558D02*
X007976Y011018D01*
X008130Y010865D01*
X007669Y011018D02*
X007439Y011018D01*
X007363Y010942D01*
X007363Y010788D01*
X007439Y010711D01*
X007669Y010711D01*
X007516Y010711D02*
X007363Y010558D01*
X007209Y010558D02*
X006902Y010558D01*
X007056Y010558D02*
X007056Y011018D01*
X007209Y010865D01*
X007669Y011018D02*
X007669Y010558D01*
D13*
X024606Y013663D03*
X025176Y013663D03*
X029231Y015038D03*
X029801Y015038D03*
X025676Y008538D03*
X025106Y008538D03*
D14*
X008519Y005621D03*
X008519Y006201D03*
X008518Y007250D03*
X008518Y007830D03*
X008519Y008871D03*
X008519Y009451D03*
X008518Y010500D03*
X008518Y011080D03*
X037768Y016813D03*
X037768Y017393D03*
X038519Y012201D03*
X039394Y012201D03*
X039394Y011621D03*
X038519Y011621D03*
D15*
X028526Y010138D02*
X028055Y010179D01*
X028256Y009767D01*
X028526Y010138D01*
D16*
G36*
X028671Y010610D02*
X028652Y010392D01*
X027975Y010452D01*
X027994Y010670D01*
X028671Y010610D01*
G37*
G36*
X028563Y009374D02*
X028544Y009156D01*
X027867Y009216D01*
X027886Y009434D01*
X028563Y009374D01*
G37*
D17*
G36*
X028569Y009786D02*
X028548Y009548D01*
X027931Y009602D01*
X027952Y009840D01*
X028569Y009786D01*
G37*
D18*
X028109Y008538D03*
X027429Y008538D03*
X019109Y014663D03*
X018429Y014663D03*
X017984Y016288D03*
X017304Y016288D03*
X017304Y017163D03*
X017984Y017163D03*
D19*
X038344Y011673D03*
X038344Y007673D03*
D20*
X041504Y011136D02*
X041429Y011211D01*
X041429Y011361D01*
X041504Y011436D01*
X041579Y011436D01*
X041654Y011361D01*
X041654Y011286D01*
X041654Y011361D02*
X041729Y011436D01*
X041804Y011436D01*
X041879Y011361D01*
X041879Y011211D01*
X041804Y011136D01*
X041879Y011597D02*
X041429Y011597D01*
X041579Y011597D02*
X041579Y011822D01*
X041654Y011897D01*
X041804Y011897D01*
X041879Y011822D01*
X041879Y011597D01*
X041579Y011747D02*
X041429Y011897D01*
X041504Y012057D02*
X041429Y012132D01*
X041429Y012282D01*
X041504Y012357D01*
X041579Y012357D01*
X041654Y012282D01*
X041654Y012057D01*
X041504Y012057D01*
X041654Y012057D02*
X041804Y012207D01*
X041879Y012357D01*
D21*
X018394Y013073D03*
X018394Y013753D03*
X015894Y016323D03*
X014894Y016323D03*
X014894Y017003D03*
X015894Y017003D03*
D22*
X023894Y016756D03*
X023894Y017326D03*
X023518Y013945D03*
X023518Y013375D03*
M02*
