G75*
G70*
%OFA0B0*%
%FSLAX24Y24*%
%IPPOS*%
%LPD*%
%AMOC8*
5,1,8,0,0,1.08239X$1,22.5*
%
%ADD10C,0.0051*%
%ADD11C,0.0110*%
%ADD12C,0.0060*%
%ADD13C,0.0240*%
%ADD14R,0.0340X0.0240*%
%ADD15C,0.0120*%
%ADD16R,0.1000X0.0200*%
%ADD17C,0.0200*%
%ADD18R,0.0200X0.0800*%
%ADD19R,0.0250X0.0200*%
%ADD20R,0.0240X0.0340*%
%ADD21C,0.0030*%
%ADD22R,0.0740X0.0170*%
%ADD23C,0.0050*%
%ADD24C,0.0100*%
%ADD25R,0.4160X0.0560*%
%ADD26C,0.0160*%
%ADD27C,0.0020*%
%ADD28R,0.0150X0.1600*%
%ADD29R,0.0250X0.0450*%
%ADD30R,0.0250X0.1600*%
%ADD31R,0.0500X0.0200*%
%ADD32R,0.1750X0.0200*%
%ADD33R,0.3200X0.0200*%
%ADD34R,0.0100X0.0050*%
%ADD35R,0.1250X0.0050*%
%ADD36R,0.1600X0.0200*%
%ADD37R,0.0750X0.0200*%
%ADD38C,0.0300*%
%ADD39R,0.0300X0.0750*%
%ADD40R,0.0200X0.1000*%
%ADD41R,0.0750X0.0300*%
%ADD42C,0.0320*%
%ADD43R,0.0220X0.0320*%
%ADD44R,0.0150X0.0200*%
%ADD45R,0.0300X0.0550*%
%ADD46R,0.0200X0.0200*%
%ADD47C,0.0200*%
%ADD48R,0.4200X0.0300*%
%ADD49R,0.0700X0.0200*%
%ADD50R,0.1300X0.0200*%
D10*
X003673Y000126D02*
X003673Y032413D01*
X003673Y031626D02*
X004696Y031523D01*
X004696Y031500D02*
X003673Y031626D01*
X004696Y031728D01*
X004696Y031751D02*
X004696Y031500D01*
X004696Y031574D02*
X003673Y031626D01*
X004696Y031677D01*
X004696Y031751D02*
X003673Y031626D01*
X044798Y031626D01*
X043774Y031523D01*
X043774Y031500D02*
X044798Y031626D01*
X043774Y031728D01*
X043774Y031751D02*
X043774Y031500D01*
X043774Y031574D02*
X044798Y031626D01*
X043774Y031677D01*
X043774Y031751D02*
X044798Y031626D01*
X044798Y032413D02*
X044798Y001001D01*
X046298Y007838D02*
X046298Y010001D01*
X047548Y011001D02*
X049585Y011001D01*
X048798Y011001D02*
X048900Y012024D01*
X048924Y012024D02*
X048798Y011001D01*
X048695Y012024D01*
X048672Y012024D02*
X048924Y012024D01*
X048849Y012024D02*
X048798Y011001D01*
X048747Y012024D01*
X048672Y012024D02*
X048798Y011001D01*
X048798Y026751D01*
X048900Y025727D01*
X048924Y025727D02*
X048798Y026751D01*
X048695Y025727D01*
X048672Y025727D02*
X048924Y025727D01*
X048849Y025727D02*
X048798Y026751D01*
X048747Y025727D01*
X048672Y025727D02*
X048798Y026751D01*
X049585Y026751D02*
X047423Y026751D01*
X045274Y008751D02*
X045274Y008500D01*
X046298Y008626D01*
X045274Y008523D01*
X045274Y008574D02*
X046298Y008626D01*
X045274Y008728D01*
X045274Y008751D02*
X046298Y008626D01*
X045274Y008677D01*
X046298Y008626D02*
X002173Y008626D01*
X003196Y008523D01*
X003196Y008500D02*
X002173Y008626D01*
X003196Y008728D01*
X003196Y008751D02*
X003196Y008500D01*
X003196Y008574D02*
X002173Y008626D01*
X003196Y008677D01*
X003196Y008751D02*
X002173Y008626D01*
X002173Y007838D02*
X002173Y010126D01*
X002173Y007376D02*
X002173Y004963D01*
X002173Y005751D02*
X001149Y005648D01*
X001149Y005625D02*
X002173Y005751D01*
X001149Y005853D01*
X001149Y005876D02*
X001149Y005625D01*
X001149Y005699D02*
X002173Y005751D01*
X001149Y005802D01*
X001149Y005876D02*
X002173Y005751D01*
X000126Y005751D01*
X003673Y005751D02*
X004696Y005648D01*
X004696Y005625D02*
X003673Y005751D01*
X004696Y005853D01*
X004696Y005876D02*
X004696Y005625D01*
X004696Y005699D02*
X003673Y005751D01*
X004696Y005802D01*
X004696Y005876D02*
X003673Y005751D01*
X008534Y005751D01*
X003673Y004963D02*
X003673Y013751D01*
D11*
X004963Y007468D02*
X005386Y007468D01*
X005597Y007257D01*
X005597Y007045D01*
X005386Y006834D01*
X005597Y006622D01*
X005597Y006411D01*
X005386Y006199D01*
X004963Y006199D01*
X004751Y006411D01*
X005174Y006834D02*
X005386Y006834D01*
X004751Y007257D02*
X004963Y007468D01*
X006020Y006411D02*
X006232Y006411D01*
X006232Y006199D01*
X006020Y006199D01*
X006020Y006411D01*
X006655Y006411D02*
X006655Y006622D01*
X006866Y006834D01*
X007289Y006834D01*
X007501Y006622D01*
X007501Y006411D01*
X007289Y006199D01*
X006866Y006199D01*
X006655Y006411D01*
X006866Y006834D02*
X006655Y007045D01*
X006655Y007257D01*
X006866Y007468D01*
X007289Y007468D01*
X007501Y007257D01*
X007501Y007045D01*
X007289Y006834D01*
X007923Y007045D02*
X008346Y007468D01*
X008346Y006199D01*
X007923Y006199D02*
X008769Y006199D01*
X021215Y009074D02*
X022062Y009074D01*
X022484Y009074D02*
X023330Y009074D01*
X022907Y009074D02*
X022907Y010343D01*
X022484Y009920D01*
X021638Y010343D02*
X021638Y009074D01*
X021215Y009920D02*
X021638Y010343D01*
X023753Y010132D02*
X023965Y010343D01*
X024388Y010343D01*
X024599Y010132D01*
X024599Y009920D01*
X023753Y009074D01*
X024599Y009074D01*
X025022Y009074D02*
X025022Y009286D01*
X025233Y009286D01*
X025233Y009074D01*
X025022Y009074D01*
X025656Y009286D02*
X026502Y010132D01*
X026502Y009286D01*
X026291Y009074D01*
X025868Y009074D01*
X025656Y009286D01*
X025656Y010132D01*
X025868Y010343D01*
X026291Y010343D01*
X026502Y010132D01*
X026925Y010132D02*
X027137Y010343D01*
X027560Y010343D01*
X027771Y010132D01*
X027771Y009920D01*
X027560Y009709D01*
X027137Y009709D01*
X026925Y009920D01*
X026925Y010132D01*
X027137Y009709D02*
X026925Y009497D01*
X026925Y009286D01*
X027137Y009074D01*
X027560Y009074D01*
X027771Y009286D01*
X027771Y009497D01*
X027560Y009709D01*
X047080Y017098D02*
X047715Y016464D01*
X047715Y017310D01*
X048349Y017098D02*
X047080Y017098D01*
X047292Y017732D02*
X047080Y017944D01*
X047080Y018367D01*
X047292Y018579D01*
X048138Y017732D01*
X048349Y017944D01*
X048349Y018367D01*
X048138Y018579D01*
X047292Y018579D01*
X048138Y019001D02*
X048138Y019213D01*
X048349Y019213D01*
X048349Y019001D01*
X048138Y019001D01*
X048138Y019636D02*
X047292Y019636D01*
X047080Y019847D01*
X047080Y020270D01*
X047292Y020482D01*
X048138Y019636D01*
X048349Y019847D01*
X048349Y020270D01*
X048138Y020482D01*
X047292Y020482D01*
X047503Y020904D02*
X047080Y021327D01*
X048349Y021327D01*
X048349Y020904D02*
X048349Y021751D01*
X048138Y017732D02*
X047292Y017732D01*
X027831Y032286D02*
X027619Y032074D01*
X027196Y032074D01*
X026985Y032286D01*
X026985Y032709D01*
X027619Y032709D01*
X027831Y032497D01*
X027831Y032286D01*
X027408Y033132D02*
X026985Y032709D01*
X026562Y032709D02*
X025716Y032709D01*
X026351Y033343D01*
X026351Y032074D01*
X025293Y032074D02*
X025082Y032074D01*
X025082Y032286D01*
X025293Y032286D01*
X025293Y032074D01*
X024447Y032074D02*
X024447Y033343D01*
X023813Y032709D01*
X024659Y032709D01*
X023390Y033132D02*
X023390Y032286D01*
X023179Y032074D01*
X022756Y032074D01*
X022544Y032286D01*
X023390Y033132D01*
X023179Y033343D01*
X022756Y033343D01*
X022544Y033132D01*
X022544Y032286D01*
X022121Y032074D02*
X021275Y032074D01*
X021698Y032074D02*
X021698Y033343D01*
X021275Y032920D01*
X027408Y033132D02*
X027831Y033343D01*
D12*
X026448Y026451D02*
X026298Y026451D01*
X026248Y026401D01*
X024348Y026401D01*
X024298Y026451D01*
X024148Y026451D01*
X024131Y026449D01*
X024114Y026445D01*
X024098Y026438D01*
X024084Y026428D01*
X024071Y026415D01*
X024061Y026401D01*
X024054Y026385D01*
X024050Y026368D01*
X024048Y026351D01*
X024048Y025651D01*
X024050Y025634D01*
X024054Y025617D01*
X024061Y025601D01*
X024071Y025587D01*
X024084Y025574D01*
X024098Y025564D01*
X024114Y025557D01*
X024131Y025553D01*
X024148Y025551D01*
X024298Y025551D01*
X024348Y025601D01*
X026248Y025601D01*
X026298Y025551D01*
X026448Y025551D01*
X026465Y025553D01*
X026482Y025557D01*
X026498Y025564D01*
X026512Y025574D01*
X026525Y025587D01*
X026535Y025601D01*
X026542Y025617D01*
X026546Y025634D01*
X026548Y025651D01*
X026548Y026351D01*
X026546Y026368D01*
X026542Y026385D01*
X026535Y026401D01*
X026525Y026415D01*
X026512Y026428D01*
X026498Y026438D01*
X026482Y026445D01*
X026465Y026449D01*
X026448Y026451D01*
X027423Y025476D02*
X027423Y024776D01*
X027425Y024759D01*
X027429Y024742D01*
X027436Y024726D01*
X027446Y024712D01*
X027459Y024699D01*
X027473Y024689D01*
X027489Y024682D01*
X027506Y024678D01*
X027523Y024676D01*
X027673Y024676D01*
X027723Y024726D01*
X029623Y024726D01*
X029673Y024676D01*
X029823Y024676D01*
X029840Y024678D01*
X029857Y024682D01*
X029873Y024689D01*
X029887Y024699D01*
X029900Y024712D01*
X029910Y024726D01*
X029917Y024742D01*
X029921Y024759D01*
X029923Y024776D01*
X029923Y025476D01*
X029921Y025493D01*
X029917Y025510D01*
X029910Y025526D01*
X029900Y025540D01*
X029887Y025553D01*
X029873Y025563D01*
X029857Y025570D01*
X029840Y025574D01*
X029823Y025576D01*
X029673Y025576D01*
X029623Y025526D01*
X027723Y025526D01*
X027673Y025576D01*
X027523Y025576D01*
X027506Y025574D01*
X027489Y025570D01*
X027473Y025563D01*
X027459Y025553D01*
X027446Y025540D01*
X027436Y025526D01*
X027429Y025510D01*
X027425Y025493D01*
X027423Y025476D01*
X028673Y023776D02*
X028673Y023026D01*
X028723Y022851D02*
X028723Y023651D01*
X028725Y023668D01*
X028729Y023685D01*
X028736Y023701D01*
X028746Y023715D01*
X028759Y023728D01*
X028773Y023738D01*
X028789Y023745D01*
X028806Y023749D01*
X028823Y023751D01*
X031523Y023751D01*
X031540Y023749D01*
X031557Y023745D01*
X031573Y023738D01*
X031587Y023728D01*
X031600Y023715D01*
X031610Y023701D01*
X031617Y023685D01*
X031621Y023668D01*
X031623Y023651D01*
X031623Y022851D01*
X031621Y022834D01*
X031617Y022817D01*
X031610Y022801D01*
X031600Y022787D01*
X031587Y022774D01*
X031573Y022764D01*
X031557Y022757D01*
X031540Y022753D01*
X031523Y022751D01*
X028823Y022751D01*
X028806Y022753D01*
X028789Y022757D01*
X028773Y022764D01*
X028759Y022774D01*
X028746Y022787D01*
X028736Y022801D01*
X028729Y022817D01*
X028725Y022834D01*
X028723Y022851D01*
X028673Y023026D02*
X028634Y023024D01*
X028595Y023018D01*
X028557Y023009D01*
X028520Y022996D01*
X028484Y022979D01*
X028451Y022959D01*
X028419Y022935D01*
X028390Y022909D01*
X028364Y022880D01*
X028340Y022848D01*
X028320Y022815D01*
X028303Y022779D01*
X028290Y022742D01*
X028281Y022704D01*
X028275Y022665D01*
X028273Y022626D01*
X028275Y022587D01*
X028281Y022548D01*
X028290Y022510D01*
X028303Y022473D01*
X028320Y022437D01*
X028340Y022404D01*
X028364Y022372D01*
X028390Y022343D01*
X028419Y022317D01*
X028451Y022293D01*
X028484Y022273D01*
X028520Y022256D01*
X028557Y022243D01*
X028595Y022234D01*
X028634Y022228D01*
X028673Y022226D01*
X028673Y021476D01*
X024673Y021476D01*
X024673Y023776D01*
X028673Y023776D01*
X029573Y023251D02*
X030043Y023251D01*
X030293Y023251D02*
X030773Y023251D01*
X031898Y021601D02*
X035698Y021601D01*
X035715Y021599D01*
X035732Y021595D01*
X035748Y021588D01*
X035762Y021578D01*
X035775Y021565D01*
X035785Y021551D01*
X035792Y021535D01*
X035796Y021518D01*
X035798Y021501D01*
X035798Y020501D01*
X035796Y020484D01*
X035792Y020467D01*
X035785Y020451D01*
X035775Y020437D01*
X035762Y020424D01*
X035748Y020414D01*
X035732Y020407D01*
X035715Y020403D01*
X035698Y020401D01*
X031898Y020401D01*
X031881Y020403D01*
X031864Y020407D01*
X031848Y020414D01*
X031834Y020424D01*
X031821Y020437D01*
X031811Y020451D01*
X031804Y020467D01*
X031800Y020484D01*
X031798Y020501D01*
X031798Y021501D01*
X031800Y021518D01*
X031804Y021535D01*
X031811Y021551D01*
X031821Y021565D01*
X031834Y021578D01*
X031848Y021588D01*
X031864Y021595D01*
X031881Y021599D01*
X031898Y021601D01*
X032798Y021001D02*
X033598Y021001D01*
X033998Y021001D02*
X034798Y021001D01*
X037023Y021580D02*
X037023Y021738D01*
X037573Y021801D02*
X037573Y023450D01*
X037023Y023513D02*
X037023Y023671D01*
X037723Y023001D02*
X037773Y023051D01*
X037773Y024951D01*
X037723Y025001D01*
X037723Y025151D01*
X037725Y025168D01*
X037729Y025185D01*
X037736Y025201D01*
X037746Y025215D01*
X037759Y025228D01*
X037773Y025238D01*
X037789Y025245D01*
X037806Y025249D01*
X037823Y025251D01*
X038523Y025251D01*
X038540Y025249D01*
X038557Y025245D01*
X038573Y025238D01*
X038587Y025228D01*
X038600Y025215D01*
X038610Y025201D01*
X038617Y025185D01*
X038621Y025168D01*
X038623Y025151D01*
X038623Y025001D01*
X038573Y024951D01*
X038573Y023051D01*
X038623Y023001D01*
X038623Y022851D01*
X038621Y022834D01*
X038617Y022817D01*
X038610Y022801D01*
X038600Y022787D01*
X038587Y022774D01*
X038573Y022764D01*
X038557Y022757D01*
X038540Y022753D01*
X038523Y022751D01*
X037823Y022751D01*
X037806Y022753D01*
X037789Y022757D01*
X037773Y022764D01*
X037759Y022774D01*
X037746Y022787D01*
X037736Y022801D01*
X037729Y022817D01*
X037725Y022834D01*
X037723Y022851D01*
X037723Y023001D01*
X037573Y023451D02*
X037522Y023488D01*
X037469Y023523D01*
X037413Y023555D01*
X037356Y023583D01*
X037297Y023607D01*
X037237Y023628D01*
X037176Y023645D01*
X037114Y023659D01*
X037051Y023668D01*
X036988Y023674D01*
X036924Y023676D01*
X036860Y023674D01*
X036797Y023668D01*
X036734Y023659D01*
X036672Y023646D01*
X036611Y023628D01*
X036551Y023608D01*
X036492Y023583D01*
X036435Y023556D01*
X036379Y023524D01*
X036326Y023490D01*
X036275Y023452D01*
X036226Y023411D01*
X036180Y023367D01*
X036136Y023321D01*
X036095Y023272D01*
X036058Y023221D01*
X036023Y023167D01*
X035992Y023112D01*
X035964Y023055D01*
X035940Y022996D01*
X035920Y022936D01*
X035323Y023751D02*
X034573Y023751D01*
X034571Y023790D01*
X034565Y023829D01*
X034556Y023867D01*
X034543Y023904D01*
X034526Y023940D01*
X034506Y023973D01*
X034482Y024005D01*
X034456Y024034D01*
X034427Y024060D01*
X034395Y024084D01*
X034362Y024104D01*
X034326Y024121D01*
X034289Y024134D01*
X034251Y024143D01*
X034212Y024149D01*
X034173Y024151D01*
X034134Y024149D01*
X034095Y024143D01*
X034057Y024134D01*
X034020Y024121D01*
X033984Y024104D01*
X033951Y024084D01*
X033919Y024060D01*
X033890Y024034D01*
X033864Y024005D01*
X033840Y023973D01*
X033820Y023940D01*
X033803Y023904D01*
X033790Y023867D01*
X033781Y023829D01*
X033775Y023790D01*
X033773Y023751D01*
X033023Y023751D01*
X033023Y025751D01*
X035323Y025751D01*
X035323Y023751D01*
X035920Y022936D02*
X035903Y022875D01*
X035890Y022814D01*
X035881Y022751D01*
X035875Y022689D01*
X035873Y022626D01*
X035875Y022563D01*
X035881Y022501D01*
X035890Y022438D01*
X035903Y022377D01*
X035920Y022316D01*
X035940Y022256D01*
X035964Y022197D01*
X035992Y022140D01*
X036023Y022085D01*
X036058Y022031D01*
X036095Y021980D01*
X036136Y021931D01*
X036180Y021885D01*
X036226Y021841D01*
X036275Y021800D01*
X036326Y021762D01*
X036379Y021728D01*
X036435Y021697D01*
X036492Y021669D01*
X036551Y021644D01*
X036611Y021624D01*
X036672Y021606D01*
X036734Y021593D01*
X036797Y021584D01*
X036860Y021578D01*
X036924Y021576D01*
X036988Y021578D01*
X037051Y021584D01*
X037114Y021593D01*
X037176Y021607D01*
X037237Y021624D01*
X037297Y021645D01*
X037356Y021669D01*
X037413Y021697D01*
X037469Y021729D01*
X037522Y021764D01*
X037573Y021801D01*
X037773Y021451D02*
X038573Y021451D01*
X038590Y021449D01*
X038607Y021445D01*
X038623Y021438D01*
X038637Y021428D01*
X038650Y021415D01*
X038660Y021401D01*
X038667Y021385D01*
X038671Y021368D01*
X038673Y021351D01*
X038673Y018651D01*
X038671Y018634D01*
X038667Y018617D01*
X038660Y018601D01*
X038650Y018587D01*
X038637Y018574D01*
X038623Y018564D01*
X038607Y018557D01*
X038590Y018553D01*
X038573Y018551D01*
X037773Y018551D01*
X037756Y018553D01*
X037739Y018557D01*
X037723Y018564D01*
X037709Y018574D01*
X037696Y018587D01*
X037686Y018601D01*
X037679Y018617D01*
X037675Y018634D01*
X037673Y018651D01*
X037673Y021351D01*
X037675Y021368D01*
X037679Y021385D01*
X037686Y021401D01*
X037696Y021415D01*
X037709Y021428D01*
X037723Y021438D01*
X037739Y021445D01*
X037756Y021449D01*
X037773Y021451D01*
X038173Y020601D02*
X038173Y020131D01*
X038173Y019881D02*
X038173Y019401D01*
X042873Y018605D02*
X043186Y017746D01*
X043193Y017730D01*
X043203Y017716D01*
X043216Y017703D01*
X043230Y017693D01*
X043246Y017686D01*
X043263Y017682D01*
X043280Y017680D01*
X043297Y017682D01*
X043314Y017686D01*
X043455Y017737D01*
X043485Y017801D01*
X044708Y018246D01*
X044772Y018216D01*
X044913Y018268D01*
X044929Y018275D01*
X044943Y018285D01*
X044956Y018298D01*
X044966Y018312D01*
X044973Y018328D01*
X044977Y018345D01*
X044979Y018362D01*
X044977Y018379D01*
X044973Y018396D01*
X044660Y019256D01*
X044660Y019255D02*
X044653Y019271D01*
X044643Y019285D01*
X044630Y019298D01*
X044616Y019308D01*
X044600Y019315D01*
X044583Y019319D01*
X044566Y019321D01*
X044549Y019319D01*
X044532Y019315D01*
X044391Y019264D01*
X044361Y019200D01*
X043138Y018755D01*
X043074Y018785D01*
X042933Y018733D01*
X042915Y018724D01*
X042899Y018713D01*
X042886Y018698D01*
X042876Y018681D01*
X042870Y018663D01*
X042867Y018643D01*
X042868Y018624D01*
X042873Y018605D01*
X043548Y020001D02*
X044048Y020001D01*
X044298Y020251D01*
X044298Y020751D01*
X044048Y021001D01*
X044298Y021251D01*
X044298Y021751D01*
X044048Y022001D01*
X044298Y022251D01*
X044298Y022751D01*
X044048Y023001D01*
X043548Y023001D01*
X043298Y022751D01*
X043298Y022251D01*
X043548Y022001D01*
X043298Y021751D01*
X043298Y021251D01*
X043548Y021001D01*
X043298Y020751D01*
X043298Y020251D01*
X043548Y020001D01*
X042273Y013326D02*
X038573Y013326D01*
X038473Y013226D01*
X038423Y012076D01*
X042423Y012076D02*
X042373Y013226D01*
X042273Y013326D01*
X027723Y013251D02*
X027723Y012751D01*
X027723Y012201D01*
X027721Y012184D01*
X027717Y012167D01*
X027710Y012151D01*
X027700Y012137D01*
X027687Y012124D01*
X027673Y012114D01*
X027657Y012107D01*
X027640Y012103D01*
X027623Y012101D01*
X027273Y012101D01*
X027223Y012151D01*
X023123Y012151D01*
X023073Y012101D01*
X022723Y012101D01*
X022706Y012103D01*
X022689Y012107D01*
X022673Y012114D01*
X022659Y012124D01*
X022646Y012137D01*
X022636Y012151D01*
X022629Y012167D01*
X022625Y012184D01*
X022623Y012201D01*
X022623Y012751D01*
X022623Y013251D01*
X022623Y013801D01*
X022625Y013818D01*
X022629Y013835D01*
X022636Y013851D01*
X022646Y013865D01*
X022659Y013878D01*
X022673Y013888D01*
X022689Y013895D01*
X022706Y013899D01*
X022723Y013901D01*
X023073Y013901D01*
X023123Y013851D01*
X027223Y013851D01*
X027273Y013901D01*
X027623Y013901D01*
X027640Y013899D01*
X027657Y013895D01*
X027673Y013888D01*
X027687Y013878D01*
X027700Y013865D01*
X027710Y013851D01*
X027717Y013835D01*
X027721Y013818D01*
X027723Y013801D01*
X027723Y013251D01*
X027173Y015476D02*
X027173Y015876D01*
X026073Y016126D02*
X026075Y016192D01*
X026081Y016257D01*
X026091Y016322D01*
X026104Y016387D01*
X026122Y016450D01*
X026143Y016513D01*
X026168Y016573D01*
X026197Y016633D01*
X026229Y016690D01*
X026264Y016746D01*
X026303Y016799D01*
X026345Y016850D01*
X026389Y016898D01*
X026437Y016943D01*
X026487Y016986D01*
X026540Y017025D01*
X026595Y017062D01*
X026652Y017095D01*
X026711Y017124D01*
X026771Y017150D01*
X026833Y017172D01*
X026896Y017191D01*
X026960Y017205D01*
X027025Y017216D01*
X027091Y017223D01*
X027157Y017226D01*
X027222Y017225D01*
X027288Y017220D01*
X027353Y017211D01*
X027418Y017198D01*
X027481Y017182D01*
X027544Y017162D01*
X027605Y017137D01*
X027665Y017110D01*
X027723Y017079D01*
X027779Y017044D01*
X027833Y017006D01*
X027884Y016965D01*
X027933Y016921D01*
X027979Y016874D01*
X028023Y016825D01*
X028063Y016773D01*
X028100Y016718D01*
X028134Y016662D01*
X028164Y016603D01*
X028191Y016543D01*
X028214Y016482D01*
X028233Y016419D01*
X028249Y016355D01*
X028261Y016290D01*
X028269Y016225D01*
X028273Y016159D01*
X028273Y016093D01*
X028269Y016027D01*
X028261Y015962D01*
X028249Y015897D01*
X028233Y015833D01*
X028214Y015770D01*
X028191Y015709D01*
X028164Y015649D01*
X028134Y015590D01*
X028100Y015534D01*
X028063Y015479D01*
X028023Y015427D01*
X027979Y015378D01*
X027933Y015331D01*
X027884Y015287D01*
X027833Y015246D01*
X027779Y015208D01*
X027723Y015173D01*
X027665Y015142D01*
X027605Y015115D01*
X027544Y015090D01*
X027481Y015070D01*
X027418Y015054D01*
X027353Y015041D01*
X027288Y015032D01*
X027222Y015027D01*
X027157Y015026D01*
X027091Y015029D01*
X027025Y015036D01*
X026960Y015047D01*
X026896Y015061D01*
X026833Y015080D01*
X026771Y015102D01*
X026711Y015128D01*
X026652Y015157D01*
X026595Y015190D01*
X026540Y015227D01*
X026487Y015266D01*
X026437Y015309D01*
X026389Y015354D01*
X026345Y015402D01*
X026303Y015453D01*
X026264Y015506D01*
X026229Y015562D01*
X026197Y015619D01*
X026168Y015679D01*
X026143Y015739D01*
X026122Y015802D01*
X026104Y015865D01*
X026091Y015930D01*
X026081Y015995D01*
X026075Y016060D01*
X026073Y016126D01*
X026673Y016226D02*
X026673Y016426D01*
X027173Y016426D01*
X027673Y016426D01*
X027673Y016226D01*
X026673Y016226D01*
X027173Y016426D02*
X027173Y016776D01*
X027523Y016776D02*
X027673Y016776D01*
X027823Y016776D01*
X027673Y016776D02*
X027673Y016626D01*
X027673Y016776D02*
X027673Y016926D01*
X026473Y017601D02*
X024873Y017601D01*
X024856Y017603D01*
X024839Y017607D01*
X024823Y017614D01*
X024809Y017624D01*
X024796Y017637D01*
X024786Y017651D01*
X024779Y017667D01*
X024775Y017684D01*
X024773Y017701D01*
X024773Y018301D01*
X024775Y018318D01*
X024779Y018335D01*
X024786Y018351D01*
X024796Y018365D01*
X024809Y018378D01*
X024823Y018388D01*
X024839Y018395D01*
X024856Y018399D01*
X024873Y018401D01*
X026473Y018401D01*
X026490Y018399D01*
X026507Y018395D01*
X026523Y018388D01*
X026537Y018378D01*
X026550Y018365D01*
X026560Y018351D01*
X026567Y018335D01*
X026571Y018318D01*
X026573Y018301D01*
X026573Y017701D01*
X026571Y017684D01*
X026567Y017667D01*
X026560Y017651D01*
X026550Y017637D01*
X026537Y017624D01*
X026523Y017614D01*
X026507Y017607D01*
X026490Y017603D01*
X026473Y017601D01*
X025923Y018001D02*
X025673Y018001D01*
X025673Y018251D01*
X025673Y018001D02*
X025673Y017751D01*
X025673Y018001D02*
X025073Y018001D01*
X025273Y018251D02*
X025673Y018001D01*
X025273Y017751D01*
X025273Y018251D01*
X026123Y018476D02*
X024223Y018476D01*
X024173Y018426D01*
X024023Y018426D01*
X024006Y018428D01*
X023989Y018432D01*
X023973Y018439D01*
X023959Y018449D01*
X023946Y018462D01*
X023936Y018476D01*
X023929Y018492D01*
X023925Y018509D01*
X023923Y018526D01*
X023923Y019226D01*
X023925Y019243D01*
X023929Y019260D01*
X023936Y019276D01*
X023946Y019290D01*
X023959Y019303D01*
X023973Y019313D01*
X023989Y019320D01*
X024006Y019324D01*
X024023Y019326D01*
X024173Y019326D01*
X024223Y019276D01*
X026123Y019276D01*
X026173Y019326D01*
X026323Y019326D01*
X026340Y019324D01*
X026357Y019320D01*
X026373Y019313D01*
X026387Y019303D01*
X026400Y019290D01*
X026410Y019276D01*
X026417Y019260D01*
X026421Y019243D01*
X026423Y019226D01*
X026423Y018526D01*
X026421Y018509D01*
X026417Y018492D01*
X026410Y018476D01*
X026400Y018462D01*
X026387Y018449D01*
X026373Y018439D01*
X026357Y018432D01*
X026340Y018428D01*
X026323Y018426D01*
X026173Y018426D01*
X026123Y018476D01*
X025623Y019601D02*
X027223Y019601D01*
X027240Y019603D01*
X027257Y019607D01*
X027273Y019614D01*
X027287Y019624D01*
X027300Y019637D01*
X027310Y019651D01*
X027317Y019667D01*
X027321Y019684D01*
X027323Y019701D01*
X027323Y020301D01*
X027321Y020318D01*
X027317Y020335D01*
X027310Y020351D01*
X027300Y020365D01*
X027287Y020378D01*
X027273Y020388D01*
X027257Y020395D01*
X027240Y020399D01*
X027223Y020401D01*
X025623Y020401D01*
X025606Y020399D01*
X025589Y020395D01*
X025573Y020388D01*
X025559Y020378D01*
X025546Y020365D01*
X025536Y020351D01*
X025529Y020335D01*
X025525Y020318D01*
X025523Y020301D01*
X025523Y019701D01*
X025525Y019684D01*
X025529Y019667D01*
X025536Y019651D01*
X025546Y019637D01*
X025559Y019624D01*
X025573Y019614D01*
X025589Y019607D01*
X025606Y019603D01*
X025623Y019601D01*
X026023Y019751D02*
X026423Y020001D01*
X026423Y019751D01*
X026323Y019751D01*
X026423Y020001D02*
X026023Y020251D01*
X026023Y019751D01*
X025823Y020001D02*
X026423Y020001D01*
X026423Y020251D01*
X026423Y020001D02*
X026673Y020001D01*
X024673Y020776D02*
X024673Y023476D01*
X024671Y023493D01*
X024667Y023510D01*
X024660Y023526D01*
X024650Y023540D01*
X024637Y023553D01*
X024623Y023563D01*
X024607Y023570D01*
X024590Y023574D01*
X024573Y023576D01*
X023773Y023576D01*
X023756Y023574D01*
X023739Y023570D01*
X023723Y023563D01*
X023709Y023553D01*
X023696Y023540D01*
X023686Y023526D01*
X023679Y023510D01*
X023675Y023493D01*
X023673Y023476D01*
X023673Y020776D01*
X023675Y020759D01*
X023679Y020742D01*
X023686Y020726D01*
X023696Y020712D01*
X023709Y020699D01*
X023723Y020689D01*
X023739Y020682D01*
X023756Y020678D01*
X023773Y020676D01*
X024573Y020676D01*
X024590Y020678D01*
X024607Y020682D01*
X024623Y020689D01*
X024637Y020699D01*
X024650Y020712D01*
X024660Y020726D01*
X024667Y020742D01*
X024671Y020759D01*
X024673Y020776D01*
X024173Y021526D02*
X024173Y021996D01*
X024173Y022246D02*
X024173Y022726D01*
X023498Y023126D02*
X023448Y023076D01*
X023448Y021176D01*
X023498Y021126D01*
X023498Y020976D01*
X023496Y020959D01*
X023492Y020942D01*
X023485Y020926D01*
X023475Y020912D01*
X023462Y020899D01*
X023448Y020889D01*
X023432Y020882D01*
X023415Y020878D01*
X023398Y020876D01*
X022698Y020876D01*
X022681Y020878D01*
X022664Y020882D01*
X022648Y020889D01*
X022634Y020899D01*
X022621Y020912D01*
X022611Y020926D01*
X022604Y020942D01*
X022600Y020959D01*
X022598Y020976D01*
X022598Y021126D01*
X022648Y021176D01*
X022648Y023076D01*
X022598Y023126D01*
X022598Y023276D01*
X022548Y023301D02*
X022548Y020201D01*
X022598Y020151D01*
X022598Y019901D01*
X022596Y019878D01*
X022591Y019855D01*
X022582Y019833D01*
X022569Y019813D01*
X022554Y019795D01*
X022536Y019780D01*
X022516Y019767D01*
X022494Y019758D01*
X022471Y019753D01*
X022448Y019751D01*
X021148Y019751D01*
X021125Y019753D01*
X021102Y019758D01*
X021080Y019767D01*
X021060Y019780D01*
X021042Y019795D01*
X021027Y019813D01*
X021014Y019833D01*
X021005Y019855D01*
X021000Y019878D01*
X020998Y019901D01*
X020998Y020151D01*
X021048Y020201D01*
X021048Y023301D01*
X020998Y023351D01*
X020998Y023601D01*
X021000Y023624D01*
X021005Y023647D01*
X021014Y023669D01*
X021027Y023689D01*
X021042Y023707D01*
X021060Y023722D01*
X021080Y023735D01*
X021102Y023744D01*
X021125Y023749D01*
X021148Y023751D01*
X022448Y023751D01*
X022471Y023749D01*
X022494Y023744D01*
X022516Y023735D01*
X022536Y023722D01*
X022554Y023707D01*
X022569Y023689D01*
X022582Y023669D01*
X022591Y023647D01*
X022596Y023624D01*
X022598Y023601D01*
X022598Y023351D01*
X022548Y023301D01*
X022598Y023276D02*
X022600Y023293D01*
X022604Y023310D01*
X022611Y023326D01*
X022621Y023340D01*
X022634Y023353D01*
X022648Y023363D01*
X022664Y023370D01*
X022681Y023374D01*
X022698Y023376D01*
X023398Y023376D01*
X023415Y023374D01*
X023432Y023370D01*
X023448Y023363D01*
X023462Y023353D01*
X023475Y023340D01*
X023485Y023326D01*
X023492Y023310D01*
X023496Y023293D01*
X023498Y023276D01*
X023498Y023126D01*
X023694Y023714D02*
X021720Y025556D01*
X021708Y025569D01*
X021699Y025584D01*
X021692Y025600D01*
X021689Y025617D01*
X021688Y025634D01*
X021691Y025651D01*
X021696Y025668D01*
X021704Y025683D01*
X021715Y025697D01*
X022260Y026282D01*
X022273Y026294D01*
X022288Y026303D01*
X022304Y026310D01*
X022321Y026313D01*
X022338Y026314D01*
X022355Y026311D01*
X022372Y026306D01*
X022387Y026298D01*
X022401Y026287D01*
X022402Y026287D02*
X024376Y024446D01*
X024376Y024445D02*
X024388Y024432D01*
X024397Y024417D01*
X024404Y024401D01*
X024407Y024384D01*
X024408Y024367D01*
X024405Y024350D01*
X024400Y024333D01*
X024392Y024318D01*
X024381Y024304D01*
X023835Y023719D01*
X023822Y023707D01*
X023807Y023698D01*
X023791Y023691D01*
X023774Y023688D01*
X023757Y023687D01*
X023740Y023690D01*
X023723Y023695D01*
X023708Y023703D01*
X023694Y023714D01*
X023487Y024591D02*
X023136Y024919D01*
X022953Y025089D02*
X022609Y025410D01*
X019873Y023484D02*
X019873Y023354D01*
X019523Y023354D01*
X019173Y023354D01*
X019173Y023484D01*
X019873Y023484D01*
X019523Y023354D02*
X019523Y023054D01*
X019273Y022854D02*
X018973Y022854D01*
X019123Y022704D02*
X019123Y023004D01*
X019523Y023754D02*
X019523Y024054D01*
X017776Y019750D02*
X016792Y019577D01*
X017069Y018001D01*
X018054Y018175D01*
X017776Y019750D01*
X017379Y019122D02*
X017423Y018876D01*
X017177Y018832D01*
X017423Y018876D02*
X017246Y018438D01*
X017738Y018525D01*
X017423Y018876D01*
X017669Y018919D01*
X017423Y018876D02*
X017527Y018285D01*
X016548Y018076D02*
X015548Y018076D01*
X015548Y019676D01*
X016548Y019676D01*
X016548Y018076D01*
X016048Y018626D02*
X016048Y018876D01*
X016298Y018876D01*
X016048Y018876D02*
X015798Y018876D01*
X016048Y018876D02*
X015798Y019276D01*
X016298Y019276D01*
X016048Y018876D01*
X016048Y019476D01*
X020284Y016978D02*
X021788Y017525D01*
X021805Y017529D01*
X021822Y017531D01*
X021839Y017529D01*
X021856Y017525D01*
X021872Y017518D01*
X021886Y017508D01*
X021899Y017495D01*
X021909Y017481D01*
X021916Y017465D01*
X022121Y016901D01*
X022125Y016884D01*
X022127Y016867D01*
X022125Y016850D01*
X022121Y016833D01*
X022114Y016817D01*
X022104Y016803D01*
X022091Y016790D01*
X022077Y016780D01*
X022061Y016773D01*
X020558Y016226D01*
X020541Y016222D01*
X020524Y016220D01*
X020507Y016222D01*
X020490Y016226D01*
X020474Y016233D01*
X020460Y016243D01*
X020447Y016256D01*
X020437Y016270D01*
X020430Y016286D01*
X020225Y016850D01*
X020224Y016850D02*
X020219Y016869D01*
X020218Y016888D01*
X020221Y016908D01*
X020227Y016926D01*
X020237Y016943D01*
X020250Y016958D01*
X020266Y016969D01*
X020284Y016978D01*
X020938Y016790D02*
X021173Y016876D01*
X021258Y016641D01*
X021173Y016876D02*
X021087Y017111D01*
X021173Y016876D02*
X021463Y017247D01*
X021634Y016777D01*
X021173Y016876D01*
X021737Y017081D01*
X020598Y016026D02*
X020598Y011226D01*
X020596Y011200D01*
X020591Y011174D01*
X020583Y011149D01*
X020571Y011126D01*
X020557Y011104D01*
X020539Y011085D01*
X020520Y011067D01*
X020498Y011053D01*
X020475Y011041D01*
X020450Y011033D01*
X020424Y011028D01*
X020398Y011026D01*
X019198Y011026D01*
X019172Y011028D01*
X019146Y011033D01*
X019121Y011041D01*
X019098Y011053D01*
X019076Y011067D01*
X019057Y011085D01*
X019039Y011104D01*
X019025Y011126D01*
X019013Y011149D01*
X019005Y011174D01*
X019000Y011200D01*
X018998Y011226D01*
X018998Y016026D01*
X019000Y016052D01*
X019005Y016078D01*
X019013Y016103D01*
X019025Y016126D01*
X019039Y016148D01*
X019057Y016167D01*
X019076Y016185D01*
X019098Y016199D01*
X019121Y016211D01*
X019146Y016219D01*
X019172Y016224D01*
X019198Y016226D01*
X020398Y016226D01*
X020424Y016224D01*
X020450Y016219D01*
X020475Y016211D01*
X020498Y016199D01*
X020520Y016185D01*
X020539Y016167D01*
X020557Y016148D01*
X020571Y016126D01*
X020583Y016103D01*
X020591Y016078D01*
X020596Y016052D01*
X020598Y016026D01*
X019798Y015126D02*
X019798Y012726D01*
X019798Y012376D02*
X019798Y012126D01*
X017776Y013126D02*
X016792Y013300D01*
X017069Y014875D01*
X018054Y014702D01*
X017776Y013126D01*
X017379Y013754D02*
X017423Y014001D01*
X017669Y013957D01*
X017423Y014001D02*
X017177Y014044D01*
X017423Y014001D02*
X017246Y014438D01*
X017738Y014351D01*
X017423Y014001D01*
X017527Y014591D01*
X016548Y014801D02*
X015548Y014801D01*
X015548Y013201D01*
X016548Y013201D01*
X016548Y014801D01*
X016048Y014251D02*
X016048Y014001D01*
X015798Y014001D01*
X016048Y014001D02*
X015798Y013601D01*
X016298Y013601D01*
X016048Y014001D01*
X016298Y014001D01*
X016048Y014001D02*
X016048Y013401D01*
X009498Y013651D02*
X009498Y020351D01*
X009496Y020377D01*
X009491Y020403D01*
X009483Y020428D01*
X009471Y020451D01*
X009457Y020473D01*
X009439Y020492D01*
X009420Y020510D01*
X009398Y020524D01*
X009375Y020536D01*
X009350Y020544D01*
X009324Y020549D01*
X009298Y020551D01*
X007298Y020551D01*
X007272Y020549D01*
X007246Y020544D01*
X007221Y020536D01*
X007198Y020524D01*
X007176Y020510D01*
X007157Y020492D01*
X007139Y020473D01*
X007125Y020451D01*
X007113Y020428D01*
X007105Y020403D01*
X007100Y020377D01*
X007098Y020351D01*
X007098Y013651D01*
X007100Y013625D01*
X007105Y013599D01*
X007113Y013574D01*
X007125Y013551D01*
X007139Y013529D01*
X007157Y013510D01*
X007176Y013492D01*
X007198Y013478D01*
X007221Y013466D01*
X007246Y013458D01*
X007272Y013453D01*
X007298Y013451D01*
X009298Y013451D01*
X009324Y013453D01*
X009350Y013458D01*
X009375Y013466D01*
X009398Y013478D01*
X009420Y013492D01*
X009439Y013510D01*
X009457Y013529D01*
X009471Y013551D01*
X009483Y013574D01*
X009491Y013599D01*
X009496Y013625D01*
X009498Y013651D01*
X008798Y013126D02*
X008798Y012626D01*
X008548Y012376D01*
X008048Y012376D01*
X007798Y012626D01*
X007798Y013126D01*
X008048Y013376D01*
X008548Y013376D01*
X008798Y013126D01*
X008298Y014601D02*
X008298Y018651D01*
X008298Y019001D02*
X008298Y019401D01*
X010798Y020626D02*
X011298Y020626D01*
X011798Y020626D01*
X011798Y022626D01*
X011298Y022626D01*
X010798Y022626D01*
X010798Y020626D01*
X011298Y020626D02*
X011298Y020426D01*
X011298Y022626D02*
X011298Y022826D01*
X011273Y023301D02*
X011523Y023301D01*
X011523Y023951D01*
X011523Y025251D01*
X011423Y025251D01*
X011423Y023951D01*
X011423Y023401D01*
X011273Y023401D01*
X011273Y023751D01*
X009523Y023751D01*
X009523Y023301D01*
X011273Y023301D01*
X011273Y023401D01*
X009273Y024751D02*
X008473Y024751D01*
X005873Y024751D01*
X005073Y024751D01*
X004823Y025751D02*
X004823Y026201D01*
X003073Y026201D01*
X002823Y026201D01*
X002823Y025551D01*
X002823Y024251D01*
X002923Y024251D01*
X002923Y025551D01*
X002923Y026101D01*
X003073Y026101D01*
X003073Y025751D01*
X004823Y025751D01*
X003073Y026101D02*
X003073Y026201D01*
X002923Y024251D02*
X002923Y023951D01*
X002923Y023401D01*
X003073Y023401D01*
X003073Y023751D01*
X004823Y023751D01*
X004823Y023301D01*
X003073Y023301D01*
X002823Y023301D01*
X002823Y023951D01*
X002823Y024251D01*
X003073Y023401D02*
X003073Y023301D01*
X009523Y025751D02*
X009523Y026201D01*
X011273Y026201D01*
X011523Y026201D01*
X011523Y025551D01*
X011523Y025251D01*
X011423Y025251D02*
X011423Y025551D01*
X011423Y026101D01*
X011273Y026101D01*
X011273Y025751D01*
X009523Y025751D01*
X011273Y026101D02*
X011273Y026201D01*
X006798Y015376D02*
X006298Y015376D01*
X006048Y015126D01*
X006048Y014626D01*
X006298Y014376D01*
X006798Y014376D01*
X007048Y014626D01*
X007048Y015126D01*
X006798Y015376D01*
D13*
X023173Y018876D02*
X023573Y018876D01*
X023048Y020126D02*
X023048Y020526D01*
X026773Y018876D02*
X027173Y018876D01*
X023048Y023726D02*
X023048Y024126D01*
X023298Y026001D02*
X023698Y026001D01*
X026673Y025126D02*
X027073Y025126D01*
X026898Y026001D02*
X027298Y026001D01*
X030273Y025126D02*
X030673Y025126D01*
X038173Y025601D02*
X038173Y026001D01*
X038173Y022401D02*
X038173Y022001D01*
D14*
X030093Y025126D03*
X027253Y025126D03*
X026718Y026001D03*
X023878Y026001D03*
X023753Y018876D03*
X026593Y018876D03*
D15*
X024423Y021996D02*
X024173Y021996D01*
X023923Y021996D01*
X023923Y022246D02*
X024173Y022246D01*
X024423Y022246D01*
X022965Y024736D02*
X023136Y024919D01*
X023306Y025102D01*
X023123Y025272D02*
X022953Y025089D01*
X022782Y024906D01*
X030043Y023501D02*
X030043Y023251D01*
X030043Y023001D01*
X030293Y023001D02*
X030293Y023251D01*
X030293Y023501D01*
X037923Y020131D02*
X038173Y020131D01*
X038423Y020131D01*
X038423Y019881D02*
X038173Y019881D01*
X037923Y019881D01*
X014548Y017501D02*
X014548Y016501D01*
X014546Y016457D01*
X014540Y016414D01*
X014531Y016372D01*
X014518Y016330D01*
X014501Y016290D01*
X014481Y016251D01*
X014458Y016214D01*
X014431Y016180D01*
X014402Y016147D01*
X014369Y016118D01*
X014335Y016091D01*
X014298Y016068D01*
X014259Y016048D01*
X014219Y016031D01*
X014177Y016018D01*
X014135Y016009D01*
X014092Y016003D01*
X014048Y016001D01*
X014004Y016003D01*
X013961Y016009D01*
X013919Y016018D01*
X013877Y016031D01*
X013837Y016048D01*
X013798Y016068D01*
X013761Y016091D01*
X013727Y016118D01*
X013694Y016147D01*
X013665Y016180D01*
X013638Y016214D01*
X013615Y016251D01*
X013595Y016290D01*
X013578Y016330D01*
X013565Y016372D01*
X013556Y016414D01*
X013550Y016457D01*
X013548Y016501D01*
X013546Y016457D01*
X013540Y016414D01*
X013531Y016372D01*
X013518Y016330D01*
X013501Y016290D01*
X013481Y016251D01*
X013458Y016214D01*
X013431Y016180D01*
X013402Y016147D01*
X013369Y016118D01*
X013335Y016091D01*
X013298Y016068D01*
X013259Y016048D01*
X013219Y016031D01*
X013177Y016018D01*
X013135Y016009D01*
X013092Y016003D01*
X013048Y016001D01*
X013004Y016003D01*
X012961Y016009D01*
X012919Y016018D01*
X012877Y016031D01*
X012837Y016048D01*
X012798Y016068D01*
X012761Y016091D01*
X012727Y016118D01*
X012694Y016147D01*
X012665Y016180D01*
X012638Y016214D01*
X012615Y016251D01*
X012595Y016290D01*
X012578Y016330D01*
X012565Y016372D01*
X012556Y016414D01*
X012550Y016457D01*
X012548Y016501D01*
X012546Y016457D01*
X012540Y016414D01*
X012531Y016372D01*
X012518Y016330D01*
X012501Y016290D01*
X012481Y016251D01*
X012458Y016214D01*
X012431Y016180D01*
X012402Y016147D01*
X012369Y016118D01*
X012335Y016091D01*
X012298Y016068D01*
X012259Y016048D01*
X012219Y016031D01*
X012177Y016018D01*
X012135Y016009D01*
X012092Y016003D01*
X012048Y016001D01*
X012004Y016003D01*
X011961Y016009D01*
X011919Y016018D01*
X011877Y016031D01*
X011837Y016048D01*
X011798Y016068D01*
X011761Y016091D01*
X011727Y016118D01*
X011694Y016147D01*
X011665Y016180D01*
X011638Y016214D01*
X011615Y016251D01*
X011595Y016290D01*
X011578Y016330D01*
X011565Y016372D01*
X011556Y016414D01*
X011550Y016457D01*
X011548Y016501D01*
X011546Y016457D01*
X011540Y016414D01*
X011531Y016372D01*
X011518Y016330D01*
X011501Y016290D01*
X011481Y016251D01*
X011458Y016214D01*
X011431Y016180D01*
X011402Y016147D01*
X011369Y016118D01*
X011335Y016091D01*
X011298Y016068D01*
X011259Y016048D01*
X011219Y016031D01*
X011177Y016018D01*
X011135Y016009D01*
X011092Y016003D01*
X011048Y016001D01*
X011004Y016003D01*
X010961Y016009D01*
X010919Y016018D01*
X010877Y016031D01*
X010837Y016048D01*
X010798Y016068D01*
X010761Y016091D01*
X010727Y016118D01*
X010694Y016147D01*
X010665Y016180D01*
X010638Y016214D01*
X010615Y016251D01*
X010595Y016290D01*
X010578Y016330D01*
X010565Y016372D01*
X010556Y016414D01*
X010550Y016457D01*
X010548Y016501D01*
X010548Y017501D01*
X010548Y015501D02*
X014548Y015501D01*
X014548Y014501D02*
X014548Y013501D01*
X014548Y014501D02*
X014546Y014545D01*
X014540Y014588D01*
X014531Y014630D01*
X014518Y014672D01*
X014501Y014712D01*
X014481Y014751D01*
X014458Y014788D01*
X014431Y014822D01*
X014402Y014855D01*
X014369Y014884D01*
X014335Y014911D01*
X014298Y014934D01*
X014259Y014954D01*
X014219Y014971D01*
X014177Y014984D01*
X014135Y014993D01*
X014092Y014999D01*
X014048Y015001D01*
X014004Y014999D01*
X013961Y014993D01*
X013919Y014984D01*
X013877Y014971D01*
X013837Y014954D01*
X013798Y014934D01*
X013761Y014911D01*
X013727Y014884D01*
X013694Y014855D01*
X013665Y014822D01*
X013638Y014788D01*
X013615Y014751D01*
X013595Y014712D01*
X013578Y014672D01*
X013565Y014630D01*
X013556Y014588D01*
X013550Y014545D01*
X013548Y014501D01*
X013546Y014545D01*
X013540Y014588D01*
X013531Y014630D01*
X013518Y014672D01*
X013501Y014712D01*
X013481Y014751D01*
X013458Y014788D01*
X013431Y014822D01*
X013402Y014855D01*
X013369Y014884D01*
X013335Y014911D01*
X013298Y014934D01*
X013259Y014954D01*
X013219Y014971D01*
X013177Y014984D01*
X013135Y014993D01*
X013092Y014999D01*
X013048Y015001D01*
X013004Y014999D01*
X012961Y014993D01*
X012919Y014984D01*
X012877Y014971D01*
X012837Y014954D01*
X012798Y014934D01*
X012761Y014911D01*
X012727Y014884D01*
X012694Y014855D01*
X012665Y014822D01*
X012638Y014788D01*
X012615Y014751D01*
X012595Y014712D01*
X012578Y014672D01*
X012565Y014630D01*
X012556Y014588D01*
X012550Y014545D01*
X012548Y014501D01*
X012546Y014545D01*
X012540Y014588D01*
X012531Y014630D01*
X012518Y014672D01*
X012501Y014712D01*
X012481Y014751D01*
X012458Y014788D01*
X012431Y014822D01*
X012402Y014855D01*
X012369Y014884D01*
X012335Y014911D01*
X012298Y014934D01*
X012259Y014954D01*
X012219Y014971D01*
X012177Y014984D01*
X012135Y014993D01*
X012092Y014999D01*
X012048Y015001D01*
X012004Y014999D01*
X011961Y014993D01*
X011919Y014984D01*
X011877Y014971D01*
X011837Y014954D01*
X011798Y014934D01*
X011761Y014911D01*
X011727Y014884D01*
X011694Y014855D01*
X011665Y014822D01*
X011638Y014788D01*
X011615Y014751D01*
X011595Y014712D01*
X011578Y014672D01*
X011565Y014630D01*
X011556Y014588D01*
X011550Y014545D01*
X011548Y014501D01*
X011546Y014545D01*
X011540Y014588D01*
X011531Y014630D01*
X011518Y014672D01*
X011501Y014712D01*
X011481Y014751D01*
X011458Y014788D01*
X011431Y014822D01*
X011402Y014855D01*
X011369Y014884D01*
X011335Y014911D01*
X011298Y014934D01*
X011259Y014954D01*
X011219Y014971D01*
X011177Y014984D01*
X011135Y014993D01*
X011092Y014999D01*
X011048Y015001D01*
X011004Y014999D01*
X010961Y014993D01*
X010919Y014984D01*
X010877Y014971D01*
X010837Y014954D01*
X010798Y014934D01*
X010761Y014911D01*
X010727Y014884D01*
X010694Y014855D01*
X010665Y014822D01*
X010638Y014788D01*
X010615Y014751D01*
X010595Y014712D01*
X010578Y014672D01*
X010565Y014630D01*
X010556Y014588D01*
X010550Y014545D01*
X010548Y014501D01*
X010548Y013501D01*
D16*
X016048Y014551D03*
X016048Y018326D03*
X027173Y015926D03*
D17*
X027173Y018001D02*
X026823Y018001D01*
X024523Y018001D02*
X024173Y018001D01*
X023052Y017560D02*
X022723Y017440D01*
X019622Y016311D02*
X019293Y016192D01*
X024423Y020001D02*
X024773Y020001D01*
X028073Y020001D02*
X028423Y020001D01*
X042513Y017988D02*
X042891Y018125D01*
X044955Y018876D02*
X045332Y019014D01*
D18*
X027073Y020001D03*
X026323Y018001D03*
G36*
X020792Y016312D02*
X020604Y016243D01*
X020332Y016994D01*
X020520Y017063D01*
X020792Y016312D01*
G37*
D19*
X024648Y018001D03*
X026698Y018001D03*
D20*
X023048Y020706D03*
X023048Y023546D03*
X038173Y022581D03*
X038173Y025421D03*
D21*
X037359Y023209D02*
X037408Y023161D01*
X037408Y023064D01*
X037359Y023016D01*
X037166Y023016D01*
X037118Y023064D01*
X037118Y023161D01*
X037166Y023209D01*
X036658Y022709D02*
X036464Y022709D01*
X036368Y022612D01*
X036464Y022516D01*
X036658Y022516D01*
X036513Y022516D02*
X036513Y022709D01*
X037118Y022161D02*
X037166Y022209D01*
X037263Y022209D01*
X037311Y022161D01*
X037311Y022016D01*
X037311Y022112D02*
X037408Y022209D01*
X037408Y022016D02*
X037118Y022016D01*
X037118Y022161D01*
D22*
X019523Y023689D03*
D23*
X020673Y021192D02*
X012011Y021192D01*
X012011Y026310D01*
X020673Y026310D01*
X020673Y021192D01*
X015501Y019634D02*
X015501Y011367D01*
X009595Y011367D01*
X009595Y019634D01*
X015501Y019634D01*
X006291Y022419D02*
X006291Y015332D01*
X002748Y015332D01*
X002748Y014545D01*
X002157Y014545D01*
X002157Y015332D01*
X001567Y015332D01*
X001567Y014545D01*
X000779Y014545D01*
X000779Y023206D01*
X001567Y023206D01*
X001567Y022419D01*
X002157Y022419D01*
X002157Y023206D01*
X002748Y023206D01*
X002748Y022419D01*
X006291Y022419D01*
X029092Y020206D02*
X029092Y011545D01*
X037754Y011545D01*
X037754Y020206D01*
X029092Y020206D01*
X038048Y017594D02*
X046316Y017594D01*
X046316Y013657D01*
X038048Y013657D01*
X038048Y017594D01*
X038704Y018251D02*
X038704Y026518D01*
X042641Y026518D01*
X042641Y018251D01*
X038704Y018251D01*
X043572Y023215D02*
X043723Y023065D01*
X043572Y023215D02*
X044023Y023215D01*
X044023Y023065D02*
X044023Y023365D01*
D24*
X024993Y016416D02*
X025193Y015816D01*
X025193Y015186D01*
X021153Y015186D01*
X021153Y015816D01*
X021353Y016416D01*
X024993Y016416D01*
D25*
X023173Y014896D03*
D26*
X020298Y012726D02*
X019798Y012726D01*
X019298Y012726D01*
X019298Y012376D02*
X019798Y012376D01*
X020298Y012376D01*
X008798Y018651D02*
X008298Y018651D01*
X007798Y018651D01*
X007798Y019001D02*
X008298Y019001D01*
X008798Y019001D01*
X033598Y020651D02*
X033598Y021001D01*
X033598Y021351D01*
X033998Y021351D02*
X033998Y021001D01*
X033998Y020651D01*
D27*
X009273Y023601D02*
X005073Y023601D01*
X005073Y025901D02*
X009273Y025901D01*
D28*
X011048Y024751D03*
X003298Y024751D03*
D29*
X004948Y025776D03*
X004948Y023726D03*
X009398Y023726D03*
X009398Y025776D03*
D30*
X009398Y024751D03*
X004948Y024751D03*
D31*
X005323Y024001D03*
X005323Y025501D03*
X009023Y025501D03*
X009023Y024001D03*
D32*
X003948Y023851D03*
D33*
X007173Y024001D03*
X007173Y025501D03*
D34*
X009573Y025526D03*
X010923Y025526D03*
X010923Y023976D03*
X009573Y023976D03*
X004773Y023976D03*
X003423Y023976D03*
X003423Y025526D03*
X004773Y025526D03*
D35*
X004098Y025526D03*
X004098Y023976D03*
X010248Y023976D03*
X010248Y025526D03*
D36*
X010323Y025651D03*
X010323Y023851D03*
X004023Y025651D03*
D37*
G36*
X020361Y016474D02*
X019657Y016218D01*
X019589Y016406D01*
X020293Y016662D01*
X020361Y016474D01*
G37*
G36*
X022757Y017346D02*
X022053Y017090D01*
X021985Y017278D01*
X022689Y017534D01*
X022757Y017346D01*
G37*
X025148Y020001D03*
X027698Y020001D03*
X038698Y012026D03*
X042148Y012026D03*
D38*
X021798Y018751D02*
X021798Y019251D01*
X017701Y017300D02*
X017770Y016906D01*
X017770Y015970D02*
X017701Y015576D01*
X016048Y015601D02*
X016048Y016001D01*
X016048Y016876D02*
X016048Y017276D01*
X016048Y020476D02*
X016048Y020876D01*
X017076Y020845D02*
X017145Y020451D01*
X021798Y024251D02*
X021798Y024751D01*
X017145Y012425D02*
X017076Y012031D01*
X016048Y012001D02*
X016048Y012401D01*
D39*
X016048Y012826D03*
X016048Y015176D03*
X016048Y017701D03*
X016048Y020051D03*
D40*
G36*
X016852Y019232D02*
X016818Y019428D01*
X017802Y019602D01*
X017836Y019406D01*
X016852Y019232D01*
G37*
G36*
X017836Y013470D02*
X017802Y013274D01*
X016818Y013448D01*
X016852Y013644D01*
X017836Y013470D01*
G37*
D41*
G36*
X017431Y013186D02*
X017301Y012448D01*
X017007Y012500D01*
X017137Y013238D01*
X017431Y013186D01*
G37*
G36*
X017839Y015501D02*
X017709Y014763D01*
X017415Y014815D01*
X017545Y015553D01*
X017839Y015501D01*
G37*
G36*
X017545Y017323D02*
X017415Y018061D01*
X017709Y018113D01*
X017839Y017375D01*
X017545Y017323D01*
G37*
G36*
X017137Y019638D02*
X017007Y020376D01*
X017301Y020428D01*
X017431Y019690D01*
X017137Y019638D01*
G37*
D42*
X022173Y013001D02*
X022423Y013001D01*
X027923Y013001D02*
X028173Y013001D01*
D43*
X027833Y013001D03*
X022513Y013001D03*
D44*
G36*
X042855Y018218D02*
X042995Y018269D01*
X043063Y018082D01*
X042923Y018031D01*
X042855Y018218D01*
G37*
G36*
X044783Y018919D02*
X044923Y018970D01*
X044991Y018783D01*
X044851Y018732D01*
X044783Y018919D01*
G37*
D45*
X021798Y019476D03*
X021798Y024026D03*
D46*
X006548Y014876D03*
X008298Y012876D03*
X043798Y020501D03*
X043798Y021501D03*
X043798Y022501D03*
D47*
X042193Y013086D03*
D48*
X040423Y011776D03*
D49*
X041423Y012026D03*
X039423Y012026D03*
D50*
X040423Y012026D03*
M02*
