G75*
G70*
%OFA0B0*%
%FSLAX24Y24*%
%IPPOS*%
%LPD*%
%AMOC8*
5,1,8,0,0,1.08239X$1,22.5*
%
%ADD10C,0.0110*%
%ADD11R,0.0792X0.0792*%
%ADD12OC8,0.0792*%
%ADD13C,0.0792*%
%ADD14R,0.0512X0.0591*%
%ADD15C,0.0158*%
%ADD16C,0.0792*%
%ADD17R,0.0591X0.0512*%
%ADD18OC8,0.1000*%
%ADD19C,0.1000*%
%ADD20C,0.0872*%
%ADD21OC8,0.0872*%
%ADD22R,0.0551X0.0709*%
%ADD23R,0.0512X0.0630*%
%ADD24OC8,0.0832*%
%ADD25C,0.1000*%
%ADD26R,0.0792X0.0792*%
%ADD27C,0.0912*%
%ADD28C,0.0174*%
%ADD29C,0.0787*%
%ADD30C,0.1575*%
%ADD31C,0.1260*%
%ADD32C,0.1181*%
%ADD33R,0.0630X0.0512*%
%ADD34C,0.0400*%
%ADD35C,0.0500*%
%ADD36C,0.0760*%
%ADD37C,0.0320*%
%ADD38C,0.0906*%
%ADD39C,0.0700*%
%ADD40C,0.1969*%
%ADD41C,0.0160*%
D10*
X016109Y015931D02*
X016011Y016029D01*
X016011Y016324D01*
X015913Y016324D02*
X016405Y016324D01*
X016405Y016029D01*
X016306Y015931D01*
X016109Y015931D01*
X015814Y016127D02*
X015814Y016226D01*
X015913Y016324D01*
X016011Y016575D02*
X016011Y016772D01*
X016011Y016674D02*
X016405Y016674D01*
X016405Y016575D01*
X016601Y016674D02*
X016700Y016674D01*
X016405Y017005D02*
X016405Y017202D01*
X016503Y017103D02*
X016109Y017103D01*
X016011Y017202D01*
X016011Y017435D02*
X016601Y017435D01*
X016405Y017533D02*
X016405Y017730D01*
X016306Y017828D01*
X016011Y017828D01*
X016109Y018079D02*
X016011Y018178D01*
X016011Y018473D01*
X016405Y018473D01*
X016405Y018724D02*
X016405Y019019D01*
X016306Y019117D01*
X016109Y019117D01*
X016011Y019019D01*
X016011Y018724D01*
X016601Y018724D01*
X016405Y018079D02*
X016109Y018079D01*
X016405Y017533D02*
X016306Y017435D01*
X016109Y019368D02*
X016109Y019467D01*
X016011Y019467D01*
X016011Y019368D01*
X016109Y019368D01*
X016109Y019690D02*
X016011Y019789D01*
X016011Y020084D01*
X016109Y020335D02*
X016011Y020433D01*
X016011Y020630D01*
X016109Y020729D01*
X016306Y020729D01*
X016405Y020630D01*
X016405Y020433D01*
X016306Y020335D01*
X016109Y020335D01*
X016405Y020084D02*
X016405Y019789D01*
X016306Y019690D01*
X016109Y019690D01*
X016011Y020980D02*
X016405Y020980D01*
X016405Y021078D01*
X016306Y021176D01*
X016405Y021275D01*
X016306Y021373D01*
X016011Y021373D01*
X016011Y021176D02*
X016306Y021176D01*
X016011Y021624D02*
X016601Y022018D01*
X016601Y022269D02*
X016601Y022662D01*
X016503Y022662D01*
X016109Y022269D01*
X016011Y022269D01*
X016306Y022913D02*
X016306Y023307D01*
X016011Y023208D02*
X016601Y023208D01*
X016306Y022913D01*
X016011Y023558D02*
X016011Y023755D01*
X016011Y023656D02*
X016601Y023656D01*
X016601Y023558D01*
X016306Y023987D02*
X016405Y024086D01*
X016405Y024381D01*
X016208Y024283D02*
X016208Y024086D01*
X016306Y023987D01*
X016011Y023987D02*
X016011Y024283D01*
X016109Y024381D01*
X016208Y024283D01*
X016109Y024632D02*
X016503Y025026D01*
X016109Y025026D01*
X016011Y024927D01*
X016011Y024730D01*
X016109Y024632D01*
X016503Y024632D01*
X016601Y024730D01*
X016601Y024927D01*
X016503Y025026D01*
X016503Y025277D02*
X016109Y025277D01*
X016503Y025670D01*
X016109Y025670D01*
X016011Y025572D01*
X016011Y025375D01*
X016109Y025277D01*
X016503Y025277D02*
X016601Y025375D01*
X016601Y025572D01*
X016503Y025670D01*
X042679Y016949D02*
X042679Y016556D01*
X042679Y016851D02*
X043073Y016851D01*
X043073Y016949D02*
X042876Y017146D01*
X042679Y016949D01*
X043073Y016949D02*
X043073Y016556D01*
X043324Y016654D02*
X043422Y016556D01*
X043619Y016556D01*
X043717Y016654D01*
X043520Y016851D02*
X043422Y016851D01*
X043324Y016752D01*
X043324Y016654D01*
X043422Y016851D02*
X043324Y016949D01*
X043324Y017048D01*
X043422Y017146D01*
X043619Y017146D01*
X043717Y017048D01*
X044613Y017146D02*
X044613Y016752D01*
X044810Y016556D01*
X045006Y016752D01*
X045006Y017146D01*
X045257Y017146D02*
X045651Y017146D01*
X045651Y016851D01*
X045454Y016949D01*
X045356Y016949D01*
X045257Y016851D01*
X045257Y016654D01*
X045356Y016556D01*
X045553Y016556D01*
X045651Y016654D01*
D11*
X031331Y023876D03*
X030331Y018001D03*
D12*
X030331Y018876D03*
X031331Y020876D03*
X029331Y020876D03*
X028331Y020876D03*
X027331Y020876D03*
X026206Y020126D03*
X026331Y018876D03*
X030331Y015876D03*
X039706Y021876D03*
X038956Y022376D03*
X039706Y022876D03*
X041456Y022001D03*
X042331Y022501D03*
X041456Y024001D03*
X042331Y025501D03*
X034331Y023251D03*
X032331Y023251D03*
X030331Y023876D03*
X029331Y023876D03*
X028331Y023876D03*
X027331Y022876D03*
X026206Y024126D03*
X026456Y025501D03*
X029831Y024751D03*
X030456Y025501D03*
X033831Y024751D03*
X014456Y023251D03*
X014456Y020251D03*
D13*
X030331Y020479D02*
X030331Y021272D01*
X035039Y024001D02*
X035831Y024001D01*
X035831Y025001D02*
X035039Y025001D01*
X038831Y025001D02*
X039623Y025001D01*
X039623Y024001D02*
X038831Y024001D01*
D14*
X039332Y020751D03*
X040080Y020751D03*
X033705Y023251D03*
X032957Y023251D03*
X029080Y022876D03*
X028332Y022876D03*
X028332Y021876D03*
X029080Y021876D03*
X028832Y016751D03*
X029580Y016751D03*
D15*
X027124Y024302D02*
X027045Y024381D01*
X027307Y024390D01*
X027499Y024211D01*
X027508Y023949D01*
X027329Y023757D01*
X027067Y023748D01*
X026875Y023927D01*
X026866Y024189D01*
X027045Y024381D01*
X027099Y024264D01*
X027262Y024269D01*
X027382Y024157D01*
X027387Y023994D01*
X027275Y023874D01*
X027112Y023869D01*
X026992Y023981D01*
X026987Y024144D01*
X027099Y024264D01*
X027152Y024146D01*
X027217Y024148D01*
X027264Y024104D01*
X027266Y024039D01*
X027222Y023992D01*
X027157Y023990D01*
X027110Y024034D01*
X027108Y024099D01*
X027152Y024146D01*
X025662Y025666D02*
X025583Y025745D01*
X025845Y025754D01*
X026037Y025575D01*
X026046Y025313D01*
X025867Y025121D01*
X025605Y025112D01*
X025413Y025291D01*
X025404Y025553D01*
X025583Y025745D01*
X025637Y025628D01*
X025800Y025633D01*
X025920Y025521D01*
X025925Y025358D01*
X025813Y025238D01*
X025650Y025233D01*
X025530Y025345D01*
X025525Y025508D01*
X025637Y025628D01*
X025690Y025510D01*
X025755Y025512D01*
X025802Y025468D01*
X025804Y025403D01*
X025760Y025356D01*
X025695Y025354D01*
X025648Y025398D01*
X025646Y025463D01*
X025690Y025510D01*
D16*
X027581Y019751D03*
X027331Y018001D03*
X026241Y017639D03*
X030331Y016876D03*
X031581Y019751D03*
D17*
X027331Y021502D03*
X027331Y022250D03*
X027706Y024877D03*
X027706Y025625D03*
X040581Y025500D03*
X040581Y024752D03*
X040581Y023625D03*
X040581Y022877D03*
X043581Y020250D03*
X043581Y019502D03*
X044456Y019502D03*
X044456Y020250D03*
X012331Y019375D03*
X012331Y018627D03*
X012331Y017750D03*
X012331Y017002D03*
X012331Y016125D03*
X012331Y015377D03*
X012331Y014500D03*
X012331Y013752D03*
D18*
X011456Y014051D03*
X011456Y019951D03*
X023831Y024501D03*
X041206Y018743D03*
X041206Y016758D03*
D19*
X041206Y014743D03*
X041206Y020758D03*
X023831Y022501D03*
X017706Y018476D03*
X013706Y018476D03*
X013706Y013376D03*
X017706Y013376D03*
D20*
X025331Y015439D02*
X025331Y016312D01*
X026331Y016312D02*
X026331Y015439D01*
X027331Y015439D02*
X027331Y016312D01*
X042581Y013312D02*
X042581Y012439D01*
X044581Y012439D02*
X044581Y013312D01*
X044581Y022189D02*
X044581Y023062D01*
X045581Y023062D02*
X045581Y022189D01*
X043581Y022189D02*
X043581Y023062D01*
D21*
X022956Y016251D03*
X022956Y012251D03*
X011456Y012876D03*
X009706Y014876D03*
D22*
G36*
X032399Y017702D02*
X032351Y017155D01*
X031647Y017216D01*
X031695Y017763D01*
X032399Y017702D01*
G37*
G36*
X032515Y019035D02*
X032467Y018488D01*
X031763Y018549D01*
X031811Y019096D01*
X032515Y019035D01*
G37*
D23*
X031955Y016751D03*
X031207Y016751D03*
X022955Y022876D03*
X022207Y022876D03*
X021830Y024501D03*
X021082Y024501D03*
X021082Y025376D03*
X021830Y025376D03*
X042832Y021126D03*
X043580Y021126D03*
D24*
X038456Y021001D03*
X035456Y021001D03*
X024956Y018751D03*
X024956Y024751D03*
D25*
X019818Y020523D02*
X019109Y020345D01*
X017706Y019376D01*
X017706Y018476D01*
X014456Y023251D02*
X014431Y024626D01*
X012456Y024751D01*
X012431Y025126D02*
X012431Y024126D01*
X014431Y024126D02*
X014431Y025126D01*
X008231Y025126D02*
X008231Y024126D01*
X006231Y024126D02*
X006231Y025126D01*
X017706Y013376D02*
X018456Y012376D01*
X019206Y012376D01*
X020734Y012906D01*
D26*
G36*
X023928Y016377D02*
X023185Y016106D01*
X022914Y016849D01*
X023657Y017120D01*
X023928Y016377D01*
G37*
D27*
X021428Y016845D03*
X019803Y016406D03*
X019206Y016376D03*
X023094Y018228D03*
X019818Y020523D03*
X019109Y020345D03*
X020734Y012906D03*
X019206Y012376D03*
D28*
X024733Y013782D02*
X024820Y013695D01*
X024583Y013529D01*
X024300Y013579D01*
X024134Y013816D01*
X024184Y014099D01*
X024421Y014265D01*
X024704Y014215D01*
X024870Y013978D01*
X024820Y013695D01*
X024701Y013771D01*
X024552Y013667D01*
X024376Y013698D01*
X024272Y013847D01*
X024303Y014023D01*
X024452Y014127D01*
X024628Y014096D01*
X024732Y013947D01*
X024701Y013771D01*
X024581Y013847D01*
X024522Y013806D01*
X024452Y013818D01*
X024411Y013877D01*
X024423Y013947D01*
X024482Y013988D01*
X024552Y013976D01*
X024593Y013917D01*
X024581Y013847D01*
X030641Y012740D02*
X030728Y012653D01*
X030491Y012487D01*
X030208Y012537D01*
X030042Y012774D01*
X030092Y013057D01*
X030329Y013223D01*
X030612Y013173D01*
X030778Y012936D01*
X030728Y012653D01*
X030609Y012729D01*
X030460Y012625D01*
X030284Y012656D01*
X030180Y012805D01*
X030211Y012981D01*
X030360Y013085D01*
X030536Y013054D01*
X030640Y012905D01*
X030609Y012729D01*
X030489Y012805D01*
X030430Y012764D01*
X030360Y012776D01*
X030319Y012835D01*
X030331Y012905D01*
X030390Y012946D01*
X030460Y012934D01*
X030501Y012875D01*
X030489Y012805D01*
D29*
X044581Y023501D03*
X044581Y025501D03*
D30*
X009449Y020647D03*
X007481Y022419D03*
X009449Y017104D03*
X007481Y015332D03*
D31*
X007481Y016317D03*
X007481Y021435D03*
D32*
X033235Y019275D03*
X033235Y017700D03*
X033235Y016126D03*
X033235Y014551D03*
X033235Y012976D03*
X039927Y013763D03*
X039927Y015338D03*
X039927Y016913D03*
X039927Y018488D03*
D33*
X022206Y021252D03*
X022206Y022000D03*
X019706Y024502D03*
X018706Y024502D03*
X018706Y025250D03*
X019706Y025250D03*
D34*
X021830Y025376D02*
X022706Y025376D01*
X026206Y024126D02*
X027187Y024069D01*
X027706Y024877D01*
X028830Y024877D01*
X029331Y023876D01*
X030331Y023876D02*
X030331Y023376D01*
X030831Y022876D01*
X031706Y022876D01*
X032331Y023251D01*
X031331Y023876D02*
X031831Y024376D01*
X033831Y024376D01*
X033831Y024751D01*
X033831Y024376D02*
X033831Y023751D01*
X034331Y023251D01*
X035331Y022501D02*
X035331Y024001D01*
X035831Y024001D01*
X035331Y022501D02*
X034581Y022001D01*
X032081Y022001D01*
X031331Y020876D01*
X031331Y021751D01*
X030581Y022126D01*
X029205Y022126D01*
X029080Y022001D01*
X029080Y021876D01*
X029080Y022001D02*
X029080Y022876D01*
X028332Y022876D02*
X028331Y023876D01*
X029831Y024751D02*
X030331Y023876D01*
X027706Y025625D02*
X027455Y025625D01*
X026456Y025501D01*
X028332Y021876D02*
X028331Y020876D01*
X027581Y019751D02*
X028832Y018750D01*
X028832Y016751D01*
X028832Y016221D01*
X029177Y015876D01*
X030331Y015876D01*
X032985Y015876D01*
X033235Y016126D01*
X031207Y016751D02*
X031206Y017626D01*
X031206Y019626D01*
X031581Y019751D01*
X032706Y020876D01*
X027331Y018001D02*
X026956Y018501D01*
X026331Y018876D01*
X025331Y019626D02*
X026206Y020126D01*
X025331Y019626D02*
X024956Y018751D01*
X027331Y018001D02*
X027331Y015876D01*
X029580Y016751D02*
X030331Y016876D01*
X031207Y016751D01*
X039927Y018488D02*
X041206Y018743D01*
X041206Y016758D01*
X042213Y019502D02*
X041206Y020758D01*
X041456Y022001D02*
X039706Y021876D01*
X039706Y022876D02*
X040581Y022877D01*
X042080Y022877D01*
X042331Y022501D01*
X043581Y022626D02*
X043581Y024001D01*
X044081Y024501D01*
X045081Y024501D01*
X045581Y024001D01*
X045581Y022626D01*
X044581Y022626D02*
X044581Y023501D01*
X043831Y025501D02*
X042581Y024751D01*
X041081Y024751D01*
X040581Y024752D01*
X039831Y024001D01*
X038831Y024002D01*
X038831Y024001D01*
X038831Y025001D02*
X040581Y025500D01*
X042331Y025501D01*
X043831Y025501D02*
X044581Y025501D01*
X041456Y024001D02*
X040581Y023625D01*
X043580Y021126D02*
X043581Y020250D01*
X043581Y019502D02*
X042213Y019502D01*
X043581Y019502D02*
X044456Y019502D01*
X012331Y018627D02*
X012331Y017750D01*
X012331Y017002D02*
X012331Y016125D01*
X012331Y015377D02*
X012331Y014500D01*
D35*
X012331Y013752D02*
X011880Y013752D01*
X011456Y014051D01*
X012331Y013752D02*
X013706Y013376D01*
X009706Y014876D02*
X009706Y016097D01*
X009449Y017104D01*
X012331Y019375D02*
X012330Y020013D01*
X012830Y020020D01*
X013706Y018476D01*
X012830Y020020D02*
X014456Y020251D01*
X012330Y020013D02*
X011456Y019951D01*
X009449Y020647D02*
X009449Y023507D01*
X008331Y024751D01*
X018706Y024502D02*
X019706Y024502D01*
X019706Y024001D01*
X020831Y022876D01*
X022207Y022876D01*
X024956Y023751D02*
X024956Y024751D01*
X025725Y025433D01*
X026456Y025501D01*
X024956Y024751D02*
X023831Y024501D01*
X024956Y023751D02*
X025211Y023246D01*
X025211Y021626D01*
X026581Y021626D01*
X027331Y020876D01*
X027331Y021502D01*
X027331Y020876D02*
X027581Y019751D01*
X027331Y020876D02*
X028331Y020876D01*
X029331Y020876D02*
X029331Y019876D01*
X030331Y018876D01*
X030331Y018001D01*
X032023Y017459D02*
X031955Y016751D01*
X032139Y018792D02*
X033235Y019275D01*
X031581Y019751D02*
X031206Y019751D01*
X030581Y020126D01*
X030331Y020876D01*
X027331Y022250D02*
X027331Y022876D01*
X028332Y022876D01*
X029831Y024751D02*
X030456Y025501D01*
X030956Y025626D01*
X034956Y025626D01*
X035831Y025001D01*
X034331Y023251D02*
X033705Y023251D01*
X032957Y023251D02*
X032331Y023251D01*
X038456Y022001D02*
X038456Y021001D01*
X038456Y019959D01*
X038832Y019458D01*
X039927Y018488D01*
X041206Y018743D02*
X042831Y018001D01*
X046081Y018001D01*
X046831Y018751D01*
X046831Y021376D01*
X045581Y022626D01*
X044581Y022626D02*
X044581Y021751D01*
X045581Y020751D01*
X045581Y019751D01*
X045332Y019502D01*
X044456Y019502D01*
X044456Y020250D02*
X043581Y020250D01*
X042832Y021126D02*
X041456Y022001D01*
X040080Y021627D02*
X040080Y020751D01*
X039332Y020751D02*
X038456Y021001D01*
X038456Y022001D02*
X038956Y022376D01*
X039706Y021876D02*
X040080Y021627D01*
X045331Y025501D02*
X046331Y024501D01*
X046831Y023251D01*
X048081Y022001D01*
X048081Y017751D01*
X045831Y015501D01*
X042831Y015501D01*
X041206Y014743D01*
X043698Y014633D01*
X044581Y013751D01*
X044581Y012876D01*
X048331Y011626D02*
X049456Y011626D01*
X049456Y012251D01*
X049456Y025251D02*
X049456Y026126D01*
X048206Y026126D01*
X045331Y025501D02*
X044581Y025501D01*
X025211Y021626D02*
X025211Y021256D01*
X024836Y020881D01*
X024081Y020126D01*
X023331Y019309D01*
X023094Y018228D01*
X022206Y020251D02*
X022206Y021252D01*
X022206Y020251D02*
X019831Y018001D01*
X019803Y016406D01*
X024206Y012251D02*
X025331Y012251D01*
X021830Y024501D02*
X021830Y025376D01*
X021082Y025376D02*
X020206Y025250D01*
X019706Y025250D01*
X018706Y025250D01*
X021082Y025376D02*
X021082Y024501D01*
D36*
X023094Y018228D02*
X021428Y016845D01*
X019803Y016406D02*
X019206Y016376D01*
X008331Y024751D02*
X006231Y024626D01*
X039927Y013763D02*
X040565Y012876D01*
X042581Y012876D01*
D37*
X006206Y011626D02*
X005331Y011626D01*
X005331Y012251D01*
X022206Y021252D02*
X023082Y021252D01*
X023831Y022001D01*
X023831Y022501D01*
X022955Y022876D01*
X022207Y022876D02*
X022206Y022000D01*
X033235Y016126D02*
X033831Y016126D01*
X034456Y016751D01*
X034456Y019876D01*
X035456Y021001D01*
X006331Y026126D02*
X005331Y026126D01*
X005331Y025501D01*
D38*
X022706Y025376D03*
X032706Y020876D03*
D39*
X026241Y017639D02*
X026331Y017158D01*
X026331Y015876D01*
X026331Y014501D01*
X026956Y013876D01*
X028456Y013876D01*
X029381Y014551D01*
X033235Y014551D01*
X033235Y012976D02*
X030410Y012855D01*
X029581Y012251D01*
X025331Y012251D01*
X024206Y012251D02*
X022956Y012251D01*
X022081Y014376D01*
X021206Y015001D01*
X020331Y015251D01*
X019803Y015778D01*
X019803Y016406D01*
X022956Y016251D02*
X024502Y013897D01*
X025331Y015876D02*
X024956Y016751D01*
X024956Y018751D01*
X023421Y016613D02*
X022956Y016251D01*
X011456Y014051D02*
X011456Y012876D01*
D40*
X006831Y013126D03*
X011831Y022001D03*
X047956Y024626D03*
X047956Y013126D03*
D41*
X011206Y012876D02*
X009706Y014751D01*
M02*
