G75*
G70*
%OFA0B0*%
%FSLAX24Y24*%
%IPPOS*%
%LPD*%
%AMOC8*
5,1,8,0,0,1.08239X$1,22.5*
%
%ADD10C,0.0060*%
%ADD11R,0.0256X0.0551*%
%ADD12C,0.0040*%
%ADD13R,0.0295X0.0571*%
%ADD14R,0.0551X0.0256*%
%ADD15C,0.0080*%
%ADD16R,0.0680X0.0220*%
%ADD17R,0.0620X0.0240*%
%ADD18R,0.0140X0.0560*%
%ADD19R,0.0740X0.0170*%
%ADD20R,0.0170X0.0740*%
%ADD21R,0.0560X0.0140*%
%ADD22R,0.0230X0.0720*%
D10*
X011456Y022915D02*
X011456Y023238D01*
X011956Y023238D02*
X011956Y022915D01*
X011956Y024540D02*
X011956Y024863D01*
X011456Y024863D02*
X011456Y024540D01*
X011456Y026165D02*
X011456Y026488D01*
X011956Y026488D02*
X011956Y026165D01*
X011956Y027790D02*
X011956Y028113D01*
X011456Y028113D02*
X011456Y027790D01*
X020331Y032171D02*
X020331Y032731D01*
X020831Y032731D02*
X020831Y032171D01*
X021206Y032171D02*
X021206Y032731D01*
X021706Y032731D02*
X021706Y032171D01*
X021831Y031106D02*
X021831Y030546D01*
X021456Y030546D02*
X021456Y031106D01*
X020956Y031106D02*
X020956Y030546D01*
X022331Y030546D02*
X022331Y031106D01*
X021706Y033796D02*
X021706Y034356D01*
X021206Y034356D02*
X021206Y033796D01*
X020831Y033796D02*
X020831Y034356D01*
X020331Y034356D02*
X020331Y033796D01*
X027920Y032326D02*
X028242Y032326D01*
X028242Y031826D02*
X027920Y031826D01*
X031146Y027846D02*
X031146Y026806D01*
X031766Y026806D02*
X031766Y027846D01*
X031361Y026076D02*
X030801Y026076D01*
X030801Y025576D02*
X031361Y025576D01*
X038920Y029701D02*
X039242Y029701D01*
X039242Y030201D02*
X038920Y030201D01*
X041331Y030290D02*
X041331Y030613D01*
X041831Y030613D02*
X041831Y030290D01*
X042256Y029281D02*
X043156Y029281D01*
X043156Y028621D02*
X042256Y028621D01*
X042931Y028151D02*
X043131Y028151D01*
X043531Y028151D02*
X043531Y027801D01*
X043401Y027801D01*
X043401Y028501D01*
X043531Y028501D01*
X043531Y028151D01*
X043781Y028151D01*
X043981Y028451D02*
X044281Y028451D01*
X044131Y028301D02*
X044131Y028601D01*
X044420Y028701D02*
X044742Y028701D01*
X044742Y029201D02*
X044420Y029201D01*
X041656Y024976D02*
X041656Y024776D01*
X041656Y024376D02*
X041306Y024376D01*
X041306Y024506D01*
X042006Y024506D01*
X042006Y024376D01*
X041656Y024376D01*
X041656Y024126D01*
X041956Y023926D02*
X041956Y023626D01*
X041806Y023776D02*
X042106Y023776D01*
X040206Y033665D02*
X040206Y033988D01*
X039706Y033988D02*
X039706Y033665D01*
D11*
X039369Y029951D03*
X038789Y029951D03*
X044289Y028951D03*
X044869Y028951D03*
X028369Y032076D03*
X027789Y032076D03*
D12*
X027931Y031336D02*
X028231Y031336D01*
X028221Y030816D02*
X027931Y030816D01*
X029714Y031673D02*
X029714Y031750D01*
X029791Y031826D01*
X029945Y031826D01*
X030021Y031903D01*
X030021Y031980D01*
X029945Y032057D01*
X029791Y032057D01*
X029714Y031980D01*
X029714Y031903D01*
X029791Y031826D01*
X029945Y031826D02*
X030021Y031750D01*
X030021Y031673D01*
X029945Y031596D01*
X029791Y031596D01*
X029714Y031673D01*
X030175Y031596D02*
X030328Y031750D01*
X030252Y031750D02*
X030482Y031750D01*
X030482Y031596D02*
X030482Y032057D01*
X030252Y032057D01*
X030175Y031980D01*
X030175Y031826D01*
X030252Y031750D01*
X030635Y031903D02*
X030635Y031980D01*
X030712Y032057D01*
X030865Y032057D01*
X030942Y031980D01*
X030635Y031903D02*
X030942Y031596D01*
X030635Y031596D01*
X025686Y031105D02*
X025609Y031182D01*
X025456Y031182D01*
X025379Y031105D01*
X025379Y031028D01*
X025686Y030721D01*
X025379Y030721D01*
X025226Y030798D02*
X025149Y030721D01*
X024995Y030721D01*
X024919Y030798D01*
X024765Y030798D02*
X024688Y030721D01*
X024535Y030721D01*
X024458Y030798D01*
X024458Y030875D01*
X024535Y030951D01*
X024765Y030951D01*
X024765Y030798D01*
X024765Y030951D02*
X024612Y031105D01*
X024458Y031182D01*
X024919Y031105D02*
X024995Y031182D01*
X025149Y031182D01*
X025226Y031105D01*
X025226Y030798D01*
X022061Y030869D02*
X021601Y030869D01*
X021601Y031022D02*
X021601Y030715D01*
X021533Y030693D02*
X021226Y030693D01*
X021456Y030693D02*
X021456Y030386D01*
X021533Y030386D02*
X021686Y030539D01*
X021533Y030693D01*
X021601Y030562D02*
X021754Y030408D01*
X021754Y030485D02*
X021754Y030255D01*
X021601Y030255D02*
X022061Y030255D01*
X022061Y030485D01*
X021985Y030562D01*
X021831Y030562D01*
X021754Y030485D01*
X021533Y030386D02*
X021226Y030386D01*
X021226Y030232D02*
X021226Y029925D01*
X021226Y029772D02*
X021379Y029619D01*
X021379Y029695D02*
X021379Y029465D01*
X021226Y029465D02*
X021686Y029465D01*
X021686Y029695D01*
X021610Y029772D01*
X021456Y029772D01*
X021379Y029695D01*
X021601Y029794D02*
X021908Y030101D01*
X021985Y030101D01*
X022061Y030024D01*
X022061Y029871D01*
X021985Y029794D01*
X021601Y029794D02*
X021601Y030101D01*
X021686Y030079D02*
X021226Y030079D01*
X021533Y029925D02*
X021686Y030079D01*
X021908Y030715D02*
X022061Y030869D01*
X021908Y031175D02*
X022061Y031329D01*
X021908Y031482D01*
X021601Y031482D01*
X021601Y031636D02*
X021601Y031943D01*
X021601Y031789D02*
X022061Y031789D01*
X021908Y031636D01*
X021831Y031482D02*
X021831Y031175D01*
X021908Y031175D02*
X021601Y031175D01*
X020936Y031846D02*
X020629Y031846D01*
X020476Y031846D02*
X020476Y032307D01*
X020245Y032307D01*
X020169Y032230D01*
X020169Y032076D01*
X020245Y032000D01*
X020476Y032000D01*
X020322Y032000D02*
X020169Y031846D01*
X020110Y031846D02*
X020186Y031923D01*
X020186Y032076D01*
X020110Y032153D01*
X020033Y032153D01*
X019726Y031846D01*
X019726Y032153D01*
X019601Y032169D02*
X019908Y032476D01*
X019985Y032476D01*
X020061Y032399D01*
X020061Y032246D01*
X019985Y032169D01*
X020015Y032153D02*
X019862Y032307D01*
X019862Y031846D01*
X020015Y031846D02*
X019708Y031846D01*
X019555Y031846D02*
X019555Y032153D01*
X019401Y032307D01*
X019248Y032153D01*
X019248Y031846D01*
X019094Y031923D02*
X019018Y031846D01*
X018864Y031846D01*
X018787Y031923D01*
X018787Y032000D01*
X018864Y032076D01*
X018941Y032076D01*
X018864Y032076D02*
X018787Y032153D01*
X018787Y032230D01*
X018864Y032307D01*
X019018Y032307D01*
X019094Y032230D01*
X019248Y032076D02*
X019555Y032076D01*
X019601Y032169D02*
X019601Y032476D01*
X019601Y032630D02*
X020061Y032630D01*
X020061Y032860D01*
X019985Y032937D01*
X019831Y032937D01*
X019754Y032860D01*
X019754Y032630D01*
X019726Y032614D02*
X019879Y032460D01*
X019879Y032537D02*
X019879Y032307D01*
X019726Y032307D02*
X020186Y032307D01*
X020186Y032537D01*
X020110Y032614D01*
X019956Y032614D01*
X019879Y032537D01*
X019754Y032783D02*
X019601Y032937D01*
X019726Y032920D02*
X020186Y032920D01*
X020033Y032767D01*
X019726Y032767D02*
X019726Y033074D01*
X019601Y033090D02*
X019601Y033397D01*
X019601Y033550D02*
X019908Y033550D01*
X020061Y033704D01*
X019908Y033857D01*
X019601Y033857D01*
X019726Y033995D02*
X019726Y033688D01*
X020033Y033995D01*
X020110Y033995D01*
X020186Y033918D01*
X020186Y033765D01*
X020110Y033688D01*
X020033Y033534D02*
X019726Y033534D01*
X019831Y033550D02*
X019831Y033857D01*
X019831Y034011D02*
X019831Y034318D01*
X019601Y034241D02*
X020061Y034241D01*
X019831Y034011D01*
X019956Y033534D02*
X019956Y033227D01*
X020033Y033227D02*
X020186Y033381D01*
X020033Y033534D01*
X020061Y033244D02*
X019601Y033244D01*
X019726Y033227D02*
X020033Y033227D01*
X020061Y033244D02*
X019908Y033090D01*
X020476Y034044D02*
X020783Y034351D01*
X020860Y034351D01*
X020936Y034274D01*
X020936Y034121D01*
X020860Y034044D01*
X020476Y034044D02*
X020476Y034351D01*
X020476Y034505D02*
X020936Y034505D01*
X020936Y034735D01*
X020860Y034812D01*
X020706Y034812D01*
X020629Y034735D01*
X020629Y034505D01*
X020629Y034658D02*
X020476Y034812D01*
X020476Y034965D02*
X020476Y035272D01*
X020476Y035425D02*
X020783Y035425D01*
X020936Y035579D01*
X020783Y035732D01*
X020476Y035732D01*
X020553Y035886D02*
X020476Y035963D01*
X020476Y036116D01*
X020553Y036193D01*
X020706Y036193D01*
X020783Y036116D01*
X020783Y036039D01*
X020706Y035886D01*
X020936Y035886D01*
X020936Y036193D01*
X020706Y035732D02*
X020706Y035425D01*
X020936Y035119D02*
X020476Y035119D01*
X020783Y034965D02*
X020936Y035119D01*
X020859Y032307D02*
X020706Y032307D01*
X020629Y032230D01*
X020629Y032153D01*
X020936Y031846D01*
X020936Y032230D02*
X020859Y032307D01*
X021226Y029312D02*
X021226Y029005D01*
X021533Y029312D01*
X021610Y029312D01*
X021686Y029235D01*
X021686Y029081D01*
X021610Y029005D01*
X028431Y025961D02*
X028731Y025961D01*
X028721Y025441D02*
X028431Y025441D01*
X028578Y024057D02*
X028578Y023596D01*
X028425Y023596D02*
X028732Y023596D01*
X028885Y023673D02*
X028962Y023596D01*
X029115Y023596D01*
X029192Y023673D01*
X029192Y023980D01*
X029115Y024057D01*
X028962Y024057D01*
X028885Y023980D01*
X028732Y023903D02*
X028578Y024057D01*
X028271Y023980D02*
X028195Y024057D01*
X028041Y024057D01*
X027964Y023980D01*
X027964Y023903D01*
X028271Y023596D01*
X027964Y023596D01*
X029346Y023596D02*
X029653Y023596D01*
X029346Y023903D01*
X029346Y023980D01*
X029422Y024057D01*
X029576Y024057D01*
X029653Y023980D01*
X030535Y024846D02*
X030535Y025307D01*
X030765Y025076D01*
X030458Y025076D01*
X030919Y025076D02*
X030995Y025000D01*
X031226Y025000D01*
X031226Y024846D02*
X031226Y025307D01*
X030995Y025307D01*
X030919Y025230D01*
X030919Y025076D01*
X031072Y025000D02*
X030919Y024846D01*
X031379Y024846D02*
X031686Y024846D01*
X031379Y025153D01*
X031379Y025230D01*
X031456Y025307D01*
X031609Y025307D01*
X031686Y025230D01*
X034176Y026246D02*
X034483Y026553D01*
X034560Y026553D01*
X034636Y026476D01*
X034636Y026323D01*
X034560Y026246D01*
X034176Y026246D02*
X034176Y026553D01*
X034329Y026707D02*
X034176Y026860D01*
X034329Y027014D01*
X034636Y027014D01*
X034636Y027167D02*
X034176Y027167D01*
X034176Y027397D01*
X034253Y027474D01*
X034560Y027474D01*
X034636Y027397D01*
X034636Y027167D01*
X034636Y026707D02*
X034329Y026707D01*
X034176Y027627D02*
X034176Y027934D01*
X034176Y027781D02*
X034636Y027781D01*
X034483Y027627D01*
X037748Y028923D02*
X037748Y029000D01*
X037825Y029076D01*
X038055Y029076D01*
X038055Y028923D01*
X037978Y028846D01*
X037825Y028846D01*
X037748Y028923D01*
X037901Y029230D02*
X038055Y029076D01*
X037901Y029230D02*
X037748Y029307D01*
X038362Y029307D02*
X038362Y028846D01*
X038515Y028846D02*
X038208Y028846D01*
X038515Y029153D02*
X038362Y029307D01*
X038669Y029230D02*
X038669Y029076D01*
X038745Y029000D01*
X038976Y029000D01*
X038976Y028846D02*
X038976Y029307D01*
X038745Y029307D01*
X038669Y029230D01*
X038822Y029000D02*
X038669Y028846D01*
X039129Y028846D02*
X039436Y028846D01*
X039129Y029153D01*
X039129Y029230D01*
X039206Y029307D01*
X039359Y029307D01*
X039436Y029230D01*
X040851Y031255D02*
X041158Y031562D01*
X041235Y031562D01*
X041311Y031485D01*
X041311Y031331D01*
X041235Y031255D01*
X040851Y031255D02*
X040851Y031562D01*
X040851Y031715D02*
X041311Y031715D01*
X041311Y031945D01*
X041235Y032022D01*
X041081Y032022D01*
X041004Y031945D01*
X041004Y031715D01*
X041004Y031869D02*
X040851Y032022D01*
X040851Y032175D02*
X040851Y032482D01*
X040851Y032329D02*
X041311Y032329D01*
X041158Y032175D01*
X041235Y032636D02*
X041311Y032713D01*
X041311Y032866D01*
X041235Y032943D01*
X041158Y032943D01*
X040851Y032636D01*
X040851Y032943D01*
X042291Y031432D02*
X042521Y031201D01*
X042214Y031201D01*
X042291Y030971D02*
X042291Y031432D01*
X042828Y031432D02*
X042828Y030971D01*
X042675Y030971D02*
X042982Y030971D01*
X043135Y030971D02*
X043289Y031125D01*
X043212Y031125D02*
X043442Y031125D01*
X043442Y030971D02*
X043442Y031432D01*
X043212Y031432D01*
X043135Y031355D01*
X043135Y031201D01*
X043212Y031125D01*
X042982Y031278D02*
X042828Y031432D01*
X043596Y031355D02*
X043672Y031432D01*
X043826Y031432D01*
X043903Y031355D01*
X043596Y031355D02*
X043596Y031278D01*
X043903Y030971D01*
X043596Y030971D01*
X044260Y030422D02*
X044377Y030363D01*
X044493Y030246D01*
X044318Y030246D01*
X044260Y030188D01*
X044260Y030130D01*
X044318Y030071D01*
X044435Y030071D01*
X044493Y030130D01*
X044493Y030246D01*
X044619Y030246D02*
X044677Y030188D01*
X044852Y030188D01*
X044736Y030188D02*
X044619Y030071D01*
X044619Y030246D02*
X044619Y030363D01*
X044677Y030422D01*
X044852Y030422D01*
X044852Y030071D01*
X044978Y030130D02*
X045036Y030071D01*
X045153Y030071D01*
X045212Y030130D01*
X045095Y030246D02*
X045036Y030246D01*
X044978Y030188D01*
X044978Y030130D01*
X045036Y030246D02*
X044978Y030305D01*
X044978Y030363D01*
X045036Y030422D01*
X045153Y030422D01*
X045212Y030363D01*
X044990Y028182D02*
X044837Y028182D01*
X044760Y028105D01*
X044760Y028028D01*
X044837Y027951D01*
X044760Y027875D01*
X044760Y027798D01*
X044837Y027721D01*
X044990Y027721D01*
X045067Y027798D01*
X044914Y027951D02*
X044837Y027951D01*
X044607Y027875D02*
X044377Y027875D01*
X044300Y027951D01*
X044300Y028105D01*
X044377Y028182D01*
X044607Y028182D01*
X044607Y027721D01*
X044453Y027875D02*
X044300Y027721D01*
X044146Y027721D02*
X044146Y027798D01*
X043839Y028105D01*
X043839Y028182D01*
X044146Y028182D01*
X044990Y028182D02*
X045067Y028105D01*
X013692Y023778D02*
X013539Y023932D01*
X013539Y023471D01*
X013692Y023471D02*
X013385Y023471D01*
X013232Y023471D02*
X013232Y023932D01*
X013002Y023932D01*
X012925Y023855D01*
X012925Y023701D01*
X013002Y023625D01*
X013232Y023625D01*
X013078Y023625D02*
X012925Y023471D01*
X012771Y023548D02*
X012695Y023471D01*
X012541Y023471D01*
X012464Y023548D01*
X012464Y023625D01*
X012541Y023701D01*
X012618Y023701D01*
X012541Y023701D02*
X012464Y023778D01*
X012464Y023855D01*
X012541Y023932D01*
X012695Y023932D01*
X012771Y023855D01*
X011061Y023971D02*
X010754Y023971D01*
X010601Y023971D02*
X010601Y024432D01*
X010370Y024432D01*
X010294Y024355D01*
X010294Y024201D01*
X010370Y024125D01*
X010601Y024125D01*
X010447Y024125D02*
X010294Y023971D01*
X010140Y024201D02*
X009833Y024201D01*
X009910Y023971D02*
X009910Y024432D01*
X010140Y024201D01*
X010908Y024432D02*
X010908Y023971D01*
X011061Y024278D02*
X010908Y024432D01*
X010908Y025721D02*
X010908Y026182D01*
X011061Y026028D01*
X011061Y025721D02*
X010754Y025721D01*
X010601Y025721D02*
X010601Y026182D01*
X010370Y026182D01*
X010294Y026105D01*
X010294Y025951D01*
X010370Y025875D01*
X010601Y025875D01*
X010447Y025875D02*
X010294Y025721D01*
X010140Y025721D02*
X009833Y026028D01*
X009833Y026105D01*
X009910Y026182D01*
X010063Y026182D01*
X010140Y026105D01*
X010140Y025721D02*
X009833Y025721D01*
X012339Y027846D02*
X012646Y027846D01*
X012493Y027846D02*
X012493Y028307D01*
X012646Y028153D01*
X012800Y028076D02*
X012877Y028000D01*
X013107Y028000D01*
X012953Y028000D02*
X012800Y027846D01*
X012800Y028076D02*
X012800Y028230D01*
X012877Y028307D01*
X013107Y028307D01*
X013107Y027846D01*
X013260Y027846D02*
X013567Y027846D01*
X013414Y027846D02*
X013414Y028307D01*
X013567Y028153D01*
D13*
X027793Y031077D03*
X028363Y031077D03*
X028293Y025702D03*
X028863Y025702D03*
D14*
X011707Y022784D03*
X011707Y023364D03*
X011705Y024413D03*
X011705Y024993D03*
X011707Y026034D03*
X011707Y026614D03*
X011705Y027663D03*
X011705Y028243D03*
X039955Y033538D03*
X039955Y034118D03*
X041580Y030743D03*
X041580Y030163D03*
D15*
X031692Y027573D02*
X031220Y027573D01*
X031456Y027179D01*
X031692Y027573D01*
D16*
X031456Y027946D03*
X031456Y026706D03*
D17*
X031456Y027106D03*
D18*
X031421Y025826D03*
X030741Y025826D03*
D19*
X041656Y024711D03*
D20*
X043196Y028151D03*
D21*
X022081Y030486D03*
X022081Y031166D03*
X021206Y031166D03*
X021206Y030486D03*
X021456Y032111D03*
X021456Y032791D03*
X020581Y032791D03*
X020581Y032111D03*
X020581Y033736D03*
X020581Y034416D03*
X021456Y034416D03*
X021456Y033736D03*
D22*
X042151Y028951D03*
X043261Y028951D03*
M02*
