G75*
G70*
%OFA0B0*%
%FSLAX24Y24*%
%IPPOS*%
%LPD*%
%AMOC8*
5,1,8,0,0,1.08239X$1,22.5*
%
%ADD10R,0.0872X0.0872*%
%ADD11OC8,0.0872*%
%ADD12C,0.0872*%
%ADD13R,0.0592X0.0671*%
%ADD14C,0.0174*%
%ADD15C,0.0872*%
%ADD16R,0.0671X0.0592*%
%ADD17C,0.0952*%
%ADD18OC8,0.0912*%
%ADD19R,0.0789X0.0631*%
%ADD20R,0.0592X0.0710*%
%ADD21C,0.1080*%
%ADD22C,0.0992*%
%ADD23C,0.1080*%
%ADD24OC8,0.0952*%
%ADD25C,0.0907*%
%ADD26C,0.1655*%
%ADD27C,0.1340*%
%ADD28C,0.1261*%
%ADD29R,0.0710X0.0592*%
%ADD30R,0.0710X0.0867*%
%ADD31C,0.0986*%
%ADD32C,0.2049*%
D10*
X029706Y026951D03*
X030706Y033076D03*
D11*
X029706Y033076D03*
X028706Y033076D03*
X027706Y033076D03*
X026706Y032076D03*
X025581Y033076D03*
X025831Y034951D03*
X023206Y033701D03*
X026706Y030076D03*
X027706Y030076D03*
X028706Y030076D03*
X030706Y030076D03*
X031706Y031951D03*
X033706Y031951D03*
X033206Y034076D03*
X029831Y034951D03*
X029206Y034076D03*
X025581Y029076D03*
X025706Y027826D03*
X029706Y027826D03*
X029706Y024576D03*
X038706Y031576D03*
X039456Y031076D03*
X039456Y032076D03*
X040706Y030951D03*
X040706Y029951D03*
X040706Y027951D03*
X042323Y027201D03*
X040706Y025584D03*
X040706Y034951D03*
D12*
X038998Y034201D02*
X038206Y034201D01*
X038206Y033201D02*
X038998Y033201D01*
X035206Y033201D02*
X034414Y033201D01*
X034414Y034201D02*
X035206Y034201D01*
X029706Y030472D02*
X029706Y029680D01*
X030935Y039701D02*
X031727Y039701D01*
X031727Y041701D02*
X030935Y041701D01*
D13*
X028455Y032076D03*
X027707Y032076D03*
X027707Y031076D03*
X028455Y031076D03*
X028207Y025701D03*
X028955Y025701D03*
X038707Y029951D03*
X039455Y029951D03*
X044207Y028951D03*
X044955Y028951D03*
D14*
X026242Y033525D02*
X026155Y033612D01*
X026444Y033622D01*
X026655Y033426D01*
X026665Y033137D01*
X026469Y032926D01*
X026180Y032916D01*
X025969Y033112D01*
X025959Y033401D01*
X026155Y033612D01*
X026214Y033483D01*
X026394Y033489D01*
X026526Y033367D01*
X026532Y033187D01*
X026410Y033055D01*
X026230Y033049D01*
X026098Y033171D01*
X026092Y033351D01*
X026214Y033483D01*
X026273Y033354D01*
X026345Y033357D01*
X026397Y033308D01*
X026400Y033236D01*
X026351Y033184D01*
X026279Y033181D01*
X026227Y033230D01*
X026224Y033302D01*
X026273Y033354D01*
X024780Y034889D02*
X024693Y034976D01*
X024982Y034986D01*
X025193Y034790D01*
X025203Y034501D01*
X025007Y034290D01*
X024718Y034280D01*
X024507Y034476D01*
X024497Y034765D01*
X024693Y034976D01*
X024752Y034847D01*
X024932Y034853D01*
X025064Y034731D01*
X025070Y034551D01*
X024948Y034419D01*
X024768Y034413D01*
X024636Y034535D01*
X024630Y034715D01*
X024752Y034847D01*
X024811Y034718D01*
X024883Y034721D01*
X024935Y034672D01*
X024938Y034600D01*
X024889Y034548D01*
X024817Y034545D01*
X024765Y034594D01*
X024762Y034666D01*
X024811Y034718D01*
X013744Y031607D02*
X013657Y031520D01*
X013582Y031799D01*
X013726Y032049D01*
X014005Y032124D01*
X014255Y031980D01*
X014330Y031701D01*
X014186Y031451D01*
X013907Y031376D01*
X013657Y031520D01*
X013770Y031607D01*
X013723Y031781D01*
X013813Y031936D01*
X013987Y031983D01*
X014142Y031893D01*
X014189Y031719D01*
X014099Y031564D01*
X013925Y031517D01*
X013770Y031607D01*
X013882Y031693D01*
X013863Y031762D01*
X013899Y031824D01*
X013968Y031843D01*
X014030Y031807D01*
X014049Y031738D01*
X014013Y031676D01*
X013944Y031657D01*
X013882Y031693D01*
X012244Y029009D02*
X012157Y028922D01*
X012082Y029201D01*
X012226Y029451D01*
X012505Y029526D01*
X012755Y029382D01*
X012830Y029103D01*
X012686Y028853D01*
X012407Y028778D01*
X012157Y028922D01*
X012270Y029009D01*
X012223Y029183D01*
X012313Y029338D01*
X012487Y029385D01*
X012642Y029295D01*
X012689Y029121D01*
X012599Y028966D01*
X012425Y028919D01*
X012270Y029009D01*
X012382Y029095D01*
X012363Y029164D01*
X012399Y029226D01*
X012468Y029245D01*
X012530Y029209D01*
X012549Y029140D01*
X012513Y029078D01*
X012444Y029059D01*
X012382Y029095D01*
X022183Y024785D02*
X022270Y024872D01*
X022171Y024601D01*
X021909Y024479D01*
X021638Y024578D01*
X021516Y024840D01*
X021615Y025111D01*
X021877Y025233D01*
X022148Y025134D01*
X022270Y024872D01*
X022128Y024866D01*
X022066Y024697D01*
X021903Y024621D01*
X021734Y024683D01*
X021658Y024846D01*
X021720Y025015D01*
X021883Y025091D01*
X022052Y025029D01*
X022128Y024866D01*
X021987Y024860D01*
X021962Y024793D01*
X021897Y024762D01*
X021830Y024787D01*
X021799Y024852D01*
X021824Y024919D01*
X021889Y024950D01*
X021956Y024925D01*
X021987Y024860D01*
X025809Y026475D02*
X025896Y026562D01*
X025797Y026291D01*
X025535Y026169D01*
X025264Y026268D01*
X025142Y026530D01*
X025241Y026801D01*
X025503Y026923D01*
X025774Y026824D01*
X025896Y026562D01*
X025754Y026556D01*
X025692Y026387D01*
X025529Y026311D01*
X025360Y026373D01*
X025284Y026536D01*
X025346Y026705D01*
X025509Y026781D01*
X025678Y026719D01*
X025754Y026556D01*
X025613Y026550D01*
X025588Y026483D01*
X025523Y026452D01*
X025456Y026477D01*
X025425Y026542D01*
X025450Y026609D01*
X025515Y026640D01*
X025582Y026615D01*
X025613Y026550D01*
D15*
X026706Y026951D03*
X026956Y028951D03*
X030956Y028951D03*
X029706Y025576D03*
X023206Y031701D03*
X040706Y023568D03*
X044339Y027201D03*
D16*
X041581Y030077D03*
X041581Y030825D03*
X039956Y033452D03*
X039956Y034200D03*
X011706Y028325D03*
X011706Y027577D03*
X011706Y026700D03*
X011706Y025952D03*
X011706Y025075D03*
X011706Y024327D03*
X011706Y023450D03*
X011706Y022702D03*
D17*
X024706Y024390D02*
X024706Y025262D01*
X025706Y025262D02*
X025706Y024390D01*
X026706Y024390D02*
X026706Y025262D01*
X042456Y022512D02*
X042456Y021640D01*
X043456Y021640D02*
X043456Y022512D01*
X044456Y022512D02*
X044456Y021640D01*
X046145Y029451D02*
X047017Y029451D01*
X047017Y030451D02*
X046145Y030451D01*
X046145Y031451D02*
X047017Y031451D01*
D18*
X037956Y029951D03*
X034956Y029951D03*
X024331Y027701D03*
X022331Y023826D03*
X022331Y020826D03*
X024331Y033701D03*
D19*
X031456Y027996D03*
X031456Y026657D03*
D20*
X031455Y025826D03*
X030707Y025826D03*
D21*
X013806Y033201D02*
X013806Y034201D01*
X011806Y034201D02*
X011806Y033201D01*
X007606Y033201D02*
X007606Y034201D01*
X005606Y034201D02*
X005606Y033201D01*
D22*
X018581Y020951D03*
X019609Y020982D03*
X020303Y024921D03*
X020303Y025857D03*
X018581Y025826D03*
X018581Y024951D03*
X018581Y029826D03*
X019609Y029796D03*
D23*
X016956Y026951D03*
X012956Y026951D03*
X012956Y021951D03*
X016956Y021951D03*
D24*
X010706Y023001D03*
X010706Y028901D03*
X024706Y021951D03*
X030706Y021951D03*
X037581Y006576D03*
X037581Y000576D03*
D25*
X045296Y026938D03*
X048116Y027964D03*
D26*
X008574Y029598D03*
X006606Y031370D03*
X008574Y026055D03*
X006606Y024283D03*
D27*
X006606Y025267D03*
X006606Y030385D03*
D28*
X006606Y030385D03*
X006606Y025267D03*
X032610Y024826D03*
X032610Y023251D03*
X032610Y021677D03*
X032610Y026401D03*
X032610Y027976D03*
X039302Y027188D03*
X039302Y025614D03*
X039302Y024039D03*
X039302Y022464D03*
D29*
X022081Y030452D03*
X022081Y031200D03*
X021206Y031200D03*
X021206Y030452D03*
X021456Y032077D03*
X021456Y032825D03*
X020581Y032825D03*
X020581Y032077D03*
X020581Y033702D03*
X020581Y034450D03*
X021456Y034450D03*
X021456Y033702D03*
D30*
X042155Y028951D03*
X043257Y028951D03*
D31*
X032456Y029576D03*
X022331Y034826D03*
D32*
X010706Y030951D03*
X007456Y021451D03*
X047456Y021451D03*
X047456Y034201D03*
M02*
